<svg id="b228504a-fb26-43f2-b3b2-4ecfce37b282" data-name="Layer 1" xmlns="http://www.w3.org/2000/svg" viewBox="0 0 30.3 30.33"><path d="M13.23,10.84A4.81,4.81,0,1,1,18,15.67,4.82,4.82,0,0,1,13.23,10.84Zm8.37,5.35a6.41,6.41,0,1,0-7.12,0A13.6,13.6,0,0,0,5.2,29.34a.8.8,0,1,0,1.6,0c0-6.71,5.08-12.07,11.23-12.07s11.23,5.35,11.23,12.07a.8.8,0,1,0,1.6,0A13.56,13.56,0,0,0,21.6,16.19Z" transform="translate(-5.2 -4.4)" style="fill:current;fill-rule:evenodd"/><circle cx="22.84" cy="22.87" r="7.46" style="fill:current"/><path d="M31.21,25.57l-3.88,3.89a.38.38,0,0,1-.54,0l-1.93-1.94a.2.2,0,0,1,0-.27l.27-.27a.2.2,0,0,1,.27,0l1.53,1.54a.2.2,0,0,0,.27,0L30.67,25a.2.2,0,0,1,.27,0l.27.27A.18.18,0,0,1,31.21,25.57Z" transform="translate(-5.2 -4.4)" style="fill:#fff"/></svg>