<?xml version="1.0" encoding="UTF-8"?><svg id="uuid-38797d6a-b20b-48af-afed-f511bcc751cf" xmlns="http://www.w3.org/2000/svg" viewBox="0 0 200 200"><path d="M69.44,95.04c21.17,0,38.39-17.22,38.39-38.39s-17.22-38.39-38.39-38.39S31.05,35.49,31.05,56.66s17.22,38.39,38.39,38.39Z"/><path d="M69.44,106.54C34.21,106.54,4.4,132.87,.09,167.78c-.44,3.53,.67,7.09,3.03,9.76,2.36,2.66,5.75,4.19,9.3,4.19H126.45c3.55,0,6.94-1.53,9.3-4.19,2.36-2.67,3.46-6.23,3.03-9.76-4.31-34.91-34.12-61.23-69.34-61.23Z"/><path d="M150.94,98.41c15.74,0,28.54-12.8,28.54-28.54s-12.8-28.54-28.54-28.54-28.54,12.8-28.54,28.54,12.8,28.54,28.54,28.54Z"/><path d="M199.77,147.38c-4.54-23.29-25.07-40.21-48.83-40.21-9.66,0-19.03,2.83-26.97,7.99-.94,.61-1.02,1.94-.21,2.71,11.66,11.13,20.44,25.91,25,43.06,.2,.76,.88,1.29,1.67,1.29h37.15c3.73,0,7.21-1.63,9.57-4.51,2.39-2.88,3.33-6.64,2.62-10.32Z"/></svg>