<?xml version="1.0" encoding="UTF-8"?><svg id="uuid-9ec3af65-5bf6-4943-b27d-ea23252f4ad7" xmlns="http://www.w3.org/2000/svg" viewBox="0 0 200 200"><path d="M173.63,57.65c-14.54,0-26.37,11.83-26.37,26.37v89.51c0,14.54,11.83,26.37,26.37,26.37s26.37-11.83,26.37-26.37V84.02c0-14.54-11.83-26.37-26.37-26.37Zm13.52,115.88c0,7.46-6.07,13.52-13.52,13.52s-13.52-6.07-13.52-13.52V84.02c0-7.46,6.07-13.53,13.52-13.53s13.52,6.07,13.52,13.53v89.51Z"/><path d="M100,.09c-14.54,0-26.37,11.83-26.37,26.37V173.54c0,14.54,11.83,26.37,26.37,26.37s26.37-11.83,26.37-26.37V26.46C126.37,11.92,114.54,.09,100,.09Zm13.52,173.45c0,7.46-6.07,13.52-13.52,13.52s-13.53-6.07-13.53-13.52V26.46c0-7.46,6.07-13.53,13.53-13.53s13.52,6.07,13.52,13.53V173.54Z"/><path d="M26.37,115.84c-14.54,0-26.37,11.83-26.37,26.37v31.33c0,14.54,11.83,26.37,26.37,26.37s26.37-11.83,26.37-26.37v-31.33c0-14.54-11.83-26.37-26.37-26.37Zm13.52,57.7c0,7.46-6.07,13.52-13.52,13.52s-13.52-6.07-13.52-13.52v-31.33c0-7.46,6.07-13.52,13.52-13.52s13.52,6.07,13.52,13.52v31.33Z"/></svg>