<?xml version="1.0" encoding="UTF-8"?><svg id="uuid-62634246-3fce-43db-b796-aeddcea0ce1a" xmlns="http://www.w3.org/2000/svg" viewBox="0 0 200 200"><path d="M73.39,95.57c22.56,0,40.91-18.35,40.91-40.91S95.95,13.75,73.39,13.75s-40.91,18.35-40.91,40.91,18.35,40.91,40.91,40.91Z"/><path d="M110.17,117.85c-.52-1.58-1.64-2.9-3.12-3.66-10.34-5.3-21.97-8.1-33.66-8.1C36.16,106.09,4.66,133.91,.1,170.81c-.48,3.91,.74,7.85,3.35,10.8,2.61,2.95,6.36,4.64,10.29,4.64H109.68c2.25,0,4.33-1.2,5.46-3.14,1.13-1.95,1.14-4.34,.02-6.3-9.41-16.49,1-28.58,1.41-29.05,1.54-1.68,2.05-4.06,1.34-6.22l-7.75-23.69Z"/><path d="M183.89,145.35h-49.05c-8.88,0-16.11,7.23-16.11,16.12s7.23,16.11,16.11,16.11h49.05c8.89,0,16.11-7.23,16.11-16.11s-7.23-16.12-16.11-16.12Z"/><path d="M125.03,140.78c.2,.6,.87,.87,1.45,.63,1.57-.67,3.22-1.14,4.93-1.42,1.12-.2,2.27-.28,3.45-.28h49c1.18,0,2.3,.08,3.42,.28,1.73,.27,3.39,.75,4.96,1.42,.58,.25,1.25-.03,1.45-.63l4.76-14.07c2.75-8.17,1.18-17.06-4.24-23.8l-27.23-33.89c-.44-.55-1.32-.24-1.32,.46v42.49c0,3.76-2.83,6.82-6.31,6.82s-6.31-3.06-6.31-6.82v-42.52c0-.7-.88-1.01-1.32-.46l-27.22,33.92c-5.42,6.74-6.99,15.63-4.24,23.8l4.76,14.07Z"/></svg>