<?xml version="1.0" encoding="UTF-8"?><svg id="uuid-f703b575-b783-4cc3-92fc-6cc9831f1bcc" xmlns="http://www.w3.org/2000/svg" viewBox="0 0 200 200"><path d="M166.47,44.82c-11.64,0-21.74,6.68-26.71,16.4l-49.12-12.82c.17-1.55,.26-3.11,.26-4.7C90.91,19.6,71.31,0,47.22,0S3.52,19.6,3.52,43.69s19.6,43.69,43.7,43.69c3.8,0,7.47-.54,10.98-1.45l18.22,42.85c-10.72,6.88-17.86,18.88-17.86,32.54,0,21.32,17.35,38.68,38.68,38.68s38.68-17.35,38.68-38.68c0-9.88-3.75-18.87-9.87-25.71l27.15-33.92c4.01,1.99,8.51,3.14,13.28,3.14,16.55,0,30.01-13.46,30.01-30.01s-13.46-30-30.01-30Zm-150.11-1.13c0-17.01,13.84-30.85,30.86-30.85s30.85,13.84,30.85,30.85-13.84,30.85-30.85,30.85-30.86-13.84-30.86-30.85Zm53.65,37.21c7.68-4.72,13.82-11.72,17.4-20.08l49.12,12.82c-.02,.4-.06,.78-.06,1.18,0,7.14,2.51,13.69,6.69,18.85l-27.12,33.88c-5.57-3.12-11.98-4.91-18.81-4.91-3.1,0-6.11,.41-9,1.1l-18.22-42.85Zm27.22,106.26c-14.25,0-25.84-11.59-25.84-25.84s11.59-25.84,25.84-25.84,25.84,11.59,25.84,25.84-11.59,25.84-25.84,25.84Zm69.25-95.17c-9.47,0-17.17-7.7-17.17-17.17s7.7-17.16,17.17-17.16,17.17,7.7,17.17,17.16-7.7,17.17-17.17,17.17Z"/></svg>