<?xml version="1.0" encoding="UTF-8"?><svg id="uuid-66e0228a-25fc-4f13-b046-bdff1464a20b" xmlns="http://www.w3.org/2000/svg" viewBox="0 0 200 200"><path d="M69.44,95.04c21.17,0,38.39-17.22,38.39-38.39s-17.22-38.39-38.39-38.39S31.05,35.49,31.05,56.65s17.22,38.39,38.39,38.39Zm0-66.14c15.3,0,27.76,12.45,27.76,27.76s-12.45,27.76-27.76,27.76-27.76-12.45-27.76-27.76,12.45-27.76,27.76-27.76Z"/><path d="M199.77,147.37c-4.52-23.3-25.06-40.21-48.82-40.21-13.85,0-27.09,5.85-36.44,15.89-12.24-10.33-28.01-16.51-45.07-16.51C34.21,106.54,4.4,132.87,.09,167.78c-.44,3.53,.67,7.09,3.03,9.76,2.36,2.66,5.74,4.19,9.3,4.19H126.45c3.55,0,6.94-1.53,9.3-4.19,2.36-2.67,3.46-6.23,3.03-9.76-.23-1.88-.55-3.73-.93-5.56h49.74c3.71,0,7.19-1.64,9.55-4.51,2.38-2.89,3.34-6.65,2.62-10.34Zm-71.98,23.12c-.2,.23-.64,.6-1.34,.6H12.42c-.69,0-1.13-.38-1.33-.6s-.53-.72-.44-1.42c3.65-29.59,28.92-51.9,58.79-51.9s55.14,22.31,58.79,51.91c.09,.7-.24,1.19-.44,1.41Zm61.16-19.55c-.24,.29-.67,.64-1.35,.64h-52.83c-2.97-7.81-7.28-14.92-12.66-21.08,7.37-8.03,17.86-12.72,28.84-12.72,18.69,0,34.83,13.29,38.39,31.6,.15,.76-.18,1.3-.39,1.55Z"/><path d="M150.94,98.41c15.74,0,28.54-12.8,28.54-28.54s-12.8-28.54-28.54-28.54-28.54,12.8-28.54,28.54,12.8,28.54,28.54,28.54Zm0-46.45c9.88,0,17.91,8.04,17.91,17.91s-8.03,17.91-17.91,17.91-17.91-8.03-17.91-17.91,8.04-17.91,17.91-17.91Z"/></svg>