<?xml version="1.0" encoding="UTF-8"?><svg id="uuid-932761d4-f9b9-43f6-aba9-9d5470bf08db" xmlns="http://www.w3.org/2000/svg" viewBox="0 0 200 200"><path d="M73.39,95.57c22.56,0,40.91-18.35,40.91-40.91S95.95,13.75,73.39,13.75s-40.91,18.35-40.91,40.91,18.35,40.91,40.91,40.91Zm0-69.19c15.59,0,28.28,12.69,28.28,28.28s-12.69,28.28-28.28,28.28-28.28-12.69-28.28-28.28,12.69-28.28,28.28-28.28Z"/><path d="M109.68,173.62H13.75c-.41,0-.68-.21-.83-.38-.15-.17-.33-.47-.28-.89,3.77-30.58,29.89-53.64,60.75-53.64,9.83,0,19.21,2.26,27.89,6.71,3.11,1.6,6.91,.36,8.5-2.74,1.59-3.11,.37-6.91-2.74-8.5-10.33-5.3-21.97-8.1-33.66-8.1C36.16,106.09,4.65,133.91,.1,170.81c-.48,3.91,.74,7.85,3.35,10.8,2.61,2.95,6.36,4.64,10.29,4.64H109.68c3.49,0,6.31-2.83,6.31-6.31s-2.83-6.31-6.31-6.31Z"/><path d="M191.51,147.28l6.94-20.57c2.76-8.18,1.18-17.07-4.22-23.8l-29.94-37.26s-.02-.02-.03-.03c-.13-.16-.29-.29-.43-.44-.16-.16-.32-.34-.49-.48,0,0-.01-.01-.02-.02-.09-.07-.19-.12-.28-.18-.24-.18-.49-.35-.75-.49-.15-.08-.31-.13-.47-.2-.22-.09-.43-.19-.66-.26-.19-.06-.39-.08-.59-.12-.2-.04-.4-.09-.6-.11-.2-.02-.4,0-.61,0s-.4-.01-.61,0c-.2,.02-.4,.07-.6,.11-.2,.04-.39,.06-.59,.12-.23,.07-.44,.17-.66,.26-.16,.07-.32,.12-.47,.2-.27,.14-.52,.32-.76,.5-.09,.06-.18,.1-.26,.17,0,0-.01,.01-.02,.02-.18,.15-.33,.32-.5,.49-.14,.14-.3,.28-.42,.43,0,0-.02,.02-.03,.03l-29.94,37.26c-5.41,6.73-6.98,15.63-4.22,23.8l6.94,20.57c-5.05,2.72-8.49,8.06-8.49,14.19,0,8.89,7.23,16.11,16.11,16.11h49.05c8.88,0,16.11-7.23,16.11-16.11,0-6.13-3.44-11.47-8.49-14.19Zm-57.17-36.46l18.7-23.28v24.93c0,3.49,2.83,6.31,6.31,6.31s6.31-2.83,6.31-6.31v-24.93l18.7,23.28c2.69,3.35,3.48,7.78,2.1,11.85l-7.66,22.68h-38.94l-7.66-22.68c-1.37-4.07-.59-8.5,2.1-11.85Zm49.54,54.13h-49.05c-1.92,0-3.48-1.56-3.48-3.48s1.56-3.49,3.48-3.49h49.05c1.92,0,3.48,1.57,3.48,3.49s-1.56,3.48-3.48,3.48Z"/></svg>