<?xml version="1.0" encoding="UTF-8"?><svg id="uuid-fcba1281-faee-4f23-8501-288a08e11753" xmlns="http://www.w3.org/2000/svg" viewBox="0 0 200 200"><path d="M173.63,57.65c-14.54,0-26.37,11.83-26.37,26.37v89.51c0,14.54,11.83,26.37,26.37,26.37s26.37-11.83,26.37-26.37V84.02c0-14.54-11.83-26.37-26.37-26.37Z"/><path d="M100,.09c-14.54,0-26.37,11.83-26.37,26.37V173.54c0,14.54,11.83,26.37,26.37,26.37s26.37-11.83,26.37-26.37V26.46C126.37,11.92,114.54,.09,100,.09Z"/><path d="M26.37,115.84c-14.54,0-26.37,11.83-26.37,26.37v31.33c0,14.54,11.83,26.37,26.37,26.37s26.37-11.83,26.37-26.37v-31.33c0-14.54-11.83-26.37-26.37-26.37Z"/></svg>