<svg viewBox="0 0 153.13 262" opacity="0.05">
   <g class="colored">
      <path d="M110.9,79.26,78.27,48.39A18.55,18.55,0,0,0,65.48,43.3H3.36A18.63,18.63,0,0,0-15.25,61.91V198A18.64,18.64,0,0,0,3.36,216.57H98.11A18.64,18.64,0,0,0,116.72,198V92.78A18.69,18.69,0,0,0,110.9,79.26ZM101,83.91H75.78a1.7,1.7,0,0,1-1.7-1.69V58.41Zm-2.93,122.5H3.36A8.46,8.46,0,0,1-5.1,198v-136a8.47,8.47,0,0,1,8.46-8.46H63.93V82.22A11.86,11.86,0,0,0,75.78,94.06h30.79V198A8.46,8.46,0,0,1,98.11,206.41Z" />
      <path d="M86.94,111H12.49a5.08,5.08,0,0,0,0,10.16H86.94a5.08,5.08,0,0,0,0-10.16Z" />
      <path d="M86.94,138.06H12.49a5.08,5.08,0,0,0,0,10.15H86.94a5.08,5.08,0,1,0,0-10.15Z" />
      <path d="M37.1,165.13H12.49a5.08,5.08,0,0,0,0,10.15H37.1a5.08,5.08,0,1,0,0-10.15Z" />
   </g>
</svg>