<svg xmlns="http://www.w3.org/2000/svg" id="abf15888-12d7-4878-9d61-29066699b74d" data-name="Layer 1" version="1.1" viewBox="0 0 549.72 262"><defs id="defs16"><clipPath id="f551922e-d4a5-4503-b7a0-e38027aa5a76"><path id="rect4" d="M0 0h549.72v262H0z" class="b05747b9-4ff0-4154-8894-972301284808"/></clipPath><clipPath id="b9a489a3-c271-4f37-b777-429c83fa2727"><path id="path7" d="M635.28 165.56c0 105.24-85.32 190.56-190.56 190.56-48.12 0-417.86-1.88-439.27-41-29.32-53.6.24-118.31 111.44-133.1C327.47 154 234.3 3.16 434.35-25c104.22-14.67 200.93 85.32 200.93 190.56Z" class="b05747b9-4ff0-4154-8894-972301284808"/></clipPath><clipPath id="b3640c1a-c998-492a-a276-d3aecd8b86ee"><path id="rect10" d="M-989.33 0h153.13v262h-153.13z" class="b05747b9-4ff0-4154-8894-972301284808"/></clipPath><clipPath id="ae49a10a-3fc2-416f-8411-a7ae312ddf87"><path id="path13" d="M764.5 165.56c0 105.24-85.32 190.56-190.56 190.56-48.12 0-417.86-1.88-439.27-41-29.32-53.6.24-118.31 111.43-133.1C456.69 154 363.52 3.16 563.57-25 667.79-39.67 764.5 60.32 764.5 165.56Z" class="b05747b9-4ff0-4154-8894-972301284808"/></clipPath><style id="style2">.b05747b9-4ff0-4154-8894-972301284808{fill:none}.e1b1a4cc-85a6-47f2-895d-6dce44cab070{opacity:.5}</style></defs><g id="g184" clip-path="url(#f551922e-d4a5-4503-b7a0-e38027aa5a76)" style="clip-path:url(#f551922e-d4a5-4503-b7a0-e38027aa5a76)"><path id="path18" d="M639.49 164c0 105.24-85.31 190.56-190.56 190.56-48.12 0-417.86-1.88-439.27-41-29.31-53.59.24-118.31 111.44-133.09 210.59-28 117.41-178.85 317.46-207C542.78-41.23 639.49 58.75 639.49 164Z" class="colored" style="opacity:.1"/><g id="g182" clip-path="url(#b9a489a3-c271-4f37-b777-429c83fa2727)" style="clip-path:url(#b9a489a3-c271-4f37-b777-429c83fa2727)"><g id="g110" class="e1b1a4cc-85a6-47f2-895d-6dce44cab070"><path id="path20" d="M304.07-9.49a11.85 11.85 0 0 0-14.68 17.67l-1.06 2.21a1.23 1.23 0 0 0 .59 1.64l7.9 3.78a1.24 1.24 0 0 0 1.65-.59l1-2.2a11.92 11.92 0 0 0 10.19-6.72 11.86 11.86 0 0 0-5.59-15.79Zm-5.31 20.05a1.25 1.25 0 0 0-1.14.71l-.85 1.78-5.68-2.71.85-1.79a1.22 1.22 0 0 0-.16-1.32 9.44 9.44 0 0 1-1.28-10.07A9.4 9.4 0 0 1 303-7.27a9.4 9.4 0 0 1 4.42 12.51 9.42 9.42 0 0 1-8.66 5.32Z" class="colored"/><path id="path22" d="m295.26 16.88-6.16-2.94a1.24 1.24 0 1 0-1.1 2.23l6.17 2.94a1.23 1.23 0 0 0 1.06-2.23Z" class="colored"/><path id="path24" d="m291.72 19.71-2.6-1.24a1.22 1.22 0 0 0-1.64.58 1.24 1.24 0 0 0 .58 1.64l2.6 1.24a1.23 1.23 0 1 0 1.06-2.22Z" class="colored"/><path id="path26" d="M545.91-10.18a11.86 11.86 0 0 0-7.22 15.11 11.92 11.92 0 0 0 9.31 7.76l.81 2.31a1.24 1.24 0 0 0 1.58.75l8.26-2.92a1.23 1.23 0 0 0 .75-1.57L558.61 9A11.88 11.88 0 0 0 561-3a11.86 11.86 0 0 0-15.09-7.18Zm10.43 17.94a1.23 1.23 0 0 0-.31 1.3l.66 1.86-5.93 2.08-.66-1.87a1.22 1.22 0 0 0-1.05-.81 9.45 9.45 0 0 1-8-6.23 9.38 9.38 0 1 1 17.65-6.23 9.42 9.42 0 0 1-2.36 9.9Z" class="colored"/><path id="path28" d="M532.35 177.59a11.85 11.85 0 0 0 2.11 22.88l.82 2.31a1.23 1.23 0 0 0 1.57.75l8.26-2.92a1.24 1.24 0 0 0 .75-1.58l-.81-2.3a11.84 11.84 0 0 0-12.7-19.14Zm10.42 17.94a1.25 1.25 0 0 0-.3 1.3l.66 1.86-5.94 2.1-.66-1.86a1.25 1.25 0 0 0-1-.82 9.4 9.4 0 1 1 7.29-2.58Z" class="colored"/><path id="path30" d="m544.77 202.48-6.44 2.27a1.24 1.24 0 0 0 .82 2.33l6.44-2.28a1.23 1.23 0 0 0-.82-2.32Z" class="colored"/><path id="path32" d="m544.26 207-2.71 1a1.24 1.24 0 0 0 .82 2.33l2.72-1a1.24 1.24 0 0 0-.83-2.33Z" class="colored"/><path id="path34" d="M430.45 82.25a11.85 11.85 0 0 0-14.69 17.67l-1.05 2.21a1.23 1.23 0 0 0 .58 1.65l7.91 3.77a1.22 1.22 0 0 0 1.64-.58l1.05-2.21a11.84 11.84 0 0 0 4.56-22.51Zm-5.32 20.06a1.23 1.23 0 0 0-1.13.7l-.86 1.78-5.67-2.71.85-1.78a1.25 1.25 0 0 0-.17-1.32 9.4 9.4 0 1 1 7 3.33Z" class="colored"/><path id="path36" d="m421.63 108.63-6.16-2.94a1.23 1.23 0 1 0-1.06 2.22l6.16 3a1.23 1.23 0 0 0 1.64-.59 1.22 1.22 0 0 0-.58-1.69Z" class="colored"/><path id="path38" d="m418.1 111.45-2.6-1.24a1.24 1.24 0 0 0-1.07 2.23l2.6 1.24a1.24 1.24 0 0 0 1.07-2.23Z" class="colored"/><path id="path40" d="M316.57 177.57a11.85 11.85 0 0 0-14.69 17.67l-1.05 2.21a1.23 1.23 0 0 0 .58 1.64l7.91 3.78a1.24 1.24 0 0 0 1.64-.58l1.05-2.21a11.84 11.84 0 0 0 4.56-22.51Zm-5.32 20.06a1.22 1.22 0 0 0-1.13.7l-.85 1.78-5.68-2.71.85-1.78a1.24 1.24 0 0 0-.17-1.33 9.39 9.39 0 1 1 7 3.34Z" class="colored"/><path id="path42" d="m307.75 203.94-6.16-2.94a1.23 1.23 0 0 0-1.06 2.23l6.16 2.94a1.23 1.23 0 0 0 1.06-2.23Z" class="colored"/><path id="path44" d="m304.22 206.77-2.6-1.24a1.23 1.23 0 1 0-1.06 2.22l2.59 1.25a1.24 1.24 0 0 0 1.07-2.23Z" class="colored"/><circle id="circle46" cx="288.93" cy="232.18" r="2.77" class="colored"/><circle id="circle48" cx="272.95" cy="48.38" r="2.77" class="colored"/><circle id="circle50" cx="484.86" cy="141.26" r="2.77" class="colored"/><path id="path52" d="M363.86 122.82a4.82 4.82 0 1 1 4.82-4.82 4.82 4.82 0 0 1-4.82 4.82Zm0-7.84a3 3 0 1 0 3 3 3 3 0 0 0-3-2.98Z" class="colored"/><path id="path54" d="M487.63 228.84a4.82 4.82 0 1 1 4.82-4.82 4.83 4.83 0 0 1-4.82 4.82Zm0-7.84a3 3 0 1 0 3 3 3 3 0 0 0-3-3Z" class="colored"/><path id="path56" d="M275.72 162.85a4.82 4.82 0 1 1 4.82-4.81 4.82 4.82 0 0 1-4.82 4.81Zm0-7.84a3 3 0 1 0 3 3 3 3 0 0 0-3-3.01Z" class="colored"/><rect id="rect58" width="11.01" height="2.51" x="486.41" y="15.85" class="colored" rx="1.2" transform="rotate(39.01 491.91 17.113)"/><rect id="rect60" width="11.01" height="2.51" x="464.16" y="156.53" class="colored" rx="1.2" transform="rotate(39.01 469.657 157.777)"/><rect id="rect62" width="11.01" height="2.51" x="479.36" y="247.81" class="colored" rx="1.2" transform="rotate(129.01 484.856 249.06)"/><rect id="rect64" width="11.01" height="2.51" x="260.12" y="260.27" class="colored" rx="1.2" transform="rotate(39.01 265.625 261.52)"/><path id="path66" d="M373.73 7.85a.94.94 0 0 1 0-1.63l2.48-1.44 2.48-1.43a.94.94 0 0 1 1.41.81V9.9a.94.94 0 0 1-1.41.81l-2.48-1.43Z" class="colored"/><path id="path68" d="M468 70.68a.94.94 0 0 1 0-1.63l2.48-1.44 2.52-1.43a.94.94 0 0 1 1.41.81v5.74a.94.94 0 0 1-1.41.81l-2.49-1.43Z" class="colored"/><path id="path70" d="M267.74 132.14a.94.94 0 0 1-1.15-1.15l.74-2.77.75-2.77a.94.94 0 0 1 1.57-.42l2 2 2 2a.93.93 0 0 1-.42 1.57l-2.77.74Z" class="colored"/><path id="path72" d="m378.46 44.35.77 1.56a.83.83 0 0 0 .62.45l1.73.25A.83.83 0 0 1 382 48l-1.25 1.22a.8.8 0 0 0-.24.73l.3 1.72a.83.83 0 0 1-1.2.87l-1.55-.82a.85.85 0 0 0-.76 0l-1.55.82a.82.82 0 0 1-1.19-.87l.29-1.72a.8.8 0 0 0-.24-.73L373.4 48a.83.83 0 0 1 .46-1.41l1.73-.25a.83.83 0 0 0 .62-.45l.77-1.56a.82.82 0 0 1 1.48.02Z" class="colored"/><path id="path74" d="m376.32 143.59.77 1.56a.78.78 0 0 0 .62.45l1.73.26a.82.82 0 0 1 .46 1.4l-1.25 1.22a.8.8 0 0 0-.24.73l.29 1.72a.82.82 0 0 1-1.19.87L376 151a.79.79 0 0 0-.76 0l-1.55.81a.83.83 0 0 1-1.2-.87l.3-1.72a.8.8 0 0 0-.24-.73l-1.25-1.22a.82.82 0 0 1 .46-1.4l1.73-.26a.78.78 0 0 0 .62-.45l.77-1.56a.83.83 0 0 1 1.44-.01Z" class="colored"/><path id="path76" d="m358.47 225 .77 1.57a.83.83 0 0 0 .62.45l1.73.25a.82.82 0 0 1 .46 1.4l-1.25 1.22a.81.81 0 0 0-.24.73l.29 1.72a.82.82 0 0 1-1.19.87l-1.55-.81a.79.79 0 0 0-.76 0l-1.55.81a.83.83 0 0 1-1.2-.87l.3-1.72a.81.81 0 0 0-.24-.73l-1.25-1.22a.82.82 0 0 1 .46-1.4l1.73-.25a.83.83 0 0 0 .62-.45L357 225a.83.83 0 0 1 1.47 0Z" class="colored"/><path id="path78" d="m434.73-9-6.94-3.51a3.25 3.25 0 0 0-2.37-.21l-10.31 3.06a3.22 3.22 0 0 0-2.17 4l6.75 22.58a3.22 3.22 0 0 0 4 2.16l15.72-4.7a3.22 3.22 0 0 0 2.16-4l-5.2-17.45A3.21 3.21 0 0 0 434.73-9Zm-1.4 1.26-4.19 1.25a.29.29 0 0 1-.37-.2l-1.18-3.95Zm5.59 20.47-15.73 4.7a1.46 1.46 0 0 1-1.82-1l-6.74-22.58a1.47 1.47 0 0 1 1-1.82l10.05-3 1.43 4.78a2 2 0 0 0 2.55 1.37l5.11-1.52 5.15 17.24a1.47 1.47 0 0 1-1 1.81Z" class="colored"/><path id="path80" d="M432.33-2.57 420 1.12a.88.88 0 1 0 .5 1.68l12.34-3.69a.88.88 0 0 0 .59-1.11.88.88 0 0 0-1.1-.57Z" class="colored"/><path id="path82" d="m433.67 1.92-12.35 3.69a.88.88 0 0 0 .5 1.69l12.36-3.7a.87.87 0 0 0 .59-1.09.89.89 0 0 0-1.1-.59Z" class="colored"/><path id="path84" d="m426.75 8.88-4.09 1.22a.88.88 0 1 0 .51 1.69l4.08-1.22a.88.88 0 0 0-.5-1.69Z" class="colored"/><path id="path86" d="m315.5 82.72-6.94-3.5a3.22 3.22 0 0 0-2.38-.21l-10.31 3.08a3.23 3.23 0 0 0-2.16 4l6.74 22.57a3.23 3.23 0 0 0 4 2.17l15.73-4.7a3.23 3.23 0 0 0 2.16-4l-5.21-17.45a3.26 3.26 0 0 0-1.63-1.96ZM314.1 84l-4.2 1.26a.3.3 0 0 1-.36-.2l-1.18-4Zm5.58 20.47L304 109.15a1.47 1.47 0 0 1-1.82-1l-6.79-22.55a1.47 1.47 0 0 1 1-1.83l10.05-3 1.42 4.77a2.06 2.06 0 0 0 2.56 1.38l5.11-1.53 5.15 17.24a1.46 1.46 0 0 1-1 1.82Z" class="colored"/><path id="path88" d="m313.1 89.17-12.35 3.69a.88.88 0 1 0 .5 1.69l12.35-3.69a.88.88 0 0 0-.5-1.69Z" class="colored"/><path id="path90" d="m314.44 93.67-12.35 3.69a.88.88 0 1 0 .5 1.68l12.35-3.69a.88.88 0 0 0-.5-1.68Z" class="colored"/><path id="path92" d="m307.51 100.63-4.08 1.22a.88.88 0 1 0 .5 1.68l4.09-1.22a.88.88 0 1 0-.51-1.68Z" class="colored"/><path id="path94" d="m440.6 188.44-2.43-7.39a3.2 3.2 0 0 0-1.53-1.82l-9.47-5.12a3.24 3.24 0 0 0-4.37 1.31l-11.19 20.73a3.23 3.23 0 0 0 1.31 4.37l14.44 7.79a3.21 3.21 0 0 0 4.36-1.3l8.66-16a3.25 3.25 0 0 0 .22-2.57Zm-1.88-.1-3.85-2.08a.29.29 0 0 1-.12-.4l2-3.62Zm-10.53 18.43L413.75 199a1.47 1.47 0 0 1-.59-2l11.19-20.72a1.47 1.47 0 0 1 2-.6l9.23 5-2.38 4.32a2.06 2.06 0 0 0 .83 2.78l4.69 2.53-8.54 15.83a1.48 1.48 0 0 1-1.99.63Z" class="colored"/><path id="path96" d="M434.34 191.31 423 185.18a.89.89 0 0 0-1.2.36.88.88 0 0 0 .36 1.19l11.35 6.12a.87.87 0 1 0 .83-1.54Z" class="colored"/><path id="path98" d="m432.11 195.43-11.34-6.12a.86.86 0 0 0-1.19.35.88.88 0 0 0 .35 1.19l11.35 6.15a.88.88 0 1 0 .83-1.55Z" class="colored"/><path id="path100" d="m422.29 195.46-3.75-2a.88.88 0 1 0-.83 1.55l3.75 2a.87.87 0 1 0 .83-1.54Z" class="colored"/><path id="path102" d="M550.91 91.34 548.48 84a3.2 3.2 0 0 0-1.48-1.87L537.48 77a3.24 3.24 0 0 0-4.37 1.31l-11.19 20.74a3.23 3.23 0 0 0 1.31 4.37l14.43 7.79a3.22 3.22 0 0 0 4.37-1.3l8.65-16a3.21 3.21 0 0 0 .23-2.57Zm-1.88-.1-3.86-2.08a.29.29 0 0 1-.11-.4l2-3.62Zm-10.53 18.43-14.44-7.8a1.46 1.46 0 0 1-.59-2l11.19-20.73a1.47 1.47 0 0 1 2-.59l9.23 5-2.37 4.38a2 2 0 0 0 .83 2.78l4.65 2.53-8.55 15.83a1.47 1.47 0 0 1-1.95.6Z" class="colored"/><path id="path104" d="m544.65 94.2-11.35-6.12a.88.88 0 1 0-.83 1.55l11.34 6.12a.88.88 0 1 0 .84-1.55Z" class="colored"/><path id="path106" d="m542.42 98.33-11.34-6.13a.88.88 0 0 0-.84 1.55l11.35 6.13a.88.88 0 1 0 .83-1.55Z" class="colored"/><path id="path108" d="m532.6 98.35-3.75-2a.88.88 0 0 0-.84 1.55l3.75 2a.88.88 0 1 0 .84-1.55Z" class="colored"/></g><g id="g180" class="e1b1a4cc-85a6-47f2-895d-6dce44cab070"><path id="path112" d="M214.29 27.82a11.85 11.85 0 0 0 2.11 22.87l.82 2.31a1.23 1.23 0 0 0 1.57.75l8.26-2.92a1.23 1.23 0 0 0 .75-1.57L227 47a11.83 11.83 0 0 0-12.7-19.13Zm10.42 17.94a1.25 1.25 0 0 0-.3 1.3l.66 1.86-5.94 2.08-.66-1.87a1.22 1.22 0 0 0-1.05-.81 9.4 9.4 0 1 1 7.29-2.58Z" class="colored"/><path id="path114" d="m226.71 52.7-6.44 2.3a1.23 1.23 0 1 0 .82 2.32l6.44-2.32a1.24 1.24 0 0 0 .75-1.58 1.23 1.23 0 0 0-1.57-.72Z" class="colored"/><path id="path116" d="m226.2 57.2-2.71 1a1.23 1.23 0 1 0 .82 2.32l2.72-1a1.23 1.23 0 1 0-.83-2.32Z" class="colored"/><path id="path118" d="M200.72 215.59a11.85 11.85 0 0 0 2.12 22.88l.81 2.31a1.24 1.24 0 0 0 1.58.75l8.26-2.92a1.24 1.24 0 0 0 .75-1.58l-.82-2.3a11.84 11.84 0 0 0-12.7-19.14Zm10.43 17.94a1.24 1.24 0 0 0-.31 1.3l.66 1.86-5.93 2.1-.66-1.86a1.25 1.25 0 0 0-1-.82 9.39 9.39 0 1 1 7.29-2.58Z" class="colored"/><path id="path120" d="m213.14 240.48-6.43 2.27a1.24 1.24 0 1 0 .82 2.33l6.47-2.28a1.23 1.23 0 1 0-.83-2.32Z" class="colored"/><path id="path122" d="m212.64 245-2.72 1a1.24 1.24 0 1 0 .83 2.33l2.71-1a1.24 1.24 0 0 0-.82-2.33Z" class="colored"/><path id="path124" d="M98.82 120.25a11.85 11.85 0 0 0-14.68 17.67l-1.06 2.21a1.25 1.25 0 0 0 .58 1.65l7.91 3.77a1.23 1.23 0 0 0 1.65-.58l1-2.21a11.84 11.84 0 0 0 4.55-22.51Zm-5.31 20.06a1.24 1.24 0 0 0-1.14.7l-.85 1.78-5.68-2.71.85-1.78a1.22 1.22 0 0 0-.16-1.32 9.4 9.4 0 1 1 7 3.33Z" class="colored"/><path id="path126" d="m90 146.63-6.16-2.94a1.23 1.23 0 1 0-1.07 2.22l6.16 3a1.24 1.24 0 0 0 1.07-2.28Z" class="colored"/><path id="path128" d="m86.47 149.45-2.6-1.24a1.23 1.23 0 0 0-1.06 2.23l2.6 1.24a1.23 1.23 0 0 0 1.06-2.23Z" class="colored"/><circle id="circle130" cx="237.24" cy="89.15" r="2.77" class="colored"/><circle id="circle132" cx="153.23" cy="179.26" r="2.77" class="colored"/><path id="path134" d="M32.24 160.82a4.82 4.82 0 1 1 4.81-4.82 4.82 4.82 0 0 1-4.81 4.82Zm0-7.84a3 3 0 1 0 3 3 3 3 0 0 0-3-2.98Z" class="colored"/><path id="path136" d="M156 266.84a4.82 4.82 0 1 1 4.81-4.82 4.82 4.82 0 0 1-4.81 4.82Zm0-7.84a3 3 0 1 0 3 3 3 3 0 0 0-3-3Z" class="colored"/><path id="path138" d="M250.3 116.77a4.82 4.82 0 1 1 4.81-4.82 4.82 4.82 0 0 1-4.81 4.82Zm0-7.84a3 3 0 1 0 3 3 3 3 0 0 0-3-3Z" class="colored"/><rect id="rect140" width="11.01" height="2.51" x="154.79" y="53.85" class="colored" rx="1.2" transform="rotate(39.01 160.294 55.112)"/><rect id="rect142" width="11.01" height="2.51" x="132.53" y="194.53" class="colored" rx="1.2" transform="rotate(39.01 138.041 195.775)"/><path id="path144" d="M42.1 45.85a.94.94 0 0 1 0-1.63l2.48-1.44 2.49-1.43a.94.94 0 0 1 1.41.81v5.74a.94.94 0 0 1-1.41.81l-2.49-1.43Z" class="colored"/><path id="path146" d="M136.37 108.68a1 1 0 0 1 0-1.63l2.49-1.44 2.48-1.43a.94.94 0 0 1 1.41.81v5.74a.94.94 0 0 1-1.41.81l-2.48-1.43Z" class="colored"/><path id="path148" d="m46.84 82.35.77 1.56a.83.83 0 0 0 .62.45l1.73.25a.83.83 0 0 1 .45 1.39l-1.25 1.22a.82.82 0 0 0-.23.73l.29 1.72a.83.83 0 0 1-1.2.87l-1.54-.82a.87.87 0 0 0-.77 0l-1.54.82a.83.83 0 0 1-1.2-.87l.3-1.72a.85.85 0 0 0-.24-.73L41.78 86a.83.83 0 0 1 .46-1.41l1.76-.23a.83.83 0 0 0 .62-.45l.78-1.56a.82.82 0 0 1 1.44 0Z" class="colored"/><path id="path150" d="m44.69 181.59.78 1.56a.78.78 0 0 0 .62.45l1.72.26a.82.82 0 0 1 .46 1.4L47 186.48a.85.85 0 0 0-.24.73l.3 1.72a.83.83 0 0 1-1.2.87l-1.52-.8a.81.81 0 0 0-.77 0l-1.57.8a.83.83 0 0 1-1.2-.87l.29-1.72a.82.82 0 0 0-.23-.73l-1.25-1.22a.82.82 0 0 1 .45-1.4l1.73-.26a.78.78 0 0 0 .62-.45l.77-1.56a.83.83 0 0 1 1.51 0Z" class="colored"/><path id="path152" d="m241.9 194.22.81 1.65a.87.87 0 0 0 .66.48l1.82.27a.87.87 0 0 1 .48 1.48l-1.32 1.28a.88.88 0 0 0-.25.77l.31 1.82a.87.87 0 0 1-1.26.92l-1.63-.86a.89.89 0 0 0-.81 0l-1.63.86a.87.87 0 0 1-1.26-.92l.31-1.82a.88.88 0 0 0-.25-.77l-1.32-1.28a.87.87 0 0 1 .48-1.48l1.82-.27a.87.87 0 0 0 .66-.48l.81-1.65a.88.88 0 0 1 1.57 0Z" class="colored"/><path id="path154" d="m171.14 28.27.73 1.49a.82.82 0 0 0 .59.43l1.65.24a.79.79 0 0 1 .44 1.34l-1.2 1.16a.81.81 0 0 0-.22.7l.28 1.64a.78.78 0 0 1-1.14.82l-1.47-.77a.79.79 0 0 0-.73 0l-1.48.77a.78.78 0 0 1-1.14-.82l.28-1.64a.78.78 0 0 0-.22-.7l-1.19-1.16a.78.78 0 0 1 .43-1.34l1.65-.24a.8.8 0 0 0 .59-.43l.74-1.49a.78.78 0 0 1 1.41 0Z" class="colored"/><path id="path156" d="m103.11 29-6.94-3.51a3.27 3.27 0 0 0-2.38-.21l-10.31 3.06a3.23 3.23 0 0 0-2.16 4l6.74 22.58a3.23 3.23 0 0 0 4 2.16l15.72-4.7a3.22 3.22 0 0 0 2.17-4l-5.21-17.45a3.24 3.24 0 0 0-1.63-1.93Zm-1.41 1.26-4.19 1.25a.28.28 0 0 1-.36-.2L96 27.34Zm5.59 20.47-15.72 4.7a1.46 1.46 0 0 1-1.82-1L83 31.85A1.46 1.46 0 0 1 84 30l10-3 1.42 4.78A2.05 2.05 0 0 0 98 33.17l5.11-1.52 5.15 17.24a1.46 1.46 0 0 1-.97 1.82Z" class="colored"/><path id="path158" d="m100.71 35.43-12.36 3.69a.88.88 0 1 0 .51 1.68l12.35-3.69a.88.88 0 0 0-.5-1.68Z" class="colored"/><path id="path160" d="M102.05 39.92 89.7 43.61a.88.88 0 0 0 .5 1.69l12.35-3.7a.86.86 0 0 0 .59-1.09.88.88 0 0 0-1.09-.59Z" class="colored"/><path id="path162" d="M95.12 46.88 91 48.1a.88.88 0 0 0 .5 1.69l4.09-1.22a.88.88 0 1 0-.51-1.69Z" class="colored"/><path id="path164" d="m109 226.44-2.44-7.39a3.2 3.2 0 0 0-1.53-1.82l-9.46-5.12a3.24 3.24 0 0 0-4.37 1.31L80 234.15a3.23 3.23 0 0 0 1.3 4.37l14.44 7.79a3.23 3.23 0 0 0 4.37-1.3l8.65-16a3.26 3.26 0 0 0 .24-2.57Zm-1.89-.1-3.85-2.08a.3.3 0 0 1-.12-.4l2-3.62Zm-10.54 18.43L82.13 237a1.48 1.48 0 0 1-.6-2l11.2-20.72a1.46 1.46 0 0 1 2-.6l9.23 5-2.38 4.32a2 2 0 0 0 .83 2.78l4.69 2.53-8.55 15.83a1.47 1.47 0 0 1-1.98.63Z" class="colored"/><path id="path166" d="m102.72 229.31-11.35-6.13a.88.88 0 1 0-.83 1.55l11.34 6.12a.88.88 0 0 0 .84-1.54Z" class="colored"/><path id="path168" d="m100.49 233.43-11.35-6.12a.87.87 0 0 0-1.19.35.88.88 0 0 0 .36 1.19L99.65 235a.88.88 0 0 0 .84-1.55Z" class="colored"/><path id="path170" d="m90.67 233.46-3.75-2a.88.88 0 0 0-1.19.36.87.87 0 0 0 .35 1.19l3.75 2a.88.88 0 0 0 .84-1.54Z" class="colored"/><path id="path172" d="m219.29 129.34-2.44-7.34a3.2 3.2 0 0 0-1.53-1.82l-9.46-5.18a3.24 3.24 0 0 0-4.37 1.31l-11.19 20.74a3.23 3.23 0 0 0 1.3 4.37l14.4 7.79a3.23 3.23 0 0 0 4.37-1.3l8.65-16a3.26 3.26 0 0 0 .27-2.57Zm-1.89-.1-3.85-2.08a.3.3 0 0 1-.12-.4l2-3.62Zm-10.53 18.43-14.43-7.8a1.48 1.48 0 0 1-.6-2L203 117.15a1.46 1.46 0 0 1 2-.59l9.23 5-2.37 4.38a2.07 2.07 0 0 0 .83 2.78l4.7 2.53-8.55 15.83a1.48 1.48 0 0 1-1.97.59Z" class="colored"/><path id="path174" d="m213 132.2-11.34-6.12a.88.88 0 0 0-.84 1.55l11.35 6.12a.88.88 0 0 0 1.19-.35.89.89 0 0 0-.36-1.2Z" class="colored"/><path id="path176" d="m210.8 136.33-11.35-6.13a.88.88 0 1 0-.83 1.55l11.38 6.13a.88.88 0 0 0 .84-1.55Z" class="colored"/><path id="path178" d="m201 136.35-3.75-2a.89.89 0 0 0-1.2.36.88.88 0 0 0 .36 1.19l3.75 2a.88.88 0 0 0 1.19-.35.9.9 0 0 0-.35-1.2Z" class="colored"/></g></g></g></svg>