<?xml version="1.0" encoding="UTF-8"?><svg id="uuid-892f8c87-5274-4e43-b556-c0e20643afff" xmlns="http://www.w3.org/2000/svg" viewBox="0 0 200 200"><path d="M172.64,0H27.36C12.27,0,0,12.27,0,27.36V172.64c0,15.09,12.27,27.36,27.36,27.36H172.64c15.09,0,27.36-12.27,27.36-27.36V27.36C200,12.27,187.73,0,172.64,0ZM55.38,73.94c-1.3,1.3-3,1.95-4.7,1.95s-3.41-.65-4.71-1.95l-13.4-13.41c-2.6-2.6-2.6-6.81,0-9.41,2.6-2.6,6.81-2.6,9.41,0l8.7,8.7,19.17-19.17c2.6-2.6,6.81-2.6,9.41,0,2.6,2.6,2.6,6.82,0,9.41l-23.88,23.88Zm23.88,51.02v25.98c0,5.71-4.64,10.36-10.35,10.36h-25.99c-5.71,0-10.36-4.65-10.36-10.36v-25.98c0-5.71,4.65-10.36,10.36-10.36h25.99c5.71,0,10.35,4.65,10.35,10.36Zm18.13,12.99c0-3.68,2.98-6.66,6.65-6.66h58.68c3.68,0,6.66,2.98,6.66,6.66s-2.98,6.65-6.66,6.65h-58.68c-3.67,0-6.65-2.98-6.65-6.65ZM162.72,63.95h-58.68c-3.67,0-6.65-2.98-6.65-6.66s2.98-6.65,6.65-6.65h58.68c3.68,0,6.66,2.98,6.66,6.65s-2.98,6.66-6.66,6.66Z"/><rect x="45.87" y="127.91" width="20.09" height="20.08"/></svg>