<svg viewBox="0 0 149.41 262" opacity="0.05">
   <g class="colored">
      <path d="M-53.26,147.57a25.1,25.1,0,0,1,7.35-17.81A25,25,0,0,1-28,122.32a25.25,25.25,0,0,1,7.89,1.26V85.37a6,6,0,0,1,5.95-6H24a25.24,25.24,0,1,1,48,0h38.21a5.94,5.94,0,0,1,5.94,6v38.22a25.35,25.35,0,0,1,9-1.24,25.33,25.33,0,0,1,24.15,25.14v.08a25.26,25.26,0,0,1-33.14,24v38.21a5.94,5.94,0,0,1-5.94,6H68.83a9.77,9.77,0,0,1-8.78-14A13.34,13.34,0,0,0,48,182.58a13.46,13.46,0,0,0-13.29,12.73A13.14,13.14,0,0,0,36,201.68a9.78,9.78,0,0,1-8.78,14H-14.18a6,6,0,0,1-5.95-6V171.54a25.62,25.62,0,0,1-9,1.25,25.08,25.08,0,0,1-17.09-7.74,25.12,25.12,0,0,1-7.08-17.36Zm45-56.25v35.43A9.67,9.67,0,0,1-12.79,135a9.72,9.72,0,0,1-9.47.53A13.13,13.13,0,0,0-28,134.22a13.27,13.27,0,0,0-9.46,3.93,13.24,13.24,0,0,0-3.88,9.42v.07A13.47,13.47,0,0,0-28.6,160.9a13.31,13.31,0,0,0,6.33-1.29,9.75,9.75,0,0,1,9.49.53,9.67,9.67,0,0,1,4.55,8.24v35.43H24a25.24,25.24,0,1,1,48,0h32.26V168.38a9.76,9.76,0,0,1,14-8.78A13.34,13.34,0,0,0,133.49,157a13.29,13.29,0,0,0,3.9-9.46,13.48,13.48,0,0,0-12.75-13.29,13.18,13.18,0,0,0-6.35,1.29,9.77,9.77,0,0,1-14-8.78V91.32H68.83a9.77,9.77,0,0,1-8.78-14,13.13,13.13,0,0,0,1.31-5.76A13.34,13.34,0,1,0,36,77.29a9.77,9.77,0,0,1-8.78,14Z" />
   </g>
</svg>