<?xml version="1.0" encoding="UTF-8"?><svg id="uuid-b6337ed8-6a93-47a9-bd82-5c90c4eaacd3" xmlns="http://www.w3.org/2000/svg" viewBox="0 0 200 200"><path d="M172.64,0H27.36C12.27,0,0,12.27,0,27.36V172.64c0,15.09,12.27,27.36,27.36,27.36H172.64c15.09,0,27.36-12.27,27.36-27.36V27.36c0-15.09-12.27-27.36-27.36-27.36Zm14.05,172.64c0,7.75-6.3,14.05-14.05,14.05H27.36c-7.75,0-14.05-6.3-14.05-14.05V27.36c0-7.75,6.3-14.05,14.05-14.05H172.64c7.75,0,14.05,6.3,14.05,14.05V172.64Z"/><path d="M69.85,40.65l-19.17,19.17-8.7-8.7c-2.6-2.6-6.81-2.6-9.41,0s-2.6,6.81,0,9.41l13.4,13.4c1.3,1.3,3,1.95,4.7,1.95s3.41-.65,4.7-1.95l23.88-23.87c2.6-2.6,2.6-6.81,0-9.41s-6.81-2.6-9.41,0Z"/><path d="M162.72,50.64h-58.68c-3.67,0-6.65,2.98-6.65,6.65s2.98,6.65,6.65,6.65h58.68c3.67,0,6.65-2.98,6.65-6.65s-2.98-6.65-6.65-6.65Z"/><path d="M162.72,131.29h-58.68c-3.67,0-6.65,2.98-6.65,6.65s2.98,6.65,6.65,6.65h58.68c3.67,0,6.65-2.98,6.65-6.65s-2.98-6.65-6.65-6.65Z"/><path d="M68.91,114.6h-25.99c-5.71,0-10.36,4.65-10.36,10.36v25.99c0,5.71,4.65,10.36,10.36,10.36h25.99c5.71,0,10.36-4.65,10.36-10.36v-25.99c0-5.71-4.65-10.36-10.36-10.36Zm-2.95,33.39h-20.08v-20.08h20.08v20.08Z"/></svg>