<svg xmlns="http://www.w3.org/2000/svg" id="a8624644-187e-49f4-98c9-599a9e7f014d" data-name="Layer 1" version="1.1" viewBox="0 0 550.85 262"><defs id="defs13"><clipPath id="eb01321d-213c-4b5f-b651-a6d87ca78ace"><path id="rect4" d="M478.57-370.99h599.34v262H478.57z" class="a28b6cba-13d3-4fc4-9a4c-860fab49632d"/></clipPath><clipPath id="f90c2424-b552-4207-8c55-3dbe614314e7"><path id="rect7" d="M0 0h550.85v262H0z" class="a28b6cba-13d3-4fc4-9a4c-860fab49632d"/></clipPath><clipPath id="ab04c46b-24af-418d-a717-120e8033bb7b"><path id="path10" d="M636.4 165.56c0 105.24-85.31 190.56-190.55 190.56-48.13 0-417.86-1.88-439.27-41C-22.74 261.5 6.81 196.79 118 182 328.6 154 235.43 3.16 435.48-25 539.69-39.67 636.4 60.32 636.4 165.56Z" class="a28b6cba-13d3-4fc4-9a4c-860fab49632d"/></clipPath><style id="style2">.a28b6cba-13d3-4fc4-9a4c-860fab49632d{fill:none}.a7ac77b4-6d45-4cca-b0e2-ffcd97fb167c{opacity:.5}</style></defs><g id="g159" clip-path="url(#f90c2424-b552-4207-8c55-3dbe614314e7)" style="clip-path:url(#f90c2424-b552-4207-8c55-3dbe614314e7)"><path id="path21" d="M640.62 164c0 105.24-85.32 190.56-190.56 190.56-48.12 0-417.86-1.88-439.27-41-29.32-53.59.24-118.31 111.44-133.09 210.58-28 117.41-178.85 317.46-207C543.91-41.23 640.62 58.75 640.62 164Z" class="colored" style="opacity:.1"/><g id="g157" clip-path="url(#ab04c46b-24af-418d-a717-120e8033bb7b)" style="clip-path:url(#ab04c46b-24af-418d-a717-120e8033bb7b)"><g id="g95" class="a7ac77b4-6d45-4cca-b0e2-ffcd97fb167c"><circle id="circle23" cx="286.41" cy="216.45" r="2.81" class="colored"/><circle id="circle25" cx="270.24" cy="30.5" r="2.81" class="colored"/><circle id="circle27" cx="484.62" cy="124.47" r="2.81" class="colored"/><circle id="circle29" cx="362.21" cy="100.94" r="3.97" class="colored"/><circle id="circle31" cx="487.43" cy="208.19" r="3.97" class="colored"/><circle id="circle33" cx="273.05" cy="141.44" r="3.97" class="colored"/><rect id="rect35" width="11.14" height="2.54" x="486.2" y="-2.4" class="colored" rx="1.18" transform="rotate(39.01 491.754 -1.133)"/><rect id="rect37" width="11.14" height="2.54" x="463.68" y="139.92" class="colored" rx="1.18" transform="rotate(39.01 469.243 141.179)"/><rect id="rect39" width="11.14" height="2.54" x="479.06" y="232.26" class="colored" rx="1.18" transform="rotate(129.01 484.626 233.52)"/><rect id="rect41" width="11.14" height="2.54" x="257.26" y="244.86" class="colored" rx="1.18" transform="rotate(39.01 262.828 246.131)"/><rect id="rect43" width="10.18" height="2.32" x="371.72" y="29.34" class="colored" rx="1.08" transform="rotate(-45 376.813 30.499)"/><rect id="rect45" width="10.18" height="2.32" x="371.72" y="29.34" class="colored" rx="1.08" transform="rotate(45 376.807 30.499)"/><rect id="rect47" width="10.18" height="2.32" x="351.19" y="212.12" class="colored" rx="1.08"/><rect id="rect49" width="10.18" height="2.32" x="351.19" y="212.12" class="colored" rx="1.08" transform="rotate(90 356.285 213.285)"/><path id="path51" d="M467.57 53.06a1 1 0 0 1 0-1.65l2.51-1.41 2.51-1.45a1 1 0 0 1 1.43.82v5.81a1 1 0 0 1-1.43.82l-2.51-1.45Z" class="colored"/><path id="path53" d="M371.15 134.38a1 1 0 0 1-1.16-1.16l.75-2.8.75-2.81a1 1 0 0 1 1.59-.42l2.05 2.05 2.05 2a1 1 0 0 1-.42 1.59l-2.8.75Z" class="colored"/><path id="path55" d="M265 115.24a1 1 0 0 1-1.16-1.16l.75-2.81.75-2.8a1 1 0 0 1 1.59-.43l2.07 2.06 2.06 2.05a1 1 0 0 1-.43 1.59l-2.8.75Z" class="colored"/><path id="path57" d="M372.92 260.69a.77.77 0 0 1 0-1.33l2-1.18 2-1.18a.77.77 0 0 1 1.16.67v4.71a.78.78 0 0 1-1.16.67l-2-1.18Z" class="colored"/><path id="path59" d="M437.22 3.37a4.71 4.71 0 0 1-3.61.16 4.67 4.67 0 0 1-2.68-2.46 4.56 4.56 0 0 1-.41-1.44l-6.5 3a1.11 1.11 0 0 1-1.48-.54l-3-6.5a4.8 4.8 0 0 1-1.45.93 4.71 4.71 0 0 1-3.52 0A4.72 4.72 0 0 1 412-5.85a4.76 4.76 0 0 1 2.3-6.29 5 5 0 0 1 1.45-.41l-3-6.5a1.11 1.11 0 0 1 .54-1.48l6.5-3a4.8 4.8 0 0 1-.92-1.43 4.66 4.66 0 0 1 0-3.52 4.65 4.65 0 0 1 2.4-2.57 4.71 4.71 0 0 1 3.61-.16 4.76 4.76 0 0 1 2.68 2.46 4.84 4.84 0 0 1 .41 1.44l6.5-3a1.11 1.11 0 0 1 1.48.54l3.27 7A1.81 1.81 0 0 1 439-21a1.83 1.83 0 0 1-1.57.84 2.73 2.73 0 0 0-1.09.23 2.54 2.54 0 0 0-1.29 1.42 2.48 2.48 0 0 0 .08 1.91 2.53 2.53 0 0 0 3.22 1.26 2.43 2.43 0 0 0 1-.72 1.8 1.8 0 0 1 1.65-.66 1.83 1.83 0 0 1 1.43 1l3.27 7a1.11 1.11 0 0 1-.54 1.48l-6.5 3a4.77 4.77 0 0 1 .91 1.43 4.71 4.71 0 0 1 0 3.52 4.67 4.67 0 0 1-2.39 2.57ZM424.09.16l6-2.8a1.81 1.81 0 0 1 1.76.12 1.84 1.84 0 0 1 .84 1.57A2.36 2.36 0 0 0 433 .13a2.49 2.49 0 0 0 1.42 1.3 2.48 2.48 0 0 0 1.91-.08 2.52 2.52 0 0 0 1.24-3.22 2.47 2.47 0 0 0-.72-1 1.86 1.86 0 0 1-.66-1.66 1.8 1.8 0 0 1 1.05-1.42l6-2.8-2.55-5.49a4.67 4.67 0 0 1-1.43.92 4.66 4.66 0 0 1-3.52 0 4.72 4.72 0 0 1-2.57-2.4 4.72 4.72 0 0 1-.17-3.58 4.66 4.66 0 0 1 2.44-2.7 4.93 4.93 0 0 1 1.44-.41l-2.54-5.49-6 2.8a1.81 1.81 0 0 1-1.76-.12 1.8 1.8 0 0 1-.84-1.57 2.54 2.54 0 0 0-.24-1.08 2.47 2.47 0 0 0-1.41-1.3 2.46 2.46 0 0 0-1.92.09 2.53 2.53 0 0 0-1.25 3.22 2.47 2.47 0 0 0 .72 1 1.86 1.86 0 0 1 .66 1.66 1.81 1.81 0 0 1-1 1.42l-6 2.8 2.8 6a1.81 1.81 0 0 1-.12 1.76 1.83 1.83 0 0 1-1.57.84 2.57 2.57 0 0 0-1.09.23A2.52 2.52 0 0 0 414-6.79a2.52 2.52 0 0 0 3.21 1.26 2.46 2.46 0 0 0 1-.72 1.8 1.8 0 0 1 1.65-.66 1.83 1.83 0 0 1 1.43 1Z" class="colored"/><path id="path61" d="M549.55 89.29a4.12 4.12 0 0 1-5.64-1.37 4.11 4.11 0 0 1-.49-1.21l-5.3 3.23a1 1 0 0 1-1.33-.32l-3.22-5.31a4.21 4.21 0 0 1-1.16.94 4.1 4.1 0 0 1-4.09-7.11 4.33 4.33 0 0 1 1.2-.49l-3.22-5.3a1 1 0 0 1 .32-1.33l5.3-3.22a4.27 4.27 0 0 1-.93-1.14 4.13 4.13 0 0 1 1.46-5.48 4.08 4.08 0 0 1 5.63 1.37 4.16 4.16 0 0 1 .49 1.2l5.3-3.22a1 1 0 0 1 1.33.32l3.49 5.74a1.57 1.57 0 0 1 .07 1.53 1.62 1.62 0 0 1-1.27.88 2.09 2.09 0 0 0-.91.3 2.12 2.12 0 0 0-1 1.34 2.14 2.14 0 0 0 .25 1.64 2.18 2.18 0 0 0 2.89.77 2.13 2.13 0 0 0 .78-.71 1.59 1.59 0 0 1 2.69 0l3.49 5.75a1 1 0 0 1-.33 1.32l-5.3 3.23a4.12 4.12 0 0 1 .93 1.14 4.1 4.1 0 0 1-1.45 5.47Zm-11.61-1.5 4.92-3a1.58 1.58 0 0 1 2.4 1.2 2.17 2.17 0 0 0 3.28 1.64 2.18 2.18 0 0 0 .77-2.89 2.22 2.22 0 0 0-.72-.77 1.59 1.59 0 0 1 0-2.69l4.91-3-2.72-4.48a4 4 0 0 1-1.15.94 4.1 4.1 0 0 1-4.1-7.1 3.85 3.85 0 0 1 1.21-.49l-2.73-4.48-4.91 3a1.6 1.6 0 0 1-2.41-1.21 2.13 2.13 0 0 0-.3-.91 2.19 2.19 0 0 0-1.34-1 2.22 2.22 0 0 0-1.65.26 2.19 2.19 0 0 0-.76 2.89 2 2 0 0 0 .71.77 1.59 1.59 0 0 1 0 2.69l-4.92 3 3 4.92a1.59 1.59 0 0 1-1.21 2.4 2.17 2.17 0 0 0-1.63 3.28 2.17 2.17 0 0 0 2.88.78 2.08 2.08 0 0 0 .78-.72 1.58 1.58 0 0 1 1.36-.72 1.57 1.57 0 0 1 1.33.76Z" class="colored"/><path id="path63" d="M549.55 280.34a4.12 4.12 0 0 1-5.64-1.37 4.11 4.11 0 0 1-.49-1.21l-5.3 3.23a1 1 0 0 1-1.33-.32l-3.22-5.31a4.21 4.21 0 0 1-1.16.94 4.1 4.1 0 0 1-4.09-7.11 4.33 4.33 0 0 1 1.2-.49l-3.22-5.3a1 1 0 0 1 .32-1.33l5.3-3.22a4.27 4.27 0 0 1-.93-1.14 4.13 4.13 0 0 1 1.46-5.48 4.08 4.08 0 0 1 5.63 1.37 4.16 4.16 0 0 1 .49 1.2l5.3-3.22a1 1 0 0 1 1.33.32l3.49 5.74a1.57 1.57 0 0 1 .07 1.53 1.62 1.62 0 0 1-1.27.88 2.09 2.09 0 0 0-.91.3 2.12 2.12 0 0 0-1 1.34 2.14 2.14 0 0 0 .25 1.64 2.18 2.18 0 0 0 2.89.77 2.13 2.13 0 0 0 .78-.71 1.59 1.59 0 0 1 2.69 0l3.49 5.74a1 1 0 0 1-.33 1.33l-5.3 3.23a4.12 4.12 0 0 1 .93 1.14 4.1 4.1 0 0 1-1.45 5.47Zm-11.61-1.5 4.92-3a1.58 1.58 0 0 1 2.4 1.2 2.17 2.17 0 0 0 3.28 1.64 2.18 2.18 0 0 0 .77-2.89 2.22 2.22 0 0 0-.72-.77 1.59 1.59 0 0 1 0-2.69l4.91-3-2.72-4.48a4 4 0 0 1-1.15.94 4.1 4.1 0 0 1-4.1-7.1 3.85 3.85 0 0 1 1.21-.49l-2.73-4.48-4.91 3a1.6 1.6 0 0 1-2.41-1.21 2.13 2.13 0 0 0-.3-.91 2.19 2.19 0 0 0-1.34-1 2.22 2.22 0 0 0-1.65.26 2.19 2.19 0 0 0-.76 2.89 2 2 0 0 0 .71.77 1.59 1.59 0 0 1 0 2.69l-4.92 3 3 4.92a1.59 1.59 0 0 1-1.21 2.4 2.17 2.17 0 0 0-1.63 3.28 2.17 2.17 0 0 0 2.88.78 2.08 2.08 0 0 0 .78-.72 1.58 1.58 0 0 1 1.36-.72 1.57 1.57 0 0 1 1.33.76Z" class="colored"/><path id="path65" d="M306.29 97a4.72 4.72 0 0 1-3.85-5.48 4.77 4.77 0 0 1 .48-1.42l-7.06-1.23a1.11 1.11 0 0 1-.9-1.29l1.23-7.06a5 5 0 0 1-1.72-.06 4.74 4.74 0 0 1 1.85-9.29 4.63 4.63 0 0 1 1.41.49l1.27-7.07a1.11 1.11 0 0 1 1.29-.91l7.06 1.23a4.86 4.86 0 0 1 .06-1.7 4.77 4.77 0 0 1 5.42-3.65 4.73 4.73 0 0 1 3.36 6.89l7.06 1.23a1.12 1.12 0 0 1 .91 1.29l-1.33 7.65a1.83 1.83 0 0 1-2.88 1.17 2.56 2.56 0 0 0-1-.43 2.52 2.52 0 0 0-1.87.42 2.48 2.48 0 0 0-1 1.62 2.51 2.51 0 0 0 3.14 2.84 1.82 1.82 0 0 1 2.31 2.07L320.14 92a1.12 1.12 0 0 1-1.29.9l-7.07-1.23a4.63 4.63 0 0 1 0 1.7 4.73 4.73 0 0 1-2 2.9 4.67 4.67 0 0 1-3.44.75Zm-8.94-10.13 6.54 1.13a1.83 1.83 0 0 1 1.17 2.87 2.54 2.54 0 0 0-.43 1 2.49 2.49 0 0 0 .43 1.87 2.46 2.46 0 0 0 1.61 1 2.51 2.51 0 0 0 2.86-1.93 2.48 2.48 0 0 0 0-1.21 1.85 1.85 0 0 1 .4-1.73 1.82 1.82 0 0 1 1.67-.58l6.55 1.14 1-6a4.86 4.86 0 0 1-1.7-.06 4.74 4.74 0 1 1 3.25-8.8l1-6-6.55-1.14a1.84 1.84 0 0 1-1.15-2.75 2.5 2.5 0 0 0 .43-1 2.44 2.44 0 0 0-.42-1.87 2.5 2.5 0 0 0-4.49.9 2.47 2.47 0 0 0 0 1.21 1.82 1.82 0 0 1-2.07 2.31L301 66.07l-1.14 6.55a1.84 1.84 0 0 1-2.86 1.17 2.41 2.41 0 0 0-1-.43 2.5 2.5 0 0 0-2.89 2 2.53 2.53 0 0 0 1.89 2.91 2.4 2.4 0 0 0 1.22 0 1.84 1.84 0 0 1 2.31 2.08Z" class="colored"/><path id="path67" d="M306.29 287.68a4.76 4.76 0 0 1-3.37-6.9l-7.06-1.23a1.11 1.11 0 0 1-.9-1.29l1.23-7.06a4.75 4.75 0 0 1-1.72-.07 4.74 4.74 0 0 1-3.63-5.43 4.74 4.74 0 0 1 5.48-3.85 4.63 4.63 0 0 1 1.41.49l1.24-7.06a1.11 1.11 0 0 1 1.29-.91l7.06 1.23a4.86 4.86 0 0 1 .06-1.7 4.77 4.77 0 0 1 5.42-3.65 4.74 4.74 0 0 1 3.36 6.9l7.06 1.23a1.12 1.12 0 0 1 .91 1.29l-1.33 7.65a1.83 1.83 0 0 1-2.88 1.17 2.56 2.56 0 0 0-1-.43 2.48 2.48 0 0 0-1.87.42 2.45 2.45 0 0 0-1 1.62 2.51 2.51 0 0 0 3.14 2.84 1.82 1.82 0 0 1 2.31 2.07l-1.33 7.65a1.12 1.12 0 0 1-1.29.9l-7.07-1.23a4.63 4.63 0 0 1 0 1.7 4.73 4.73 0 0 1-2 2.9 4.67 4.67 0 0 1-3.44.75Zm-8.94-10.14 6.54 1.15a1.83 1.83 0 0 1 1.17 2.87 2.54 2.54 0 0 0-.43 1 2.49 2.49 0 0 0 .43 1.87 2.46 2.46 0 0 0 1.61 1 2.51 2.51 0 0 0 2.86-1.93 2.48 2.48 0 0 0 0-1.21 1.87 1.87 0 0 1 .4-1.74 1.84 1.84 0 0 1 1.67-.57l6.55 1.14 1-6a4.86 4.86 0 0 1-1.7-.06 4.74 4.74 0 1 1 3.25-8.8l1-6-6.55-1.14a1.84 1.84 0 0 1-1.17-2.88 2.5 2.5 0 0 0 .43-1 2.44 2.44 0 0 0-.42-1.87 2.5 2.5 0 0 0-4.49.9 2.47 2.47 0 0 0 0 1.21 1.82 1.82 0 0 1-2.07 2.31l-6.43-1.03-1.14 6.55a1.84 1.84 0 0 1-2.87 1.17 2.41 2.41 0 0 0-1-.43 2.5 2.5 0 0 0-2.89 2A2.53 2.53 0 0 0 295 269a2.4 2.4 0 0 0 1.22 0 1.84 1.84 0 0 1 2.31 2.08Z" class="colored"/><path id="path69" d="M422.67 194.48a4.55 4.55 0 0 1-2.55-2.34 4.5 4.5 0 0 1-.15-3.49 4.15 4.15 0 0 1 .7-1.25l-6.46-2.4a1.08 1.08 0 0 1-.64-1.38l2.36-6.46a4.27 4.27 0 0 1-1.61-.35 4.49 4.49 0 0 1-2.4-2.37 4.53 4.53 0 0 1 5.72-6.08 4.38 4.38 0 0 1 1.25.7l2.37-6.46a1.06 1.06 0 0 1 1.37-.64l6.46 2.36a4.62 4.62 0 0 1 .34-1.59 4.56 4.56 0 0 1 5.74-2.53 4.52 4.52 0 0 1 2.7 5.82 4.33 4.33 0 0 1-.7 1.26l6.46 2.36a1.07 1.07 0 0 1 .64 1.37l-2.56 7a1.75 1.75 0 0 1-2.91.62 2.4 2.4 0 1 0-1.49 4.07 1.76 1.76 0 0 1 1.83 2.35l-2.55 7a1.07 1.07 0 0 1-1.38.63l-6.46-2.36a4.58 4.58 0 0 1-.34 1.59 4.57 4.57 0 0 1-5.74 2.54ZM416 183.39l6 2.19a1.76 1.76 0 0 1 .61 2.92 2.39 2.39 0 0 0-.57.89 2.35 2.35 0 0 0 .08 1.84 2.39 2.39 0 0 0 1.35 1.24 2.42 2.42 0 0 0 3-1.34 2.38 2.38 0 0 0 .17-1.15 1.78 1.78 0 0 1 .68-1.57 1.73 1.73 0 0 1 1.67-.25l6 2.18 2-5.45a4.7 4.7 0 0 1-1.61-.35 4.54 4.54 0 0 1 3.31-8.46 4.84 4.84 0 0 1 1.26.7l2-5.45-6-2.19a1.75 1.75 0 0 1-.61-2.91 2.39 2.39 0 0 0 .57-.89 2.42 2.42 0 0 0-1.43-3.09 2.43 2.43 0 0 0-3 1.34 2.4 2.4 0 0 0-.17 1.15 1.76 1.76 0 0 1-2.35 1.83l-6-2.19-2.19 6a1.76 1.76 0 0 1-2.91.62 2.33 2.33 0 0 0-.9-.58 2.4 2.4 0 1 0-.59 4.64 1.77 1.77 0 0 1 1.57.68 1.73 1.73 0 0 1 .26 1.67Z" class="colored"/><path id="path71" d="M299.75-29.07a15.55 15.55 0 0 0-19.91 9.4 15.56 15.56 0 0 0 9.4 19.92 15.58 15.58 0 0 0 19.92-9.41 15.57 15.57 0 0 0-9.41-19.91ZM290.06-2a13.14 13.14 0 0 1-7.93-16.81 13.13 13.13 0 0 1 16.8-7.93A13.13 13.13 0 0 1 306.87-10a13.14 13.14 0 0 1-16.81 8Z" class="colored"/><circle id="circle73" cx="540.01" cy="179.4" r="1.52" class="colored"/><path id="path75" d="M530.18 158.58a15.57 15.57 0 1 0 20.73 7.42 15.57 15.57 0 0 0-20.73-7.42Zm12.26 26a13.14 13.14 0 1 1 6.27-17.49 13.13 13.13 0 0 1-6.27 17.45Z" class="colored"/><path id="path77" d="M533.52 165.65a4.87 4.87 0 0 0-2.32 6.48 1.21 1.21 0 0 0 1.62.58 1.23 1.23 0 0 0 .58-1.62 2.43 2.43 0 1 1 3.24 1.16 1.22 1.22 0 0 0-.59 1.62l1.3 2.75a1.22 1.22 0 0 0 2.2-1l-.84-1.79a4.87 4.87 0 0 0-5.19-8.14Z" class="colored"/><circle id="circle79" cx="419.11" cy="85.42" r="1.52" class="colored"/><path id="path81" d="M426.88 63.74a15.57 15.57 0 1 0 9.4 19.92 15.58 15.58 0 0 0-9.4-19.92Zm-9.69 27a13.14 13.14 0 1 1 16.81-7.9 13.13 13.13 0 0 1-16.81 7.93Z" class="colored"/><path id="path83" d="M424.24 71.1A4.87 4.87 0 0 0 418 74a1.22 1.22 0 0 0 .73 1.56 1.23 1.23 0 0 0 1.56-.74 2.43 2.43 0 1 1 1.49 3.18 1.23 1.23 0 0 0-1.56.74l-1 2.86a1.23 1.23 0 0 0 .74 1.56 1.22 1.22 0 0 0 1.55-.74l.67-1.86a4.87 4.87 0 0 0 2.09-9.43Z" class="colored"/><path id="path85" d="M415 252.12a15.57 15.57 0 1 0 20.73 7.43 15.56 15.56 0 0 0-20.73-7.43Zm12.26 26a13.14 13.14 0 1 1 6.27-17.49 13.13 13.13 0 0 1-6.3 17.45Z" class="colored"/><path id="path87" d="M418.31 259.19a4.87 4.87 0 0 0-2.32 6.48 1.21 1.21 0 0 0 1.62.58 1.23 1.23 0 0 0 .58-1.62 2.43 2.43 0 1 1 3.24 1.16 1.21 1.21 0 0 0-.58 1.62l1.3 2.75a1.21 1.21 0 0 0 1.62.58 1.23 1.23 0 0 0 .58-1.62l-.85-1.79a4.87 4.87 0 0 0-5.19-8.14Z" class="colored"/><circle id="circle89" cx="303.9" cy="180.4" r="1.52" class="colored"/><path id="path91" d="M311.67 158.73a15.57 15.57 0 1 0 9.4 19.91 15.57 15.57 0 0 0-9.4-19.91Zm-9.69 27a13.14 13.14 0 1 1 16.8-7.94 13.15 13.15 0 0 1-16.78 7.97Z" class="colored"/><path id="path93" d="M309 166.08a4.87 4.87 0 0 0-6.22 2.94 1.22 1.22 0 1 0 2.29.82 2.43 2.43 0 1 1 1.47 3.12 1.22 1.22 0 0 0-1.56.73l-1 2.86a1.22 1.22 0 1 0 2.29.83l.66-1.87a4.87 4.87 0 0 0 2.09-9.43Z" class="colored"/></g><g id="g155" class="a7ac77b4-6d45-4cca-b0e2-ffcd97fb167c"><circle id="circle97" cx="220.45" cy="40.44" r="2.81" class="colored"/><circle id="circle99" cx="135.46" cy="131.6" r="2.81" class="colored"/><circle id="circle101" cx="13.05" cy="108.07" r="3.97" class="colored"/><circle id="circle103" cx="138.26" cy="215.33" r="3.97" class="colored"/><circle id="circle105" cx="233.65" cy="63.51" r="3.97" class="colored"/><rect id="rect107" width="11.14" height="2.54" x="137.03" y="4.73" class="colored" rx="1.18" transform="rotate(39.01 142.596 6)"/><rect id="rect109" width="11.14" height="2.54" x="114.52" y="147.05" class="colored" rx="1.18" transform="rotate(39.01 120.085 148.311)"/><rect id="rect111" width="11.14" height="2.54" x="129.89" y="239.39" class="colored" rx="1.18" transform="rotate(129.01 135.458 240.654)"/><rect id="rect113" width="10.18" height="2.32" x="22.55" y="36.47" class="colored" rx="1.08" transform="rotate(-45 27.641 37.64)"/><rect id="rect115" width="10.18" height="2.32" x="22.55" y="36.47" class="colored" rx="1.08" transform="rotate(45 27.64 37.639)"/><rect id="rect117" width="10.18" height="2.32" x="218.16" y="151.38" class="colored" rx="1.08" transform="rotate(39.01 223.255 152.532)"/><rect id="rect119" width="10.18" height="2.32" x="218.16" y="151.38" class="colored" rx="1.08" transform="rotate(129.01 223.253 152.54)"/><rect id="rect121" width="10.18" height="2.32" x="2.03" y="219.26" class="colored" rx="1.08"/><rect id="rect123" width="10.18" height="2.32" x="2.03" y="219.26" class="colored" rx="1.08" transform="rotate(90 7.115 220.415)"/><path id="path125" d="M118.4 60.19a1 1 0 0 1 0-1.65l2.51-1.45 2.52-1.45a1 1 0 0 1 1.42.82v5.81a.94.94 0 0 1-1.42.82l-2.52-1.45Z" class="colored"/><path id="path127" d="M22 141.52a1 1 0 0 1-1.17-1.17l.75-2.8.75-2.8a1 1 0 0 1 1.59-.43l2.08 2.05 2.05 2a1 1 0 0 1-.43 1.59l-2.8.75Z" class="colored"/><path id="path129" d="M225.49 236.14a.75.75 0 0 1-.92-.92l.59-2.21.6-2.21a.75.75 0 0 1 1.25-.34l1.62 1.62 1.62 1.62a.75.75 0 0 1-.34 1.26l-2.21.59Z" class="colored"/><path id="path131" d="M88.05 10.51a4.75 4.75 0 0 1-6.29-2.3 4.93 4.93 0 0 1-.41-1.44l-6.5 3a1.12 1.12 0 0 1-1.48-.55l-3-6.5a4.8 4.8 0 0 1-1.45.93 4.71 4.71 0 0 1-3.52 0 4.72 4.72 0 0 1-2.56-2.41A4.74 4.74 0 0 1 65.12-5a4.84 4.84 0 0 1 1.44-.41l-3-6.5a1.11 1.11 0 0 1 .54-1.48l6.5-3a4.67 4.67 0 0 1-.92-1.43 4.71 4.71 0 0 1 0-3.52 4.72 4.72 0 0 1 2.32-2.6 4.69 4.69 0 0 1 3.62-.15 4.66 4.66 0 0 1 2.67 2.45 4.64 4.64 0 0 1 .41 1.44l6.5-3a1.12 1.12 0 0 1 1.48.54l3.27 7a1.83 1.83 0 0 1-.12 1.77 1.83 1.83 0 0 1-1.53.89 2.51 2.51 0 0 0-1.08.24 2.47 2.47 0 0 0-1.3 1.41A2.51 2.51 0 0 0 86-9.48a2.53 2.53 0 0 0 3.22 1.25 2.43 2.43 0 0 0 1-.72 1.86 1.86 0 0 1 1.66-.66 1.81 1.81 0 0 1 1.42 1l3.27 7A1.12 1.12 0 0 1 96 0l-6.5 3a4.63 4.63 0 0 1 .92 1.42 4.77 4.77 0 0 1-2.36 6.1ZM74.92 7.29l6-2.8a1.83 1.83 0 0 1 2.6 1.69 2.73 2.73 0 0 0 .23 1.09 2.52 2.52 0 0 0 3.33 1.21 2.51 2.51 0 0 0 .53-4.2A1.8 1.8 0 0 1 87 2.63a1.83 1.83 0 0 1 1-1.43l6-2.8-2.49-5.49a4.88 4.88 0 0 1-1.44.93 4.71 4.71 0 0 1-3.52 0A4.72 4.72 0 0 1 84-8.54a4.74 4.74 0 0 1-.16-3.62 4.76 4.76 0 0 1 2.46-2.68 4.84 4.84 0 0 1 1.44-.41l-2.55-5.48-6 2.8a1.81 1.81 0 0 1-1.76-.13 1.8 1.8 0 0 1-.84-1.57 2.39 2.39 0 0 0-.23-1.08A2.52 2.52 0 0 0 74.89-22a2.48 2.48 0 0 0-1.91.09 2.53 2.53 0 0 0-1.26 3.22 2.68 2.68 0 0 0 .72 1 1.8 1.8 0 0 1 .66 1.65 1.83 1.83 0 0 1-1 1.43l-6 2.8 2.8 6A1.83 1.83 0 0 1 68.71-4a1.83 1.83 0 0 1-1.57.83 2.54 2.54 0 0 0-1.08.17A2.51 2.51 0 0 0 64.84.34a2.53 2.53 0 0 0 3.22 1.26 2.43 2.43 0 0 0 1-.72A1.86 1.86 0 0 1 70.7.22a1.81 1.81 0 0 1 1.42 1Z" class="colored"/><path id="path133" d="M200.38 96.42a4.1 4.1 0 0 1-5.63-1.37 3.9 3.9 0 0 1-.49-1.2L189 97.07a1 1 0 0 1-1.33-.32l-3.22-5.31a4.1 4.1 0 1 1-5.25-6.16 3.9 3.9 0 0 1 1.2-.49l-3.22-5.31a1 1 0 0 1 .32-1.32l5.31-3.23a4.1 4.1 0 0 1 .52-6.61 4.1 4.1 0 0 1 5.63 1.37 3.9 3.9 0 0 1 .49 1.2l5.31-3.22a1 1 0 0 1 1.33.32l3.49 5.75a1.57 1.57 0 0 1 .06 1.53 1.59 1.59 0 0 1-1.27.87 2.13 2.13 0 0 0-.91.3 2.19 2.19 0 0 0-1 1.34 2.14 2.14 0 0 0 .26 1.64 2.19 2.19 0 0 0 2.89.78 2.13 2.13 0 0 0 .77-.72 1.62 1.62 0 0 1 1.36-.73 1.59 1.59 0 0 1 1.33.76l3.49 5.75a1 1 0 0 1-.32 1.33l-5.31 3.22a4.11 4.11 0 0 1-.51 6.61Zm-11.61-1.5 4.92-3a1.57 1.57 0 0 1 1.53-.07 1.6 1.6 0 0 1 .87 1.27 2.34 2.34 0 0 0 .31.92 2.16 2.16 0 0 0 3 .72 2.2 2.2 0 0 0 .76-2.9 2.38 2.38 0 0 0-.71-.77 1.58 1.58 0 0 1 0-2.68l4.92-3-2.7-4.41a4.48 4.48 0 0 1-1.15.93 4.1 4.1 0 1 1-2.9-7.59l-2.72-4.48-4.92 3a1.58 1.58 0 0 1-2.4-1.2 2.24 2.24 0 0 0-.31-.91 2.12 2.12 0 0 0-1.34-1 2.14 2.14 0 0 0-1.64.25 2.18 2.18 0 0 0-.77 2.89 2.13 2.13 0 0 0 .71.78A1.57 1.57 0 0 1 185 75a1.59 1.59 0 0 1-.76 1.33l-4.92 3 3 4.91a1.57 1.57 0 0 1 .07 1.53 1.6 1.6 0 0 1-1.27.87 2.24 2.24 0 0 0-.91.31 2.17 2.17 0 0 0-.73 3 2.19 2.19 0 0 0 2.89.77 2.13 2.13 0 0 0 .78-.71 1.58 1.58 0 0 1 2.68 0Z" class="colored"/><path id="path135" d="M200.38 287.47a4.1 4.1 0 0 1-5.63-1.37 3.9 3.9 0 0 1-.49-1.2l-5.26 3.22a1 1 0 0 1-1.33-.32l-3.22-5.31a4.1 4.1 0 1 1-5.25-6.16 3.9 3.9 0 0 1 1.2-.49l-3.22-5.31a1 1 0 0 1 .32-1.32l5.31-3.23a4.11 4.11 0 0 1 .52-6.62 4.1 4.1 0 0 1 5.63 1.37 3.9 3.9 0 0 1 .49 1.2l5.31-3.22a1 1 0 0 1 1.33.32l3.49 5.75a1.57 1.57 0 0 1 .06 1.53 1.59 1.59 0 0 1-1.27.87 2.13 2.13 0 0 0-.91.3 2.19 2.19 0 0 0-1 1.34 2.14 2.14 0 0 0 .26 1.64 2.19 2.19 0 0 0 2.89.78 2.13 2.13 0 0 0 .77-.72 1.62 1.62 0 0 1 1.36-.73 1.59 1.59 0 0 1 1.33.76l3.49 5.75a1 1 0 0 1-.32 1.33l-5.31 3.22a4.11 4.11 0 0 1-.51 6.61ZM188.77 286l4.92-3a1.57 1.57 0 0 1 1.53-.07 1.6 1.6 0 0 1 .87 1.27 2.34 2.34 0 0 0 .31.92 2.16 2.16 0 0 0 3 .72 2.2 2.2 0 0 0 .76-2.9 2.38 2.38 0 0 0-.71-.77 1.58 1.58 0 0 1 0-2.68l4.92-3-2.7-4.49a4.48 4.48 0 0 1-1.15.93 4.1 4.1 0 1 1-2.9-7.59l-2.72-4.48-4.92 3a1.58 1.58 0 0 1-2.4-1.2 2.24 2.24 0 0 0-.31-.91 2.12 2.12 0 0 0-1.34-1 2.14 2.14 0 0 0-1.64.25 2.18 2.18 0 0 0-.77 2.89 2.13 2.13 0 0 0 .71.78A1.57 1.57 0 0 1 185 266a1.59 1.59 0 0 1-.76 1.33l-4.92 3 3 4.92a1.57 1.57 0 0 1 .07 1.53 1.6 1.6 0 0 1-1.27.87 2.24 2.24 0 0 0-.91.31 2.17 2.17 0 0 0-.73 3 2.19 2.19 0 0 0 2.89.77 2.13 2.13 0 0 0 .78-.71 1.58 1.58 0 0 1 2.68 0Z" class="colored"/><path id="path137" d="M73.51 201.61a4.53 4.53 0 0 1-2.71-5.82 4.57 4.57 0 0 1 .7-1.26l-6.5-2.36a1.08 1.08 0 0 1-.64-1.37l2.36-6.46a4.54 4.54 0 1 1 3-8.11l2.36-6.46a1.08 1.08 0 0 1 1.37-.64l6.46 2.37a4.64 4.64 0 0 1 .35-1.6 4.49 4.49 0 0 1 2.36-2.41 4.59 4.59 0 0 1 3.38-.12 4.53 4.53 0 0 1 2.71 5.82 4.57 4.57 0 0 1-.7 1.26l6.46 2.36a1.06 1.06 0 0 1 .63 1.37l-2.55 7a1.76 1.76 0 0 1-2.92.61 2.39 2.39 0 0 0-.89-.57 2.36 2.36 0 0 0-1.84.08 2.39 2.39 0 0 0-1.24 1.35 2.39 2.39 0 0 0 2.49 3.21 1.76 1.76 0 0 1 1.85 2.36l-2.56 7a1.08 1.08 0 0 1-1.37.64l-6.46-2.37a4.55 4.55 0 0 1-6.08 4.13Zm-6.73-11.08 6 2.19a1.7 1.7 0 0 1 1.1 1.28 1.74 1.74 0 0 1-.49 1.63 2.29 2.29 0 0 0-.58.89 2.4 2.4 0 0 0 1.43 3.08 2.44 2.44 0 0 0 3-1.34 2.4 2.4 0 0 0 .18-1.15 1.75 1.75 0 0 1 2.35-1.83l6 2.19 2-5.46a4.63 4.63 0 0 1-1.6-.34 4.54 4.54 0 0 1 3.31-8.46 4.15 4.15 0 0 1 1.25.7l2-5.46-6-2.18a1.76 1.76 0 0 1-.62-2.92 2.4 2.4 0 1 0-3.89-2.64 2.29 2.29 0 0 0-.18 1.15 1.75 1.75 0 0 1-2.35 1.83l-6-2.19-2.19 6a1.72 1.72 0 0 1-1.28 1.11 1.74 1.74 0 0 1-1.63-.49A2.4 2.4 0 1 0 66 182a2.33 2.33 0 0 0 1.16.18 1.75 1.75 0 0 1 1.84 2.36Z" class="colored"/><path id="path139" d="M196.18-24.25a15.56 15.56 0 0 0-7.43 20.73 15.56 15.56 0 0 0 20.73 7.43 15.55 15.55 0 0 0 7.43-20.73 15.56 15.56 0 0 0-20.73-7.43Zm12.26 26A13.13 13.13 0 0 1 191-4.56 13.13 13.13 0 0 1 197.22-22a13.13 13.13 0 0 1 17.49 6.27 13.13 13.13 0 0 1-6.27 17.44Z" class="colored"/><circle id="circle141" cx="190.85" cy="186.53" r="1.52" class="colored"/><path id="path143" d="M181 165.72a15.57 15.57 0 1 0 20.73 7.42 15.57 15.57 0 0 0-20.73-7.42Zm12.27 26a13.14 13.14 0 1 1 6.26-17.5 13.14 13.14 0 0 1-6.25 17.46Z" class="colored"/><path id="path145" d="M184.35 172.78a4.87 4.87 0 0 0-2.32 6.48 1.22 1.22 0 0 0 2.2-1 2.43 2.43 0 1 1 3.24 1.16 1.22 1.22 0 0 0-.58 1.62l1.3 2.75a1.21 1.21 0 0 0 1.62.58 1.23 1.23 0 0 0 .58-1.62l-.85-1.78a4.87 4.87 0 0 0-5.19-8.15Z" class="colored"/><circle id="circle147" cx="69.94" cy="92.55" r="1.52" class="colored"/><path id="path149" d="M77.71 70.88a15.57 15.57 0 1 0 9.41 19.91 15.55 15.55 0 0 0-9.41-19.91ZM68 97.91A13.14 13.14 0 1 1 84.83 90 13.14 13.14 0 0 1 68 97.91Z" class="colored"/><path id="path151" d="M75.07 78.23a4.88 4.88 0 0 0-6.22 2.94 1.22 1.22 0 1 0 2.29.82 2.43 2.43 0 1 1 1.47 3.12 1.22 1.22 0 0 0-1.56.73L70 88.7a1.22 1.22 0 1 0 2.29.83l.71-1.87a4.87 4.87 0 0 0 2.08-9.43Z" class="colored"/><path id="path153" d="M65.8 259.25a15.58 15.58 0 1 0 20.74 7.43 15.58 15.58 0 0 0-20.74-7.43Zm12.27 26a13.14 13.14 0 1 1 6.27-17.5 13.15 13.15 0 0 1-6.27 17.47Z" class="colored"/></g></g></g></svg>