<svg viewBox="0 0 495.11 262" opacity="0.05">
    <g class="colored">
        <path d="M-96.3,152.21A31.79,31.79,0,0,1-87,129.64a31.76,31.76,0,0,1,22.67-9.42,31.76,31.76,0,0,1,10,1.59V73.38a7.55,7.55,0,0,1,7.54-7.54H1.66A32.12,32.12,0,0,1,.1,54.35,32,32,0,0,1,64,55.85a31.66,31.66,0,0,1-1.6,10h48.42a7.54,7.54,0,0,1,7.54,7.54v48.44a32.06,32.06,0,0,1,42,30.28v.11a32,32,0,0,1-42,30.39V231a7.53,7.53,0,0,1-7.54,7.54H58.43A12.37,12.37,0,0,1,47.3,220.79,16.9,16.9,0,0,0,32,196.58a17.06,17.06,0,0,0-16.85,16.13,16.64,16.64,0,0,0,1.63,8.07A12.37,12.37,0,0,1,5.67,238.56H-46.77A7.54,7.54,0,0,1-54.31,231V182.59a32.26,32.26,0,0,1-11.35,1.57,31.74,31.74,0,0,1-21.66-9.79,31.91,31.91,0,0,1-9-22Zm57.07-71.29v44.91A12.28,12.28,0,0,1-45,136.28,12.36,12.36,0,0,1-57,137a16.67,16.67,0,0,0-7.3-1.65,16.74,16.74,0,0,0-12,5,16.78,16.78,0,0,0-4.93,11.93v.08A17.08,17.08,0,0,0-65,169.1a16.83,16.83,0,0,0,8-1.64,12.4,12.4,0,0,1,12,.68,12.27,12.27,0,0,1,5.77,10.45v44.89H1.66A32.19,32.19,0,0,1,.09,212.06,32.11,32.11,0,0,1,32,181.5a32,32,0,0,1,30.46,42h40.88V178.59a12.38,12.38,0,0,1,17.78-11.13,16.94,16.94,0,0,0,19.28-3.32,16.87,16.87,0,0,0,4.93-12,17.08,17.08,0,0,0-16.16-16.84,16.7,16.7,0,0,0-8,1.64,12.38,12.38,0,0,1-17.79-11.12V80.92H58.43A12.37,12.37,0,0,1,47.3,63.15,16.71,16.71,0,0,0,49,55.85a16.91,16.91,0,1,0-32.17,7.3A12.37,12.37,0,0,1,5.67,80.92Z" />
        <path d="M234.68,113.16a11.64,11.64,0,0,1,8-14.34,11.69,11.69,0,0,1,3.66-.43L241.6,81.46a2.75,2.75,0,0,1,1.89-3.38l16.93-4.77a12,12,0,0,1-1.68-3.86,11.62,11.62,0,1,1,22.94-2.13l16.92-4.77A2.74,2.74,0,0,1,302,64.44l4.78,16.94a11.64,11.64,0,0,1,17.66,6.45v0a11.63,11.63,0,0,1-11.68,14.76l4.77,16.93a2.74,2.74,0,0,1-1.9,3.38l-18.33,5.17a4.5,4.5,0,0,1-5.64-5.12,6.13,6.13,0,0,0-3.06-6.41,6,6,0,0,0-4.67-.55,6.2,6.2,0,0,0-4.3,7.3A6,6,0,0,0,281,126a4.5,4.5,0,0,1-2.14,7.32l-18.33,5.16a2.74,2.74,0,0,1-3.38-1.89l-4.77-16.94a11.64,11.64,0,0,1-17.66-6.43Zm12.93-30.55L252,98.31a4.49,4.49,0,0,1-5.12,5.64,6.26,6.26,0,0,0-2.72.14,6.14,6.14,0,0,0-4.24,7.58v0a6.19,6.19,0,0,0,7.31,4.28,6,6,0,0,0,2.64-1.36,4.52,4.52,0,0,1,4.27-1,4.47,4.47,0,0,1,3.05,3.09l4.42,15.7,14.3-4a11.89,11.89,0,0,1-1.68-3.84,11.62,11.62,0,0,1,22.5-5.81,11.69,11.69,0,0,1,.43,3.66l14.29-4-4.42-15.7a4.5,4.5,0,0,1,5.12-5.64,6.14,6.14,0,0,0,6.95-7.74A6.19,6.19,0,0,0,311.84,85a6,6,0,0,0-2.65,1.36,4.5,4.5,0,0,1-7.31-2.13l-4.43-15.7L281.76,73a4.49,4.49,0,0,1-5.64-5.12,6.06,6.06,0,0,0-.14-2.71,6.14,6.14,0,0,0-11.9,3,6.23,6.23,0,0,0,1.37,2.68,4.49,4.49,0,0,1-2.14,7.31Z" />
        <path d="M224.25,252.57a11.21,11.21,0,0,1,7.62-16.47l-8.28-14.78a2.63,2.63,0,0,1,1-3.59l14.78-8.29a11.22,11.22,0,0,1,2.1-18,11.21,11.21,0,0,1,15.24,4.29,11,11,0,0,1,1.22,3.33l14.78-8.28a2.63,2.63,0,0,1,3.59,1l8.29,14.79a11.25,11.25,0,0,1,3.21-2.43,11.24,11.24,0,0,1,14.79,4.49l0,0a11.2,11.2,0,0,1-4.3,15.24,11,11,0,0,1-3.33,1.22l8.29,14.79a2.64,2.64,0,0,1-1,3.59l-16,9a4.34,4.34,0,0,1-6.44-3.53,6,6,0,0,0-.74-2.51A5.92,5.92,0,0,0,268.63,252a5.69,5.69,0,0,0,1.88,2.19,4.34,4.34,0,0,1-.36,7.33l-16,9a2.64,2.64,0,0,1-3.59-1l-8.29-14.79a11.2,11.2,0,0,1-18-2ZM229.48,221l7.68,13.71a4.34,4.34,0,0,1-3.53,6.44,5.75,5.75,0,0,0-2.51.74,5.94,5.94,0,0,0-2.27,8.06l0,0a6,6,0,0,0,7.81,2.37,5.88,5.88,0,0,0,2.17-1.88,4.36,4.36,0,0,1,3.79-1.85,4.29,4.29,0,0,1,3.54,2.21l7.68,13.71,12.49-7a11.33,11.33,0,0,1-2.44-3.22,11.2,11.2,0,0,1,19.77-10.5,10.86,10.86,0,0,1,1.22,3.33l12.48-7-7.68-13.7a4.34,4.34,0,0,1,3.53-6.44,6,6,0,0,0,5.32-4.31,5.92,5.92,0,0,0-8.36-6.88,5.73,5.73,0,0,0-2.18,1.87,4.33,4.33,0,0,1-7.33-.35L273,196.66l-13.71,7.68a4.33,4.33,0,0,1-6.43-3.53,5.93,5.93,0,0,0-8.8-4.78,6,6,0,0,0-2.4,7.81,5.78,5.78,0,0,0,1.88,2.19,4.33,4.33,0,0,1-.35,7.33Z" />
        <path d="M389.56,168.75a3.89,3.89,0,0,1,4.77-2.77,4,4,0,0,1,1.13.5l1.53-5.71a.91.91,0,0,1,1.12-.65l5.71,1.53a4.24,4.24,0,0,1,.18-1.41,3.85,3.85,0,0,1,1.85-2.23,3.89,3.89,0,0,1,5.64,4.42,3.71,3.71,0,0,1-.5,1.13l5.71,1.53a.91.91,0,0,1,.65,1.12l-1.52,5.71a3.92,3.92,0,0,1,3.63,2,3.83,3.83,0,0,1,.36,2.87v0a3.89,3.89,0,0,1-4.78,2.76,4.1,4.1,0,0,1-1.13-.5l-1.52,5.71a.92.92,0,0,1-1.13.65l-6.18-1.65a1.5,1.5,0,0,1-1.05-1,1.49,1.49,0,0,1,.3-1.44,2,2,0,0,0,.42-.81,2.07,2.07,0,0,0-1.46-2.52,2.08,2.08,0,0,0-2.5,1.37,2.12,2.12,0,0,0-.06,1,1.51,1.51,0,0,1-1.87,1.75l-6.18-1.65a.93.93,0,0,1-.66-1.13l1.53-5.71a3.87,3.87,0,0,1-3.63-2,3.91,3.91,0,0,1-.37-2.88Zm23.71,8.34a1.51,1.51,0,0,1,1.44.3,2,2,0,0,0,.81.42,2,2,0,0,0,1.56-.21,2,2,0,0,0,1-1.25,2.09,2.09,0,0,0-1.37-2.5,2.12,2.12,0,0,0-1-.06,1.51,1.51,0,0,1-1.75-1.87l1.41-5.29L410,165.21a1.48,1.48,0,0,1-1.05-1,1.52,1.52,0,0,1,.3-1.43,2.09,2.09,0,0,0,.42-.81,2.06,2.06,0,0,0-3.95-1.16,2,2,0,0,0-.07,1,1.5,1.5,0,0,1-1.87,1.74l-5.29-1.41-1.42,5.29a1.51,1.51,0,0,1-2.44.75,2.09,2.09,0,0,0-.81-.42,2.06,2.06,0,0,0-1.57.21,2.08,2.08,0,0,0-1,1.25h0a2.08,2.08,0,0,0,1.38,2.49,2.12,2.12,0,0,0,1,.06,1.48,1.48,0,0,1,1.39.46,1.46,1.46,0,0,1,.35,1.41L394,179l4.82,1.28a3.65,3.65,0,0,1,.18-1.39,3.83,3.83,0,0,1,1.84-2.24,3.86,3.86,0,0,1,2.88-.36,3.89,3.89,0,0,1,2.77,4.78,4.24,4.24,0,0,1-.5,1.13l4.82,1.28" />
        <path d="M448.71,257a6.44,6.44,0,0,1,7.87-4.56,6.49,6.49,0,0,1,1.86.83l2.52-9.41a1.51,1.51,0,0,1,1.85-1.07l9.41,2.51a6.47,6.47,0,0,1,.29-2.31,6.46,6.46,0,0,1,7.79-4.27,6.44,6.44,0,0,1,3.73,9.74l9.41,2.51a1.51,1.51,0,0,1,1.07,1.85L492,262.19a6.59,6.59,0,0,1,2.29.29,6.44,6.44,0,0,1,4.29,7.78v0a6.44,6.44,0,0,1-7.88,4.55,6.49,6.49,0,0,1-1.86-.83l-2.51,9.41a1.51,1.51,0,0,1-1.85,1.07l-10.19-2.72a2.45,2.45,0,0,1-1.73-1.66,2.49,2.49,0,0,1,.49-2.37,3.28,3.28,0,0,0,.7-1.33,3.4,3.4,0,1,0-6.63-.25A2.49,2.49,0,0,1,464,279l-10.19-2.72a1.52,1.52,0,0,1-1.07-1.86l2.51-9.41a6.58,6.58,0,0,1-2.29-.28,6.45,6.45,0,0,1-4.3-7.77Zm14.78-10.89-2.33,8.72a2.47,2.47,0,0,1-1.66,1.74,2.5,2.5,0,0,1-2.37-.5,3.39,3.39,0,0,0-3.92-.35,3.36,3.36,0,0,0-1.57,2.06v0a3.43,3.43,0,0,0,2.28,4.1,3.38,3.38,0,0,0,1.64.1,2.49,2.49,0,0,1,2.88,3.08l-2.33,8.73,7.94,2.12a6.62,6.62,0,0,1,.29-2.3,6.43,6.43,0,0,1,12.35,3.59,6.49,6.49,0,0,1-.83,1.86l7.94,2.12,2.33-8.72a2.49,2.49,0,0,1,4-1.24,3.4,3.4,0,0,0,5.5-1.72,3.43,3.43,0,0,0-2.27-4.11,3.38,3.38,0,0,0-1.64-.1,2.5,2.5,0,0,1-2.3-.75,2.46,2.46,0,0,1-.58-2.33l2.33-8.72-8.72-2.33a2.48,2.48,0,0,1-1.24-4,3.51,3.51,0,0,0,.7-1.34,3.4,3.4,0,0,0-6.53-1.91,3.47,3.47,0,0,0-.1,1.66,2.5,2.5,0,0,1-.75,2.3,2.46,2.46,0,0,1-2.33.58Z" />
    </g>
</svg>