<svg xmlns="http://www.w3.org/2000/svg" viewBox="0 0 253.97 140.69"><defs></defs><g id="bd17192d-bae3-4705-b0dc-644362e99db5" data-name="badges"><circle fill="current" cx="139.02" cy="28.41" r="1.25"/><circle fill="current" cx="12.58" cy="110.17" r="1.25"/><circle fill="current" cx="5.37" cy="27.16" r="1.25"/><circle fill="current" cx="99.73" cy="136.69" r="1.25"/><circle fill="current" cx="101.08" cy="69.11" r="1.25"/><path fill="current" d="M46.43,60.78A2.18,2.18,0,1,1,48.6,58.6,2.19,2.19,0,0,1,46.43,60.78Zm0-3.54a1.37,1.37,0,1,0,1.36,1.36A1.36,1.36,0,0,0,46.43,57.24Z"/><path fill="current" d="M102.33,108.66a2.18,2.18,0,1,1,2.18-2.17A2.18,2.18,0,0,1,102.33,108.66Zm0-3.54a1.37,1.37,0,1,0,1.37,1.37A1.37,1.37,0,0,0,102.33,105.12Z"/><path fill="current" d="M144.92,40.88a2.18,2.18,0,1,1,2.17-2.17A2.18,2.18,0,0,1,144.92,40.88Zm0-3.54a1.37,1.37,0,1,0,1.36,1.37A1.37,1.37,0,0,0,144.92,37.34Z"/><path fill="current" d="M6.62,78.86A2.18,2.18,0,1,1,8.8,76.68,2.19,2.19,0,0,1,6.62,78.86Zm0-3.54A1.37,1.37,0,1,0,8,76.68,1.37,1.37,0,0,0,6.62,75.32Z"/><rect fill="current" x="101.78" y="12.47" width="4.97" height="1.13" rx="0.57" transform="translate(31.45 -62.72) rotate(39.01)"/><rect fill="current" x="91.73" y="76" width="4.97" height="1.13" rx="0.57" transform="translate(69.2 -42.23) rotate(39.01)"/><rect fill="current" x="98.59" y="117.23" width="4.97" height="1.13" rx="0.57" transform="translate(256.23 113.4) rotate(129.01)"/><rect fill="current" x="-0.43" y="122.86" width="4.97" height="1.13" rx="0.57" transform="translate(78.15 26.22) rotate(39.01)"/><path fill="current" d="M50.88,8.85a.43.43,0,0,1,0-.74L52,7.47l1.13-.65a.42.42,0,0,1,.63.37V9.78a.42.42,0,0,1-.63.36L52,9.5Z"/><path fill="current" d="M93.46,37.23a.43.43,0,0,1,0-.74l1.12-.65,1.13-.64a.42.42,0,0,1,.63.36v2.59a.42.42,0,0,1-.63.37l-1.13-.65Z"/><path fill="current" d="M3,65a.43.43,0,0,1-.52-.52l.34-1.25L3.16,62a.42.42,0,0,1,.71-.19l.92.91.92.92a.43.43,0,0,1-.19.71l-1.25.33Z"/><path fill="current" d="M141.27,115.78a.34.34,0,0,1-.41-.41l.27-1,.26-1a.33.33,0,0,1,.56-.15l.73.72.72.72a.33.33,0,0,1-.15.56l-1,.27Z"/><path fill="current" d="M51.21,129.93a.35.35,0,0,1,0-.6l.91-.53.91-.52a.35.35,0,0,1,.52.3v2.1a.35.35,0,0,1-.52.3l-.91-.53Z"/><path fill="current" d="M53,25.33l.35.71a.38.38,0,0,0,.28.21l.78.11a.37.37,0,0,1,.21.63l-.57.55a.34.34,0,0,0-.1.33l.13.78a.37.37,0,0,1-.54.39l-.7-.36a.36.36,0,0,0-.35,0l-.69.36a.37.37,0,0,1-.54-.39l.13-.78a.38.38,0,0,0-.11-.33L50.74,27a.37.37,0,0,1,.2-.63l.78-.11A.36.36,0,0,0,52,26l.35-.71A.38.38,0,0,1,53,25.33Z"/><path fill="current" d="M52.05,70.16l.35.71a.39.39,0,0,0,.28.2l.78.11a.38.38,0,0,1,.21.64l-.57.55a.39.39,0,0,0-.1.33l.13.77a.38.38,0,0,1-.54.4l-.7-.37a.34.34,0,0,0-.34,0l-.7.37a.38.38,0,0,1-.54-.4l.13-.77a.37.37,0,0,0-.11-.33l-.56-.55a.38.38,0,0,1,.21-.64l.78-.11a.39.39,0,0,0,.28-.2l.35-.71A.36.36,0,0,1,52.05,70.16Z"/><path fill="current" d="M44,106.92l.35.71a.37.37,0,0,0,.28.2l.78.12a.37.37,0,0,1,.21.63l-.57.55a.4.4,0,0,0-.1.33l.13.78a.37.37,0,0,1-.54.39l-.7-.37a.43.43,0,0,0-.35,0l-.69.37a.37.37,0,0,1-.54-.39l.13-.78a.38.38,0,0,0-.11-.33l-.56-.55a.37.37,0,0,1,.2-.63l.78-.12a.38.38,0,0,0,.29-.2l.34-.71A.37.37,0,0,1,44,106.92Z"/><path fill="current" d="M141.12,75.87l.37.74a.4.4,0,0,0,.3.22l.82.12a.39.39,0,0,1,.22.67l-.6.58a.4.4,0,0,0-.11.34l.14.82a.39.39,0,0,1-.57.42l-.74-.39a.38.38,0,0,0-.36,0l-.74.39a.39.39,0,0,1-.57-.42l.14-.82a.4.4,0,0,0-.11-.34l-.6-.58a.39.39,0,0,1,.22-.67l.82-.12a.4.4,0,0,0,.3-.22l.37-.74A.38.38,0,0,1,141.12,75.87Z"/><path fill="current" d="M109.16.91l.34.67a.35.35,0,0,0,.26.2l.75.11a.35.35,0,0,1,.19.6l-.53.53a.33.33,0,0,0-.11.31l.13.74a.35.35,0,0,1-.51.37L109,4.09a.38.38,0,0,0-.33,0l-.67.35a.35.35,0,0,1-.51-.37l.13-.74a.33.33,0,0,0-.11-.31L107,2.49a.35.35,0,0,1,.19-.6l.75-.11a.35.35,0,0,0,.26-.2l.34-.67A.35.35,0,0,1,109.16.91Z"/><path fill="current" d="M13.15,5.38a1.65,1.65,0,0,0,.07-.88,2,2,0,0,0,1.63-1.25.3.3,0,0,0-.17-.39.31.31,0,0,0-.39.18,1.38,1.38,0,0,1-1.77.79.29.29,0,0,0-.38.17.3.3,0,0,0,.17.38,1.4,1.4,0,0,0,.29.09,1,1,0,0,1-1.31,1.28.29.29,0,0,0-.38.17.28.28,0,0,0,.17.38A1.6,1.6,0,0,0,13.15,5.38Z"/><path fill="current" d="M13.52,8a2.77,2.77,0,0,0-1.95.53,2,2,0,0,0-.66-.43.3.3,0,0,0-.22.56,1.37,1.37,0,0,1,.79,1.77.29.29,0,0,0,.18.38.3.3,0,0,0,.38-.17A2,2,0,0,0,11.93,9a2.23,2.23,0,0,1,1.52-.41A.3.3,0,1,0,13.52,8Z"/><path fill="current" d="M14.87,9.7,15.51,8M14,11.92l.64-1.67M17.42,3l.38-1A1.49,1.49,0,0,0,15.15.7a2.1,2.1,0,0,0-2.4,1.2,2.09,2.09,0,0,0-2.54,1.87A2.69,2.69,0,0,0,8.94,7.11a2.09,2.09,0,0,0,.64,3.09,2.09,2.09,0,0,0,1,2.49,1.49,1.49,0,0,0,2.85.79l.38-1m2.77-7.23.64-1.67M15.72,7.47l.64-1.67m-3.49,7.47a.89.89,0,0,1-1.67-.64.3.3,0,0,0-.17-.39,1.48,1.48,0,0,1-.86-1.92.42.42,0,0,1,.06-.14.3.3,0,0,0-.16-.41A1.49,1.49,0,0,1,9.2,7.85a1.54,1.54,0,0,1,.3-.49A.29.29,0,0,0,9.55,7a2.1,2.1,0,0,1,1.07-2.8A.29.29,0,0,0,10.8,4a1.54,1.54,0,0,1,.1-.56,1.5,1.5,0,0,1,1.92-.86.31.31,0,0,0,.25,0c.13-.06.16-.21.2-.33a1.49,1.49,0,0,1,1.92-.86.3.3,0,0,0,.39-.17.89.89,0,0,1,1.67.64Z"/><path fill="current" d="M20.64,10A.3.3,0,0,0,21,9.79a.29.29,0,0,0-.17-.38,1,1,0,0,1-.12-1.83,2.24,2.24,0,0,0,.27.13.29.29,0,0,0,.38-.17.29.29,0,0,0-.17-.39,1.38,1.38,0,0,1-.79-1.77A.3.3,0,0,0,20.26,5a.29.29,0,0,0-.38.17,2,2,0,0,0,.37,2A1.6,1.6,0,0,0,20.64,10Z"/><path fill="current" d="M17.73,9.56a.3.3,0,0,0-.35.48,2.17,2.17,0,0,1,.86,1.33,1.94,1.94,0,0,0-1.17,1.14.3.3,0,0,0,.17.39.31.31,0,0,0,.39-.17,1.36,1.36,0,0,1,1.76-.79.3.3,0,0,0,.22-.56,2,2,0,0,0-.78-.13,2.81,2.81,0,0,0-1.1-1.69Z"/><path fill="current" d="M16.2,8.29,15.56,10m-.21.56-.64,1.66m-.21.56-.39,1a1.49,1.49,0,0,0,2.66,1.32,2.09,2.09,0,0,0,2.39-1.19A2.1,2.1,0,0,0,21.7,12,2.69,2.69,0,0,0,23,8.65a2.1,2.1,0,0,0-.64-3.09,2.08,2.08,0,0,0-1-2.48,1.49,1.49,0,0,0-2.86-.8l-.38,1m-.21.56-.64,1.67m-.21.56-.64,1.66M19.05,2.5a.89.89,0,0,1,1.67.63.3.3,0,0,0,.17.39,1.49,1.49,0,0,1,.86,1.92c-.05.12-.13.25-.07.38a.3.3,0,0,0,.18.17,1.5,1.5,0,0,1,.86,1.92,1.54,1.54,0,0,1-.3.49.29.29,0,0,0-.06.33,2.08,2.08,0,0,1-1.07,2.79.31.31,0,0,0-.18.28,1.33,1.33,0,0,1-.1.56,1.48,1.48,0,0,1-1.92.86.31.31,0,0,0-.4.2.58.58,0,0,1-.05.14,1.49,1.49,0,0,1-1.92.86.3.3,0,0,0-.38.17A.89.89,0,0,1,14.67,14Z"/><path fill="current" d="M70.55,46.66a1.56,1.56,0,0,0,.07-.88,2,2,0,0,0,1.63-1.25.3.3,0,1,0-.56-.22,1.37,1.37,0,0,1-1.77.79.3.3,0,0,0-.38.17.3.3,0,0,0,.17.39,1.57,1.57,0,0,0,.29.08A1,1,0,0,1,68.69,47a.29.29,0,0,0-.38.17.3.3,0,0,0,.17.38A1.61,1.61,0,0,0,70.55,46.66Z"/><path fill="current" d="M70.92,49.23a2.72,2.72,0,0,0-2,.53,2,2,0,0,0-.66-.43.3.3,0,0,0-.22.56,1.36,1.36,0,0,1,.79,1.76.31.31,0,0,0,.18.39.3.3,0,0,0,.38-.17,2,2,0,0,0-.11-1.64,2.18,2.18,0,0,1,1.52-.41.3.3,0,1,0,.07-.59Z"/><path fill="current" d="M72.27,51l.64-1.67m-1.49,3.9.64-1.67m2.76-7.23.38-1A1.49,1.49,0,0,0,72.55,42a2.1,2.1,0,0,0-2.4,1.19,2.1,2.1,0,0,0-2.54,1.88,2.69,2.69,0,0,0-1.27,3.34A2.09,2.09,0,0,0,67,51.48,2.08,2.08,0,0,0,68,54a1.49,1.49,0,0,0,2.85.8l.39-1M74,46.52l.64-1.67m-1.49,3.9.64-1.67m-3.49,7.46a.89.89,0,0,1-1.67-.64.3.3,0,0,0-.17-.38,1.48,1.48,0,0,1-.86-1.92l.06-.14a.3.3,0,0,0-.16-.41,1.49,1.49,0,0,1-.57-2.41.31.31,0,0,0,0-.33A2.11,2.11,0,0,1,68,45.51a.27.27,0,0,0,.18-.28,1.54,1.54,0,0,1,.1-.56,1.5,1.5,0,0,1,1.92-.86.28.28,0,0,0,.25,0c.14-.06.16-.21.2-.33a1.49,1.49,0,0,1,1.92-.86.3.3,0,0,0,.39-.17.89.89,0,0,1,1.67.63Z"/><path fill="current" d="M78.05,51.24a.3.3,0,0,0,.38-.17.3.3,0,0,0-.17-.39,1,1,0,0,1-.12-1.82l.27.13a.31.31,0,0,0,.39-.18.3.3,0,0,0-.18-.38,1.38,1.38,0,0,1-.79-1.77.29.29,0,0,0-.17-.38.29.29,0,0,0-.38.17,2,2,0,0,0,.37,2,1.63,1.63,0,0,0-.53.71A1.61,1.61,0,0,0,78.05,51.24Z"/><path fill="current" d="M75.13,50.84a.3.3,0,0,0-.35.48,2.15,2.15,0,0,1,.86,1.32,2,2,0,0,0-1.17,1.15.29.29,0,0,0,.17.38A.29.29,0,0,0,75,54a1.37,1.37,0,0,1,1.76-.79.3.3,0,1,0,.22-.55,2,2,0,0,0-.78-.13,2.76,2.76,0,0,0-1.1-1.69Z"/><path fill="current" d="M73.6,49.57,73,51.24m-.21.55-.64,1.67M71.9,54l-.39,1a1.49,1.49,0,0,0,2.66,1.31,2.07,2.07,0,0,0,2.39-1.19,2.08,2.08,0,0,0,2.54-1.87,2.7,2.7,0,0,0,1.28-3.34,2.09,2.09,0,0,0-.64-3.09,2.09,2.09,0,0,0-1-2.49,1.49,1.49,0,0,0-2.86-.79l-.38,1m-.21.56-.64,1.67m-.21.55L73.81,49m2.64-5.24a.89.89,0,0,1,1.67.64.31.31,0,0,0,.17.39,1.49,1.49,0,0,1,.86,1.92c-.05.12-.13.24-.07.38a.3.3,0,0,0,.18.17,1.48,1.48,0,0,1,.56,2.4.29.29,0,0,0-.06.33,2.09,2.09,0,0,1-1.07,2.8.31.31,0,0,0-.18.28,1.53,1.53,0,0,1-.09.56,1.5,1.5,0,0,1-1.93.86.3.3,0,0,0-.4.2s0,.09,0,.14a1.5,1.5,0,0,1-1.93.86.3.3,0,0,0-.38.17.89.89,0,0,1-1.67-.64Z"/><path fill="current" d="M127.49,8.26a1.56,1.56,0,0,0-.57-.67,2,2,0,0,0,.26-2,.3.3,0,1,0-.54.24A1.37,1.37,0,0,1,126,7.6a.3.3,0,0,0-.15.4.3.3,0,0,0,.39.15l.26-.14a1,1,0,0,1,0,1.82.31.31,0,0,0-.15.4.3.3,0,0,0,.4.15A1.61,1.61,0,0,0,127.49,8.26Z"/><path fill="current" d="M129.56,9.82a2.76,2.76,0,0,0-1,1.75,1.8,1.8,0,0,0-.78.17.3.3,0,0,0,.25.54,1.37,1.37,0,0,1,1.81.69.29.29,0,0,0,.39.15.29.29,0,0,0,.15-.39,2,2,0,0,0-1.23-1.08,2.16,2.16,0,0,1,.78-1.37.3.3,0,1,0-.38-.46Z"/><path fill="current" d="M131.76,10.1,131,8.46m1.7,3.81L132,10.64m-3.16-7.07-.44-1a1.49,1.49,0,0,0-2.81,1,2.09,2.09,0,0,0-.85,2.54,2.09,2.09,0,0,0-.46,3.12,2.69,2.69,0,0,0,1.45,3.26,2.09,2.09,0,0,0,2.64,1.73,2.08,2.08,0,0,0,2.46,1.06,1.49,1.49,0,0,0,2.58-1.46l-.44-1m-3.16-7.06-.73-1.63m1.7,3.8-.72-1.63m2.8,7.75a.89.89,0,0,1-1.63.72.3.3,0,0,0-.39-.15,1.49,1.49,0,0,1-2-.75.58.58,0,0,1-.05-.14.3.3,0,0,0-.41-.17,1.5,1.5,0,0,1-2-.75,1.58,1.58,0,0,1-.13-.56.3.3,0,0,0-.19-.27,2.09,2.09,0,0,1-1.23-2.73.3.3,0,0,0-.07-.33,1.65,1.65,0,0,1-.32-.46,1.5,1.5,0,0,1,.75-2,.3.3,0,0,0,.17-.18c0-.14,0-.26-.09-.38a1.48,1.48,0,0,1,.75-2,.3.3,0,0,0,.15-.4.89.89,0,0,1,1.63-.72Z"/><path fill="current" d="M136,6.2a.3.3,0,1,0-.24-.54,1,1,0,0,1-1.38-1.21l.28-.1a.3.3,0,0,0,.15-.4.3.3,0,0,0-.39-.15,1.37,1.37,0,0,1-1.81-.69.3.3,0,1,0-.54.25,2,2,0,0,0,1.69,1.16,1.64,1.64,0,0,0,.12.87A1.6,1.6,0,0,0,136,6.2Z"/><path fill="current" d="M133.69,8a.29.29,0,1,0,.09.58,2.19,2.19,0,0,1,1.54.33,2,2,0,0,0,0,1.64.3.3,0,0,0,.4.15.29.29,0,0,0,.15-.39,1.37,1.37,0,0,1,.69-1.81.3.3,0,0,0-.24-.54,2,2,0,0,0-.65.46,2.76,2.76,0,0,0-2-.42Z"/><path fill="current" d="M131.7,8.16l.73,1.63m.24.55L133.4,12m.25.54.43,1a1.49,1.49,0,0,0,2.81-1,2.08,2.08,0,0,0,.85-2.53,2.1,2.1,0,0,0,.47-3.13,2.7,2.7,0,0,0-1.46-3.26,2.09,2.09,0,0,0-2.64-1.73A2.08,2.08,0,0,0,131.66.83a1.49,1.49,0,0,0-2.58,1.46l.44,1m.24.54.73,1.63m.24.55.73,1.63m-1.84-5.57a.89.89,0,0,1,1.63-.73.3.3,0,0,0,.4.15,1.48,1.48,0,0,1,2,.75c0,.12.08.27.22.32a.31.31,0,0,0,.25,0,1.5,1.5,0,0,1,2,.76,1.47,1.47,0,0,1,.12.55.32.32,0,0,0,.2.27,2.09,2.09,0,0,1,1.22,2.74.31.31,0,0,0,.07.32,1.43,1.43,0,0,1,.33.47,1.5,1.5,0,0,1-.76,2,.3.3,0,0,0-.14.42.54.54,0,0,1,.07.13,1.5,1.5,0,0,1-.75,2,.29.29,0,0,0-.15.39.89.89,0,0,1-1.63.73Z"/><path fill="current" d="M121,92.27a1.64,1.64,0,0,0-.57-.68,2,2,0,0,0,.26-2,.3.3,0,0,0-.54.24,1.37,1.37,0,0,1-.69,1.81.29.29,0,0,0-.15.39.29.29,0,0,0,.39.15L120,92a1,1,0,0,1,0,1.83.29.29,0,0,0-.15.39.29.29,0,0,0,.39.15A1.61,1.61,0,0,0,121,92.27Z"/><path fill="current" d="M123.12,93.82a2.73,2.73,0,0,0-1,1.75,2,2,0,0,0-.78.17.3.3,0,0,0,.25.54,1.38,1.38,0,0,1,1.81.7.3.3,0,0,0,.39.15.3.3,0,0,0,.15-.4,2,2,0,0,0-1.23-1.08,2.11,2.11,0,0,1,.78-1.36.3.3,0,0,0-.37-.47Z"/><path fill="current" d="M125.31,94.1l-.73-1.63m1.7,3.81-.73-1.64m-3.16-7.06-.44-1a1.49,1.49,0,0,0-2.8,1,2.09,2.09,0,0,0-.86,2.53,2.09,2.09,0,0,0-.46,3.12,2.7,2.7,0,0,0,1.45,3.27,2.09,2.09,0,0,0,2.64,1.73,2.11,2.11,0,0,0,2.46,1.06A1.49,1.49,0,0,0,127,97.8l-.44-1m-3.16-7.07-.73-1.63m1.7,3.81-.72-1.63m2.8,7.74a.89.89,0,0,1-1.63.73.29.29,0,0,0-.39-.15,1.5,1.5,0,0,1-2-.75l0-.14a.3.3,0,0,0-.41-.18,1.49,1.49,0,0,1-2.1-1.3.29.29,0,0,0-.19-.27,2.1,2.1,0,0,1-1.23-2.74.28.28,0,0,0-.07-.32,1.56,1.56,0,0,1-.32-.47,1.49,1.49,0,0,1,.75-2,.32.32,0,0,0,.17-.19c0-.13,0-.25-.09-.37a1.49,1.49,0,0,1,.75-2,.29.29,0,0,0,.15-.39.89.89,0,0,1,1.63-.73Z"/><path fill="current" d="M129.58,90.2a.29.29,0,0,0,.15-.39.29.29,0,0,0-.39-.15A1,1,0,0,1,128,88.45a1.33,1.33,0,0,0,.28-.1.3.3,0,0,0-.24-.54,1.37,1.37,0,0,1-1.81-.69.29.29,0,0,0-.39-.15.29.29,0,0,0-.15.39,2,2,0,0,0,1.69,1.16,1.66,1.66,0,0,0,.12.88A1.61,1.61,0,0,0,129.58,90.2Z"/><path fill="current" d="M127.24,92a.3.3,0,0,0,.09.59,2.14,2.14,0,0,1,1.54.33,2,2,0,0,0,0,1.64.31.31,0,0,0,.4.15.3.3,0,0,0,.15-.4,1.37,1.37,0,0,1,.69-1.81.3.3,0,0,0-.24-.54,2,2,0,0,0-.65.46,2.76,2.76,0,0,0-2-.42Z"/><path fill="current" d="M125.25,92.17,126,93.8m.24.54L127,96m.25.55.43,1a1.49,1.49,0,0,0,2.81-1,2.09,2.09,0,0,0,.85-2.54,2.09,2.09,0,0,0,.47-3.12,2.69,2.69,0,0,0-1.46-3.26,2.1,2.1,0,0,0-2.64-1.74,2.07,2.07,0,0,0-2.45-1,1.49,1.49,0,0,0-2.58,1.46l.44,1m.24.55.73,1.63m.24.54.73,1.63m-1.84-5.57a.89.89,0,0,1,1.63-.73.3.3,0,0,0,.4.15,1.49,1.49,0,0,1,2,.76c0,.12.08.26.22.31a.28.28,0,0,0,.25,0,1.51,1.51,0,0,1,2,.75,1.53,1.53,0,0,1,.13.56.3.3,0,0,0,.19.27,2.08,2.08,0,0,1,1.22,2.73.33.33,0,0,0,.07.33,1.48,1.48,0,0,1-.43,2.43.3.3,0,0,0-.14.42.83.83,0,0,1,.07.13,1.49,1.49,0,0,1-.75,2,.29.29,0,0,0-.15.39.89.89,0,0,1-1.63.73Z"/><path fill="current" d="M69.6,133.06a1.57,1.57,0,0,0-.57-.68,2,2,0,0,0,.27-2,.3.3,0,0,0-.55.24,1.37,1.37,0,0,1-.69,1.81.3.3,0,0,0,.24.55,1.73,1.73,0,0,0,.27-.15,1,1,0,0,1,0,1.83.3.3,0,0,0,.24.55A1.6,1.6,0,0,0,69.6,133.06Z"/><path fill="current" d="M71.68,134.62a2.75,2.75,0,0,0-1,1.74,2.1,2.1,0,0,0-.77.17.3.3,0,0,0,.24.55,1.37,1.37,0,0,1,1.81.69.3.3,0,0,0,.54-.24,1.91,1.91,0,0,0-1.23-1.08,2.14,2.14,0,0,1,.79-1.37.3.3,0,0,0-.38-.46Z"/><path fill="current" d="M73.87,134.89l-.73-1.63m1.7,3.81-.73-1.63M71,128.37l-.44-1a1.49,1.49,0,0,0-2.81,1,2.08,2.08,0,0,0-.85,2.53,2.1,2.1,0,0,0-.47,3.13,2.7,2.7,0,0,0,1.46,3.26A2.09,2.09,0,0,0,70.49,139a2.07,2.07,0,0,0,2.45,1.06,1.49,1.49,0,0,0,2.58-1.46l-.43-1m-3.16-7.07-.73-1.63m1.7,3.81-.73-1.63M75,138.83a.89.89,0,0,1-1.63.73.3.3,0,0,0-.39-.15,1.49,1.49,0,0,1-2-.75l-.06-.14a.3.3,0,0,0-.4-.18,1.49,1.49,0,0,1-2-.74,1.39,1.39,0,0,1-.13-.56.3.3,0,0,0-.2-.27A2.09,2.09,0,0,1,67,134a.31.31,0,0,0-.07-.33,1.48,1.48,0,0,1,.42-2.43.28.28,0,0,0,.17-.18c.06-.14,0-.26-.09-.38a1.48,1.48,0,0,1,.75-2,.3.3,0,0,0,.15-.4.9.9,0,0,1,1.64-.73Z"/><path fill="current" d="M78.14,131a.3.3,0,0,0,.15-.4.3.3,0,0,0-.39-.15,1,1,0,0,1-1.37-1.2l.28-.1a.3.3,0,0,0-.24-.55,1.37,1.37,0,0,1-1.81-.69.3.3,0,0,0-.55.24,1.94,1.94,0,0,0,1.69,1.16,1.57,1.57,0,0,0,.13.88A1.6,1.6,0,0,0,78.14,131Z"/><path fill="current" d="M75.8,132.77a.3.3,0,1,0,.1.59,2.2,2.2,0,0,1,1.54.33,2,2,0,0,0,0,1.64.3.3,0,0,0,.54-.24,1.38,1.38,0,0,1,.7-1.81.3.3,0,0,0-.25-.55,2.17,2.17,0,0,0-.64.47,2.74,2.74,0,0,0-2-.43Z"/><path fill="current" d="M73.82,133l.73,1.63m.24.55.73,1.63m.24.54.44,1a1.49,1.49,0,0,0,2.81-.95,2.08,2.08,0,0,0,.85-2.53,2.11,2.11,0,0,0,.47-3.13,2.7,2.7,0,0,0-1.46-3.26,2.09,2.09,0,0,0-2.64-1.73,2.08,2.08,0,0,0-2.46-1.06,1.49,1.49,0,0,0-2.58,1.46l.44,1m.24.54.73,1.63m.25.55.72,1.63m-1.83-5.57a.89.89,0,0,1,1.63-.73.29.29,0,0,0,.39.15,1.49,1.49,0,0,1,2,.75c0,.12.08.27.22.32a.31.31,0,0,0,.25,0,1.5,1.5,0,0,1,2.09,1.31.29.29,0,0,0,.2.27,2.09,2.09,0,0,1,1.22,2.73.29.29,0,0,0,.07.33,1.32,1.32,0,0,1,.32.46,1.48,1.48,0,0,1-.75,2,.3.3,0,0,0-.14.42c0,.05.05.09.07.14a1.49,1.49,0,0,1-.76,2,.31.31,0,0,0-.15.4.89.89,0,0,1-1.63.73Z"/><path fill="current" d="M18.79,90a1.65,1.65,0,0,0,.08-.88,2,2,0,0,0,1.62-1.25.3.3,0,0,0-.17-.39.31.31,0,0,0-.39.18,1.37,1.37,0,0,1-1.76.79A.3.3,0,1,0,18,89a1.61,1.61,0,0,0,.29.09,1,1,0,0,1-1.31,1.28.3.3,0,0,0-.38.17.29.29,0,0,0,.17.38A1.6,1.6,0,0,0,18.79,90Z"/><path fill="current" d="M19.16,92.6a2.74,2.74,0,0,0-1.94.53,2,2,0,0,0-.67-.43.3.3,0,0,0-.21.56A1.38,1.38,0,0,1,17.13,95a.29.29,0,0,0,.55.21,2,2,0,0,0-.1-1.64,2.2,2.2,0,0,1,1.52-.41.3.3,0,0,0,.06-.59Z"/><path fill="current" d="M20.51,94.35l.64-1.67m-1.49,3.89.64-1.67m2.76-7.23.39-1a1.49,1.49,0,0,0-2.66-1.32,2.09,2.09,0,0,0-2.39,1.2,2.08,2.08,0,0,0-2.54,1.87,2.69,2.69,0,0,0-1.28,3.34,2.09,2.09,0,0,0,.64,3.09,2.09,2.09,0,0,0,1,2.49,1.49,1.49,0,0,0,2.86.79l.38-1m2.76-7.23.64-1.67m-1.49,3.89L22,90.45m-3.49,7.47a.89.89,0,0,1-1.67-.64.3.3,0,0,0-.17-.39A1.49,1.49,0,0,1,15.81,95l.06-.14a.3.3,0,0,0-.16-.41,1.49,1.49,0,0,1-.87-1.92,1.54,1.54,0,0,1,.3-.49.27.27,0,0,0,.06-.32,2.09,2.09,0,0,1,1.07-2.8.31.31,0,0,0,.18-.28,1.53,1.53,0,0,1,.09-.56,1.51,1.51,0,0,1,1.93-.86.31.31,0,0,0,.25,0c.13-.06.15-.21.19-.33A1.5,1.5,0,0,1,20.84,86a.3.3,0,0,0,.38-.17.89.89,0,0,1,1.67.64Z"/><path fill="current" d="M26.29,94.61a.3.3,0,0,0,.38-.17.29.29,0,0,0-.17-.38,1,1,0,0,1-.12-1.83l.27.13a.3.3,0,0,0,.22-.56A1.37,1.37,0,0,1,26.08,90a.3.3,0,0,0-.18-.38.3.3,0,0,0-.38.17,2,2,0,0,0,.37,2,1.68,1.68,0,0,0-.53.7A1.6,1.6,0,0,0,26.29,94.61Z"/><path fill="current" d="M23.38,94.21a.3.3,0,1,0-.35.48A2.2,2.2,0,0,1,23.88,96a1.94,1.94,0,0,0-1.17,1.14.3.3,0,1,0,.56.22A1.37,1.37,0,0,1,25,96.59a.3.3,0,0,0,.21-.56,1.94,1.94,0,0,0-.78-.13,2.79,2.79,0,0,0-1.09-1.69Z"/><path fill="current" d="M21.84,92.94l-.64,1.67m-.21.56-.64,1.66m-.21.56-.38,1a1.49,1.49,0,0,0,2.65,1.32,2.11,2.11,0,0,0,2.4-1.19,2.1,2.1,0,0,0,2.54-1.88,2.69,2.69,0,0,0,1.27-3.34A2.09,2.09,0,0,0,28,90.21a2.08,2.08,0,0,0-1-2.48,1.49,1.49,0,0,0-2.85-.8l-.39,1m-.21.56-.64,1.67m-.21.56-.64,1.66m2.64-5.23a.89.89,0,0,1,1.67.63.3.3,0,0,0,.17.39,1.48,1.48,0,0,1,.86,1.92c-.05.12-.13.25-.07.38a.3.3,0,0,0,.18.17,1.5,1.5,0,0,1,.86,1.92,1.54,1.54,0,0,1-.3.49.31.31,0,0,0,0,.33,2.09,2.09,0,0,1-1.07,2.79.29.29,0,0,0-.18.28,1.5,1.5,0,0,1-2,1.42.31.31,0,0,0-.4.2.57.57,0,0,1,0,.14,1.49,1.49,0,0,1-1.92.86.3.3,0,0,0-.39.17.89.89,0,0,1-1.67-.64Z"/><path fill="current" d="M74,1A4.42,4.42,0,1,0,78.44,5.4,4.42,4.42,0,0,0,74,1Zm0,.42a4,4,0,0,1,3.26,1.7l-.52.52a.82.82,0,0,0-.43-.12.85.85,0,0,0-.84.84.82.82,0,0,0,.12.43L74.23,6.16a.81.81,0,0,0-.85,0l-.95-1a.93.93,0,0,0,.12-.43.84.84,0,0,0-1.66-.21h-.78A4,4,0,0,1,74,1.41Zm2.73,2.94a.41.41,0,0,1-.42.42.42.42,0,0,1-.42-.42.42.42,0,0,1,.42-.42A.42.42,0,0,1,76.75,4.35ZM74.23,6.88a.42.42,0,1,1-.42-.42A.42.42,0,0,1,74.23,6.88Zm-2.1-2.11a.43.43,0,1,1-.43-.42A.42.42,0,0,1,72.13,4.77ZM76,8.9A4,4,0,0,1,70,5.41c0-.14,0-.28,0-.43h.85a.86.86,0,0,0,.81.64,1.06,1.06,0,0,0,.43-.12l1,1a.82.82,0,0,0-.12.43.84.84,0,0,0,1.68,0,.82.82,0,0,0-.12-.43l1.38-1.37a.88.88,0,0,0,.42.11.83.83,0,0,0,.84-.84.88.88,0,0,0-.11-.42l.45-.46A4,4,0,0,1,76,8.9Z"/><path fill="current" d="M79.28,2.25a.84.84,0,0,0,.81-.63h1.29V1.2H80.09a.84.84,0,0,0-.81-.63.83.83,0,0,0-.84.84.79.79,0,0,0,.12.42l-.37.37a5.26,5.26,0,1,0-1.32,7.62l.64.63.3.3,1.69,1.69a1.1,1.1,0,0,0,1.56-1.55l-1.69-1.7-.3-.3-.64-.63a5.23,5.23,0,0,0,0-5.71l.42-.42A.82.82,0,0,0,79.28,2.25Zm0-1.26a.42.42,0,1,1-.42.42A.42.42,0,0,1,79.28,1Zm1.48,10.19a.68.68,0,0,1-1,1h0l-1.7-1.7,1-1Zm-2-2-1,1-.59-.59.09-.07.09-.07.14-.12a.46.46,0,0,0,.07-.07c.08-.08.17-.16.25-.25l.06-.06L78,8.79l.08-.09.07-.09Zm-.82-1a2.83,2.83,0,0,1-.2.28l-.07.07a2.09,2.09,0,0,1-.2.22l-.09.09-.22.2-.07.06c-.09.08-.18.14-.27.21A4.87,4.87,0,1,1,78,8.21Z"/><path fill="current" d="M20.49,42.26a4.42,4.42,0,1,0,4.42,4.42A4.42,4.42,0,0,0,20.49,42.26Zm0,.42a4,4,0,0,1,3.26,1.7l-.52.53a.82.82,0,0,0-.43-.12.85.85,0,0,0-.84.84.76.76,0,0,0,.12.42L20.7,47.43a.81.81,0,0,0-.85,0l-1-1a1.06,1.06,0,0,0,.12-.43.84.84,0,0,0-1.66-.21h-.78A4,4,0,0,1,20.49,42.68Zm2.73,3a.42.42,0,1,1-.42-.42A.42.42,0,0,1,23.22,45.63ZM20.7,48.15a.42.42,0,0,1-.42.43.43.43,0,1,1,.42-.43Zm-2.11-2.1a.42.42,0,0,1-.42.42.42.42,0,1,1,0-.84A.42.42,0,0,1,18.59,46.05Zm3.84,4.13a4,4,0,0,1-5.94-3.49c0-.15,0-.29,0-.43h.85a.84.84,0,0,0,.81.63.82.82,0,0,0,.43-.12l1,1a.79.79,0,0,0-.12.42.84.84,0,1,0,1.68,0,.79.79,0,0,0-.12-.42l1.38-1.38a.79.79,0,0,0,.42.12.84.84,0,0,0,.84-.84.76.76,0,0,0-.12-.42l.46-.46A4,4,0,0,1,22.43,50.18Z"/><path fill="current" d="M25.75,43.53a.86.86,0,0,0,.81-.63h1.29v-.43H26.56a.84.84,0,0,0-1.65.21.92.92,0,0,0,.11.43l-.36.37a5.26,5.26,0,1,0-1.32,7.62l.64.63.29.3L26,53.72a1.1,1.1,0,0,0,1.56-1.56l-1.7-1.69-.29-.3-.64-.63a5.23,5.23,0,0,0,0-5.71l.42-.42A.93.93,0,0,0,25.75,43.53Zm0-1.27a.43.43,0,1,1-.42.42A.42.42,0,0,1,25.75,42.26Zm1.48,10.2a.68.68,0,0,1-.95,1v0l-1.7-1.69,1-1Zm-2-2-1,1-.58-.58.09-.07.09-.08.14-.12.07-.06.25-.25.06-.07.12-.13.08-.1.07-.08Zm-.82-1-.2.27-.07.08-.2.22-.09.09-.22.2-.07.06-.27.21a4.87,4.87,0,1,1,1.12-1.13Z"/><path fill="current" d="M20.49,128.37a4.42,4.42,0,1,0,4.42,4.41A4.41,4.41,0,0,0,20.49,128.37Zm0,.42a4,4,0,0,1,3.26,1.69l-.52.53a.82.82,0,0,0-.43-.12.85.85,0,0,0-.84.84.82.82,0,0,0,.12.43l-1.38,1.37a.81.81,0,0,0-.85,0l-1-.95a1.06,1.06,0,0,0,.12-.43.84.84,0,0,0-1.66-.21h-.78A4,4,0,0,1,20.49,128.79Zm2.73,2.94a.42.42,0,1,1-.42-.42A.42.42,0,0,1,23.22,131.73Zm-2.52,2.53a.42.42,0,0,1-.42.42.43.43,0,0,1,0-.85A.42.42,0,0,1,20.7,134.26Zm-2.11-2.11a.42.42,0,0,1-.42.42.42.42,0,0,1,0-.84A.42.42,0,0,1,18.59,132.15Zm3.84,4.13a4,4,0,0,1-5.94-3.49c0-.14,0-.29,0-.43h.85a.84.84,0,0,0,.81.63.82.82,0,0,0,.43-.12l1,1a.82.82,0,0,0-.12.43.84.84,0,0,0,1.68,0,.82.82,0,0,0-.12-.43l1.38-1.38a.79.79,0,0,0,.42.12.83.83,0,0,0,.84-.84.76.76,0,0,0-.12-.42l.46-.46A4,4,0,0,1,22.43,136.28Z"/><path fill="current" d="M25.75,129.63a.84.84,0,0,0,.81-.63h1.29v-.42H26.56a.86.86,0,0,0-.81-.64.84.84,0,0,0-.84.85.88.88,0,0,0,.11.42l-.36.37a5.26,5.26,0,1,0-1.32,7.62l.64.63.29.3,1.7,1.69a1.1,1.1,0,0,0,1.56-1.56l-1.7-1.69-.29-.3-.64-.63a5.23,5.23,0,0,0,0-5.71l.42-.42A.82.82,0,0,0,25.75,129.63Zm0-1.26a.42.42,0,0,1,.42.42.42.42,0,0,1-.42.42.42.42,0,0,1-.42-.42A.41.41,0,0,1,25.75,128.37Zm1.48,10.19a.69.69,0,0,1,0,1,.68.68,0,0,1-1,0h0l-1.7-1.7,1-1Zm-2-2-1,1-.58-.58.09-.07.09-.08.14-.11a.23.23,0,0,1,.07-.07c.08-.08.17-.16.25-.25l.06-.07.12-.13.08-.1.07-.08Zm-.82-1a1.89,1.89,0,0,1-.2.27l-.07.08-.2.22-.09.09-.22.2-.07.06-.27.21a4.87,4.87,0,1,1,1.12-1.13Z"/><path fill="current" d="M121.36,132.78a4.42,4.42,0,1,0,4.42-4.41A4.42,4.42,0,0,0,121.36,132.78Zm8.33-.84h-.79a.83.83,0,0,0-.81-.63.85.85,0,0,0-.84.84.82.82,0,0,0,.12.43l-1,.95a.81.81,0,0,0-.85,0l-1.37-1.37a.93.93,0,0,0,.12-.43.85.85,0,0,0-.85-.84.81.81,0,0,0-.42.12l-.53-.53a4,4,0,0,1,7.18,1.46Zm-6.23-.63a.42.42,0,1,1-.42.42A.42.42,0,0,1,123.46,131.31Zm2.53,2.52a.43.43,0,1,1-.42.43A.42.42,0,0,1,126,133.83Zm2.1-2.1a.42.42,0,0,1,0,.84.42.42,0,1,1,0-.84Zm-5.81-.88.46.46a.86.86,0,0,0-.12.42.84.84,0,0,0,.84.84.82.82,0,0,0,.43-.12l1.38,1.38a.82.82,0,0,0-.12.43.84.84,0,0,0,1.68,0,.82.82,0,0,0-.12-.43l1-1a.79.79,0,0,0,.42.12.83.83,0,0,0,.81-.63h.85a3.11,3.11,0,0,1,0,.43,4,4,0,1,1-7.5-1.94Z"/><path fill="current" d="M120.94,129.51l.42.42a5.27,5.27,0,0,0,0,5.71l-.63.63-.3.3-1.69,1.69a1.1,1.1,0,0,0,1.56,1.56l1.69-1.69.3-.3.63-.63a5.26,5.26,0,1,0-1.31-7.62l-.37-.37a.79.79,0,0,0,.12-.42.84.84,0,0,0-1.65-.21h-1.29V129h1.29a.83.83,0,0,0,.81.63A.76.76,0,0,0,120.94,129.51Zm0-.72a.42.42,0,0,1-.84,0,.42.42,0,0,1,.84,0Zm-.21,8.08,1,1-1.69,1.7h0a.68.68,0,0,1-.95-1Zm.88-.88.07.08.08.1.12.13.06.07a3,3,0,0,0,.25.25l.07.07.13.11.1.08.08.07-.58.58-1-1Zm.23-6a4.85,4.85,0,1,1,1.13,6.76l-.27-.21-.08-.06-.21-.2-.1-.09-.19-.22-.07-.08-.21-.27A4.85,4.85,0,0,1,121.84,130Z"/><path fill="current" d="M121.36,46a4.42,4.42,0,1,0,4.42-4.42A4.41,4.41,0,0,0,121.36,46Zm8.33-.84h-.79a.83.83,0,0,0-.81-.64.85.85,0,0,0-.84.85.79.79,0,0,0,.12.42l-1,1a.81.81,0,0,0-.85,0l-1.37-1.38a.92.92,0,0,0,.12-.42.85.85,0,0,0-.85-.85.92.92,0,0,0-.42.12l-.53-.52a4,4,0,0,1,7.18,1.46Zm-6.23-.64a.43.43,0,1,1,0,.85.43.43,0,0,1,0-.85ZM126,47.09a.42.42,0,1,1-.42.42A.42.42,0,0,1,126,47.09Zm2.1-2.1a.41.41,0,0,1,.42.42.42.42,0,0,1-.42.42.42.42,0,0,1-.42-.42A.42.42,0,0,1,128.09,45Zm-5.81-.89.46.46a.93.93,0,0,0-.12.43.85.85,0,0,0,.84.84.93.93,0,0,0,.43-.12l1.38,1.37a.82.82,0,0,0-.12.43.84.84,0,1,0,1.68,0,.82.82,0,0,0-.12-.43l1-.95a.79.79,0,0,0,.42.12.83.83,0,0,0,.81-.63h.85a3,3,0,0,1,0,.42,4,4,0,1,1-7.5-1.94Z"/><path fill="current" d="M120.94,42.76l.42.42a5.27,5.27,0,0,0,0,5.71l-.63.64-.3.29-1.69,1.7a1.1,1.1,0,0,0,1.56,1.56l1.69-1.7.3-.29.63-.64a5.26,5.26,0,1,0-1.31-7.62l-.37-.37a.76.76,0,0,0,.12-.42.85.85,0,0,0-.84-.84.83.83,0,0,0-.81.63h-1.29v.42h1.29a.83.83,0,0,0,.81.63A.76.76,0,0,0,120.94,42.76Zm0-.72a.42.42,0,1,1-.42-.42A.42.42,0,0,1,120.94,42Zm-.21,8.08,1,1L120,52.78h0a.68.68,0,0,1-.95-1Zm.88-.88.07.09.08.09.12.14.06.07.25.25.07.06.13.12.1.08.08.07-.58.58-1-1Zm.23-6A4.85,4.85,0,1,1,123,50l-.27-.2-.08-.07-.21-.2-.1-.09c-.06-.07-.13-.14-.19-.22a.46.46,0,0,1-.07-.07l-.21-.27A4.87,4.87,0,0,1,121.84,43.21Z"/><path fill="current" d="M71.7,91a4.42,4.42,0,1,0,4.42-4.42A4.42,4.42,0,0,0,71.7,91ZM80,90.18h-.78a.83.83,0,0,0-.81-.63.85.85,0,0,0-.84.84.82.82,0,0,0,.12.43l-1,1a.81.81,0,0,0-.85,0L74.53,90.4a1.06,1.06,0,0,0,.12-.43.85.85,0,0,0-.85-.84.79.79,0,0,0-.42.12l-.53-.53A4,4,0,0,1,80,90.18Zm-6.22-.63a.42.42,0,0,1,0,.84.42.42,0,0,1,0-.84Zm2.53,2.52a.43.43,0,1,1-.42.43A.42.42,0,0,1,76.33,92.07Zm2.1-2.1a.42.42,0,1,1-.42.42A.42.42,0,0,1,78.43,90Zm-5.81-.88.46.46A.76.76,0,0,0,73,90a.84.84,0,0,0,.84.84.82.82,0,0,0,.43-.12l1.38,1.38a.82.82,0,0,0-.12.43.84.84,0,0,0,1.68,0,.82.82,0,0,0-.12-.43l1-1a.79.79,0,0,0,.42.12.83.83,0,0,0,.81-.63h.85a3.1,3.1,0,0,1,0,.43,4,4,0,1,1-7.49-1.94Z"/><path fill="current" d="M71.28,87.75l.42.42a5.27,5.27,0,0,0,0,5.71l-.63.63-.3.3L69.08,96.5a1.1,1.1,0,0,0,1.56,1.56l1.69-1.69.3-.3.63-.63A5.26,5.26,0,1,0,72,87.82l-.37-.37A.79.79,0,0,0,71.7,87a.84.84,0,0,0-1.65-.22h-1.3v.43h1.3a.83.83,0,0,0,.81.63A.89.89,0,0,0,71.28,87.75Zm0-.72a.42.42,0,1,1-.42-.43A.42.42,0,0,1,71.28,87Zm-.21,8.08,1,1-1.69,1.69v0a.69.69,0,0,1-1,0,.68.68,0,0,1,0-1Zm.88-.88.07.08a.39.39,0,0,0,.08.1,1.42,1.42,0,0,0,.12.13l.06.07a3,3,0,0,0,.25.25l.07.06a1.42,1.42,0,0,0,.13.12l.1.08.08.07-.58.58-1-1Zm.23-6A4.85,4.85,0,1,1,73.31,95L73,94.75,73,94.69l-.22-.2-.09-.09-.2-.22-.06-.08c-.07-.08-.14-.18-.21-.27A4.85,4.85,0,0,1,72.18,88.2Z"/><circle fill="current" cx="245.89" cy="28.34" r="1.25"/><circle fill="current" cx="206.6" cy="136.62" r="1.25"/><circle fill="current" cx="207.95" cy="69.04" r="1.25"/><path fill="current" d="M153.3,60.71a2.18,2.18,0,1,1,2.18-2.18A2.19,2.19,0,0,1,153.3,60.71Zm0-3.55a1.37,1.37,0,1,0,1.37,1.37A1.38,1.38,0,0,0,153.3,57.16Z"/><path fill="current" d="M209.2,108.59a2.18,2.18,0,1,1,2.18-2.17A2.17,2.17,0,0,1,209.2,108.59Zm0-3.54a1.37,1.37,0,1,0,1.37,1.37A1.36,1.36,0,0,0,209.2,105.05Z"/><path fill="current" d="M251.79,40.81A2.18,2.18,0,1,1,254,38.63,2.19,2.19,0,0,1,251.79,40.81Zm0-3.54a1.37,1.37,0,1,0,1.37,1.36A1.37,1.37,0,0,0,251.79,37.27Z"/><rect fill="current" x="208.65" y="12.39" width="4.97" height="1.13" rx="0.57" transform="translate(55.23 -130.01) rotate(39.01)"/><rect fill="current" x="198.6" y="75.93" width="4.97" height="1.13" rx="0.57" transform="translate(92.99 -109.52) rotate(39.01)"/><rect fill="current" x="205.47" y="117.16" width="4.97" height="1.13" rx="0.57" transform="translate(430.32 30.24) rotate(129.01)"/><path fill="current" d="M157.76,8.78a.42.42,0,0,1,0-.74l1.12-.65L160,6.75a.42.42,0,0,1,.64.36V9.7a.43.43,0,0,1-.64.37l-1.12-.65Z"/><path fill="current" d="M200.34,37.15a.42.42,0,0,1,0-.73l1.12-.65,1.12-.65a.43.43,0,0,1,.64.37v2.59a.43.43,0,0,1-.64.37l-1.12-.65Z"/><path fill="current" d="M248.15,115.71a.33.33,0,0,1-.41-.41l.26-1,.26-1a.34.34,0,0,1,.57-.15l.72.73.72.72a.34.34,0,0,1-.15.56l-1,.26Z"/><path fill="current" d="M158.08,129.85a.34.34,0,0,1,0-.59l.91-.53.91-.52a.34.34,0,0,1,.52.29v2.11a.35.35,0,0,1-.52.3l-.91-.53Z"/><path fill="current" d="M165.42,31.18l.34.7a.4.4,0,0,0,.28.21l.78.11a.38.38,0,0,1,.21.64l-.56.55a.37.37,0,0,0-.11.33l.13.77a.37.37,0,0,1-.54.4l-.7-.37a.34.34,0,0,0-.34,0l-.7.37a.38.38,0,0,1-.54-.4l.13-.77a.39.39,0,0,0-.1-.33l-.57-.55a.38.38,0,0,1,.21-.64l.78-.11a.4.4,0,0,0,.28-.21l.35-.7A.37.37,0,0,1,165.42,31.18Z"/><path fill="current" d="M156.58,94.62l.35.71a.36.36,0,0,0,.28.2l.78.12a.37.37,0,0,1,.21.63l-.57.55a.4.4,0,0,0-.1.33l.13.78a.37.37,0,0,1-.54.39l-.7-.37a.4.4,0,0,0-.34,0l-.7.37a.37.37,0,0,1-.54-.39l.13-.78a.38.38,0,0,0-.11-.33l-.56-.55a.37.37,0,0,1,.21-.63l.78-.12a.36.36,0,0,0,.28-.2l.35-.71A.37.37,0,0,1,156.58,94.62Z"/><path fill="current" d="M248,75.79l.36.75a.39.39,0,0,0,.3.21l.82.12a.39.39,0,0,1,.22.67l-.59.58a.38.38,0,0,0-.12.35l.14.82a.4.4,0,0,1-.57.42l-.73-.39a.4.4,0,0,0-.37,0l-.74.39a.4.4,0,0,1-.57-.42l.14-.82a.38.38,0,0,0-.11-.35l-.59-.58a.39.39,0,0,1,.21-.67l.83-.12a.36.36,0,0,0,.29-.21l.37-.75A.4.4,0,0,1,248,75.79Z"/><path fill="current" d="M216,.84l.33.67a.32.32,0,0,0,.27.19l.74.11a.36.36,0,0,1,.2.61l-.54.52a.37.37,0,0,0-.1.32l.12.74a.35.35,0,0,1-.51.37L215.88,4a.38.38,0,0,0-.33,0l-.66.35a.36.36,0,0,1-.52-.37l.13-.74a.37.37,0,0,0-.1-.32l-.54-.52a.36.36,0,0,1,.2-.61l.74-.11a.32.32,0,0,0,.27-.19l.33-.67A.35.35,0,0,1,216,.84Z"/><path fill="current" d="M177.42,46.59a1.69,1.69,0,0,0,.08-.89,1.94,1.94,0,0,0,1.62-1.25.3.3,0,0,0-.17-.38.31.31,0,0,0-.39.17,1.36,1.36,0,0,1-1.76.79.3.3,0,1,0-.22.56l.29.08A1,1,0,0,1,175.56,47a.3.3,0,0,0-.38.17.3.3,0,0,0,.17.39A1.61,1.61,0,0,0,177.42,46.59Z"/><path fill="current" d="M177.79,49.15a2.79,2.79,0,0,0-1.94.53,2,2,0,0,0-.67-.42.29.29,0,1,0-.21.55,1.38,1.38,0,0,1,.79,1.77.3.3,0,0,0,.17.39.29.29,0,0,0,.38-.17,2,2,0,0,0-.1-1.64,2.16,2.16,0,0,1,1.52-.41.3.3,0,0,0,.06-.6Z"/><path fill="current" d="M179.14,50.9l.64-1.67m-1.49,3.9.64-1.67m2.76-7.23.39-1a1.49,1.49,0,0,0-2.66-1.31A2.08,2.08,0,0,0,177,43.1,2.1,2.1,0,0,0,174.49,45a2.69,2.69,0,0,0-1.28,3.33,2.1,2.1,0,0,0,.64,3.1,2.08,2.08,0,0,0,1,2.48,1.49,1.49,0,0,0,2.86.79l.38-1m2.76-7.23.64-1.67M180,48.68l.64-1.67m-3.49,7.46a.89.89,0,0,1-1.67-.64.3.3,0,0,0-.17-.38,1.49,1.49,0,0,1-.86-1.92l.06-.14a.3.3,0,0,0-.16-.41,1.49,1.49,0,0,1-.57-2.41.29.29,0,0,0,.06-.33,2.09,2.09,0,0,1,1.07-2.8.31.31,0,0,0,.18-.28,1.35,1.35,0,0,1,.1-.56,1.49,1.49,0,0,1,1.92-.86.28.28,0,0,0,.25,0c.13,0,.15-.2.2-.33a1.48,1.48,0,0,1,1.92-.85.3.3,0,0,0,.38-.18.89.89,0,0,1,1.67.64Z"/><path fill="current" d="M184.92,51.17a.29.29,0,0,0,.38-.18.29.29,0,0,0-.17-.38,1,1,0,0,1-.12-1.82c.09,0,.18.09.27.12a.3.3,0,0,0,.39-.17.3.3,0,0,0-.17-.38,1.37,1.37,0,0,1-.79-1.77.3.3,0,1,0-.56-.21,2,2,0,0,0,.38,2,1.59,1.59,0,0,0-.54.71A1.61,1.61,0,0,0,184.92,51.17Z"/><path fill="current" d="M182,50.77a.3.3,0,0,0-.35.48,2.17,2.17,0,0,1,.85,1.32,2,2,0,0,0-1.17,1.15.3.3,0,0,0,.17.38.3.3,0,0,0,.39-.17,1.38,1.38,0,0,1,1.77-.79.3.3,0,0,0,.21-.56,2.12,2.12,0,0,0-.78-.12A2.77,2.77,0,0,0,182,50.77Z"/><path fill="current" d="M180.47,49.5l-.64,1.66m-.21.56L179,53.39m-.21.56-.38,1A1.49,1.49,0,0,0,181,56.26a2.1,2.1,0,0,0,2.4-1.19A2.1,2.1,0,0,0,186,53.19a2.68,2.68,0,0,0,1.27-3.33,2.09,2.09,0,0,0-.64-3.09,2.08,2.08,0,0,0-1-2.49,1.49,1.49,0,0,0-2.85-.79l-.39,1m-.21.56-.64,1.66m-.21.56-.64,1.67m2.64-5.24a.89.89,0,0,1,1.67.64.3.3,0,0,0,.17.38,1.49,1.49,0,0,1,.86,1.93c-.05.12-.13.24-.07.37a.29.29,0,0,0,.18.18,1.48,1.48,0,0,1,.56,2.4.31.31,0,0,0-.05.33,2.11,2.11,0,0,1-1.07,2.8.29.29,0,0,0-.18.28,1.54,1.54,0,0,1-.1.56,1.51,1.51,0,0,1-1.93.86.3.3,0,0,0-.4.19.83.83,0,0,1,0,.15,1.5,1.5,0,0,1-1.92.86.29.29,0,0,0-.39.17.89.89,0,0,1-1.67-.64Z"/><path fill="current" d="M234.36,8.19a1.57,1.57,0,0,0-.57-.68,2,2,0,0,0,.27-2,.3.3,0,0,0-.4-.15.29.29,0,0,0-.15.39,1.37,1.37,0,0,1-.69,1.81.3.3,0,0,0,.24.55,2.34,2.34,0,0,0,.27-.15,1,1,0,0,1,0,1.83.3.3,0,0,0-.15.4.3.3,0,0,0,.39.15A1.6,1.6,0,0,0,234.36,8.19Z"/><path fill="current" d="M236.44,9.75a2.7,2.7,0,0,0-1,1.74,2.1,2.1,0,0,0-.77.17.3.3,0,1,0,.24.55,1.37,1.37,0,0,1,1.81.69.3.3,0,0,0,.54-.24A1.91,1.91,0,0,0,236,11.58a2.17,2.17,0,0,1,.78-1.37.3.3,0,1,0-.37-.46Z"/><path fill="current" d="M238.63,10l-.73-1.63m1.7,3.81-.73-1.63M235.71,3.5l-.43-1a1.49,1.49,0,0,0-2.81,1A2.08,2.08,0,0,0,231.62,6a2.1,2.1,0,0,0-.47,3.13,2.7,2.7,0,0,0,1.46,3.26,2.09,2.09,0,0,0,2.64,1.73,2.07,2.07,0,0,0,2.45,1.06,1.49,1.49,0,0,0,2.58-1.46l-.44-1m-3.15-7.07L236,4m1.7,3.81-.73-1.63M239.74,14a.89.89,0,0,1-1.63.73.3.3,0,0,0-.4-.15,1.48,1.48,0,0,1-2-.75l-.06-.14a.3.3,0,0,0-.4-.18,1.5,1.5,0,0,1-2-.75,1.7,1.7,0,0,1-.13-.55.29.29,0,0,0-.19-.27,2.09,2.09,0,0,1-1.22-2.73.33.33,0,0,0-.07-.33,1.48,1.48,0,0,1,.42-2.43.3.3,0,0,0,.17-.18c.05-.14,0-.26-.09-.38a1.48,1.48,0,0,1,.75-2,.3.3,0,0,0,.15-.4.89.89,0,0,1,1.63-.73Z"/><path fill="current" d="M242.9,6.13a.3.3,0,0,0,.15-.4.3.3,0,0,0-.39-.15,1,1,0,0,1-1.37-1.2l.28-.1a.31.31,0,0,0,.15-.4.3.3,0,0,0-.4-.15A1.37,1.37,0,0,1,239.51,3a.29.29,0,0,0-.39-.15.29.29,0,0,0-.15.39,2,2,0,0,0,1.69,1.16,1.57,1.57,0,0,0,.13.88A1.61,1.61,0,0,0,242.9,6.13Z"/><path fill="current" d="M240.56,7.9a.3.3,0,0,0,.09.59,2.22,2.22,0,0,1,1.55.33,1.92,1.92,0,0,0,0,1.64.29.29,0,0,0,.39.15.29.29,0,0,0,.15-.39,1.37,1.37,0,0,1,.69-1.81.3.3,0,0,0-.24-.55,1.9,1.9,0,0,0-.64.47,2.74,2.74,0,0,0-2-.43Z"/><path fill="current" d="M238.58,8.09l.72,1.63m.25.55.73,1.63m.24.54.44,1a1.49,1.49,0,0,0,2.8-.95,2.07,2.07,0,0,0,.86-2.53,2.1,2.1,0,0,0,.46-3.13,2.69,2.69,0,0,0-1.45-3.26A2.09,2.09,0,0,0,241,1.82,2.08,2.08,0,0,0,238.53.76,1.49,1.49,0,0,0,236,2.22l.44,1m.24.54.73,1.63m.24.55.73,1.63M236.5,2a.89.89,0,0,1,1.63-.73.3.3,0,0,0,.39.15,1.49,1.49,0,0,1,2,.75c0,.12.08.27.21.32a.31.31,0,0,0,.25,0,1.5,1.5,0,0,1,2,.75,1.58,1.58,0,0,1,.13.56.29.29,0,0,0,.19.27,2.09,2.09,0,0,1,1.23,2.73.29.29,0,0,0,.07.33,1.65,1.65,0,0,1,.32.46,1.49,1.49,0,0,1-.76,2A.3.3,0,0,0,244,10l.06.14a1.48,1.48,0,0,1-.75,2,.3.3,0,0,0-.15.4.89.89,0,0,1-1.63.73Z"/><path fill="current" d="M227.91,92.2a1.52,1.52,0,0,0-.57-.68,2,2,0,0,0,.27-2,.31.31,0,0,0-.4-.15.3.3,0,0,0-.15.4,1.37,1.37,0,0,1-.69,1.81.29.29,0,0,0-.15.39.29.29,0,0,0,.39.15,2.29,2.29,0,0,0,.27-.14,1,1,0,0,1,0,1.83.29.29,0,0,0-.15.39.29.29,0,0,0,.39.15A1.6,1.6,0,0,0,227.91,92.2Z"/><path fill="current" d="M230,93.75a2.73,2.73,0,0,0-1,1.75,1.91,1.91,0,0,0-.77.17.3.3,0,1,0,.24.54,1.37,1.37,0,0,1,1.81.69.29.29,0,0,0,.39.15.29.29,0,0,0,.15-.39,2,2,0,0,0-1.23-1.08,2.2,2.2,0,0,1,.78-1.37.3.3,0,1,0-.37-.46Z"/><path fill="current" d="M232.18,94l-.73-1.63m1.7,3.8-.73-1.63m-3.16-7.07-.43-1a1.49,1.49,0,0,0-2.81.94,2.1,2.1,0,0,0-.85,2.54,2.09,2.09,0,0,0-.47,3.12,2.69,2.69,0,0,0,1.46,3.26,2.09,2.09,0,0,0,2.64,1.74,2.09,2.09,0,0,0,2.45,1.06,1.49,1.49,0,0,0,2.58-1.46l-.44-1m-3.15-7.07-.73-1.63m1.7,3.8-.73-1.63M233.29,98a.89.89,0,0,1-1.63.73.3.3,0,0,0-.4-.15,1.49,1.49,0,0,1-2-.75l-.06-.14a.29.29,0,0,0-.4-.18,1.47,1.47,0,0,1-2.1-1.3.31.31,0,0,0-.2-.27,2.09,2.09,0,0,1-1.22-2.74.29.29,0,0,0-.07-.32,1.54,1.54,0,0,1-.33-.47,1.5,1.5,0,0,1,.75-2,.3.3,0,0,0,.17-.18c.06-.13,0-.26-.09-.37a1.5,1.5,0,0,1,.75-2,.29.29,0,0,0,.15-.39.89.89,0,0,1,1.63-.73Z"/><path fill="current" d="M236.45,90.13a.3.3,0,1,0-.24-.54,1,1,0,0,1-1.37-1.21,1.9,1.9,0,0,0,.28-.1.3.3,0,1,0-.25-.54,1.39,1.39,0,0,1-1.81-.69.3.3,0,1,0-.54.24,2,2,0,0,0,1.69,1.16,1.55,1.55,0,0,0,.13.87A1.6,1.6,0,0,0,236.45,90.13Z"/><path fill="current" d="M234.11,91.91a.3.3,0,0,0,.09.59,2.21,2.21,0,0,1,1.55.32,2,2,0,0,0,0,1.64.3.3,0,1,0,.54-.24,1.37,1.37,0,0,1,.69-1.81.3.3,0,1,0-.24-.54,1.87,1.87,0,0,0-.64.46,2.79,2.79,0,0,0-2-.42Z"/><path fill="current" d="M232.13,92.1l.72,1.63m.25.54.73,1.63m.24.55.44,1a1.49,1.49,0,0,0,2.81-.94,2.1,2.1,0,0,0,.85-2.54,2.09,2.09,0,0,0,.46-3.12,2.68,2.68,0,0,0-1.45-3.26,2.09,2.09,0,0,0-2.64-1.74,2.11,2.11,0,0,0-2.46-1.06,1.49,1.49,0,0,0-2.58,1.46l.44,1m.24.55.73,1.63m.24.54.73,1.63M230.05,86a.89.89,0,0,1,1.63-.73.29.29,0,0,0,.39.15,1.5,1.5,0,0,1,2,.75c.05.12.08.27.21.32a.28.28,0,0,0,.25,0,1.5,1.5,0,0,1,2,.75,1.52,1.52,0,0,1,.13.55.28.28,0,0,0,.19.27A2.1,2.1,0,0,1,238,90.78a.28.28,0,0,0,.07.32,1.7,1.7,0,0,1,.32.47,1.49,1.49,0,0,1-.76,2,.3.3,0,0,0-.13.42l.06.13a1.49,1.49,0,0,1-.75,2,.29.29,0,0,0-.15.39.89.89,0,0,1-1.63.73Z"/><path fill="current" d="M176.48,133a1.72,1.72,0,0,0-.57-.68,2,2,0,0,0,.26-2,.29.29,0,0,0-.39-.15.29.29,0,0,0-.15.39,1.38,1.38,0,0,1-.69,1.81.3.3,0,1,0,.24.54l.26-.14a1,1,0,0,1,0,1.83.3.3,0,1,0,.25.54A1.61,1.61,0,0,0,176.48,133Z"/><path fill="current" d="M178.55,134.54a2.84,2.84,0,0,0-1,1.75,2,2,0,0,0-.77.17.3.3,0,0,0,.24.55,1.37,1.37,0,0,1,1.81.69.3.3,0,1,0,.55-.25,2,2,0,0,0-1.24-1.08,2.16,2.16,0,0,1,.79-1.36.3.3,0,0,0-.38-.47Z"/><path fill="current" d="M180.74,134.82l-.72-1.63m1.7,3.81-.73-1.63m-3.16-7.07-.44-1a1.49,1.49,0,0,0-2.81,1,2.08,2.08,0,0,0-.85,2.53,2.11,2.11,0,0,0-.47,3.13,2.7,2.7,0,0,0,1.46,3.26,2.09,2.09,0,0,0,2.64,1.73,2.1,2.1,0,0,0,2.46,1.06,1.49,1.49,0,0,0,2.58-1.46l-.44-1m-3.16-7.07-.73-1.63m1.7,3.81L179,131m2.81,7.74a.89.89,0,0,1-1.63.73.29.29,0,0,0-.39-.15,1.49,1.49,0,0,1-2-.75.78.78,0,0,1-.05-.14.3.3,0,0,0-.41-.18,1.49,1.49,0,0,1-2.1-1.3.29.29,0,0,0-.2-.27,2.1,2.1,0,0,1-1.22-2.74.28.28,0,0,0-.07-.32,1.27,1.27,0,0,1-.32-.47,1.48,1.48,0,0,1,.75-2,.32.32,0,0,0,.17-.19c.05-.13,0-.25-.09-.37a1.49,1.49,0,0,1,.75-2,.3.3,0,0,0,.15-.39.89.89,0,0,1,1.63-.73Z"/><path fill="current" d="M185,130.93a.3.3,0,1,0-.25-.55,1,1,0,0,1-1.37-1.21.94.94,0,0,0,.28-.1.3.3,0,0,0-.24-.54,1.37,1.37,0,0,1-1.81-.69.3.3,0,0,0-.54.24,2,2,0,0,0,1.69,1.16,1.66,1.66,0,0,0,.12.88A1.61,1.61,0,0,0,185,130.93Z"/><path fill="current" d="M182.67,132.7a.3.3,0,0,0,.1.59,2.15,2.15,0,0,1,1.54.33,2,2,0,0,0,0,1.64.3.3,0,0,0,.55-.24,1.37,1.37,0,0,1,.69-1.81.3.3,0,0,0-.24-.55,1.92,1.92,0,0,0-.65.46,2.78,2.78,0,0,0-2-.42Z"/><path fill="current" d="M180.69,132.89l.73,1.63m.24.54.73,1.63m.24.55.44,1a1.49,1.49,0,0,0,2.81-.95,2.09,2.09,0,0,0,.85-2.54,2.09,2.09,0,0,0,.47-3.12,2.69,2.69,0,0,0-1.46-3.26,2.09,2.09,0,0,0-2.64-1.73,2.07,2.07,0,0,0-2.45-1.06,1.49,1.49,0,0,0-2.58,1.46l.43,1m.25.54.73,1.63m.24.54.73,1.64m-1.84-5.58a.89.89,0,0,1,1.63-.72.31.31,0,0,0,.4.15,1.48,1.48,0,0,1,2,.75c.05.12.08.27.22.32a.31.31,0,0,0,.25,0,1.5,1.5,0,0,1,2,.75,1.39,1.39,0,0,1,.13.56.33.33,0,0,0,.2.27,2.08,2.08,0,0,1,1.22,2.73.31.31,0,0,0,.07.33,1.48,1.48,0,0,1-.43,2.43.3.3,0,0,0-.14.42l.07.14a1.49,1.49,0,0,1-.75,2,.3.3,0,0,0-.15.4.89.89,0,0,1-1.63.72Z"/><path fill="current" d="M180.89.91a4.42,4.42,0,1,0,4.42,4.42A4.42,4.42,0,0,0,180.89.91Zm0,.43A4,4,0,0,1,184.16,3l-.53.53a.79.79,0,0,0-.42-.12.85.85,0,0,0-.85.84,1.06,1.06,0,0,0,.12.43l-1.37,1.37a.81.81,0,0,0-.85,0l-1-1a.82.82,0,0,0,.12-.43.85.85,0,0,0-.84-.84.83.83,0,0,0-.81.63H177A4,4,0,0,1,180.89,1.34Zm2.74,2.94a.42.42,0,0,1-.42.42.42.42,0,0,1,0-.84A.42.42,0,0,1,183.63,4.28ZM181.1,6.81a.42.42,0,1,1-.42-.43A.42.42,0,0,1,181.1,6.81ZM179,4.7a.42.42,0,1,1-.42-.42A.42.42,0,0,1,179,4.7Zm3.83,4.13a4,4,0,0,1-5.94-3.49,3.11,3.11,0,0,1,0-.43h.85a.83.83,0,0,0,.81.63.79.79,0,0,0,.42-.12l1,1a.82.82,0,0,0-.12.43.84.84,0,0,0,1.68,0,.82.82,0,0,0-.12-.43L182.78,5a.82.82,0,0,0,.43.12.84.84,0,0,0,.84-.84.76.76,0,0,0-.12-.42l.46-.46A4,4,0,0,1,182.83,8.83Z"/><path fill="current" d="M186.15,2.18a.83.83,0,0,0,.81-.63h1.3V1.12H187a.84.84,0,0,0-1.65.22.79.79,0,0,0,.12.42l-.37.37a5.26,5.26,0,1,0-1.31,7.62l.63.63.3.3,1.69,1.69a1.1,1.1,0,1,0,1.56-1.56l-1.69-1.69-.3-.3-.63-.63a5.27,5.27,0,0,0,0-5.71l.42-.42A.89.89,0,0,0,186.15,2.18Zm0-1.27a.43.43,0,1,1-.42.43A.42.42,0,0,1,186.15.91Zm1.48,10.2a.69.69,0,0,1,0,1,.7.7,0,0,1-1,0h0L185,10.38l1-1Zm-2-2-1,1-.58-.58.08-.07.1-.08a1.42,1.42,0,0,0,.13-.12l.07-.06a3,3,0,0,0,.25-.25l.06-.07.12-.13.08-.1.07-.08Zm-.81-1-.21.27-.06.08-.2.22-.09.09-.22.2-.08.06-.27.21a4.85,4.85,0,1,1,1.13-1.13Z"/><path fill="current" d="M228.23,132.71a4.42,4.42,0,1,0,4.42-4.42A4.42,4.42,0,0,0,228.23,132.71Zm8.33-.84h-.78a.84.84,0,0,0-1.66.21,1,1,0,0,0,.12.42l-1,1a.81.81,0,0,0-.85,0l-1.38-1.38a.76.76,0,0,0,.12-.42.84.84,0,0,0-.84-.84.82.82,0,0,0-.43.12l-.52-.53a4,4,0,0,1,7.17,1.46Zm-6.22-.63a.42.42,0,1,1-.42.42A.42.42,0,0,1,230.34,131.24Zm2.52,2.52a.42.42,0,0,1,.42.42.41.41,0,0,1-.42.42.42.42,0,0,1-.42-.42A.42.42,0,0,1,232.86,133.76Zm2.11-2.1a.42.42,0,0,1,0,.84.42.42,0,0,1,0-.84Zm-5.81-.88.46.45a.82.82,0,0,0-.12.43.84.84,0,0,0,.84.84.79.79,0,0,0,.42-.12l1.38,1.38a.79.79,0,0,0-.12.42.84.84,0,1,0,1.68,0,.79.79,0,0,0-.12-.42l1-1a.82.82,0,0,0,.43.12.84.84,0,0,0,.81-.63h.85c0,.14,0,.28,0,.43a4,4,0,1,1-7.49-1.94Z"/><path fill="current" d="M227.82,129.44l.42.42a5.23,5.23,0,0,0,0,5.71l-.64.63-.29.3-1.7,1.69a1.1,1.1,0,1,0,1.56,1.56l1.7-1.69.29-.3.64-.64a5.26,5.26,0,1,0-1.32-7.61l-.36-.37a.92.92,0,0,0,.11-.43.84.84,0,0,0-1.65-.21h-1.29v.42h1.29a.86.86,0,0,0,.81.64A1.06,1.06,0,0,0,227.82,129.44Zm0-.73a.41.41,0,0,1-.42.42.42.42,0,0,1-.42-.42.42.42,0,0,1,.42-.42A.42.42,0,0,1,227.81,128.71Zm-.21,8.08,1,1-1.7,1.69h0a.67.67,0,0,1-1,0,.68.68,0,0,1,0-1Zm.88-.87a.27.27,0,0,1,.07.08.39.39,0,0,1,.08.1l.12.13.06.07.25.25.07.06.14.12.09.08.09.07-.58.58-1-1Zm.24-6a4.84,4.84,0,1,1,1.12,6.76l-.27-.21-.07-.07a2.09,2.09,0,0,1-.22-.2.76.76,0,0,1-.09-.09l-.2-.21-.07-.08-.2-.27A4.82,4.82,0,0,1,228.72,129.89Z"/><path fill="current" d="M228.23,46a4.42,4.42,0,1,0,4.42-4.41A4.42,4.42,0,0,0,228.23,46Zm8.33-.84h-.78a.84.84,0,0,0-1.66.21,1.06,1.06,0,0,0,.12.43l-1,1a.86.86,0,0,0-.85,0l-1.38-1.37a.82.82,0,0,0,.12-.43.85.85,0,0,0-.84-.84.82.82,0,0,0-.43.12l-.52-.52a4,4,0,0,1,7.17,1.45Zm-6.22-.63a.42.42,0,0,1,.42.42.42.42,0,0,1-.84,0A.42.42,0,0,1,230.34,44.49ZM232.86,47a.41.41,0,0,1,.42.42.42.42,0,0,1-.42.42.42.42,0,0,1-.42-.42A.42.42,0,0,1,232.86,47ZM235,44.91a.42.42,0,0,1,.42.42.42.42,0,0,1-.42.42.41.41,0,0,1-.42-.42A.42.42,0,0,1,235,44.91ZM229.16,44l.46.46a.79.79,0,0,0-.12.42.83.83,0,0,0,.84.84.79.79,0,0,0,.42-.12L232.14,47a.82.82,0,0,0-.12.43.84.84,0,1,0,1.68,0,.82.82,0,0,0-.12-.43l1-.95a.92.92,0,0,0,.43.11.84.84,0,0,0,.81-.63h.85c0,.15,0,.29,0,.43A4,4,0,1,1,229.16,44Z"/><path fill="current" d="M227.82,42.69l.42.42a5.23,5.23,0,0,0,0,5.71l-.64.63-.29.3-1.7,1.69a1.1,1.1,0,0,0,0,1.56,1.09,1.09,0,0,0,1.56,0l1.7-1.69.29-.3.64-.63a5.26,5.26,0,1,0-1.32-7.62l-.36-.37a.88.88,0,0,0,.11-.42.83.83,0,0,0-.84-.84.84.84,0,0,0-.81.63h-1.29v.42h1.29a.84.84,0,0,0,.81.63A.82.82,0,0,0,227.82,42.69Zm0-.72a.42.42,0,0,1-.42.42.42.42,0,0,1,0-.84A.42.42,0,0,1,227.81,42Zm-.21,8.08,1,1-1.7,1.7h0a.68.68,0,0,1-1,0,.69.69,0,0,1,0-1Zm.88-.88.07.09.08.09.12.14.06.06c.08.09.17.17.25.25l.07.07.14.12.09.07.09.07-.58.59-1-1Zm.24-6a4.84,4.84,0,1,1,1.12,6.76c-.09-.07-.18-.13-.27-.21l-.07-.06-.22-.2-.09-.09-.2-.22-.07-.08a1.89,1.89,0,0,1-.2-.27A4.82,4.82,0,0,1,228.72,43.14Z"/><path fill="current" d="M176.6,91A4.42,4.42,0,1,0,181,86.53,4.42,4.42,0,0,0,176.6,91Zm8.33-.84h-.79a.83.83,0,0,0-.81-.63.85.85,0,0,0-.84.84.76.76,0,0,0,.12.42l-1,1a.81.81,0,0,0-.85,0l-1.37-1.38a.89.89,0,0,0,.12-.42.84.84,0,0,0-.84-.84.82.82,0,0,0-.43.12l-.53-.53a4,4,0,0,1,7.18,1.46Zm-6.22-.63a.42.42,0,1,1-.43.42A.42.42,0,0,1,178.71,89.48ZM181.23,92a.42.42,0,0,1,.42.42.42.42,0,1,1-.84,0A.42.42,0,0,1,181.23,92Zm2.1-2.1a.42.42,0,0,1,0,.84.42.42,0,1,1,0-.84ZM177.52,89l.46.46a.93.93,0,0,0-.12.43.85.85,0,0,0,.85.84.81.81,0,0,0,.42-.12L180.51,92a.79.79,0,0,0-.12.42.84.84,0,0,0,1.68,0A.79.79,0,0,0,182,92l1-1a.79.79,0,0,0,.42.12.83.83,0,0,0,.81-.63H185a3,3,0,0,1,0,.43,4,4,0,0,1-4,4,4.09,4.09,0,0,1-1.94-.5A4,4,0,0,1,177.52,89Z"/><path fill="current" d="M176.18,87.67l.43.43a5.22,5.22,0,0,0,0,5.7l-.64.64-.3.3L174,96.43A1.1,1.1,0,1,0,175.54,98l1.69-1.69.3-.3.63-.64a5.26,5.26,0,1,0-1.31-7.61l-.37-.37a.82.82,0,0,0,.12-.43.85.85,0,0,0-.84-.84.83.83,0,0,0-.81.63h-1.29v.42H175a.83.83,0,0,0,.81.63A.76.76,0,0,0,176.18,87.67Zm0-.72a.42.42,0,1,1-.84,0,.42.42,0,1,1,.84,0ZM176,95l1,1-1.69,1.69h0a.68.68,0,1,1-.95-1Zm.88-.88.07.09.08.1.12.13.06.07a3,3,0,0,0,.25.25l.07.06.13.12.1.08.08.07-.58.58-1-1Zm.23-6a4.85,4.85,0,1,1,1.13,6.76l-.27-.21-.08-.07-.21-.2-.1-.09-.19-.21-.07-.08-.21-.27A4.85,4.85,0,0,1,177.08,88.13Z"/></g></svg>
