<svg id="a9539929-cfea-41e9-b55f-828181df5597" data-name="Layer 1" xmlns="http://www.w3.org/2000/svg" xmlns:xlink="http://www.w3.org/1999/xlink" viewBox="0 0 599.34 262"><defs><style>.ad40b839-6131-42df-8796-50b430ea3545{fill:none;}.b0d28510-59e5-4ef1-b475-5c5f562b72b4{clip-path:url(#b5acdb4c-6cad-4367-ab60-7c638b984338);}.ab2ebe1e-11ae-4ca9-8ecc-88aedea3eed7,.ac81988f-4a6f-4da9-bc3b-b18ef38729ba,.efa389ca-fc72-418c-aaab-7557f48d1419{fill:#5ec2c1;}.ac81988f-4a6f-4da9-bc3b-b18ef38729ba{opacity:0.1;}.ab7b2683-f95e-4d51-8fab-7acd89624108{fill:#ffc3bd;}.a0beabec-f93d-46a4-947a-cd33d62cf0ee{fill:#4ea09d;opacity:0.4;}.a0beabec-f93d-46a4-947a-cd33d62cf0ee,.be86e0af-c17c-48be-9e9f-1fbca1f2be93,.efa389ca-fc72-418c-aaab-7557f48d1419{isolation:isolate;}.efa389ca-fc72-418c-aaab-7557f48d1419{opacity:0.3;}.be86e0af-c17c-48be-9e9f-1fbca1f2be93{opacity:0.2;}.b9e08c2f-f7c6-4750-ac82-aaf27f73fce2{fill:#163345;}.ac3a1039-fcfa-446a-8bf5-c77d217b1c9b{fill:#f26d5a;}.aebc2c3c-4d07-46ca-bc64-5cd85d78bf20{fill:#fff;}.e4696ad0-6ed5-47f6-ad9c-54e01035c714{fill:#a7eae6;}</style><clipPath id="b5acdb4c-6cad-4367-ab60-7c638b984338"><rect class="ad40b839-6131-42df-8796-50b430ea3545" width="599.34" height="262"/></clipPath></defs><g class="b0d28510-59e5-4ef1-b475-5c5f562b72b4"><path class="ac81988f-4a6f-4da9-bc3b-b18ef38729ba" d="M623.9,295.3,322.24,318.73S0,378,0,280.66c0-106.87,115.66-61.72,189.42-161.74C262.47,19.88,298-1.35,338.09-11.32,391-24.5,448.12-16.95,494.34,9,564.09,48.28,644.79,130,623.9,295.3Z"/><path class="ac81988f-4a6f-4da9-bc3b-b18ef38729ba" d="M623.9,354.78,322.24,378.21S0,437.46,0,340.15c0-106.88,115.66-61.73,189.42-161.74C262.47,79.36,298,58.13,338.09,48.16,391,35,448.12,42.53,494.34,68.52,564.09,107.76,644.79,189.49,623.9,354.78Z"/><path class="ac81988f-4a6f-4da9-bc3b-b18ef38729ba" d="M623.9,494.83,322.24,518.25S0,577.51,0,480.19c0-106.87,115.66-61.73,189.42-161.74,73.05-99,108.6-120.27,148.67-130.25,52.92-13.18,110-5.63,156.25,20.37C564.09,247.81,644.79,329.53,623.9,494.83Z"/><g id="e9af968a-2136-4353-957b-c5810a7ecd27" data-name="freepik--Character--inject-509"><path class="ab7b2683-f95e-4d51-8fab-7acd89624108" d="M311.07,174.3c-6.84,9.21-13.27,18.48-19.5,28-3.12,4.78-6.2,9.59-9.15,14.49s-5.91,9.85-8.69,15l-1.05,1.88-.52,1-.81,1.61a19.1,19.1,0,0,0-1.46,4.6,14.32,14.32,0,0,0,.58,7.34,13.47,13.47,0,0,0,4.77,6.25,16.11,16.11,0,0,0,4.65,2.33L294,238.88c5.26-8,10.76-15.9,16.33-23.82l19.2-27.34Z"/><path class="ab2ebe1e-11ae-4ca9-8ecc-88aedea3eed7" d="M339.35,177.56c4.09,13.82-20.1,40.3-20.1,40.3L290,199.22a254.26,254.26,0,0,1,17.34-25.13C319.68,158,334.4,160.84,339.35,177.56Z"/><path class="a0beabec-f93d-46a4-947a-cd33d62cf0ee" d="M339.35,177.56c4.09,13.82-20.1,40.3-20.1,40.3L290,199.22a254.26,254.26,0,0,1,17.34-25.13C319.68,158,334.4,160.84,339.35,177.56Z"/><path class="ab2ebe1e-11ae-4ca9-8ecc-88aedea3eed7" d="M400.88,182.82c-17.66,53.7-19.18,109.54-21,121.21-11.75-1.24-56-6-80.11-8.62-6.38-71.13,11.53-114.66,17.93-127.63a8.13,8.13,0,0,1,6.64-4.52c2.09-.17,4.79-.34,7.83-.43,2.22,0,4.6-.11,7.08,0a38.84,38.84,0,0,1,4.16.15,297.27,297.27,0,0,1,34,4.86c2.12.41,4.28.88,6.34,1.37s3.75,1,5.63,1.45c2.23.61,4.36,1.23,6.21,1.87a8.15,8.15,0,0,1,5.29,10.24Z"/><path class="efa389ca-fc72-418c-aaab-7557f48d1419" d="M400.88,182.82c-17.66,53.7-19.18,109.54-21,121.21-11.75-1.24-56-6-80.11-8.62-6.38-71.13,11.53-114.66,17.93-127.63a8.13,8.13,0,0,1,6.64-4.52c2.09-.17,4.79-.34,7.83-.43,2.22,0,4.6-.11,7.08,0a38.84,38.84,0,0,1,4.16.15,297.27,297.27,0,0,1,34,4.86c2.12.41,4.28.88,6.34,1.37s3.75,1,5.63,1.45c2.23.61,4.36,1.23,6.21,1.87a8.15,8.15,0,0,1,5.29,10.24Z"/><path class="ab2ebe1e-11ae-4ca9-8ecc-88aedea3eed7" d="M338.69,162.79h.59c1.37,0,2.76,0,4.16.13a301.94,301.94,0,0,1,34,4.92c1.63.32,3.26.68,4.88,1l-2.65,1.88c-7.81,5.8-16.89,11-29.54,10.15l-1.64-.13c-6.47-.71-10.49-3.12-12-7.19A12.21,12.21,0,0,1,338.69,162.79Z"/><path class="ab7b2683-f95e-4d51-8fab-7acd89624108" d="M379.52,129.18c-3.76,10.6-8.77,30.27-2.18,38.66-6.79,5-15.52,10.72-28.55,9.29s-9.38-10-5.35-14.21c12.58-1.14,13.57-10.21,12.69-19Z"/><path class="be86e0af-c17c-48be-9e9f-1fbca1f2be93" d="M369.91,135.2l-13.85,8.71a34.38,34.38,0,0,1,.17,6.17c4.74,0,11.88-4.16,13.13-9A16.83,16.83,0,0,0,369.91,135.2Z"/><path class="b9e08c2f-f7c6-4750-ac82-aaf27f73fce2" d="M355.51,113.09l5.54.75c7.09-.17,20.18-14.45,15.48-26.8C360.67,84.3,344.06,92.12,355.51,113.09Z"/><path class="ab7b2683-f95e-4d51-8fab-7acd89624108" d="M390.1,120.82c-7.75,12.77-11.65,20.65-21.88,23.91-15.41,4.9-28.53-9.72-24.74-24.56,3.42-13.35,15.54-31.91,31.23-30.45a20.37,20.37,0,0,1,15.39,31.1Z"/><path class="b9e08c2f-f7c6-4750-ac82-aaf27f73fce2" d="M399.11,102l-5.63.14c-7,1.31-17.6,17.49-11,28.94C398.38,133.83,417.77,119,399.11,102Z"/><path class="b9e08c2f-f7c6-4750-ac82-aaf27f73fce2" d="M389.47,107.38c-14.38-3-28.35-19.55-27.63-29.78.75-10.81,15.93-5.11,18.77-1.69-.45-6,3.75-4.56,6.62-.9s6.46,16.89,17.29,26.46C411.76,107.87,405.93,110.88,389.47,107.38Z"/><path class="b9e08c2f-f7c6-4750-ac82-aaf27f73fce2" d="M402.55,107.25s6,2.41,7.39.47C411.05,111.87,406.71,111.36,402.55,107.25Z"/><path class="ab7b2683-f95e-4d51-8fab-7acd89624108" d="M388.41,138.5a14.13,14.13,0,0,1-10.77,1.43c-4.8-1.31-4.63-6.23-1.16-9.38,3.11-2.9,9.38-5.64,13.14-2.63S392.43,136.18,388.41,138.5Z"/><path class="ab7b2683-f95e-4d51-8fab-7acd89624108" d="M405.14,195.6c-1.48,2.81-2.89,5.18-4.43,7.68s-3,4.9-4.64,7.26c-3.19,4.77-6.59,9.38-10.11,14a164.73,164.73,0,0,1-11.27,13.13l-1.52,1.67a19.24,19.24,0,0,1-3.66,3.2,14.57,14.57,0,0,1-3.15,1.53,12.85,12.85,0,0,1-4.3.76,13.53,13.53,0,0,1-7.69-2.39,16.09,16.09,0,0,1-3.66-3.47,20.76,20.76,0,0,1-2-2.95,37.6,37.6,0,0,1-2.33-5.08A98.66,98.66,0,0,1,342,213.15c-1-5.63-1.69-11.36-2.23-17-1.11-11.26-1.64-22.43-1.64-33.78l11.27-1c2,10.74,4.16,21.59,6.49,32.17,1.18,5.32,2.42,10.57,3.75,15.68a96.23,96.23,0,0,0,4.83,14.11,15.3,15.3,0,0,0,1.33,2.37,1.53,1.53,0,0,0,.41.45c.06,0,0-.17-.65-.64a7,7,0,0,0-3.76-1.13,6.77,6.77,0,0,0-3.56,1c-.55.34-.62.47-.62.39l1.14-1.5c3.15-4.26,6.29-8.58,9.25-13s5.94-8.86,8.81-13.34l4.26-6.76,4-6.64Z"/><path class="ab7b2683-f95e-4d51-8fab-7acd89624108" d="M279.82,256.81a25.78,25.78,0,0,0,6.58,1.07,54.28,54.28,0,0,0,10-.6c3.09-.46,6-1,8.95-1.68a212.14,212.14,0,0,0,33.15-10.71l-2.44-10.81c-5.45.82-11.73,1.69-17.2,2.42S308,238,302.66,238.37c-2.67.25-5.3.44-7.83.47H294"/><path class="ab7b2683-f95e-4d51-8fab-7acd89624108" d="M332.9,234.55,345,232l2.61,17.91s-13.4,2.06-17.49-8.11Z"/><polygon class="ab7b2683-f95e-4d51-8fab-7acd89624108" points="358.57 237.55 356.26 248.53 347.57 249.86 344.96 231.99 358.57 237.55"/><path class="ab2ebe1e-11ae-4ca9-8ecc-88aedea3eed7" d="M407.65,183.81C414.15,196.67,395.1,227,395.1,227l-32.16-13.14a257.49,257.49,0,0,1,12.6-27.76C384.79,168.12,399.77,168.25,407.65,183.81Z"/><path class="efa389ca-fc72-418c-aaab-7557f48d1419" d="M407.65,183.81C414.15,196.67,395.1,227,395.1,227l-32.16-13.14a257.49,257.49,0,0,1,12.6-27.76C384.79,168.12,399.77,168.25,407.65,183.81Z"/><path class="ab7b2683-f95e-4d51-8fab-7acd89624108" d="M350.91,165.06,352,149.8,334.25,153s.65,14,8,15.11Z"/><polygon class="ab7b2683-f95e-4d51-8fab-7acd89624108" points="346.84 135.46 331.71 141 334.26 153.01 352.04 149.8 346.84 135.46"/></g><circle class="ac3a1039-fcfa-446a-8bf5-c77d217b1c9b" cx="486.38" cy="65.55" r="30.58"/><circle class="ac3a1039-fcfa-446a-8bf5-c77d217b1c9b" cx="455.8" cy="106.02" r="7.47"/><circle class="ac3a1039-fcfa-446a-8bf5-c77d217b1c9b" cx="435.32" cy="115.41" r="3.44"/><path class="aebc2c3c-4d07-46ca-bc64-5cd85d78bf20" d="M493.23,64.81h.12l.08.09a1.67,1.67,0,0,1-.11,2.23c-.75.9-2.29,1.34-4.05.35-4.53,4.63-7.41,15-7.44,15.12l-.47-.12C481.55,81.77,486.1,65.34,493.23,64.81Zm-3.59,2.3A2.58,2.58,0,0,0,493,66.8a1.2,1.2,0,0,0,.18-1.49A6.18,6.18,0,0,0,489.64,67.11Z"/><path class="aebc2c3c-4d07-46ca-bc64-5cd85d78bf20" d="M478.81,81.64c0-.12,3.6-10.28,2.51-16.66-2-.19-3-1.43-3.12-2.6a1.68,1.68,0,0,1,1.18-1.89l.12,0,.1.08c5.55,4.5-.09,20.59-.33,21.27Zm2.42-17.16A6.18,6.18,0,0,0,479.39,61a1.2,1.2,0,0,0-.7,1.33,2.62,2.62,0,0,0,2.54,2.15Z"/><path class="e4696ad0-6ed5-47f6-ad9c-54e01035c714" d="M501,61.8l.44.07a13.38,13.38,0,0,1-.35,1.89l-.44-.11A14.37,14.37,0,0,0,501,61.8Z"/><path class="e4696ad0-6ed5-47f6-ad9c-54e01035c714" d="M499.66,54.05l.41-.2a14.11,14.11,0,0,1,1.46,6h-.46A13.51,13.51,0,0,0,499.66,54.05Z"/><path class="aebc2c3c-4d07-46ca-bc64-5cd85d78bf20" d="M476.37,73.36a20.52,20.52,0,0,0-1.49-8.19,13.25,13.25,0,0,1-.34-8.87l.06-.19a13.23,13.23,0,0,1,16.7-8.43h0a13.24,13.24,0,0,1,3.27,23.55,21.42,21.42,0,0,0-6,6,1.64,1.64,0,0,1-1.83.63l-9.26-2.9A1.62,1.62,0,0,1,476.37,73.36Zm14.45-24.82a12.27,12.27,0,0,0-15,16.26,21.56,21.56,0,0,1,1.54,8.58.65.65,0,0,0,.45.64l9.26,2.9a.63.63,0,0,0,.72-.26A22.64,22.64,0,0,1,494,70.43a12.24,12.24,0,0,0-3-21.83Z"/><path class="aebc2c3c-4d07-46ca-bc64-5cd85d78bf20" d="M475.51,81.5l0-.16a1.83,1.83,0,0,1,.26-.5,1.8,1.8,0,0,1-.06-1.21v-.07a1.79,1.79,0,0,1,.32-.61,1.71,1.71,0,0,1,0-1.18,1.82,1.82,0,0,1,2.25-1.18l6.87,2.15A1.82,1.82,0,0,1,486.31,81a1.73,1.73,0,0,1-.7.94,1.89,1.89,0,0,1-.07.67l0,.07a1.78,1.78,0,0,1-.73,1,2.09,2.09,0,0,1-.08.55l0,.16a1.72,1.72,0,0,1-2.15,1.12l-5.9-1.85A1.71,1.71,0,0,1,475.51,81.5Zm2.48-4h0a.82.82,0,0,0-.91,1.25l.27.38-.38.29a.76.76,0,0,0-.28.38v.08a.78.78,0,0,0,.12.69l.28.38-.36.29a.79.79,0,0,0-.24.35l0,.15a.75.75,0,0,0,.48.93l5.9,1.84a.72.72,0,0,0,.92-.48l0-.15a.75.75,0,0,0,0-.42l-.13-.45.44-.15a.76.76,0,0,0,.49-.5V82.3a.72.72,0,0,0,0-.46l-.14-.45.43-.17a.77.77,0,0,0,.5-.52.8.8,0,0,0-.53-1Z"/></g></svg>