<svg id="a09e972b-a7a6-4df2-ad2b-02496f14d668" data-name="Layer 1" xmlns="http://www.w3.org/2000/svg" viewBox="0 0 251.32 363.21">
    <path d="M95.43,363.21H251.32v-56.9C203,325.78,142.64,348.89,95.43,363.21Z" style="fill:none" />
    <path d="M0,363.21H8.92A55.58,55.58,0,0,1,0,347.28Z" style="fill:none" />
    <path d="M0,335.32v12a55.58,55.58,0,0,0,8.92,15.93h4.33A54.49,54.49,0,0,1,0,335.32Z" style="fill:none" />
    <path d="M26.3,273.25q-2.34,2.17-4.47,4.37a.89.89,0,0,1,.28-.07C23.44,276.12,24.84,274.68,26.3,273.25Z" style="fill:none" />
    <path d="M178.75,41c-63.55,59.54-18.64,118-81.33,179.24C162.82,159,118,100.49,178.75,41Z" style="fill:none" />
    <path d="M21.83,277.62q2.13-2.19,4.47-4.37a176.72,176.72,0,0,1,33-24.95c15.73-9.43,28.17-18.77,38.08-28.06C160.11,159,115.2,100.54,178.75,41c9.32-9.13,21.12-18.28,36.19-27.46A110.58,110.58,0,0,1,248.75,0H0V311.69c3.6-11,10.55-22.37,21.34-33.56Z" style="fill:none" />
    <path d="M21.29,278.47a.78.78,0,0,1,.05-.34C10.55,289.32,3.6,300.68,0,311.69v7.91C1.92,306.34,8.71,292.31,21.29,278.47Z" style="fill:none" />
    <path d="M251.32,305c-50.66,20.36-113.78,44.42-161.24,58.24h5.35c47.21-14.32,107.53-37.43,155.89-56.9Z" style="fill:none" />
    <polygon points="158.98 147.73 162.61 144.76 158.34 143.06 158.98 147.73" class="primary" style="fill:#5ec2c1;opacity:0.1" />
    <polygon points="143.63 308.96 148.25 308.35 145.31 304.7 143.63 308.96" class="primary" style="fill:#5ec2c1;opacity:0.1" />
    <path d="M109.08,225.65a8.22,8.22,0,0,0-5.6,4.95l-.51,1.33,10.43,11.79.18-.45a10,10,0,0,1,6.85-6.06l.47-.12L110.46,225.3Z" class="primary" style="fill:#5ec2c1;opacity:0.1" />
    <path d="M100.23,233.48a8.25,8.25,0,0,0-5.6,5l-.52,1.33,10.44,11.8.18-.46a10.07,10.07,0,0,1,6.84-6l.47-.12-10.43-11.8Z" class="primary" style="fill:#5ec2c1;opacity:0.1" />
    <path d="M126.84,296.67a3,3,0,0,0-3.85,1.66,3,3,0,0,0,0,2.27,2.94,2.94,0,0,0,1.63,1.58l.38.15,2.18-5.51Z" class="primary" style="fill:#5ec2c1;opacity:0.1" />
    <rect x="125.82" y="299.67" width="5.92" height="1.93" transform="matrix(0.37, -0.93, 0.93, 0.37, -198.14, 309.88)" class="primary" style="fill:#5ec2c1;opacity:0.1" />
    <path d="M188.7,193.79a8.24,8.24,0,0,0-7.44.69l-1.2.76,1.43,15.69.41-.27a10,10,0,0,1,9.1-.83l.46.19L190,194.33Z" class="primary" style="fill:#5ec2c1;opacity:0.1" />
    <path d="M64,324.61a8.43,8.43,0,0,0-7.54,1.44l-1.15.91,3,15.89.39-.31A10.36,10.36,0,0,1,68,340.77l.48.14L65.4,325Z" class="primary" style="fill:#5ec2c1;opacity:0.1" />
    <rect x="205.47" y="34.32" width="5.16" height="1.68" transform="translate(98.64 215.57) rotate(-68.36)" class="primary" style="fill:#5ec2c1;opacity:0.1" />
    <path d="M204.45,36.5l.33.13,1.9-4.79-.33-.13A2.58,2.58,0,0,0,203,35.13,2.53,2.53,0,0,0,204.45,36.5Z" class="primary" style="fill:#5ec2c1;opacity:0.1" />
    <rect x="165.77" y="125.2" width="1.94" height="5.95" transform="translate(-13.9 235.89) rotate(-68.36)" class="primary" style="fill:#5ec2c1;opacity:0.1" />
    <path d="M244,112.64l-1.82.9-.06,0h-.58a.85.85,0,0,1-.22-.09l-1.79-1a8.45,8.45,0,0,0-7.68-.13l-1.82.9a.92.92,0,0,1-.91,0,.93.93,0,0,1-.44-.8l.31-18.29a1,1,0,0,1,.52-.82l1.82-.9a10.3,10.3,0,0,1,9.39.16l1.37.73,1.39-.68a10.3,10.3,0,0,1,7.89-.48V1.32a111,111,0,0,0-38.8,14.53A205.54,205.54,0,0,0,178.75,41C118,100.49,162.82,159,97.42,220.24c-10.29,10-23.46,20.16-40.5,30.37a198.2,198.2,0,0,0-20.17,13.75s0,.09,0,.14l-6.77,17.06a.85.85,0,0,1-.28.37l-5.91,4.78a.91.91,0,0,1-.91.13.89.89,0,0,1-.49-.48.61.61,0,0,1-.07-.24l-1-7.55a.34.34,0,0,1,0-.1C8.71,292.31,1.92,306.34,0,319.6v9.84a.93.93,0,0,1,1.23-.35l5.66,3A.94.94,0,1,1,6,333.72l-5.66-3a.89.89,0,0,1-.36-.36v4.93a54.49,54.49,0,0,0,13.25,27.89H90.08c47.46-13.82,110.58-37.88,161.24-58.24V112.63A8.4,8.4,0,0,0,244,112.64ZM19,361.27a2.08,2.08,0,1,1,1.09-2.74A2.07,2.07,0,0,1,19,361.27ZM143,169.48a.86.86,0,0,1,1.12-.48l1.91.76.76-1.91a.88.88,0,0,1,1.12-.49.86.86,0,0,1,.48,1.12l-.76,1.91,1.92.76a.86.86,0,0,1-.64,1.6L147,172l-.76,1.92a.87.87,0,0,1-1.12.48h0a.87.87,0,0,1-.48-1.12l.76-1.91-1.91-.76A.87.87,0,0,1,143,169.48Zm-10.13,90a2.09,2.09,0,1,1-1.09,2.74A2.09,2.09,0,0,1,132.89,259.49Zm-13.32-55.85a2.95,2.95,0,1,1-1.54,3.87A2.93,2.93,0,0,1,119.57,203.64ZM70.29,342.94a1,1,0,0,1-.9.2l-1.94-.57A8.45,8.45,0,0,0,59.9,344l-1.59,1.26a1.06,1.06,0,0,1-.2.12h0l-.05,0h-.53l-.06,0-1.94-.57A8.45,8.45,0,0,0,48,346.3l-1.59,1.26a.91.91,0,0,1-.41.19,1,1,0,0,1-.5-.05.94.94,0,0,1-.59-.7l-3.45-17.95a1,1,0,0,1,.34-.91l1.6-1.27a10.31,10.31,0,0,1,9.22-1.76l1.49.44,1.22-1a10.36,10.36,0,0,1,9.23-1.77l2,.58a1,1,0,0,1,.65.72l3.45,18A1,1,0,0,1,70.29,342.94Zm15.24-23.82a2.08,2.08,0,1,1,1.08-2.74A2.08,2.08,0,0,1,85.53,319.12Zm2.64-39.67-1.89.82.82,1.89a.86.86,0,1,1-1.58.68L84.7,281l-1.89.82a.86.86,0,1,1-.68-1.58l1.89-.82-.82-1.89a.86.86,0,0,1,1.59-.68l.81,1.89,1.89-.82a.88.88,0,0,1,1.13.45A.85.85,0,0,1,88.17,279.45Zm27.11-35.52-.72,1.84a.64.64,0,0,1-.11.2h0l0,0h0l0,0h0l0,0h0v0h0l0,0h0l0,0,0,0,0,0h0l0,0H114l-.06,0-1.92.48a8.25,8.25,0,0,0-5.6,4.95l-.71,1.85a.9.9,0,0,1-.25.35.88.88,0,0,1-.44.22.92.92,0,0,1-.84-.3l-11.8-13.32a.92.92,0,0,1-.16-.94l.71-1.85a10,10,0,0,1,6.85-6.05l1.46-.37.55-1.41a10.06,10.06,0,0,1,6.84-6.06l1.92-.48a.92.92,0,0,1,.91.28L123.25,237a.92.92,0,0,1,.19.87.89.89,0,0,1-.65.61l-1.91.49A8.18,8.18,0,0,0,115.28,243.93Zm35.66,65.5a1,1,0,0,1-.51.52l-.25.07-7.91,1a1,1,0,0,1-.87-.36.92.92,0,0,1-.13-.93l2.51-6.37-11.24-4.47-2.19,5.51,7.77,3.06a1,1,0,0,1,.53,1.24,1,1,0,0,1-1.23.53L124,304a4.86,4.86,0,1,1,3.59-9L145.4,302a.93.93,0,0,1,.39.28l5,6.2A1,1,0,0,1,150.94,309.43Zm9.9-37.12-3,5.66a.94.94,0,0,1-1.67-.88l3-5.65a.94.94,0,0,1,1.67.87Zm-.46-79.88a2.95,2.95,0,1,1,1.54-3.87A2.94,2.94,0,0,1,160.38,192.43Zm12.11-65.5-5.38,13.51a1,1,0,0,1-1.77-.71l3.1-7.79-5.53-2.19-4.48,11.3,6.39,2.54a1,1,0,0,1,.25,1.63l-6.2,5.06a1.09,1.09,0,0,1-.23.14,1,1,0,0,1-.72,0,1,1,0,0,1-.6-.76l-1.09-7.92a1,1,0,0,1,.06-.48l7.12-17.94a4.88,4.88,0,1,1,9.08,3.6Zm29-94.38A4.23,4.23,0,0,1,207,30.17l11.71,4.67a.82.82,0,0,1,.46,1.07.83.83,0,0,1-1.07.46l-6.75-2.69-1.9,4.79,9.79,3.89,2.21-5.54a.82.82,0,0,1,1.4-.22L227.2,42a.76.76,0,0,1,.12.19.86.86,0,0,1,0,.63.83.83,0,0,1-.66.52l-6.86.94a.86.86,0,0,1-.42,0L203.84,38a4.21,4.21,0,0,1-2.32-2.26A4.16,4.16,0,0,1,201.47,32.55Zm24.65,123a2.08,2.08,0,1,1,1.09-2.73A2.08,2.08,0,0,1,226.12,155.58ZM193.77,82.17a.87.87,0,0,1,1.12-.49l1.91.76.76-1.91a.86.86,0,1,1,1.6.64l-.76,1.91,1.91.76A.86.86,0,0,1,200.8,85a.88.88,0,0,1-1.12.49l-1.91-.76L197,86.59a.86.86,0,0,1-1.12.48.85.85,0,0,1-.48-1.11l.76-1.92-1.92-.76A.86.86,0,0,1,193.77,82.17ZM184.09,53A2.08,2.08,0,1,1,183,55.76,2.08,2.08,0,0,1,184.09,53Zm3,212.2a1,1,0,0,1-1.16.65l-6.15-1.72a.95.95,0,0,1,.51-1.82l6.15,1.72A1,1,0,0,1,187.05,265.22Zm4.18-26.38a2.09,2.09,0,1,1,1.08-2.74A2.09,2.09,0,0,1,191.23,238.84Zm13.58-27.76a.83.83,0,0,1-.45.17.79.79,0,0,1-.43-.06l-1.83-.75a8.26,8.26,0,0,0-7.45.69L193,212.19l-.06,0h0l0,0h-.51l-.22,0-1.83-.75a8.2,8.2,0,0,0-7.44.68l-1.67,1.06a.91.91,0,0,1-1.4-.68l-1.61-17.72a.92.92,0,0,1,.41-.85l1.67-1.07a10,10,0,0,1,9.1-.83l1.41.57,1.27-.81a10.08,10.08,0,0,1,9.1-.84l1.84.75a.91.91,0,0,1,.56.76l1.62,17.73A.9.9,0,0,1,204.81,211.08Zm4.43-72.51a2.95,2.95,0,1,1,1.54-3.87A2.94,2.94,0,0,1,209.24,138.57ZM228.07,259l-5.36,13.46a1,1,0,0,1-1.77-.71L224,264l-5.5-2.18L214.07,273l6.36,2.54a.95.95,0,0,1,.25,1.62l-6.18,5a1,1,0,0,1-.95.15,1,1,0,0,1-.59-.76l-1.08-7.89a1,1,0,0,1,.06-.48L219,255.4a4.87,4.87,0,0,1,9,3.58Zm12.05-45.15-1.89.82.82,1.89a.86.86,0,0,1-1.58.68l-.82-1.89-1.89.82a.86.86,0,0,1-.68-1.59l1.89-.81-.82-1.89a.88.88,0,0,1,.45-1.13.87.87,0,0,1,1.14.45l.81,1.89,1.89-.82a.86.86,0,0,1,.68,1.58Z" class="primary" style="fill:#5ec2c1;opacity:0.1" />
    <path d="M169.05,122.36a3,3,0,0,0-3.87,1.67l-.15.38,5.54,2.19.15-.38a3,3,0,0,0-1.67-3.86Z" class="primary" style="fill:#5ec2c1;opacity:0.1" />
    <polygon points="222.42 38.73 220.95 42.44 224.99 41.88 222.42 38.73" class="primary" style="fill:#5ec2c1;opacity:0.1" />
    <path d="M224.64,254.44a3,3,0,0,0-3.85,1.66l-.15.37,5.51,2.19.15-.38a3,3,0,0,0-1.66-3.84Z" class="primary" style="fill:#5ec2c1;opacity:0.1" />
    <polygon points="27.35 281.47 23.29 279.86 23.87 284.28 27.35 281.47" class="primary" style="fill:#5ec2c1;opacity:0.1" />
    <path d="M232.11,94.14l-1.31.65L230.53,111l.44-.22a10.32,10.32,0,0,1,9.39.16l.44.24L241.08,95l-1.29-.7A8.45,8.45,0,0,0,232.11,94.14Z" class="primary" style="fill:#5ec2c1;opacity:0.1" />
    <polygon points="214.61 279.7 218.23 276.75 213.97 275.05 214.61 279.7" class="primary" style="fill:#5ec2c1;opacity:0.1" />
    <path d="M52.07,326.9a8.43,8.43,0,0,0-7.54,1.45l-1.16.9,3.06,15.89.39-.31A10.36,10.36,0,0,1,56,343.06l.48.14-3.05-15.89Z" class="primary" style="fill:#5ec2c1;opacity:0.1" />
    <path d="M22.52,277.61,28.6,280l4.26-10.74-1.44-.57q-2.67,2.26-5.12,4.55c-1.46,1.43-2.86,2.87-4.19,4.3A1,1,0,0,1,22.52,277.61Z" class="primary" style="fill:#5ec2c1;opacity:0.1" />
    <path d="M33.53,267.59l.39-1-.93.75Z" class="primary" style="fill:#5ec2c1;opacity:0.1" />
    <path d="M33,267.37l.93-.75c.92-.76,1.87-1.51,2.83-2.26a198.2,198.2,0,0,1,20.17-13.75c17-10.21,30.21-20.33,40.5-30.37-9.91,9.29-22.35,18.63-38.08,28.06a176.72,176.72,0,0,0-33,24.95q2.44-2.28,5.12-4.55Z" class="primary" style="fill:#5ec2c1;opacity:0.1" />
    <path d="M200.48,192.72a8.26,8.26,0,0,0-7.45.68l-1.19.77,1.43,15.68.41-.26a10,10,0,0,1,9.1-.83l.45.18-1.43-15.68Z" class="primary" style="fill:#5ec2c1;opacity:0.1" />
    <path d="M178.75,41a205.54,205.54,0,0,1,33.77-25.15,111,111,0,0,1,38.8-14.53V0h-2.57a110.58,110.58,0,0,0-33.81,13.54C199.87,22.72,188.07,31.87,178.75,41Z" class="primary" style="fill:#5ec2c1;opacity:0.1" />
    <rect x="221.37" y="257.26" width="1.93" height="5.92" transform="translate(-101.55 370.91) rotate(-68.36)" class="primary" style="fill:#5ec2c1;opacity:0.1" />
    <path d="M244.26,94.35,243,95l-.28,16.18.45-.22a10.24,10.24,0,0,1,4.72-1,10.43,10.43,0,0,1,3.48.67V94.2A8.42,8.42,0,0,0,244.26,94.35Z" class="primary" style="fill:#5ec2c1;opacity:0.1" />
    <path d="M21.83,277.62l-.49.51a.78.78,0,0,0-.05.34l.82-.92A.89.89,0,0,0,21.83,277.62Z" class="secondary" style="fill:#f4d265" />
    <path d="M85.52,282.84a.86.86,0,1,0,1.58-.68l-.82-1.89L84.7,281Z" class="primary" class="secondary" style="fill:#5ec2c1;opacity:0.5" />
    <g style="opacity:0.5">
        <path d="M17.32,357.45a2.08,2.08,0,1,0,2.74,1.08A2.08,2.08,0,0,0,17.32,357.45Z" class="secondary" style="fill:#5ec2c1" />
        <path d="M.36,330.75l5.66,3a.94.94,0,1,0,.87-1.67l-5.66-3a.93.93,0,0,0-1.23.35v.95A.89.89,0,0,0,.36,330.75Z" class="secondary" style="fill:#f26d5a" />
        <path d="M67.13,324.11a1,1,0,0,0-.65-.72l-2-.58a10.36,10.36,0,0,0-9.23,1.77l-1.22,1-1.49-.44a10.31,10.31,0,0,0-9.22,1.76l-1.6,1.27a1,1,0,0,0-.34.91L44.88,347a.94.94,0,0,0,.59.7,1,1,0,0,0,.5.05.91.91,0,0,0,.41-.19L48,346.3a8.45,8.45,0,0,1,7.55-1.44l1.94.57.06,0h.53l.05,0h0a1.06,1.06,0,0,0,.2-.12L59.9,344a8.45,8.45,0,0,1,7.55-1.44l1.94.57a.93.93,0,0,0,1.19-1.07ZM56,343.06a10.36,10.36,0,0,0-9.22,1.77l-.39.31-3.06-15.89,1.16-.9a8.43,8.43,0,0,1,7.54-1.45l1.4.41,3.05,15.89ZM68,340.77a10.36,10.36,0,0,0-9.22,1.77l-.39.31-3-15.89,1.15-.91A8.43,8.43,0,0,1,64,324.61l1.4.41,3,15.89Z" class="secondary" style="fill:#f26d5a" />
        <path d="M83.87,315.3a2.08,2.08,0,1,0,2.74,1.08A2.07,2.07,0,0,0,83.87,315.3Z" class="secondary" style="fill:#f4d265" />
        <path d="M87.49,277.87l-1.89.82.68,1.58,1.89-.82a.85.85,0,0,0,.45-1.13A.88.88,0,0,0,87.49,277.87Z" class="secondary" style="fill:#5ec2c1" />
        <path d="M82.13,280.19a.86.86,0,1,0,.68,1.58L84.7,281,84,279.37Z" class="secondary" style="fill:#5ec2c1" />
        <path d="M84.79,276.8a.86.86,0,0,0-1.59.68l.82,1.89,1.58-.68Z" class="secondary" style="fill:#5ec2c1" />
        <rect x="84.29" y="278.96" width="1.72" height="1.72" transform="translate(-103.95 56.68) rotate(-23.36)" class="secondary" style="fill:#5ec2c1" />
        <path d="M185.74,56.84A2.08,2.08,0,1,0,183,55.76,2.07,2.07,0,0,0,185.74,56.84Z" class="secondary" style="fill:#f4d265" />
        <path d="M224.47,151.76a2.08,2.08,0,1,0,2.74,1.09A2.08,2.08,0,0,0,224.47,151.76Z" class="secondary" style="fill:#f4d265" />
        <path d="M189.58,235a2.09,2.09,0,1,0,2.73,1.09A2.08,2.08,0,0,0,189.58,235Z" class="secondary" style="fill:#f26d5a" />
        <path d="M206.9,133.16a2.95,2.95,0,1,0,3.88,1.54A2.95,2.95,0,0,0,206.9,133.16Z" class="secondary" style="fill:#f4d265" />
        <path d="M158.05,187a2.95,2.95,0,1,0,3.87,1.54A2.95,2.95,0,0,0,158.05,187Z" class="secondary" style="fill:#f26d5a" />
        <path d="M186.4,264.05l-6.15-1.72a.95.95,0,0,0-.51,1.82l6.15,1.72a.95.95,0,0,0,.51-1.82Z" class="secondary" style="fill:#5ec2c1" />
        <path d="M195.41,86a.85.85,0,0,0,.48,1.11.86.86,0,0,0,1.12-.48l.76-1.91-1.6-.64Z" class="secondary" style="fill:#5ec2c1" />
        <path d="M199.16,81.17a.86.86,0,1,0-1.6-.64l-.76,1.91,1.6.64Z" class="secondary" style="fill:#5ec2c1" />
        <path d="M194.25,83.28l1.92.76.63-1.6-1.91-.76a.87.87,0,0,0-1.12.49A.86.86,0,0,0,194.25,83.28Z" class="secondary" style="fill:#5ec2c1" />
        <path d="M199.68,85.44A.88.88,0,0,0,200.8,85a.86.86,0,0,0-.49-1.11l-1.91-.76-.63,1.6Z" class="secondary" style="fill:#5ec2c1" />
        <rect x="196.42" y="82.7" width="1.72" height="1.72" transform="translate(46.87 236.14) rotate(-68.36)" class="secondary" style="fill:#5ec2c1" />
        <path d="M148.41,168.48a.86.86,0,0,0-.48-1.12.88.88,0,0,0-1.12.49l-.76,1.91,1.6.63Z" class="secondary" style="fill:#5ec2c1" />
        <path d="M144.66,173.27a.87.87,0,0,0,.48,1.12h0a.87.87,0,0,0,1.12-.48L147,172l-1.6-.63Z" class="secondary" style="fill:#5ec2c1" />
        <path d="M143.51,170.6l1.91.76.63-1.6-1.91-.76a.86.86,0,0,0-1.12.48A.87.87,0,0,0,143.51,170.6Z" class="secondary" style="fill:#5ec2c1" />
        <path d="M148.93,172.75a.86.86,0,0,0,.64-1.6l-1.92-.76L147,172Z" class="secondary" style="fill:#5ec2c1" />
        <rect x="145.68" y="170.01" width="1.72" height="1.72" transform="translate(-66.35 244.03) rotate(-68.35)" class="secondary" style="fill:#5ec2c1" />
        <path d="M234.08,214.56a.86.86,0,0,0,.68,1.59l1.89-.82-.68-1.58Z" class="secondary" style="fill:#5ec2c1" />
        <path d="M239.44,212.25l-1.89.82.68,1.58,1.89-.82a.86.86,0,0,0-.68-1.58Z" class="secondary" style="fill:#5ec2c1" />
        <path d="M237.47,217.22a.86.86,0,0,0,1.58-.68l-.82-1.89-1.58.68Z" class="secondary" style="fill:#5ec2c1" />
        <path d="M236.74,211.18a.87.87,0,0,0-1.14-.45.88.88,0,0,0-.45,1.13l.82,1.89,1.58-.68Z" class="secondary" style="fill:#5ec2c1" />
        <rect x="236.24" y="213.34" width="1.72" height="1.72" transform="translate(-65.52 111.64) rotate(-23.37)" class="secondary" style="fill:#5ec2c1" />
        <path d="M243.43,92.68l-1.39.68-1.37-.73a10.3,10.3,0,0,0-9.39-.16l-1.82.9a1,1,0,0,0-.52.82l-.31,18.29a.93.93,0,0,0,.44.8.92.92,0,0,0,.91,0l1.82-.9a8.45,8.45,0,0,1,7.68.13l1.79,1a.85.85,0,0,0,.22.09h.58l.06,0,1.82-.9a8.4,8.4,0,0,1,7.37,0v-2a10.43,10.43,0,0,0-3.48-.67,10.24,10.24,0,0,0-4.72,1l-.45.22L243,95l1.31-.65a8.42,8.42,0,0,1,7.06-.15v-2A10.3,10.3,0,0,0,243.43,92.68Zm-2.63,18.47-.44-.24a10.32,10.32,0,0,0-9.39-.16l-.44.22.27-16.18,1.31-.65a8.45,8.45,0,0,1,7.68.13l1.29.7Z" class="secondary" style="fill:#f26d5a" />
        <path d="M203,191.78l-1.84-.75a10.08,10.08,0,0,0-9.1.84l-1.27.81-1.41-.57a10,10,0,0,0-9.1.83L178.61,194a.92.92,0,0,0-.41.85l1.61,17.72a.91.91,0,0,0,1.4.68l1.67-1.06a8.2,8.2,0,0,1,7.44-.68l1.83.75.22,0h.51l0,0h0l.06,0,1.66-1.06a8.26,8.26,0,0,1,7.45-.69l1.83.75a.79.79,0,0,0,.43.06.83.83,0,0,0,.45-.17.9.9,0,0,0,.37-.81l-1.62-17.73A.91.91,0,0,0,203,191.78Zm-12,18.05a10,10,0,0,0-9.1.83l-.41.27-1.43-15.69,1.2-.76a8.24,8.24,0,0,1,7.44-.69l1.32.54L191.46,210Zm11.78-1.07a10,10,0,0,0-9.1.83l-.41.26-1.43-15.68,1.19-.77a8.26,8.26,0,0,1,7.45-.68l1.32.54,1.43,15.68Z" class="secondary" style="fill:#5ec2c1" />
        <path d="M169.75,120.59a4.87,4.87,0,0,0-6.34,2.74l-7.12,17.94a1,1,0,0,0-.06.48l1.09,7.92a1,1,0,0,0,.6.76,1,1,0,0,0,.72,0,1.09,1.09,0,0,0,.23-.14l6.2-5.06a1,1,0,0,0-.25-1.63l-6.39-2.54,4.48-11.3,5.53,2.19-3.1,7.79a1,1,0,0,0,1.77.71l5.38-13.51a4.87,4.87,0,0,0-2.74-6.34Zm-7.14,24.17-3.63,3-.64-4.67Zm6.54-14.59L163.62,128l.71-1.8,5.53,2.19Zm1.57-3.95-.15.38L165,124.41l.15-.38a3,3,0,0,1,3.87-1.67,3,3,0,0,1,1.67,3.86Z" class="secondary" style="fill:#f4d265" />
        <path d="M203.84,38l15.55,6.17a.86.86,0,0,0,.42,0l6.86-.94a.83.83,0,0,0,.66-.52.86.86,0,0,0,0-.63.76.76,0,0,0-.12-.19l-4.39-5.38a.82.82,0,0,0-1.4.22l-2.21,5.54-9.79-3.89,1.9-4.79,6.75,2.69a.83.83,0,0,0,1.07-.46.82.82,0,0,0-.46-1.07L207,30.17a4.23,4.23,0,0,0-5.49,2.38,4.16,4.16,0,0,0,.05,3.23A4.21,4.21,0,0,0,203.84,38Zm18.58.7L225,41.88l-4,.56Zm-14.2-6.29,1.56.62-1.9,4.79-1.56-.62Zm-5.21.71a2.57,2.57,0,0,1,3.34-1.45l.33.13-1.9,4.79-.33-.13A2.53,2.53,0,0,1,203,35.13,2.5,2.5,0,0,1,203,33.16Z" class="secondary" style="fill:#5ec2c1" />
        <path d="M225.34,252.67A4.88,4.88,0,0,0,219,255.4l-7.08,17.86a1,1,0,0,0-.06.48l1.08,7.89a.94.94,0,0,0,1.32.74,1,1,0,0,0,.22-.13l6.18-5a.95.95,0,0,0-.25-1.62L214.07,273l4.46-11.24L224,264l-3.09,7.75a1,1,0,0,0,1.77.71L228.07,259a4.87,4.87,0,0,0-2.73-6.31Zm-7.11,24.08-3.62,2.95-.64-4.65Zm6.5-14.53-5.5-2.19.71-1.79,5.51,2.18Zm1.57-3.94-.15.38-5.51-2.19.15-.37a3,3,0,0,1,3.85-1.66,3,3,0,0,1,1.66,3.84Z" class="secondary" style="fill:#f4d265" />
        <path d="M134.54,263.32a2.09,2.09,0,1,0-2.74-1.09A2.09,2.09,0,0,0,134.54,263.32Z" class="secondary" style="fill:#f4d265" />
        <path d="M121.91,209.05a2.95,2.95,0,1,0-3.88-1.54A2.94,2.94,0,0,0,121.91,209.05Z" class="secondary" style="fill:#f4d265" />
        <path d="M160.44,271a.94.94,0,0,0-1.27.4l-3,5.65a.94.94,0,0,0,1.67.88l3-5.66A.94.94,0,0,0,160.44,271Z" class="secondary" style="fill:#f26d5a" />
        <path d="M123.44,237.88a.92.92,0,0,0-.19-.87l-11.79-13.33a.92.92,0,0,0-.91-.28l-1.92.48a10.06,10.06,0,0,0-6.84,6.06l-.55,1.41-1.46.37a10,10,0,0,0-6.85,6.05l-.71,1.85a.92.92,0,0,0,.16.94l11.8,13.32a.92.92,0,0,0,.84.3.88.88,0,0,0,.44-.22.9.9,0,0,0,.25-.35l.71-1.85a8.25,8.25,0,0,1,5.6-4.95l1.92-.48.06,0h.13l0,0h0l0,0,0,0,0,0h0l0,0h0v0h0l0,0h0l0,0h0l0,0h0a.64.64,0,0,0,.11-.2l.72-1.84a8.18,8.18,0,0,1,5.6-5l1.91-.49A.89.89,0,0,0,123.44,237.88Zm-11.87,7.17a10.07,10.07,0,0,0-6.84,6l-.18.46-10.44-11.8.52-1.33a8.25,8.25,0,0,1,5.6-5l1.38-.35L112,244.93Zm8.86-7.84a10,10,0,0,0-6.85,6.06l-.18.45L103,231.93l.51-1.33a8.22,8.22,0,0,1,5.6-4.95l1.38-.35,10.44,11.79Z" class="secondary" style="fill:#f26d5a" />
        <path d="M145.79,302.28a.93.93,0,0,0-.39-.28l-17.86-7.09a4.86,4.86,0,1,0-3.59,9l13.47,5.32a1,1,0,0,0,1.23-.53,1,1,0,0,0-.53-1.24l-7.77-3.06,2.19-5.51,11.24,4.47-2.51,6.37a.92.92,0,0,0,.13.93,1,1,0,0,0,.87.36l7.91-1,.25-.07a1,1,0,0,0,.51-.52,1,1,0,0,0-.15-.95Zm-21.14-.1A2.94,2.94,0,0,1,123,300.6a3,3,0,0,1,0-2.27,3,3,0,0,1,3.85-1.66l.37.15L125,302.33Zm3.94,1.56-1.8-.71,2.19-5.51,1.79.71Zm15,5.22,1.68-4.25,2.94,3.64Z" class="secondary" style="fill:#5ec2c1" />
        <path d="M22.28,286.12a.61.61,0,0,0,.07.24.89.89,0,0,0,.49.48.91.91,0,0,0,.91-.13l5.91-4.78a.85.85,0,0,0,.28-.37l6.77-17.06c0-.05,0-.1,0-.14-1,.75-1.91,1.5-2.83,2.26l-.39,1-.54-.22-1.57,1.33,1.44.57L28.6,280l-6.08-2.4a1,1,0,0,0-.41-.06l-.82.92a.34.34,0,0,0,0,.1Zm5.07-4.65-3.48,2.81-.59-4.42Z" class="secondary" style="fill:#f4d265" />
    </g>
</svg>