<svg
   id="e5c33f3d-7834-4a4a-8285-5bb97d15d33e"
   data-name="Layer 1"
   viewBox="0 0 100 99.51"
   version="1.1"
   xmlns="http://www.w3.org/2000/svg">

  <path
     d="M27.68,12.77a4.14,4.14,0,0,0,0,8.28h55.2a4.14,4.14,0,0,0,0-8.28Z"
fill="current"     id="path22" />
  <path
     d="M85.68,25.09H26.86a8.41,8.41,0,0,1,0-16.82H85.68a4.14,4.14,0,0,0,0-8.27H26.86A16.7,16.7,0,0,0,10.18,16.68V82.83A16.7,16.7,0,0,0,26.86,99.51H85.68a4.15,4.15,0,0,0,4.14-4.15V29.22a4.13,4.13,0,0,0-4.14-4.13ZM26.86,91.24a8.42,8.42,0,0,1-8.41-8.41V31.07a16.47,16.47,0,0,0,8.41,2.27H81.53v57.9Z"
fill="current"     id="path24" />
</svg>
