<svg id="e2865a42-c5c1-4e8a-b699-992630e4fb1f" data-name="Layer 1" xmlns="http://www.w3.org/2000/svg" xmlns:xlink="http://www.w3.org/1999/xlink" viewBox="0 0 100 99.51"><path d="M52.72,20.93V85.41a1.77,1.77,0,0,0,1.77,1.76,1.74,1.74,0,0,0,.94-.27c12.32-7.81,29.33-7.71,41.88,0a1.76,1.76,0,0,0,2.43-.58,1.73,1.73,0,0,0,.26-.92V20.93a1.79,1.79,0,0,0-.81-1.49A42.84,42.84,0,0,0,76,12.33,39.83,39.83,0,0,0,53.5,19.47a1.78,1.78,0,0,0-.77,1.46ZM0,20.93V85.41a1.76,1.76,0,0,0,1.76,1.76,1.79,1.79,0,0,0,.93-.26c12.55-7.72,29.55-7.82,41.87,0A1.77,1.77,0,0,0,47,86.35a1.74,1.74,0,0,0,.27-.94V20.93a1.78,1.78,0,0,0-.77-1.46A39.83,39.83,0,0,0,24,12.33,42.84,42.84,0,0,0,.81,19.44,1.79,1.79,0,0,0,0,20.93Z" fill="current"/></svg>
