<svg id="a98e2ba4-3621-4d1b-bf2c-9db319ed576f" data-name="Certificate" xmlns="http://www.w3.org/2000/svg" xmlns:xlink="http://www.w3.org/1999/xlink" viewBox="0 0 1530 1080"><defs><clipPath id="a777d1f9-9188-465a-bad1-8d63fc3af411"><rect width="1530" height="1080" style="fill:none"/></clipPath></defs><g style="clip-path:url(#a777d1f9-9188-465a-bad1-8d63fc3af411)"><g style="opacity:0.15"><path d="M1595.77,669.34q.06-182.16,1.43-364.27c-84.56,9.6-166,48.61-224.56,110.54-61.18,64.7-97.26,150.6-161.84,211.91-135.85,129-335.38,128.72-490-55.79-135.9-162.12-131.82-391.49,3.93-620l-133.41-.11q-178.17-.15-356.39.26h0Q83.27-48-68.35-48.56c1.53,43.73.73,87.65,1,131.34.38,55,.8,110,.89,165q.19,126,.36,252.05c48-14.81,101.86-7.16,148.69,9.09,204.1,70.85,348.2,260.73,502.1,402.13,87.08,80,182.83,158.35,286.29,221.45q147.43-.2,294.87-.34l400.66-.34,29.16,0c0-1.15,0-2.3,0-3.45q-.53-141.76-.1-283.53Q1595.69,757.07,1595.77,669.34Z" style="fill:current"/></g></g></svg>