<svg id="b8869f19-346c-45ad-b170-3f2940e552d7" data-name="Certificate" xmlns="http://www.w3.org/2000/svg" viewBox="0 0 549.26 596.74"><polygon points="527.13 596.74 535.08 596.74 549.26 582.56 549.26 574.61 527.13 596.74" style="fill:current"/><polygon points="486.63 596.74 494.59 596.74 549.26 542.07 549.26 534.11 486.63 596.74" style="fill:current"/><polygon points="456.16 586.71 456.16 594.66 549.26 501.57 549.26 493.62 456.16 586.71" style="fill:current"/><polygon points="456.16 546.21 456.16 554.17 549.26 461.07 549.26 453.12 456.16 546.21" style="fill:current"/><polygon points="456.16 505.72 456.16 513.67 549.26 420.58 549.26 412.62 456.16 505.72" style="fill:current"/><polygon points="456.16 465.22 456.16 473.18 549.26 380.08 549.26 372.13 456.16 465.22" style="fill:current"/><polygon points="456.16 424.73 456.16 432.68 549.26 339.58 549.26 331.63 456.16 424.73" style="fill:current"/><polygon points="456.16 384.23 456.16 392.18 549.26 299.09 549.26 291.13 456.16 384.23" style="fill:current"/><polygon points="456.16 343.73 456.16 351.69 549.26 258.59 549.26 250.64 456.16 343.73" style="fill:current"/><polygon points="456.16 303.24 456.16 311.19 549.26 218.09 549.26 210.14 456.16 303.24" style="fill:current"/><polygon points="456.16 262.74 456.16 270.69 549.26 177.6 549.26 169.65 456.16 262.74" style="fill:current"/><polygon points="456.16 222.24 456.16 230.2 549.26 137.1 549.26 129.15 456.16 222.24" style="fill:current"/><polygon points="456.16 181.75 456.16 189.7 549.26 96.61 549.26 93.09 549.26 88.65 456.16 181.75" style="fill:current"/><polygon points="456.16 141.25 456.16 149.21 549.26 56.11 549.26 48.16 456.16 141.25" style="fill:current"/><polygon points="456.16 100.75 456.16 108.71 549.26 15.61 549.26 7.66 456.16 100.75" style="fill:current"/><polygon points="423.33 93.09 431.28 93.09 524.38 0 516.42 0 423.33 93.09" style="fill:current"/><polygon points="382.83 93.09 390.79 93.09 483.88 0 475.93 0 382.83 93.09" style="fill:current"/><polygon points="342.34 93.09 350.29 93.09 443.38 0 435.43 0 342.34 93.09" style="fill:current"/><polygon points="301.84 93.09 309.79 93.09 402.89 0 394.93 0 301.84 93.09" style="fill:current"/><polygon points="261.34 93.09 269.3 93.09 362.39 0 354.44 0 261.34 93.09" style="fill:current"/><polygon points="220.85 93.09 228.8 93.09 321.89 0 313.94 0 220.85 93.09" style="fill:current"/><polygon points="180.35 93.09 188.31 93.09 281.4 0 273.45 0 180.35 93.09" style="fill:current"/><polygon points="139.85 93.09 147.81 93.09 240.9 0 232.95 0 139.85 93.09" style="fill:current"/><polygon points="99.36 93.09 107.31 93.09 200.41 0 192.45 0 99.36 93.09" style="fill:current"/><polygon points="58.86 93.09 66.82 93.09 159.91 0 151.96 0 58.86 93.09" style="fill:current"/><polygon points="18.37 93.09 26.32 93.09 119.41 0 111.46 0 18.37 93.09" style="fill:current"/><polygon points="0 70.97 0 78.92 78.92 0 70.97 0 0 70.97" style="fill:current"/><polygon points="0 30.47 0 38.42 38.42 0 30.47 0 0 30.47" style="fill:current"/><rect x="-920.85" y="-74.23" width="1530" height="1080" style="fill:none"/></svg>