<svg id="bcac65ac-1042-41ef-aed6-2877ae33c309" data-name="Certificate" xmlns="http://www.w3.org/2000/svg" viewBox="0 0 549.26 596.74"><polygon points="22.13 0 14.18 0 0 14.18 0 22.13 22.13 0" style="fill:current"/><polygon points="62.63 0 54.67 0 0 54.67 0 62.63 62.63 0" style="fill:current"/><polygon points="93.09 10.03 93.09 2.07 0 95.17 0 103.12 93.09 10.03" style="fill:current"/><polygon points="93.09 50.52 93.09 42.57 0 135.66 0 143.62 93.09 50.52" style="fill:current"/><polygon points="93.09 91.02 93.09 83.07 0 176.16 0 184.12 93.09 91.02" style="fill:current"/><polygon points="93.09 131.52 93.09 123.56 0 216.66 0 224.61 93.09 131.52" style="fill:current"/><polygon points="93.09 172.01 93.09 164.06 0 257.15 0 265.11 93.09 172.01" style="fill:current"/><polygon points="93.09 212.51 93.09 204.56 0 297.65 0 305.6 93.09 212.51" style="fill:current"/><polygon points="93.09 253 93.09 245.05 0 338.15 0 346.1 93.09 253" style="fill:current"/><polygon points="93.09 293.5 93.09 285.55 0 378.64 0 386.6 93.09 293.5" style="fill:current"/><polygon points="93.09 334 93.09 326.04 0 419.14 0 427.09 93.09 334" style="fill:current"/><polygon points="93.09 374.49 93.09 366.54 0 459.63 0 467.59 93.09 374.49" style="fill:current"/><polygon points="93.09 414.99 93.09 407.04 0 500.13 0 503.64 0 508.08 93.09 414.99" style="fill:current"/><polygon points="93.09 455.49 93.09 447.53 0 540.63 0 548.58 93.09 455.49" style="fill:current"/><polygon points="93.09 495.98 93.09 488.03 0 581.12 0 589.08 93.09 495.98" style="fill:current"/><polygon points="125.93 503.64 117.98 503.64 24.88 596.74 32.84 596.74 125.93 503.64" style="fill:current"/><polygon points="166.43 503.64 158.47 503.64 65.38 596.74 73.33 596.74 166.43 503.64" style="fill:current"/><polygon points="206.92 503.64 198.97 503.64 105.88 596.74 113.83 596.74 206.92 503.64" style="fill:current"/><polygon points="247.42 503.64 239.47 503.64 146.37 596.74 154.32 596.74 247.42 503.64" style="fill:current"/><polygon points="287.92 503.64 279.96 503.64 186.87 596.74 194.82 596.74 287.92 503.64" style="fill:current"/><polygon points="328.41 503.64 320.46 503.64 227.36 596.74 235.32 596.74 328.41 503.64" style="fill:current"/><polygon points="368.91 503.64 360.95 503.64 267.86 596.74 275.81 596.74 368.91 503.64" style="fill:current"/><polygon points="409.4 503.64 401.45 503.64 308.36 596.74 316.31 596.74 409.4 503.64" style="fill:current"/><polygon points="449.9 503.64 441.95 503.64 348.85 596.74 356.81 596.74 449.9 503.64" style="fill:current"/><polygon points="490.4 503.64 482.44 503.64 389.35 596.74 397.3 596.74 490.4 503.64" style="fill:current"/><polygon points="530.89 503.64 522.94 503.64 429.85 596.74 437.8 596.74 530.89 503.64" style="fill:current"/><polygon points="549.26 525.77 549.26 517.82 470.34 596.74 478.29 596.74 549.26 525.77" style="fill:current"/><polygon points="549.26 566.27 549.26 558.32 510.84 596.74 518.79 596.74 549.26 566.27" style="fill:current"/><rect x="-62.83" y="-411.43" width="1530" height="1080" style="fill:none"/></svg>