<svg id="bfd49bd5-8cd8-4616-aec3-554a0602da69" data-name="Certificate" xmlns="http://www.w3.org/2000/svg" xmlns:xlink="http://www.w3.org/1999/xlink" viewBox="0 0 1530 1080"><defs><clipPath id="ed5cd022-3b37-4f40-980f-8bf878c1f0b6"><rect width="1530" height="1080" style="fill:none"/></clipPath></defs><g style="clip-path:url(#ed5cd022-3b37-4f40-980f-8bf878c1f0b6)"><path d="M1477-47.63,1001.58-48c-8.2,76.15,1.36,156.76,32.56,221.66a260.48,260.48,0,0,0,34.22,53.86c79.77,95.89,229.68,100.05,337.51,54,111.79-47.75,195.88-157,210.82-278a286.62,286.62,0,0,0,1.77-50.61Q1547.69-47.46,1477-47.63Z" style="fill:current;opacity:0.2"/><g style="opacity:0.2"><path d="M-65.88,991.74c3.26,0,6.52-.07,9.7-.14,96.12-1.92,187.61,58.32,233.07,142.08q93.14-.3,186.27-.44l154.68-.24a222.4,222.4,0,0,0-1.53-22.37c-17-146.74-109-279.57-232.15-361.09C181,681.27,58,647.13-65.93,641.45q.08,94.34.07,188.66Q-65.86,910.93-65.88,991.74Z" style="fill:current"/></g></g></svg>