<?xml version="1.0" encoding="UTF-8"?><svg id="uuid-2a3c45c3-a8eb-4466-b2e6-bb4cf27a7a01" xmlns="http://www.w3.org/2000/svg" viewBox="0 0 200 200"><path d="M100,0C44.86,0,0,44.86,0,100c0,15.43,3.64,30.74,10.47,44.48l-8.44,31.51c-1.53,5.71,.06,11.62,4.24,15.8,3.13,3.13,7.23,4.8,11.49,4.8,1.43,0,2.87-.19,4.3-.57l30.32-8.12c14.57,7.9,30.96,12.11,47.63,12.11,55.14,0,100-44.86,100-100S155.14,0,100,0Zm0,187.74c-15.42,0-30.59-4.05-43.86-11.73-1.58-.92-3.4-1.02-5-.48l-32.26,8.64c-2.06,.56-3.45-.56-3.95-1.06s-1.61-1.89-1.06-3.95l9.04-33.72c.04-.14,.04-.28,.07-.42,.04-.22,.09-.44,.11-.66,.02-.2,0-.39,0-.59,0-.2,0-.4-.02-.6-.02-.21-.07-.41-.12-.62-.04-.18-.07-.37-.13-.55-.07-.22-.17-.43-.26-.65-.06-.12-.09-.25-.15-.37-6.63-12.53-10.14-26.7-10.14-40.98C12.26,51.62,51.62,12.26,100,12.26s87.74,39.36,87.74,87.74-39.36,87.74-87.74,87.74Z"/><path d="M100,88.26c-6.48,0-11.74,5.25-11.74,11.74s5.26,11.74,11.74,11.74,11.74-5.26,11.74-11.74-5.26-11.74-11.74-11.74Z"/><path d="M146.95,88.26c-6.48,0-11.74,5.25-11.74,11.74s5.26,11.74,11.74,11.74,11.74-5.26,11.74-11.74-5.25-11.74-11.74-11.74Z"/><path d="M53.05,88.26c-6.48,0-11.74,5.25-11.74,11.74s5.26,11.74,11.74,11.74,11.74-5.26,11.74-11.74-5.26-11.74-11.74-11.74Z"/></svg>