<?xml version="1.0" encoding="UTF-8"?><svg id="uuid-38793e9f-bc27-4a88-9561-6eae9c489f22" xmlns="http://www.w3.org/2000/svg" viewBox="0 0 200 200"><path d="M100,0C44.86,0,0,44.86,0,100c0,15.44,3.64,30.75,10.47,44.48l-8.44,31.5c-1.53,5.71,.05,11.61,4.23,15.79,3.13,3.13,7.23,4.81,11.49,4.81,1.43,0,2.87-.19,4.3-.57l30.31-8.12c14.57,7.9,30.96,12.11,47.64,12.11,55.14,0,100-44.86,100-100S155.14,0,100,0Zm58.69,99.99c0,6.48-5.26,11.74-11.74,11.74s-11.74-5.26-11.74-11.74,5.26-11.74,11.74-11.74,11.74,5.26,11.74,11.74Zm-105.63-11.74c6.48,0,11.72,5.26,11.72,11.74s-5.23,11.74-11.72,11.74-11.74-5.26-11.74-11.74,5.26-11.74,11.74-11.74Zm35.2,11.74c0-6.48,5.26-11.74,11.74-11.74s11.74,5.26,11.74,11.74-5.26,11.74-11.74,11.74-11.74-5.26-11.74-11.74Z"/></svg>