<svg xmlns="http://www.w3.org/2000/svg" viewBox="0 0 247.26 141.99"><defs></defs><g id="fac0403c-54ae-4720-801a-e9c6b68ea584" data-name="badges"><circle fill="current" cx="52.94" cy="9.44" r="1.25"/><circle fill="current" cx="139.02" cy="29.44" r="1.25"/><circle fill="current" cx="51.69" cy="73.57" r="1.25"/><circle fill="current" cx="12.58" cy="111.21" r="1.25"/><circle fill="current" cx="5.37" cy="28.19" r="1.25"/><circle fill="current" cx="99.73" cy="137.73" r="1.25"/><circle fill="current" cx="101.08" cy="70.14" r="1.25"/><circle fill="current" cx="143.15" cy="115.13" r="0.89"/><circle fill="current" cx="52.94" cy="130.32" r="1.25"/><path fill="current" d="M46.43,61.81a2.18,2.18,0,1,1,2.17-2.17A2.18,2.18,0,0,1,46.43,61.81Zm0-3.54a1.37,1.37,0,1,0,1.36,1.37A1.37,1.37,0,0,0,46.43,58.27Z"/><path fill="current" d="M102.33,109.7a2.18,2.18,0,1,1,2.18-2.18A2.19,2.19,0,0,1,102.33,109.7Zm0-3.54a1.37,1.37,0,1,0,1.37,1.36A1.37,1.37,0,0,0,102.33,106.16Z"/><path fill="current" d="M154.38,107.58a2.18,2.18,0,1,1,2.18-2.18A2.18,2.18,0,0,1,154.38,107.58Zm0-3.54a1.37,1.37,0,1,0,1.37,1.36A1.37,1.37,0,0,0,154.38,104Z"/><path fill="current" d="M6.62,79.89a2.18,2.18,0,1,1,2.17-2.17A2.18,2.18,0,0,1,6.62,79.89Zm0-3.54A1.37,1.37,0,1,0,8,77.72,1.38,1.38,0,0,0,6.62,76.35Z"/><rect fill="current" x="101.78" y="13.5" width="4.97" height="1.13" rx="0.57" transform="translate(32.1 -62.49) rotate(39.01)"/><rect fill="current" x="91.73" y="77.04" width="4.97" height="1.13" rx="0.57" transform="translate(69.85 -42) rotate(39.01)"/><rect fill="current" x="98.59" y="118.27" width="4.97" height="1.13" rx="0.57" transform="translate(257.04 115.09) rotate(129.01)"/><rect fill="current" x="-0.43" y="123.89" width="4.97" height="1.13" rx="0.57" transform="translate(78.8 26.45) rotate(39.01)"/><rect fill="current" x="50.67" y="27.67" width="4.54" height="1.04" rx="0.52" transform="translate(-4.43 45.69) rotate(-45)"/><rect fill="current" x="50.67" y="27.67" width="4.54" height="1.04" rx="0.52" transform="translate(35.44 -29.18) rotate(45)"/><rect fill="current" x="1.84" y="63.77" width="4.54" height="1.04" rx="0.52" transform="translate(-44.26 21.74) rotate(-45)"/><rect fill="current" x="1.84" y="63.77" width="4.54" height="1.04" rx="0.52" transform="translate(46.67 15.92) rotate(45)"/><rect fill="current" x="106.98" y="3.56" width="4.54" height="1.04" rx="0.52" transform="translate(29.12 78.44) rotate(-45)"/><rect fill="current" x="106.98" y="3.56" width="4.54" height="1.04" rx="0.52" transform="translate(34.88 -76.06) rotate(45)"/><rect fill="current" x="91.94" y="41.5" width="4.54" height="1.04" rx="0.52"/><rect fill="current" x="91.94" y="41.5" width="4.54" height="1.04" rx="0.52" transform="translate(136.23 -52.2) rotate(90)"/><rect fill="current" x="138" y="78.97" width="4.54" height="1.04" rx="0.52" transform="translate(81.31 -70.57) rotate(39.01)"/><rect fill="current" x="138" y="78.97" width="4.54" height="1.04" rx="0.52" transform="translate(290.34 20.53) rotate(129.01)"/><rect fill="current" x="41.51" y="109.28" width="4.54" height="1.04" rx="0.52"/><rect fill="current" x="41.51" y="109.28" width="4.54" height="1.04" rx="0.52" transform="translate(153.57 66.02) rotate(90)"/><path fill="current" d="M23.43,5l-.78-.68A5.21,5.21,0,0,0,18,3.21l-.76.19-.6-.52A5.22,5.22,0,0,0,12,1.78L11,2a.48.48,0,0,0-.34.35l-2.16,9a.5.5,0,0,0,.13.45A.47.47,0,0,0,9.1,12l1-.24a4.27,4.27,0,0,1,3.79.9l.78.67.1.07h.32l1-.24a4.27,4.27,0,0,1,3.79.9l.78.67a.56.56,0,0,0,.2.11.58.58,0,0,0,.26,0,.5.5,0,0,0,.31-.35l2.15-9A.43.43,0,0,0,23.43,5ZM14.7,12.07l-.2-.17a5.2,5.2,0,0,0-4.63-1.1l-.24.06,1.9-8,.72-.17A4.27,4.27,0,0,1,16,3.6l.56.48Zm6,1.43-.19-.17a5.32,5.32,0,0,0-2.18-1.11,5.2,5.2,0,0,0-2.45,0l-.25.06,1.91-8,.71-.17A4.26,4.26,0,0,1,22,5l.57.49Z"/><path fill="current" d="M82.15,47.51l-.76-1a6.24,6.24,0,0,0-5.15-2.33l-.93.05-.58-.73a6.24,6.24,0,0,0-5.14-2.33l-1.22.07a.58.58,0,0,0-.49.33l-4.53,10a.57.57,0,0,0,0,.55.55.55,0,0,0,.49.25l1.22-.07a5.1,5.1,0,0,1,4.21,1.91l.76,1a.32.32,0,0,0,.1.1h.37l1.22-.07A5.13,5.13,0,0,1,76,57.27l.75,1a.65.65,0,0,0,.21.16.52.52,0,0,0,.3,0,.55.55,0,0,0,.45-.32l4.53-10A.58.58,0,0,0,82.15,47.51ZM70.39,53.79l-.19-.23a6.23,6.23,0,0,0-5.14-2.33l-.3,0,4-8.87.87,0a5.07,5.07,0,0,1,4.21,1.9l.55.69Zm6.65,3-.18-.23a6.23,6.23,0,0,0-5.15-2.33l-.3,0,4-8.87.88,0a5.08,5.08,0,0,1,4.21,1.9l.54.69Z"/><path fill="current" d="M133.68,0l-1,.07A4.81,4.81,0,0,0,129,2.35L128.6,3l-.72,0a4.77,4.77,0,0,0-3.74,2.28l-.5.81a.45.45,0,0,0,0,.45l4.44,7.3a.44.44,0,0,0,.75,0l.49-.81a3.94,3.94,0,0,1,3.06-1.87l1-.07.11,0h.14v0h0v0h0v0h0v0l.5-.81a3.92,3.92,0,0,1,3.06-1.87l1-.07a.33.33,0,0,0,.19-.06.37.37,0,0,0,.16-.17.44.44,0,0,0,0-.43L134.08.21A.44.44,0,0,0,133.68,0Zm-1.12,10.29-.24,0a4.83,4.83,0,0,0-2.14.69,4.68,4.68,0,0,0-1.6,1.59l-.12.2-3.93-6.45.35-.59a4,4,0,0,1,3.06-1.86l.69-.05Zm4.84-2.95-.23,0a4.83,4.83,0,0,0-3.75,2.28l-.12.2-3.93-6.45.36-.59A3.94,3.94,0,0,1,132.79.94l.68,0Z"/><path fill="current" d="M30.3,89.29l-.84-.85a6,6,0,0,0-5.22-1.71l-.9.14-.64-.64a6,6,0,0,0-5.22-1.71l-1.17.19a.54.54,0,0,0-.44.37L12.54,95.24a.53.53,0,0,0,.11.53.5.5,0,0,0,.5.18l1.17-.19a5,5,0,0,1,4.27,1.4l.84.85a.48.48,0,0,0,.11.09h.37L21.08,98a4.94,4.94,0,0,1,4.27,1.4l.83.85a.56.56,0,0,0,.22.13.61.61,0,0,0,.3,0,.54.54,0,0,0,.39-.37l3.34-10.17A.56.56,0,0,0,30.3,89.29ZM19.58,96.6l-.21-.21A6.19,6.19,0,0,0,17,94.91a6.1,6.1,0,0,0-2.82-.23l-.29,0,2.95-9,.84-.13A5,5,0,0,1,21.93,87l.6.62Zm6.75,2.22-.2-.21a6.08,6.08,0,0,0-5.22-1.71l-.29,0,2.95-9,.84-.14a4.94,4.94,0,0,1,4.27,1.4l.6.61Z"/><path fill="current" d="M79.24,126.12l-1.18-.31A6.2,6.2,0,0,0,72.55,127l-.72.6-.9-.24a6.22,6.22,0,0,0-5.52,1.22l-.94.78a.56.56,0,0,0-.18.56l2.37,10.73a.59.59,0,0,0,.37.41.55.55,0,0,0,.54-.1l.94-.78a5.07,5.07,0,0,1,4.51-1l1.18.31a.34.34,0,0,0,.14,0h.3l0,0h0l0,0,.94-.78a5.07,5.07,0,0,1,4.51-1l1.18.31a.5.5,0,0,0,.27,0,.59.59,0,0,0,.27-.14.55.55,0,0,0,.15-.53l-2.37-10.74A.58.58,0,0,0,79.24,126.12ZM73.6,138.2l-.3-.08a6.19,6.19,0,0,0-2.9-.05,6.3,6.3,0,0,0-2.61,1.27l-.23.2-2.1-9.5.67-.57a5.13,5.13,0,0,1,4.51-1l.85.23Zm7.13-1.58-.29-.08a6.21,6.21,0,0,0-5.52,1.23l-.23.19-2.1-9.5.67-.56a5.08,5.08,0,0,1,4.51-1l.85.22Z"/><path fill="current" d="M128.68,83.75h-1.22a6.2,6.2,0,0,0-5,2.56l-.55.76H121a6.23,6.23,0,0,0-5,2.56l-.71,1a.55.55,0,0,0,0,.58l5,9.8a.59.59,0,0,0,.46.31.59.59,0,0,0,.5-.24l.71-1A5.06,5.06,0,0,1,125.92,98h1.23l.14,0h.24l0,0h0l0,0h0l0,0,.71-1a5.07,5.07,0,0,1,4.12-2.09h1.22a.58.58,0,0,0,.26-.06.56.56,0,0,0,.22-.21.57.57,0,0,0,0-.55l-5-9.8A.56.56,0,0,0,128.68,83.75Zm-2.45,13.11h-.3a6.25,6.25,0,0,0-5,2.56l-.18.25L116.31,91l.52-.71a5.06,5.06,0,0,1,4.11-2.09h.88Zm6.51-3.31h-.3a6.25,6.25,0,0,0-5,2.56l-.18.25-4.41-8.68.52-.71a5.06,5.06,0,0,1,4.11-2.09h.88Z"/><path fill="current" d="M28.92,42.07a2.95,2.95,0,0,0-4.16,0l-8.2,8.2a.64.64,0,0,0-.15.25l-1.29,4.64a.58.58,0,0,0,.15.56.59.59,0,0,0,.4.16.41.41,0,0,0,.16,0l4.63-1.31a.57.57,0,0,0,.4-.41.58.58,0,0,0-.15-.55l-2.92-2.93L23,45.49,25.49,48l-3.57,3.56a.57.57,0,0,0,.81.81l6.19-6.17a2.93,2.93,0,0,0,0-4.15ZM19.21,53.71l-2.71.77.76-2.73Zm7.09-6.5-2.53-2.53.82-.82,2.53,2.53Zm1.81-1.8-.18.17L25.4,43.05l.18-.17a1.75,1.75,0,0,1,1.26-.53,1.79,1.79,0,0,1,1.27.53,1.75,1.75,0,0,1,.52,1.26A1.78,1.78,0,0,1,28.11,45.41Z"/><path fill="current" d="M67.41,1a2.56,2.56,0,0,0,0,3.6l7.12,7.11a.57.57,0,0,0,.21.13l4,1.11a.49.49,0,0,0,.48-.12.51.51,0,0,0,.15-.36.59.59,0,0,0,0-.13l-1.14-4A.51.51,0,0,0,77.88,8a.52.52,0,0,0-.48.13l-2.54,2.53L70.38,6.19,72.58,4l3.08,3.1a.5.5,0,0,0,.7,0,.5.5,0,0,0,0-.71L71,1a2.54,2.54,0,0,0-3.6,0ZM77.5,9.44l.67,2.35-2.36-.66ZM71.87,3.3,69.68,5.49,69,4.78l2.19-2.2ZM70.31,1.73l.15.15L68.27,4.07l-.15-.15a1.53,1.53,0,0,1,0-2.19,1.56,1.56,0,0,1,2.19,0Z"/><path fill="current" d="M130.84,42.87a2.91,2.91,0,0,0-4.13,0L118.54,51a.64.64,0,0,0-.15.25l-1.28,4.61a.57.57,0,0,0,.14.56.58.58,0,0,0,.41.17l.15,0,4.61-1.31a.58.58,0,0,0,.25-1l-2.91-2.91,5.15-5.15,2.52,2.52-3.56,3.55a.57.57,0,0,0,0,.8.56.56,0,0,0,.81,0L130.84,47a2.92,2.92,0,0,0,0-4.14Zm-9.66,11.59-2.7.77.76-2.72ZM128.24,48l-2.52-2.51.82-.82,2.52,2.52ZM130,46.2l-.18.17-2.52-2.52.18-.17a1.74,1.74,0,0,1,1.26-.52,1.78,1.78,0,0,1,1.78,1.78A1.81,1.81,0,0,1,130,46.2Z"/><path fill="current" d="M28.11,128.23a2.91,2.91,0,0,0-4.13,0l-8.17,8.17a.64.64,0,0,0-.15.25l-1.28,4.61a.58.58,0,0,0,.14.56.58.58,0,0,0,.41.17l.15,0,4.61-1.31a.57.57,0,0,0,.25-1L17,136.79l5.15-5.15,2.52,2.52-3.56,3.54a.57.57,0,0,0,.81.81l6.16-6.15a2.91,2.91,0,0,0,0-4.13Zm-9.66,11.59-2.7.77.76-2.72Zm7.06-6.47L23,130.83l.82-.82,2.52,2.52Zm1.8-1.8-.18.18-2.52-2.52.18-.18a1.78,1.78,0,0,1,1.26-.52,1.78,1.78,0,0,1,1.78,1.78A1.78,1.78,0,0,1,27.31,131.55Z"/><path fill="current" d="M66.87,85.84a2.79,2.79,0,0,0,0,4l7.8,7.8a.49.49,0,0,0,.24.14L79.32,99a.55.55,0,0,0,.53-.14.57.57,0,0,0,.16-.39.77.77,0,0,0,0-.15l-1.25-4.4a.55.55,0,0,0-.39-.38.55.55,0,0,0-.52.14L75,96.42l-4.91-4.91,2.4-2.41,3.39,3.4a.54.54,0,1,0,.77-.77l-5.87-5.89a2.79,2.79,0,0,0-3.95,0Zm11.07,9.23.73,2.58-2.59-.72Zm-6.18-6.74-2.4,2.41L68.57,90,71,87.55ZM70,86.61l.17.16L67.8,89.18,67.64,89a1.71,1.71,0,0,1,1.2-2.91A1.68,1.68,0,0,1,70,86.61Z"/><path fill="current" d="M130.55,128.52a2.74,2.74,0,0,0-2-.82,2.78,2.78,0,0,0-2,.82l-7.8,7.8a.58.58,0,0,0-.14.24L117.43,141a.55.55,0,0,0,.14.53.59.59,0,0,0,.39.16l.15,0,4.4-1.25a.55.55,0,0,0,.38-.39.52.52,0,0,0-.14-.52L120,136.69l4.92-4.91,2.4,2.4-3.39,3.39a.54.54,0,0,0,0,.77.56.56,0,0,0,.78,0l5.88-5.87a2.79,2.79,0,0,0,0-3.95Zm-9.23,11.07-2.57.73.72-2.59Zm6.74-6.18-2.4-2.4.78-.79,2.41,2.41Zm1.72-1.72-.16.17-2.41-2.41.17-.16a1.68,1.68,0,0,1,1.2-.5,1.71,1.71,0,0,1,1.7,1.7A1.68,1.68,0,0,1,129.78,131.69Z"/><circle fill="current" cx="153.11" cy="9.44" r="1.25"/><circle fill="current" cx="239.19" cy="29.44" r="1.25"/><circle fill="current" cx="151.86" cy="73.57" r="1.25"/><circle fill="current" cx="199.9" cy="137.73" r="1.25"/><circle fill="current" cx="201.25" cy="70.14" r="1.25"/><circle fill="current" cx="243.31" cy="115.13" r="0.89"/><circle fill="current" cx="153.11" cy="130.32" r="1.25"/><path fill="current" d="M202.5,109.7a2.18,2.18,0,1,1,2.17-2.18A2.19,2.19,0,0,1,202.5,109.7Zm0-3.54a1.37,1.37,0,1,0,1.37,1.36A1.37,1.37,0,0,0,202.5,106.16Z"/><path fill="current" d="M245.09,41.92a2.18,2.18,0,1,1,2.17-2.18A2.19,2.19,0,0,1,245.09,41.92Zm0-3.55a1.37,1.37,0,1,0,1.36,1.37A1.37,1.37,0,0,0,245.09,38.37Z"/><rect fill="current" x="201.95" y="13.5" width="4.97" height="1.13" rx="0.57" transform="translate(54.43 -125.55) rotate(39.01)"/><rect fill="current" x="191.9" y="77.04" width="4.97" height="1.13" rx="0.57" transform="translate(92.19 -105.05) rotate(39.01)"/><rect fill="current" x="198.76" y="118.27" width="4.97" height="1.13" rx="0.57" transform="translate(420.26 37.25) rotate(129.01)"/><rect fill="current" x="150.84" y="27.67" width="4.54" height="1.04" rx="0.52" transform="translate(24.91 116.52) rotate(-45)"/><rect fill="current" x="150.84" y="27.67" width="4.54" height="1.04" rx="0.52" transform="translate(64.78 -100.01) rotate(45)"/><rect fill="current" x="207.15" y="3.56" width="4.54" height="1.04" rx="0.52" transform="translate(58.46 149.27) rotate(-45)"/><rect fill="current" x="207.15" y="3.56" width="4.54" height="1.04" rx="0.52" transform="translate(64.22 -146.89) rotate(45)"/><rect fill="current" x="192.11" y="41.5" width="4.54" height="1.04" rx="0.52"/><rect fill="current" x="192.11" y="41.5" width="4.54" height="1.04" rx="0.52" transform="translate(236.4 -152.37) rotate(90)"/><rect fill="current" x="238.17" y="78.97" width="4.54" height="1.04" rx="0.52" transform="translate(103.64 -133.62) rotate(39.01)"/><rect fill="current" x="238.17" y="78.97" width="4.54" height="1.04" rx="0.52" transform="translate(453.56 -57.31) rotate(129.01)"/><path fill="current" d="M182.32,47.51l-.76-1a6.24,6.24,0,0,0-5.15-2.33l-.93.05-.58-.73a6.24,6.24,0,0,0-5.14-2.33l-1.23.07a.56.56,0,0,0-.48.33l-4.53,10a.57.57,0,0,0,0,.55.55.55,0,0,0,.49.25l1.22-.07a5.11,5.11,0,0,1,4.21,1.91l.76,1a.32.32,0,0,0,.1.1h.37l1.22-.07a5.13,5.13,0,0,1,4.21,1.91l.75,1a.65.65,0,0,0,.21.16.52.52,0,0,0,.3,0,.55.55,0,0,0,.45-.32l4.53-10A.58.58,0,0,0,182.32,47.51Zm-11.76,6.28-.19-.23a6.23,6.23,0,0,0-5.15-2.33l-.29,0,4-8.87.87,0a5.07,5.07,0,0,1,4.21,1.9l.55.69Zm6.65,3-.18-.23a6.27,6.27,0,0,0-5.15-2.33l-.3,0,4-8.87.88,0a5.09,5.09,0,0,1,4.21,1.9l.54.69Z"/><path fill="current" d="M233.84,0l-1,.07a4.81,4.81,0,0,0-3.74,2.28l-.38.62-.72,0A4.81,4.81,0,0,0,224.3,5.3l-.49.81a.45.45,0,0,0,0,.45l4.44,7.3a.44.44,0,0,0,.75,0l.49-.81a3.94,3.94,0,0,1,3.06-1.87l.95-.07.11,0h.14v0h0v0h0v0h0v0l.5-.81a3.92,3.92,0,0,1,3.06-1.87l.95-.07a.33.33,0,0,0,.19-.06.37.37,0,0,0,.16-.17.44.44,0,0,0,0-.43L234.25.21A.45.45,0,0,0,233.84,0Zm-1.12,10.29-.23,0a4.91,4.91,0,0,0-2.15.69,4.74,4.74,0,0,0-1.59,1.59l-.13.2-3.93-6.45.36-.59a4,4,0,0,1,3.06-1.86l.68-.05Zm4.85-2.95-.23,0a4.87,4.87,0,0,0-2.15.69,4.77,4.77,0,0,0-1.6,1.59l-.12.2-3.93-6.45.35-.59A4,4,0,0,1,233,.94l.68,0Z"/><path fill="current" d="M179.41,126.12l-1.18-.31a6.22,6.22,0,0,0-5.52,1.22l-.71.6-.9-.24a6.21,6.21,0,0,0-5.52,1.22l-.94.78a.56.56,0,0,0-.18.56l2.37,10.73a.57.57,0,0,0,.37.41.55.55,0,0,0,.54-.1l.94-.78a5.07,5.07,0,0,1,4.51-1l1.18.31a.34.34,0,0,0,.14,0h.3l0,0h0l0,0,.94-.78a5.07,5.07,0,0,1,4.51-1l1.18.31a.5.5,0,0,0,.27,0,.51.51,0,0,0,.26-.14.53.53,0,0,0,.16-.53l-2.37-10.74A.6.6,0,0,0,179.41,126.12Zm-5.65,12.08-.29-.08a6.23,6.23,0,0,0-5.51,1.22l-.23.2-2.1-9.5.67-.57a5.13,5.13,0,0,1,4.51-1l.85.23Zm7.14-1.58-.3-.08a6.19,6.19,0,0,0-5.51,1.23l-.23.19-2.1-9.5.67-.56a5.07,5.07,0,0,1,4.51-1l.85.22Z"/><path fill="current" d="M228.85,83.75h-1.22a6.2,6.2,0,0,0-5,2.56l-.55.76h-.93a6.23,6.23,0,0,0-5,2.56l-.71,1a.55.55,0,0,0,0,.58l5,9.8a.59.59,0,0,0,.46.31.56.56,0,0,0,.49-.24l.72-1A5.06,5.06,0,0,1,226.09,98h1.23l.14,0h.24l0,0h0l0,0h0l0,0,.71-1a5.06,5.06,0,0,1,4.11-2.09h1.23a.58.58,0,0,0,.26-.06.63.63,0,0,0,.22-.21.57.57,0,0,0,0-.55l-5-9.8A.56.56,0,0,0,228.85,83.75ZM226.4,96.86h-.3a6.25,6.25,0,0,0-5,2.56l-.18.25L216.48,91l.51-.71a5.1,5.1,0,0,1,4.12-2.09H222Zm6.51-3.31h-.3a6.25,6.25,0,0,0-5,2.56l-.18.25L223,87.67l.52-.71a5.06,5.06,0,0,1,4.11-2.09h.88Z"/><path fill="current" d="M167.58,1a2.56,2.56,0,0,0,0,3.6l7.12,7.11a.57.57,0,0,0,.21.13l4,1.11a.49.49,0,0,0,.48-.12.51.51,0,0,0,.15-.36.59.59,0,0,0,0-.13l-1.14-4a.49.49,0,0,0-.83-.22L175,10.67l-4.48-4.48L172.74,4l3.09,3.1a.5.5,0,0,0,.7,0,.5.5,0,0,0,0-.71L171.18,1a2.53,2.53,0,0,0-3.6,0Zm10.09,8.41.67,2.35L176,11.13ZM172,3.3l-2.19,2.19-.71-.71,2.19-2.2Zm-1.56-1.57.15.15-2.19,2.19-.15-.15a1.53,1.53,0,0,1,0-2.19,1.56,1.56,0,0,1,2.19,0Z"/><path fill="current" d="M231,42.87a2.91,2.91,0,0,0-4.13,0L218.71,51a.64.64,0,0,0-.15.25l-1.28,4.61a.57.57,0,0,0,.14.56.58.58,0,0,0,.41.17l.15,0,4.61-1.31a.57.57,0,0,0,.4-.41.6.6,0,0,0-.15-.55l-2.91-2.91,5.15-5.15,2.52,2.52L224,52.35a.57.57,0,0,0,0,.8.56.56,0,0,0,.81,0L231,47a2.92,2.92,0,0,0,0-4.14Zm-9.66,11.59-2.7.77.75-2.72ZM228.4,48l-2.51-2.51.82-.82,2.52,2.52Zm1.81-1.79-.18.17-2.52-2.52.18-.17a1.74,1.74,0,0,1,1.26-.52,1.78,1.78,0,0,1,1.78,1.78A1.81,1.81,0,0,1,230.21,46.2Z"/><path fill="current" d="M167,85.84a2.79,2.79,0,0,0,0,4l7.8,7.8a.49.49,0,0,0,.24.14l4.4,1.23a.55.55,0,0,0,.7-.53.77.77,0,0,0,0-.15l-1.26-4.4a.54.54,0,0,0-.38-.38.57.57,0,0,0-.53.14l-2.78,2.78-4.91-4.91,2.4-2.41,3.39,3.4a.54.54,0,1,0,.77-.77L171,85.84a2.78,2.78,0,0,0-2-.82A2.74,2.74,0,0,0,167,85.84Zm11.07,9.23.73,2.58-2.59-.72Zm-6.18-6.74-2.4,2.41-.79-.79,2.41-2.4Zm-1.72-1.72.17.16L168,89.18l-.16-.16a1.71,1.71,0,0,1,1.2-2.91A1.68,1.68,0,0,1,170.21,86.61Z"/><path fill="current" d="M230.72,128.52a2.79,2.79,0,0,0-3.95,0l-7.8,7.8a.49.49,0,0,0-.14.24L217.6,141a.55.55,0,0,0,.14.53.59.59,0,0,0,.39.16l.15,0,4.4-1.25a.55.55,0,0,0,.38-.39.52.52,0,0,0-.14-.52l-2.78-2.79,4.92-4.91,2.4,2.4-3.39,3.39a.54.54,0,0,0,0,.77.56.56,0,0,0,.78,0l5.88-5.87a2.79,2.79,0,0,0,0-3.95Zm-9.23,11.07-2.58.73.73-2.59Zm6.74-6.18-2.4-2.4.78-.79,2.41,2.41Zm1.72-1.72-.16.17-2.41-2.41.16-.16a1.72,1.72,0,0,1,1.21-.5,1.71,1.71,0,0,1,1.7,1.7A1.68,1.68,0,0,1,230,131.69Z"/></g></svg>
