<svg xmlns="http://www.w3.org/2000/svg" id="a12b877d-ac39-41cc-ae4a-31036532acda" data-name="Layer 1" version="1.1" viewBox="0 0 549.72 262"><defs id="defs13"><clipPath id="bc5adecc-bdb4-42bd-a8bc-e7243250a898"><path id="rect4" d="M389.39-394.31h599.34v262H389.39z" class="a096697f-3fe3-4ce7-b727-1cbb16db8497"/></clipPath><clipPath id="b6284e7b-1db2-4bd1-b2b4-8cbfe147503e"><path id="rect7" d="M0 0h549.72v262H0z" class="a096697f-3fe3-4ce7-b727-1cbb16db8497"/></clipPath><clipPath id="a28d8b4c-25c6-404b-9521-557cab0c0236"><path id="path10" d="M635.28 165.56c0 105.24-85.32 190.56-190.56 190.56-48.12 0-417.86-1.88-439.27-41-29.32-53.6.24-118.31 111.44-133.1C327.47 154 234.3 3.16 434.35-25c104.22-14.67 200.93 85.32 200.93 190.56Z" class="a096697f-3fe3-4ce7-b727-1cbb16db8497"/></clipPath><style id="style2">.a096697f-3fe3-4ce7-b727-1cbb16db8497{fill:none}.b81ff3bb-4bf5-4a8b-97c4-8bf949b7a431{opacity:.5}</style></defs><g id="g143" clip-path="url(#b6284e7b-1db2-4bd1-b2b4-8cbfe147503e)" style="clip-path:url(#b6284e7b-1db2-4bd1-b2b4-8cbfe147503e)"><path id="path21" d="M639.49 164c0 105.24-85.31 190.56-190.56 190.56-48.12 0-417.86-1.88-439.27-41-29.31-53.59.24-118.31 111.44-133.09 210.59-28 117.41-178.85 317.46-207C542.78-41.23 639.49 58.75 639.49 164Z" class="colored" style="opacity:.1"/><g id="g141" style="clip-path:url(#a28d8b4c-25c6-404b-9521-557cab0c0236)"><g id="g85" class="b81ff3bb-4bf5-4a8b-97c4-8bf949b7a431"><circle id="circle23" cx="379.4" cy="8.56" r="2.8" class="colored"/><circle id="circle25" cx="376.6" cy="152.08" r="2.8" class="colored"/><circle id="circle27" cx="289.08" cy="236.31" r="2.8" class="colored"/><circle id="circle29" cx="272.93" cy="50.52" r="2.8" class="colored"/><circle id="circle31" cx="487.13" cy="144.41" r="2.8" class="colored"/><circle id="circle33" cx="364.82" cy="120.9" r="3.96" class="colored"/><circle id="circle35" cx="489.93" cy="228.06" r="3.96" class="colored"/><circle id="circle37" cx="275.73" cy="161.36" r="3.96" class="colored"/><rect id="rect39" width="11.13" height="2.53" x="488.7" y="17.64" class="colored" rx=".99" transform="rotate(39.01 494.26 18.902)"/><rect id="rect41" width="11.13" height="2.53" x="466.2" y="159.84" class="colored" rx=".99" transform="rotate(39.01 471.76 161.114)"/><rect id="rect43" width="11.13" height="2.53" x="481.57" y="252.11" class="colored" rx=".99" transform="rotate(129.01 487.127 253.37)"/><rect id="rect45" width="11.13" height="2.53" x="259.96" y="264.7" class="colored" rx=".99" transform="rotate(39.01 265.514 265.96)"/><rect id="rect47" width="10.17" height="2.32" x="374.32" y="49.36" class="colored" rx=".9" transform="rotate(-45 379.396 50.52)"/><rect id="rect49" width="10.17" height="2.32" x="374.32" y="49.36" class="colored" rx=".9" transform="rotate(45 379.402 50.524)"/><rect id="rect51" width="10.17" height="2.32" x="265.04" y="130.15" class="colored" rx=".9" transform="rotate(-45 270.13 131.309)"/><rect id="rect53" width="10.17" height="2.32" x="265.04" y="130.15" class="colored" rx=".9" transform="rotate(45 270.13 131.311)"/><rect id="rect55" width="10.17" height="2.32" x="500.33" y="-4.61" class="colored" rx=".9" transform="rotate(-45 505.412 -3.448)"/><rect id="rect57" width="10.17" height="2.32" x="500.33" y="-4.61" class="colored" rx=".9" transform="rotate(45 505.422 -3.457)"/><rect id="rect59" width="10.17" height="2.32" x="466.68" y="80.3" class="colored" rx=".9"/><rect id="rect61" width="10.17" height="2.32" x="466.68" y="80.3" class="colored" rx=".9" transform="rotate(90 471.765 81.455)"/><rect id="rect63" width="10.17" height="2.32" x="353.81" y="231.99" class="colored" rx=".9"/><rect id="rect65" width="10.17" height="2.32" x="353.81" y="231.99" class="colored" rx=".9" transform="rotate(90 358.895 233.145)"/><path id="path67" d="m313.36-1.41-1.75-1.51a11.7 11.7 0 0 0-10.37-2.47l-1.7.42-1.34-1.15a11.74 11.74 0 0 0-10.37-2.48l-2.24.6a1.1 1.1 0 0 0-.78.78L280 12.93a1.06 1.06 0 0 0 .28 1 1.08 1.08 0 0 0 1 .28l2.24-.56a9.61 9.61 0 0 1 8.48 2l1.75 1.51a.86.86 0 0 0 .22.15h.54l2.24-.56a9.61 9.61 0 0 1 8.48 2l1.75 1.51a1.1 1.1 0 0 0 .44.23 1.14 1.14 0 0 0 .58 0 1.07 1.07 0 0 0 .7-.77l5-20.08a1.06 1.06 0 0 0-.34-1.05Zm-19.55 15.85-.43-.38A11.72 11.72 0 0 0 283 11.59l-.55.14 4.27-17.87 1.61-.4a9.62 9.62 0 0 1 8.48 2l1.26 1.08Zm13.41 3.2-.43-.38a11.71 11.71 0 0 0-10.36-2.47l-.55.14 4.26-17.86 1.61-.4a9.58 9.58 0 0 1 8.48 2l1.26 1.08Z" class="colored"/><path id="path69" d="m444.76 93.76-1.7-2.15a13.9 13.9 0 0 0-11.51-5.21l-2.09.11-1.29-1.64a13.89 13.89 0 0 0-11.52-5.2l-2.73.14a1.24 1.24 0 0 0-1.08.74L402.7 103a1.26 1.26 0 0 0 1.21 1.77l2.73-.14a11.37 11.37 0 0 1 9.42 4.25l1.69 2.15a1.58 1.58 0 0 0 .23.22h.55l2.72-.15a11.38 11.38 0 0 1 9.42 4.26l1.7 2.15a1.26 1.26 0 0 0 .47.36 1.18 1.18 0 0 0 .67.11 1.27 1.27 0 0 0 1-.73l10.14-22.42a1.25 1.25 0 0 0 .11-1.07Zm-26.31 14.06-.42-.53a13.89 13.89 0 0 0-11.52-5.21h-.67l9-19.84 2-.1a11.37 11.37 0 0 1 9.42 4.25l1.16 1.61Zm14.89 6.74-.42-.53a13.89 13.89 0 0 0-11.51-5.21h-.67l9-19.84 2-.11a11.38 11.38 0 0 1 9.42 4.26l1.23 1.55Z" class="colored"/><path id="path71" d="m560.08-12.57-2.12.15a10.78 10.78 0 0 0-8.38 5.11l-.85 1.38-1.62.11a10.83 10.83 0 0 0-8.38 5.11l-1.1 1.82a1 1 0 0 0 0 1l9.94 16.32a1 1 0 0 0 1.66 0l1.11-1.81a8.83 8.83 0 0 1 6.85-4.18l2.12-.14.24-.05h.05v-.05l1.1-1.81a8.83 8.83 0 0 1 7.3-4.54l2.13-.15a1 1 0 0 0 .44-.14.92.92 0 0 0 .35-.38 1 1 0 0 0 0-1L561-12.1a1 1 0 0 0-.92-.47Zm-2.51 23h-.52a10.62 10.62 0 0 0-4.8 1.54 10.78 10.78 0 0 0-3.58 3.56l-.27.45-8.79-14.37.79-1.3a8.83 8.83 0 0 1 6.85-4.18l1.53-.1Zm10.85-6.6h-.53A10.83 10.83 0 0 0 559.51 9l-.27.44L550.45-5l.79-1.3a8.83 8.83 0 0 1 6.86-4.18l1.52-.11Z" class="colored"/><path id="path73" d="m328.72 187.26-1.87-1.9a13.54 13.54 0 0 0-11.69-3.83l-2 .32-1.43-1.45a13.54 13.54 0 0 0-11.73-3.83l-2.63.43a1.2 1.2 0 0 0-1 .83L289 200.59a1.19 1.19 0 0 0 .23 1.17 1.25 1.25 0 0 0 1.13.42l2.62-.43a11.07 11.07 0 0 1 9.56 3.13l1.87 1.9a1.12 1.12 0 0 0 .24.19h.68l2.62-.42a11.07 11.07 0 0 1 9.56 3.13l1.87 1.9a1.25 1.25 0 0 0 .49.3 1.23 1.23 0 0 0 1.55-.78l7.58-22.6a1.22 1.22 0 0 0-.28-1.24Zm-24 16.37-.47-.47a13.54 13.54 0 0 0-5.38-3.32 13.7 13.7 0 0 0-6.31-.51l-.64.11 6.6-20.14 1.89-.31a11.07 11.07 0 0 1 9.56 3.13l1.34 1.37Zm15.12 5-.47-.47a13.51 13.51 0 0 0-11.68-3.83l-.65.1 6.6-20.14 1.89-.3a11.07 11.07 0 0 1 9.56 3.13l1.35 1.37Z" class="colored"/><path id="path75" d="M548.91 174.87h-2.74a13.9 13.9 0 0 0-11.26 5.73l-1.22 1.69h-2.09a13.94 13.94 0 0 0-11.27 5.71l-1.59 2.23a1.22 1.22 0 0 0-.1 1.3l11.15 21.93a1.23 1.23 0 0 0 1 .69 1.29 1.29 0 0 0 1.12-.52l1.59-2.22a11.39 11.39 0 0 1 9.21-4.69h2.74a1.05 1.05 0 0 0 .31 0h.17v-.07l1.6-2.22a11.37 11.37 0 0 1 9.21-4.68h2.74a1.23 1.23 0 0 0 .57-.14 1.17 1.17 0 0 0 .5-.46 1.25 1.25 0 0 0 0-1.23L550 175.55a1.24 1.24 0 0 0-1.09-.68Zm-5.49 29.32h-.67a13.92 13.92 0 0 0-11.27 5.73l-.39.54-9.86-19.41 1.14-1.59a11.37 11.37 0 0 1 9.21-4.69h2Zm14.58-7.4h-.68a14 14 0 0 0-6.32 1.51 13.82 13.82 0 0 0-4.94 4.22l-.39.54-9.87-19.41 1.15-1.59a11.35 11.35 0 0 1 9.21-4.69h2Z" class="colored"/><path id="path77" d="M325.64 81.57a6.59 6.59 0 0 0-9.3 0L298 99.94a1.37 1.37 0 0 0-.32.56l-2.89 10.37a1.29 1.29 0 0 0 1.21 1.63 1.48 1.48 0 0 0 .35 0l10.36-3a1.26 1.26 0 0 0 .89-.91 1.28 1.28 0 0 0-.33-1.23l-6.53-6.55 11.56-11.56 5.7 5.65-8 8a1.28 1.28 0 0 0 1.81 1.82l13.86-13.82a6.59 6.59 0 0 0 0-9.3Zm-21.73 26.06-6.06 1.72 1.7-6.1Zm15.86-14.54-5.66-5.66 1.89-1.84 5.66 5.66Zm4.05-4-.39.39-5.66-5.66.39-.39a4 4 0 1 1 5.66 5.66Z" class="colored"/><path id="path79" d="M411.79-10.27a5.66 5.66 0 0 0-1.67 4 5.66 5.66 0 0 0 1.67 4l15.92 15.97a1 1 0 0 0 .48.29l9 2.5a1.09 1.09 0 0 0 1.08-.29 1.06 1.06 0 0 0 .28-1.09l-2.55-9a1.08 1.08 0 0 0-.79-.77 1.1 1.1 0 0 0-1.06.29l-5.68 5.66-10-10 4.9-4.9 6.9 6.92a1.11 1.11 0 0 0 1.58-1.57l-12-12a5.66 5.66 0 0 0-4-1.67 5.7 5.7 0 0 0-4.06 1.66Zm22.58 18.83 1.49 5.25-5.29-1.47Zm-12.6-13.75-4.9 4.91-1.6-1.6 4.91-4.91Zm-3.5-3.51.34.34-4.91 4.91-.34-.34a3.44 3.44 0 0 1-1-2.45 3.48 3.48 0 0 1 1-2.46 3.48 3.48 0 0 1 2.46-1 3.46 3.46 0 0 1 2.45 1Z" class="colored"/><path id="path81" d="M553.75 83.37a6.57 6.57 0 0 0-9.26 0l-18.29 18.29a1.39 1.39 0 0 0-.33.56L523 112.54a1.28 1.28 0 0 0 1.23 1.62 1.34 1.34 0 0 0 .35 0l10.32-2.94a1.26 1.26 0 0 0 .89-.9 1.29 1.29 0 0 0-.33-1.23l-6.46-6.56L540.46 91l5.64 5.64-8 7.93a1.28 1.28 0 0 0 1.81 1.81l13.8-13.76a6.57 6.57 0 0 0 0-9.26Zm-21.64 25.95-6 1.72 1.69-6.08Zm15.8-14.48-5.64-5.63 1.84-1.84 5.63 5.63Zm4-4-.39.39-5.64-5.65.39-.38a4 4 0 1 1 5.64 5.64Z" class="colored"/><path id="path83" d="M410.57 179.54a6.24 6.24 0 0 0 0 8.83L428 205.84a1.18 1.18 0 0 0 .54.31l9.86 2.75a1.22 1.22 0 0 0 1.54-1.18 1.24 1.24 0 0 0 0-.33l-2.8-9.86a1.21 1.21 0 0 0-.87-.84 1.23 1.23 0 0 0-1.17.31l-6.23 6.22-11-11 5.38-5.38 7.58 7.6a1.22 1.22 0 0 0 1.73-1.73l-13.16-13.17a6.24 6.24 0 0 0-8.83 0Zm24.78 20.65L437 206l-5.8-1.61Zm-13.83-15.08-5.38 5.38-1.76-1.75 5.39-5.38Zm-3.84-3.85.37.37-5.39 5.37-.37-.37a3.81 3.81 0 0 1 5.39-5.39Z" class="colored"/></g><g id="g139" class="b81ff3bb-4bf5-4a8b-97c4-8bf949b7a431"><circle id="circle87" cx="115.67" cy="8.56" r="2.8" class="colored"/><circle id="circle89" cx="118.47" cy="152.08" r="2.8" class="colored"/><circle id="circle91" cx="205.99" cy="236.31" r="2.8" class="colored"/><circle id="circle93" cx="222.14" cy="50.52" r="2.8" class="colored"/><circle id="circle95" cx="7.94" cy="144.41" r="2.8" class="colored"/><circle id="circle97" cx="130.25" cy="120.9" r="3.96" class="colored"/><circle id="circle99" cx="5.13" cy="228.06" r="3.96" class="colored"/><circle id="circle101" cx="219.33" cy="161.36" r="3.96" class="colored"/><rect id="rect103" width="11.13" height="2.53" x="-4.76" y="17.64" class="colored" rx=".99" transform="rotate(140.99 .803 18.91)"/><rect id="rect105" width="11.13" height="2.53" x="17.74" y="159.84" class="colored" rx=".99" transform="rotate(140.99 23.295 161.113)"/><rect id="rect107" width="11.13" height="2.53" x="2.37" y="252.11" class="colored" rx=".99" transform="rotate(50.99 7.935 253.373)"/><rect id="rect109" width="11.13" height="2.53" x="223.98" y="264.7" class="colored" rx=".99" transform="matrix(-.78 .63 -.63 -.78 575.32 328.15)"/><rect id="rect111" width="10.17" height="2.32" x="110.58" y="49.36" class="colored" rx=".9" transform="rotate(-135 115.665 50.52)"/><rect id="rect113" width="10.17" height="2.32" x="110.58" y="49.36" class="colored" rx=".9" transform="rotate(135 115.666 50.523)"/><rect id="rect115" width="10.17" height="2.32" x="219.85" y="130.15" class="colored" rx=".9" transform="rotate(-135 224.937 131.313)"/><rect id="rect117" width="10.17" height="2.32" x="219.85" y="130.15" class="colored" rx=".9" transform="rotate(135 224.94 131.314)"/><rect id="rect119" width="10.17" height="2.32" x="18.21" y="80.3" class="colored" rx=".9" transform="rotate(-180 23.3 81.455)"/><rect id="rect121" width="10.17" height="2.32" x="18.21" y="80.3" class="colored" rx=".9" transform="rotate(90 23.295 81.455)"/><rect id="rect123" width="10.17" height="2.32" x="131.09" y="231.99" class="colored" rx=".9" transform="rotate(180 136.17 233.15)"/><rect id="rect125" width="10.17" height="2.32" x="131.09" y="231.99" class="colored" rx=".9" transform="rotate(90 136.17 233.15)"/><path id="path127" d="m181.37-.36 4.81 20.18a1.06 1.06 0 0 0 1.28.79 1.13 1.13 0 0 0 .45-.23l1.75-1.51a9.6 9.6 0 0 1 8.48-2l2.23.56H200.97a1.07 1.07 0 0 0 .22-.15l1.75-1.51a9.61 9.61 0 0 1 8.48-2l2.23.56a1.11 1.11 0 0 0 1-.28 1.06 1.06 0 0 0 .28-1l-4.68-20.31a1.07 1.07 0 0 0-.78-.78l-2.24-.56a11.72 11.72 0 0 0-10.36 2.48L195.53-5l-1.71-.42a11.68 11.68 0 0 0-10.36 2.47l-1.76 1.54a1 1 0 0 0-.33 1.05ZM197-3.43l1.26-1.08a9.62 9.62 0 0 1 8.48-2l1.61.4 4.26 17.87-.55-.14a11.71 11.71 0 0 0-10.36 2.47l-.44.38Zm-13.42 3.2 1.26-1.08a9.58 9.58 0 0 1 8.48-2l1.61.4 4.26 17.86-.55-.14a11.74 11.74 0 0 0-10.37 2.47l-.43.38Z" class="colored"/><path id="path129" d="m50.14 95.06 10.14 22.42a1.29 1.29 0 0 0 1 .73 1.19 1.19 0 0 0 .67-.11 1.26 1.26 0 0 0 .47-.36l1.69-2.15a11.41 11.41 0 0 1 9.42-4.26l2.73.15h.5a1.15 1.15 0 0 0 .22-.22l1.7-2.15a11.34 11.34 0 0 1 9.42-4.25l2.72.14a1.26 1.26 0 0 0 1.11-.55 1.24 1.24 0 0 0 .11-1.22l-9.81-22.68a1.26 1.26 0 0 0-1.08-.74l-2.74-.14a13.89 13.89 0 0 0-11.51 5.2l-1.3 1.64-2.08-.11A13.92 13.92 0 0 0 52 91.61l-1.7 2.15a1.27 1.27 0 0 0-.16 1.3ZM67.65 88l1.22-1.55a11.34 11.34 0 0 1 9.42-4.25l2 .1 9 19.84h-.67a14 14 0 0 0-6.38 1.22 13.84 13.84 0 0 0-5.13 4l-.42.53Zm-14.9 6.74L54 93.17a11.41 11.41 0 0 1 9.42-4.26l2 .11 9 19.84h-.67A13.89 13.89 0 0 0 62.14 114l-.42.53Z" class="colored"/><path id="path131" d="m166.05 188.5 7.46 22.76a1.24 1.24 0 0 0 2 .48l1.86-1.9a11.08 11.08 0 0 1 9.56-3.13l2.63.42h.74a2 2 0 0 0 .24-.19l1.86-1.9a11.08 11.08 0 0 1 9.56-3.13l2.63.43a1.23 1.23 0 0 0 1.36-1.59l-7.46-22.76a1.2 1.2 0 0 0-1-.83l-2.63-.43a13.56 13.56 0 0 0-11.69 3.83l-1.42 1.45-2-.32a13.56 13.56 0 0 0-11.69 3.83l-1.87 1.9a1.24 1.24 0 0 0-.14 1.08Zm17.68-5 1.35-1.37a11.07 11.07 0 0 1 9.56-3.13l1.89.31 6.6 20.14-.65-.11a13.52 13.52 0 0 0-11.69 3.83l-.46.47Zm-15.12 5 1.35-1.37a11.07 11.07 0 0 1 9.56-3.13l1.89.3 6.59 20.09-.64-.1a13.52 13.52 0 0 0-11.69 3.83l-.46.47Z" class="colored"/><path id="path133" d="M167.5 86.22a6.54 6.54 0 0 0 1.93 4.65l13.86 13.82a1.28 1.28 0 0 0 1.81-1.82l-8-8 5.66-5.65 11.56 11.56-6.53 6.55a1.28 1.28 0 0 0-.34 1.23 1.3 1.3 0 0 0 .89.91l10.37 3a1.34 1.34 0 0 0 .35 0 1.25 1.25 0 0 0 .9-.38 1.28 1.28 0 0 0 .34-1.25l-2.89-10.37a1.28 1.28 0 0 0-.33-.56l-18.36-18.34a6.58 6.58 0 0 0-11.22 4.65Zm28 17 1.7 6.1-6.07-1.72Zm-22.07-12 5.66-5.66 1.91 1.87-5.66 5.66Zm-3.38-5a4 4 0 0 1 4-4 4 4 0 0 1 2.83 1.17l.39.39-5.67 5.66-.39-.39a4 4 0 0 1-1.14-2.83Z" class="colored"/><path id="path135" d="M79.25-11.94a5.7 5.7 0 0 0-4 1.67l-12 12a1.11 1.11 0 0 0 1.57 1.57l6.91-6.92 4.9 4.9-10 10-5.7-5.63a1.12 1.12 0 0 0-1.86.48l-2.55 9a1.11 1.11 0 0 0 1.37 1.38l9-2.5a1.07 1.07 0 0 0 .49-.29l15.9-15.93a5.69 5.69 0 0 0 1.66-4 5.69 5.69 0 0 0-1.66-4 5.7 5.7 0 0 0-4.03-1.73ZM64.49 12.34l-5.29 1.47 1.5-5.25Zm10.4-19.13 4.91 4.91-1.6 1.6-4.9-4.91Zm4.36-2.92a3.44 3.44 0 0 1 2.45 1 3.45 3.45 0 0 1 1 2.46 3.41 3.41 0 0 1-1 2.45l-.33.34-4.91-4.9.34-.34a3.44 3.44 0 0 1 2.45-1.01Z" class="colored"/><path id="path137" d="M80.08 177.71a6.21 6.21 0 0 0-4.42 1.83l-13.14 13.17a1.22 1.22 0 0 0 1.73 1.73l7.57-7.6 5.38 5.38-11 11L60 197a1.22 1.22 0 0 0-2 .53l-2.8 9.86a1.26 1.26 0 0 0 0 .33 1.22 1.22 0 0 0 .36.86 1.2 1.2 0 0 0 1.19.32l9.86-2.75a1.15 1.15 0 0 0 .53-.31l17.36-17.47a6.25 6.25 0 0 0-4.42-10.66Zm-16.19 26.64L58.08 206l1.64-5.77Zm11.41-21 5.38 5.38-1.75 1.75-5.38-5.38Zm4.78-3.21a3.75 3.75 0 0 1 2.69 1.11 3.8 3.8 0 0 1 0 5.39l-.36.37-5.41-5.38.37-.37a3.77 3.77 0 0 1 2.71-1.11Z" class="colored"/></g></g></g></svg>