<svg viewBox="0 0 153.13 262" opacity="0.05">
   <g class="colored">
      <path d="M149.08,58.74l-14.55-7.52a83,83,0,0,0-75.45,0L48,57,36.92,51.22a83,83,0,0,0-75.45,0L-53,58.74a7.51,7.51,0,0,0-4.06,6.67V212.33a7.5,7.5,0,0,0,3.61,6.41,7.49,7.49,0,0,0,7.35.26l14.49-7.49a67.91,67.91,0,0,1,61.71,0L44.56,219a7.79,7.79,0,0,0,1.76.65h.07l.39.08h.11l.34.05h.15l.3,0h.7l.23,0,.27,0,.22,0,.27,0,.21,0,.29-.07.19,0a2.46,2.46,0,0,0,.29-.09l.19-.06.31-.12.16-.06.45-.22L66,211.51a67.94,67.94,0,0,1,61.71,0L142.17,219a7.5,7.5,0,0,0,11-6.67V65.41A7.5,7.5,0,0,0,149.08,58.74ZM40.5,200l-3.59-1.85a82.71,82.71,0,0,0-37.7-9.06,82.92,82.92,0,0,0-37.75,9.07L-42.09,200V70l10.43-5.39a67.94,67.94,0,0,1,61.71,0L40.5,70Zm97.62,0-3.59-1.85a83,83,0,0,0-75.45,0L55.52,200V70L66,64.59a67.94,67.94,0,0,1,61.71,0L138.12,70Z" />
   </g>
</svg>