<svg viewBox="0 0 299.23 262">
   <defs>
      <style>
         .some-opacity {
            opacity: .025
         }

         .full-opacity {
            opacity: .1
         }
      </style>
   </defs>
      <g class="colored">
         <path d="M438.57 249.57c0 77.61-84.31 140.53-188.32 140.53S-45.64 364-2.66 268.63C60.69 128.09 134.7 36.8 238.71 36.8S438.57 172 438.57 249.57Z"
               class="some-opacity" />
         <path d="M356.68 241.63c0 42.3-46 76.59-102.65 76.59S98.21 316.44 116.18 252c16.72-59.93 77.29-106.3 134-106.3s106.5 53.62 106.5 95.93Z"
               class="some-opacity" />
         <path d="M257.55 112.88c-72.39 0-135.255 45.771-156.583 122.25-5.762 20.657-3.05 37.332 5.463 50.542 8.512 13.21 22.732 22.933 39.843 30.055 34.224 14.242 80.14 18.142 116.198 18.142 36.186 0 68.963-10.934 92.74-28.676 23.777-17.742 38.568-42.345 38.568-69.562 0-27.243-15.967-57.863-40.933-81.736-24.967-23.874-58.995-41.014-95.295-41.014zm0 2c35.67 0 69.257 16.883 93.913 40.46 24.656 23.576 40.316 53.834 40.316 80.29 0 26.494-14.378 50.51-37.763 67.96-23.386 17.45-55.762 28.28-91.545 28.28-35.913 0-81.674-3.943-115.43-17.991-16.878-7.024-30.725-16.557-38.93-29.29-8.204-12.731-10.862-28.687-5.218-48.921 21.11-75.7 83.109-120.787 154.658-120.787z"
               class="some-opacity" />
         <circle cx="190.24"
                 cy="129.18"
                 r="6.92"
                 class="full-opacity" />
   </g>
</svg>