<svg viewBox="0 0 689.94 262">
   <defs>
      <style>
         .some-opacity {
            opacity: .025
         }

         .full-opacity {
            opacity: .1
         }
      </style>
   </defs>
   <g class="colored">
      <path d="M-35 16c0-96.25 133.83-174.28 298.91-174.28s915.87-139.52 501.42 87.63C559.27 42.3 440.25 234.26 275.17 234.26S-35 112.29-35 16Z"
            class="some-opacity" />
      <path d="M-35 116c0-96.3 45.37-173.83 217.45-244.73C756.54-365.24 956.13-269.54 704.33-13.14a1513.61 1513.61 0 0 0-105.4 119.79c-67.15 84.59-169.42 188.09-317.75 188.09C86.64 294.74-35 212.21-35 116Z"
            class="some-opacity" />
      <path d="M58.05-74.41c0-77.17 71.92-139.74 160.64-139.74s315 6.78 235.47 177.77c-60.32 129.7-140.68 136.94-229.4 136.94S58.05 2.77 58.05-74.41Z"
            class="some-opacity" />
      <circle cx="508.75"
              cy="202.96"
              r="6.92"
              class="full-opacity" />
   </g>
</svg>