<svg xmlns="http://www.w3.org/2000/svg" viewBox="0 0 253.97 142.8"><defs></defs><g id="fc5d42ac-eb99-46f1-83c3-fa7465c3b526" data-name="badges"><path fill="current" d="M19.42,1.53a5.35,5.35,0,0,0-6.63,8l-.48,1a.56.56,0,0,0,.27.74L16.15,13a.54.54,0,0,0,.74-.26l.48-1A5.34,5.34,0,0,0,19.42,1.53ZM17,10.59a.54.54,0,0,0-.51.31l-.38.81-2.57-1.23.38-.8a.55.55,0,0,0-.07-.6A4.24,4.24,0,1,1,17,10.59Z"/><path fill="current" d="M15.44,13.44l-2.78-1.33a.56.56,0,0,0-.48,1L15,14.45a.56.56,0,0,0,.74-.27A.55.55,0,0,0,15.44,13.44Z"/><path fill="current" d="M13.84,14.72l-1.17-.56a.54.54,0,0,0-.74.26.55.55,0,0,0,.26.74l1.17.56a.57.57,0,0,0,.75-.26A.56.56,0,0,0,13.84,14.72Z"/><path fill="current" d="M128.65,1.22A5.35,5.35,0,0,0,125.39,8a5.41,5.41,0,0,0,4.22,3.51l.37,1a.56.56,0,0,0,.71.34l3.73-1.32a.56.56,0,0,0,.34-.71l-.37-1a5.35,5.35,0,0,0-5.74-8.64Zm4.71,8.1a.58.58,0,0,0-.14.59l.3.84-2.68.94-.3-.84a.55.55,0,0,0-.47-.37,4.24,4.24,0,1,1,3.29-1.16Z"/><path fill="current" d="M134.26,12.45l-2.9,1a.56.56,0,0,0,.37,1l2.9-1a.54.54,0,0,0,.34-.71A.56.56,0,0,0,134.26,12.45Z"/><path fill="current" d="M134,14.49l-1.23.43a.56.56,0,1,0,.37,1.05l1.23-.43a.57.57,0,0,0,.34-.72A.55.55,0,0,0,134,14.49Z"/><path fill="current" d="M122.53,86a5.35,5.35,0,0,0,1,10.33l.37,1a.56.56,0,0,0,.71.34l3.73-1.32a.56.56,0,0,0,.34-.71l-.37-1A5.34,5.34,0,0,0,122.53,86Zm4.71,8.1a.54.54,0,0,0-.14.59l.29.84-2.68.94-.29-.84a.58.58,0,0,0-.48-.37,4.23,4.23,0,1,1,3.3-1.16Z"/><path fill="current" d="M128.14,97.27l-2.91,1a.56.56,0,0,0-.34.71.55.55,0,0,0,.71.34l2.91-1a.57.57,0,0,0,.34-.72A.55.55,0,0,0,128.14,97.27Z"/><path fill="current" d="M127.91,99.3l-1.23.43a.56.56,0,1,0,.37,1l1.23-.43a.56.56,0,0,0,.34-.71A.55.55,0,0,0,127.91,99.3Z"/><path fill="current" d="M76.5,43a5.35,5.35,0,0,0-6.63,8l-.48,1a.57.57,0,0,0,.27.75l3.57,1.7a.55.55,0,0,0,.74-.26l.48-1A5.34,5.34,0,0,0,76.5,43ZM74.1,52a.55.55,0,0,0-.51.32l-.39.81-2.56-1.23.38-.8a.55.55,0,0,0-.07-.6A4.25,4.25,0,1,1,74.1,52Z"/><path fill="current" d="M72.52,54.88l-2.78-1.33a.56.56,0,1,0-.48,1L72,55.88a.55.55,0,1,0,.48-1Z"/><path fill="current" d="M70.92,56.15l-1.17-.56a.56.56,0,0,0-.74.27.55.55,0,0,0,.26.74l1.17.56a.56.56,0,1,0,.48-1Z"/><path fill="current" d="M70.61,126.82a5.35,5.35,0,0,0,1,10.33l.37,1a.54.54,0,0,0,.71.34l3.73-1.31a.56.56,0,0,0,.34-.72l-.37-1a5.34,5.34,0,0,0-5.73-8.64Zm4.71,8.1a.56.56,0,0,0-.14.59l.3.84-2.68,1-.3-.84a.55.55,0,0,0-.48-.37,4.25,4.25,0,1,1,3.3-1.17Z"/><path fill="current" d="M76.22,138.06l-2.91,1a.56.56,0,1,0,.37,1l2.91-1a.56.56,0,1,0-.37-1.05Z"/><path fill="current" d="M76,140.09l-1.23.43a.56.56,0,1,0,.38,1l1.22-.43a.56.56,0,1,0-.37-1Z"/><path fill="current" d="M25.07,86a5.35,5.35,0,0,0-7.14,2.52,5.41,5.41,0,0,0,.5,5.46L18,95a.57.57,0,0,0,.26.75l3.57,1.7a.54.54,0,0,0,.74-.26l.48-1A5.34,5.34,0,0,0,25.07,86Zm-2.4,9a.58.58,0,0,0-.52.32l-.38.81L19.2,95l.39-.8a.57.57,0,0,0-.08-.6,4.25,4.25,0,1,1,3.16,1.5Z"/><path fill="current" d="M21.09,97.93,18.3,96.6a.55.55,0,0,0-.74.26.57.57,0,0,0,.26.75l2.78,1.32a.55.55,0,0,0,.75-.26A.56.56,0,0,0,21.09,97.93Z"/><path fill="current" d="M19.49,99.2l-1.18-.56a.56.56,0,0,0-.48,1l1.18.56a.55.55,0,0,0,.74-.26A.57.57,0,0,0,19.49,99.2Z"/><circle fill="current" cx="139.02" cy="28.92" r="1.25"/><circle fill="current" cx="12.58" cy="110.68" r="1.25"/><circle fill="current" cx="5.37" cy="27.67" r="1.25"/><circle fill="current" cx="99.73" cy="137.2" r="1.25"/><circle fill="current" cx="101.08" cy="69.62" r="1.25"/><path fill="current" d="M46.43,61.29a2.18,2.18,0,1,1,2.17-2.18A2.19,2.19,0,0,1,46.43,61.29Zm0-3.54a1.37,1.37,0,1,0,1.36,1.36A1.36,1.36,0,0,0,46.43,57.75Z"/><path fill="current" d="M102.33,109.17a2.18,2.18,0,1,1,2.18-2.17A2.18,2.18,0,0,1,102.33,109.17Zm0-3.54A1.37,1.37,0,1,0,103.7,107,1.37,1.37,0,0,0,102.33,105.63Z"/><path fill="current" d="M147.09,49.28a2.18,2.18,0,1,1,2.17-2.18A2.19,2.19,0,0,1,147.09,49.28Zm0-3.54a1.37,1.37,0,1,0,1.36,1.36A1.36,1.36,0,0,0,147.09,45.74Z"/><path fill="current" d="M6.62,79.37A2.18,2.18,0,1,1,8.8,77.19,2.19,2.19,0,0,1,6.62,79.37Zm0-3.54A1.37,1.37,0,1,0,8,77.19,1.37,1.37,0,0,0,6.62,75.83Z"/><rect fill="current" x="101.78" y="12.97" width="4.97" height="1.13" rx="0.57" transform="translate(31.77 -62.61) rotate(39.01)"/><rect fill="current" x="91.73" y="76.51" width="4.97" height="1.13" rx="0.57" transform="translate(69.52 -42.12) rotate(39.01)"/><rect fill="current" x="98.59" y="117.74" width="4.97" height="1.13" rx="0.57" transform="translate(256.63 114.23) rotate(129.01)"/><rect fill="current" x="-0.43" y="123.37" width="4.97" height="1.13" rx="0.57" transform="translate(78.47 26.34) rotate(39.01)"/><path fill="current" d="M50.88,9.36a.43.43,0,0,1,0-.74L52,8l1.13-.65a.42.42,0,0,1,.63.36v2.6a.42.42,0,0,1-.63.36L52,10Z"/><path fill="current" d="M93.46,37.74a.43.43,0,0,1,0-.74l1.12-.65,1.13-.64a.42.42,0,0,1,.63.36v2.59a.42.42,0,0,1-.63.37l-1.13-.65Z"/><path fill="current" d="M3,65.5A.43.43,0,0,1,2.49,65l.34-1.25.33-1.25a.42.42,0,0,1,.71-.19l.92.91.92.92a.43.43,0,0,1-.19.71l-1.25.33Z"/><path fill="current" d="M141.27,116.29a.34.34,0,0,1-.41-.41l.27-1,.26-1a.34.34,0,0,1,.56-.16l.73.73.72.72a.33.33,0,0,1-.15.56l-1,.27Z"/><path fill="current" d="M51.21,130.44a.35.35,0,0,1,0-.6l.91-.53.91-.52a.34.34,0,0,1,.52.3v2.1a.35.35,0,0,1-.52.3l-.91-.53Z"/><path fill="current" d="M53,25.84l.35.71a.35.35,0,0,0,.28.2l.78.12a.37.37,0,0,1,.21.63l-.57.55a.34.34,0,0,0-.1.33l.13.78a.37.37,0,0,1-.54.39l-.7-.36a.36.36,0,0,0-.35,0l-.69.36a.37.37,0,0,1-.54-.39l.13-.78a.38.38,0,0,0-.11-.33l-.56-.55a.37.37,0,0,1,.2-.63l.78-.12a.33.33,0,0,0,.28-.2l.35-.71A.38.38,0,0,1,53,25.84Z"/><path fill="current" d="M52.05,70.67l.35.71a.39.39,0,0,0,.28.2l.78.11a.38.38,0,0,1,.21.64l-.57.55a.39.39,0,0,0-.1.33l.13.77a.38.38,0,0,1-.54.4l-.7-.37a.34.34,0,0,0-.34,0l-.7.37a.38.38,0,0,1-.54-.4l.13-.77a.37.37,0,0,0-.11-.33l-.56-.55a.38.38,0,0,1,.21-.64l.78-.11a.39.39,0,0,0,.28-.2l.35-.71A.36.36,0,0,1,52.05,70.67Z"/><path fill="current" d="M44,107.43l.35.71a.37.37,0,0,0,.28.2l.78.11a.38.38,0,0,1,.21.64l-.57.55a.4.4,0,0,0-.1.33l.13.78a.37.37,0,0,1-.54.39l-.7-.37a.36.36,0,0,0-.35,0l-.69.37a.37.37,0,0,1-.54-.39l.13-.78a.38.38,0,0,0-.11-.33l-.56-.55a.38.38,0,0,1,.2-.64l.78-.11a.38.38,0,0,0,.29-.2l.34-.71A.37.37,0,0,1,44,107.43Z"/><path fill="current" d="M141.12,76.37l.37.75a.4.4,0,0,0,.3.22l.82.12a.39.39,0,0,1,.22.67l-.6.58a.4.4,0,0,0-.11.34l.14.82a.39.39,0,0,1-.57.42L141,79.9a.38.38,0,0,0-.36,0l-.74.39a.39.39,0,0,1-.57-.42l.14-.82a.4.4,0,0,0-.11-.34l-.6-.58a.39.39,0,0,1,.22-.67l.82-.12a.4.4,0,0,0,.3-.22l.37-.75A.39.39,0,0,1,141.12,76.37Z"/><path fill="current" d="M109.16,1.42l.34.67a.35.35,0,0,0,.26.2l.75.1a.36.36,0,0,1,.19.61l-.53.52a.36.36,0,0,0-.11.32l.13.74a.35.35,0,0,1-.51.37L109,4.6a.38.38,0,0,0-.33,0L108,5a.35.35,0,0,1-.51-.37l.13-.74a.36.36,0,0,0-.11-.32L107,3a.36.36,0,0,1,.19-.61l.75-.1a.35.35,0,0,0,.26-.2l.34-.67A.35.35,0,0,1,109.16,1.42Z"/><path fill="current" d="M78.44,1.74,75.3.16a1.42,1.42,0,0,0-1.07-.1L69.57,1.45a1.45,1.45,0,0,0-1,1.81l3,10.2a1.46,1.46,0,0,0,1.81,1l7.1-2.12a1.47,1.47,0,0,0,1-1.82L79.18,2.62A1.5,1.5,0,0,0,78.44,1.74Zm-.64.57-1.89.56a.12.12,0,0,1-.16-.08L75.21,1Zm2.53,9.24-7.1,2.13a.68.68,0,0,1-.83-.45L69.36,3a.66.66,0,0,1,.44-.83L74.34.86,75,3a.93.93,0,0,0,1.16.62L78.45,3l2.32,7.78A.65.65,0,0,1,80.33,11.55Z"/><path fill="current" d="M77.35,4.65,71.77,6.32a.38.38,0,0,0-.26.49.4.4,0,0,0,.49.27l5.58-1.67a.4.4,0,0,0,.27-.49A.41.41,0,0,0,77.35,4.65Z"/><path fill="current" d="M78,6.68,72.38,8.35a.4.4,0,0,0-.27.49.41.41,0,0,0,.5.27l5.58-1.67A.38.38,0,0,0,78.45,7,.4.4,0,0,0,78,6.68Z"/><path fill="current" d="M74.83,9.83,73,10.38a.4.4,0,0,0,.22.76l1.85-.55a.4.4,0,0,0,.26-.5A.38.38,0,0,0,74.83,9.83Z"/><path fill="current" d="M24.58,43.18l-3.13-1.59a1.47,1.47,0,0,0-1.07-.09l-4.66,1.39a1.46,1.46,0,0,0-1,1.81l3,10.2a1.46,1.46,0,0,0,1.81,1l7.1-2.13a1.46,1.46,0,0,0,1-1.81l-2.36-7.88A1.44,1.44,0,0,0,24.58,43.18Zm-.63.57-1.89.56a.14.14,0,0,1-.17-.09l-.53-1.78ZM26.47,53l-7.1,2.12a.65.65,0,0,1-.82-.44L15.5,44.47a.67.67,0,0,1,.45-.82l4.54-1.35.64,2.15a.92.92,0,0,0,1.15.62l2.31-.69,2.33,7.79A.66.66,0,0,1,26.47,53Z"/><path fill="current" d="M23.5,46.09l-5.58,1.67a.4.4,0,0,0-.27.49.41.41,0,0,0,.5.27l5.58-1.67a.38.38,0,0,0,.26-.49A.4.4,0,0,0,23.5,46.09Z"/><path fill="current" d="M24.11,48.12l-5.58,1.67a.4.4,0,0,0,.22.76l5.58-1.67a.4.4,0,1,0-.22-.76Z"/><path fill="current" d="M21,51.26l-1.85.56a.38.38,0,0,0-.26.49.4.4,0,0,0,.49.27L21.2,52a.41.41,0,0,0,.27-.5A.4.4,0,0,0,21,51.26Z"/><path fill="current" d="M24.58,129.6,21.45,128a1.48,1.48,0,0,0-1.07-.1l-4.66,1.39a1.47,1.47,0,0,0-1,1.82l3,10.19a1.46,1.46,0,0,0,1.81,1l7.1-2.12a1.46,1.46,0,0,0,1-1.81l-2.36-7.89A1.44,1.44,0,0,0,24.58,129.6Zm-.63.57-1.89.57a.14.14,0,0,1-.17-.09l-.53-1.79Zm2.52,9.25-7.1,2.12a.66.66,0,0,1-.82-.45L15.5,130.9a.66.66,0,0,1,.45-.82l4.54-1.36.64,2.15a.93.93,0,0,0,1.15.63l2.31-.69,2.33,7.78A.68.68,0,0,1,26.47,139.42Z"/><path fill="current" d="M23.5,132.51l-5.58,1.67a.41.41,0,0,0-.27.5.4.4,0,0,0,.5.26l5.58-1.66a.4.4,0,0,0-.23-.77Z"/><path fill="current" d="M24.11,134.54l-5.58,1.67a.4.4,0,1,0,.22.76l5.58-1.67a.4.4,0,0,0-.22-.76Z"/><path fill="current" d="M21,137.69l-1.85.55a.38.38,0,0,0-.26.49.4.4,0,0,0,.49.27l1.84-.55a.4.4,0,0,0-.22-.76Z"/><path fill="current" d="M81.09,90.93,80,87.59a1.49,1.49,0,0,0-.69-.83L75,84.46a1.45,1.45,0,0,0-2,.59L68,94.41a1.46,1.46,0,0,0,.59,2l6.53,3.52a1.45,1.45,0,0,0,2-.59L81,92.07A1.46,1.46,0,0,0,81.09,90.93Zm-.85-.05-1.74-.94a.13.13,0,0,1-.06-.18l.89-1.64ZM75.48,99.2,69,95.68a.66.66,0,0,1-.27-.89l5.06-9.37a.67.67,0,0,1,.9-.27l4.16,2.26-1.06,2a.91.91,0,0,0,.37,1.25l2.12,1.14-3.86,7.16A.66.66,0,0,1,75.48,99.2Z"/><path fill="current" d="M78.26,92.22l-5.12-2.77a.4.4,0,0,0-.54.16.39.39,0,0,0,.16.54l5.12,2.77a.4.4,0,0,0,.54-.16A.4.4,0,0,0,78.26,92.22Z"/><path fill="current" d="M77.25,94.08l-5.12-2.76a.39.39,0,0,0-.54.16.41.41,0,0,0,.16.54l5.13,2.76a.38.38,0,0,0,.53-.16A.39.39,0,0,0,77.25,94.08Z"/><path fill="current" d="M72.82,94.09l-1.7-.91a.4.4,0,0,0-.37.7l1.69.91a.39.39,0,0,0,.54-.16A.41.41,0,0,0,72.82,94.09Z"/><path fill="current" d="M130.91,47.07l-1.1-3.34a1.47,1.47,0,0,0-.69-.82l-4.28-2.31a1.45,1.45,0,0,0-2,.59l-5.05,9.36a1.45,1.45,0,0,0,.59,2l6.52,3.53a1.46,1.46,0,0,0,2-.59l3.91-7.24A1.48,1.48,0,0,0,130.91,47.07Zm-.85,0-1.74-.93a.13.13,0,0,1,0-.18l.88-1.64Zm-4.75,8.33-6.53-3.52a.66.66,0,0,1-.26-.9l5-9.36a.65.65,0,0,1,.9-.27l4.17,2.25-1.07,2a.92.92,0,0,0,.37,1.25l2.12,1.15-3.86,7.15A.66.66,0,0,1,125.31,55.35Z"/><path fill="current" d="M128.08,48.36,123,45.6a.39.39,0,0,0-.54.16.41.41,0,0,0,.16.54l5.13,2.76a.38.38,0,0,0,.53-.16A.39.39,0,0,0,128.08,48.36Z"/><path fill="current" d="M127.08,50.23,122,47.46a.41.41,0,0,0-.54.16.4.4,0,0,0,.17.54l5.12,2.77a.4.4,0,0,0,.54-.17A.39.39,0,0,0,127.08,50.23Z"/><path fill="current" d="M122.64,50.24,121,49.32a.4.4,0,0,0-.54.16.39.39,0,0,0,.16.54l1.69.92a.4.4,0,0,0,.54-.16A.39.39,0,0,0,122.64,50.24Z"/><path fill="current" d="M130.91,133.66l-1.1-3.34a1.46,1.46,0,0,0-.69-.83l-4.28-2.31a1.46,1.46,0,0,0-2,.59l-5.05,9.37a1.45,1.45,0,0,0,.59,2l6.52,3.52a1.45,1.45,0,0,0,2-.59l3.91-7.24A1.46,1.46,0,0,0,130.91,133.66Zm-.85,0-1.74-.94a.13.13,0,0,1,0-.18l.88-1.64Zm-4.75,8.32-6.53-3.52a.66.66,0,0,1-.26-.9l5-9.36a.67.67,0,0,1,.9-.27l4.17,2.25-1.07,2a.93.93,0,0,0,.37,1.26l2.12,1.14-3.86,7.15A.66.66,0,0,1,125.31,141.93Z"/><path fill="current" d="M128.08,135,123,132.18a.4.4,0,1,0-.38.7l5.13,2.77a.39.39,0,0,0,.53-.16A.39.39,0,0,0,128.08,135Z"/><path fill="current" d="M127.08,136.81,122,134.05a.39.39,0,1,0-.37.69l5.12,2.77a.4.4,0,0,0,.38-.7Z"/><path fill="current" d="M122.64,136.82l-1.69-.91a.39.39,0,0,0-.54.16.4.4,0,0,0,.16.54l1.69.91a.39.39,0,0,0,.54-.16A.4.4,0,0,0,122.64,136.82Z"/><path fill="current" d="M235.53,1.22a5.35,5.35,0,0,0,.95,10.33l.37,1a.56.56,0,0,0,.71.34l3.73-1.32a.56.56,0,0,0,.34-.71l-.37-1a5.34,5.34,0,0,0-5.73-8.64Zm4.71,8.1a.54.54,0,0,0-.14.59l.29.84-2.68.94-.29-.84a.57.57,0,0,0-.48-.37,4.23,4.23,0,1,1,3.3-1.16Z"/><path fill="current" d="M241.14,12.45l-2.91,1a.56.56,0,0,0-.34.71.55.55,0,0,0,.71.34l2.91-1a.56.56,0,0,0-.37-1.05Z"/><path fill="current" d="M240.91,14.49l-1.23.43a.56.56,0,1,0,.37,1.05l1.23-.43a.57.57,0,0,0,.34-.72A.54.54,0,0,0,240.91,14.49Z"/><path fill="current" d="M229.4,86a5.35,5.35,0,0,0,.95,10.33l.37,1a.56.56,0,0,0,.71.34l3.73-1.32a.54.54,0,0,0,.34-.71l-.36-1A5.35,5.35,0,0,0,229.4,86Zm4.71,8.1a.56.56,0,0,0-.14.59l.3.84-2.68.94-.3-.84a.57.57,0,0,0-.47-.37,4.24,4.24,0,1,1,3.29-1.16Z"/><path fill="current" d="M235,97.27l-2.91,1a.56.56,0,0,0-.34.71.55.55,0,0,0,.71.34l2.91-1a.57.57,0,0,0,.34-.72A.54.54,0,0,0,235,97.27Z"/><path fill="current" d="M234.78,99.3l-1.22.43a.55.55,0,0,0-.34.71.56.56,0,0,0,.71.34l1.22-.43a.56.56,0,0,0-.37-1Z"/><path fill="current" d="M183.37,43a5.35,5.35,0,0,0-6.63,8l-.47,1a.56.56,0,0,0,.26.75l3.57,1.7a.55.55,0,0,0,.74-.26l.48-1A5.34,5.34,0,0,0,183.37,43ZM181,52a.57.57,0,0,0-.51.32l-.38.81-2.57-1.23.39-.8a.57.57,0,0,0-.08-.6A4.25,4.25,0,1,1,181,52Z"/><path fill="current" d="M179.39,54.88l-2.78-1.33a.55.55,0,0,0-.74.26.57.57,0,0,0,.26.75l2.78,1.32a.55.55,0,1,0,.48-1Z"/><path fill="current" d="M177.8,56.15l-1.18-.56a.56.56,0,0,0-.48,1l1.18.56a.56.56,0,0,0,.74-.26A.58.58,0,0,0,177.8,56.15Z"/><path fill="current" d="M177.48,126.82a5.35,5.35,0,0,0,1,10.33l.36,1a.56.56,0,0,0,.72.34l3.73-1.31a.57.57,0,0,0,.34-.72l-.37-1a5.35,5.35,0,0,0-5.74-8.64Zm4.71,8.1a.56.56,0,0,0-.14.59l.3.84-2.68,1-.3-.84a.55.55,0,0,0-.47-.37,4.25,4.25,0,1,1,3.29-1.17Z"/><path fill="current" d="M183.09,138.06l-2.91,1a.56.56,0,0,0,.37,1l2.91-1a.56.56,0,0,0-.37-1.05Z"/><path fill="current" d="M182.86,140.09l-1.22.43a.56.56,0,0,0,.37,1l1.22-.43a.55.55,0,0,0,.34-.71A.56.56,0,0,0,182.86,140.09Z"/><circle fill="current" cx="245.89" cy="28.92" r="1.25"/><circle fill="current" cx="206.6" cy="137.2" r="1.25"/><circle fill="current" cx="207.95" cy="69.62" r="1.25"/><path fill="current" d="M159.61,70.56a2.18,2.18,0,1,1,2.18-2.18A2.19,2.19,0,0,1,159.61,70.56Zm0-3.55A1.37,1.37,0,1,0,161,68.38,1.38,1.38,0,0,0,159.61,67Z"/><path fill="current" d="M209.2,109.17a2.18,2.18,0,1,1,2.18-2.17A2.17,2.17,0,0,1,209.2,109.17Zm0-3.54a1.37,1.37,0,1,0,1.37,1.37A1.36,1.36,0,0,0,209.2,105.63Z"/><path fill="current" d="M251.79,41.39A2.18,2.18,0,1,1,254,39.22,2.18,2.18,0,0,1,251.79,41.39Zm0-3.54a1.37,1.37,0,1,0,1.37,1.37A1.37,1.37,0,0,0,251.79,37.85Z"/><rect fill="current" x="208.65" y="12.97" width="4.97" height="1.13" rx="0.57" transform="translate(55.6 -129.88) rotate(39.01)"/><rect fill="current" x="198.6" y="76.51" width="4.97" height="1.13" rx="0.57" transform="translate(93.35 -109.39) rotate(39.01)"/><rect fill="current" x="205.47" y="117.74" width="4.97" height="1.13" rx="0.57" transform="translate(430.77 31.19) rotate(129.01)"/><path fill="current" d="M157.76,9.36a.42.42,0,0,1,0-.74L158.88,8,160,7.33a.42.42,0,0,1,.64.36v2.6a.42.42,0,0,1-.64.36L158.88,10Z"/><path fill="current" d="M200.34,37.74a.42.42,0,0,1,0-.74l1.12-.65,1.12-.64a.42.42,0,0,1,.64.36v2.59a.43.43,0,0,1-.64.37l-1.12-.65Z"/><path fill="current" d="M248.15,116.29a.33.33,0,0,1-.41-.41l.26-1,.26-1a.35.35,0,0,1,.57-.16l.72.73.72.72a.33.33,0,0,1-.15.56l-1,.27Z"/><path fill="current" d="M158.08,130.44a.35.35,0,0,1,0-.6l.91-.53.91-.52a.34.34,0,0,1,.52.3v2.1a.35.35,0,0,1-.52.3L159,131Z"/><path fill="current" d="M161.27,28.41l.35.7a.4.4,0,0,0,.28.21l.78.11a.38.38,0,0,1,.21.64l-.56.55a.37.37,0,0,0-.11.33l.13.77a.38.38,0,0,1-.54.4l-.7-.37a.34.34,0,0,0-.34,0l-.7.37a.38.38,0,0,1-.54-.4l.13-.77a.39.39,0,0,0-.1-.33l-.57-.55a.38.38,0,0,1,.21-.64l.78-.11a.4.4,0,0,0,.28-.21l.35-.7A.36.36,0,0,1,161.27,28.41Z"/><path fill="current" d="M159,99l.35.71a.37.37,0,0,0,.28.2l.78.12a.37.37,0,0,1,.21.63l-.57.55a.38.38,0,0,0-.11.33l.14.78a.37.37,0,0,1-.54.39l-.7-.37a.43.43,0,0,0-.35,0l-.7.37a.37.37,0,0,1-.54-.39l.14-.78a.38.38,0,0,0-.11-.33l-.56-.55a.37.37,0,0,1,.2-.63l.78-.12a.37.37,0,0,0,.28-.2l.35-.71A.37.37,0,0,1,159,99Z"/><path fill="current" d="M248,76.37l.36.75a.4.4,0,0,0,.3.22l.82.12a.39.39,0,0,1,.22.67l-.59.58a.37.37,0,0,0-.12.34l.14.82a.39.39,0,0,1-.57.42l-.73-.39a.4.4,0,0,0-.37,0l-.74.39a.4.4,0,0,1-.57-.42l.14-.82a.37.37,0,0,0-.11-.34l-.59-.58a.39.39,0,0,1,.21-.67l.83-.12a.37.37,0,0,0,.29-.22l.37-.75A.4.4,0,0,1,248,76.37Z"/><path fill="current" d="M216,1.42l.33.67a.35.35,0,0,0,.27.2l.74.1a.36.36,0,0,1,.2.61l-.54.52a.38.38,0,0,0-.1.32l.12.74a.35.35,0,0,1-.51.37l-.67-.35a.38.38,0,0,0-.33,0l-.66.35a.36.36,0,0,1-.52-.37l.13-.74a.38.38,0,0,0-.1-.32L213.86,3a.36.36,0,0,1,.2-.61l.74-.1a.35.35,0,0,0,.27-.2l.33-.67A.35.35,0,0,1,216,1.42Z"/><path fill="current" d="M185.31,1.74,182.18.16a1.45,1.45,0,0,0-1.08-.1l-4.65,1.39a1.46,1.46,0,0,0-1,1.81l3,10.2a1.47,1.47,0,0,0,1.82,1l7.1-2.12a1.47,1.47,0,0,0,1-1.82l-2.36-7.88A1.44,1.44,0,0,0,185.31,1.74Zm-.63.57-1.9.56a.12.12,0,0,1-.16-.08L182.09,1Zm2.52,9.24-7.1,2.13a.66.66,0,0,1-.82-.45L176.23,3a.67.67,0,0,1,.44-.83L181.21.86,181.86,3a.92.92,0,0,0,1.15.62L185.32,3l2.32,7.78A.65.65,0,0,1,187.2,11.55Z"/><path fill="current" d="M184.23,4.65l-5.58,1.67a.4.4,0,0,0,.22.76l5.58-1.67a.4.4,0,1,0-.22-.76Z"/><path fill="current" d="M184.83,6.68l-5.58,1.67a.38.38,0,0,0-.26.49.4.4,0,0,0,.49.27l5.58-1.67a.4.4,0,0,0,.27-.49A.41.41,0,0,0,184.83,6.68Z"/><path fill="current" d="M181.7,9.83l-1.84.55a.4.4,0,0,0-.27.49.41.41,0,0,0,.5.27l1.84-.55a.41.41,0,0,0,.27-.5A.4.4,0,0,0,181.7,9.83Z"/><path fill="current" d="M188,90.93l-1.1-3.34a1.45,1.45,0,0,0-.69-.83l-4.27-2.3a1.45,1.45,0,0,0-2,.59l-5,9.36a1.45,1.45,0,0,0,.59,2L182,99.9a1.45,1.45,0,0,0,2-.59l3.91-7.24A1.42,1.42,0,0,0,188,90.93Zm-.85-.05-1.74-.94a.13.13,0,0,1-.05-.18l.88-1.64Zm-4.75,8.32-6.53-3.52a.65.65,0,0,1-.26-.89l5.05-9.37a.67.67,0,0,1,.9-.27l4.17,2.26-1.07,2a.92.92,0,0,0,.37,1.25l2.12,1.14-3.86,7.16A.65.65,0,0,1,182.36,99.2Z"/><path fill="current" d="M185.13,92.22,180,89.45a.41.41,0,0,0-.54.16.4.4,0,0,0,.16.54l5.13,2.77a.39.39,0,0,0,.53-.16A.39.39,0,0,0,185.13,92.22Z"/><path fill="current" d="M184.13,94.08,179,91.32a.38.38,0,0,0-.53.16.39.39,0,0,0,.16.54l5.12,2.76a.4.4,0,0,0,.54-.16A.41.41,0,0,0,184.13,94.08Z"/><path fill="current" d="M179.69,94.09,178,93.18a.4.4,0,0,0-.54.16.41.41,0,0,0,.16.54l1.69.91a.39.39,0,0,0,.54-.16A.4.4,0,0,0,179.69,94.09Z"/><path fill="current" d="M237.78,47.07l-1.09-3.34a1.49,1.49,0,0,0-.7-.82l-4.27-2.31a1.45,1.45,0,0,0-2,.59l-5.06,9.36a1.45,1.45,0,0,0,.59,2l6.52,3.53a1.46,1.46,0,0,0,2-.59l3.91-7.24A1.44,1.44,0,0,0,237.78,47.07Zm-.85,0-1.74-.93a.14.14,0,0,1-.05-.18l.88-1.64Zm-4.75,8.33-6.52-3.52a.67.67,0,0,1-.27-.9l5.05-9.36a.66.66,0,0,1,.9-.27l4.17,2.25-1.07,2a.92.92,0,0,0,.38,1.25l2.12,1.15-3.86,7.15A.67.67,0,0,1,232.18,55.35Z"/><path fill="current" d="M235,48.36l-5.13-2.76a.39.39,0,0,0-.54.16.41.41,0,0,0,.16.54l5.13,2.76a.4.4,0,0,0,.54-.16A.41.41,0,0,0,235,48.36Z"/><path fill="current" d="M234,50.23l-5.12-2.77a.4.4,0,1,0-.38.7l5.12,2.77a.4.4,0,0,0,.38-.7Z"/><path fill="current" d="M229.51,50.24l-1.69-.92a.41.41,0,0,0-.54.16.4.4,0,0,0,.16.54l1.7.92a.39.39,0,0,0,.53-.16A.39.39,0,0,0,229.51,50.24Z"/><path fill="current" d="M237.78,133.66l-1.09-3.34a1.47,1.47,0,0,0-.7-.83l-4.27-2.31a1.46,1.46,0,0,0-2,.59l-5.06,9.37a1.45,1.45,0,0,0,.59,2l6.52,3.52a1.45,1.45,0,0,0,2-.59l3.91-7.24A1.42,1.42,0,0,0,237.78,133.66Zm-.85,0-1.74-.94a.14.14,0,0,1-.05-.18l.88-1.64Zm-4.75,8.32-6.52-3.52a.67.67,0,0,1-.27-.9l5.05-9.36a.67.67,0,0,1,.9-.27l4.17,2.25-1.07,2a.94.94,0,0,0,.38,1.26l2.12,1.14-3.86,7.15A.67.67,0,0,1,232.18,141.93Z"/><path fill="current" d="M235,135l-5.13-2.77a.41.41,0,0,0-.54.16.4.4,0,0,0,.16.54l5.13,2.77a.41.41,0,0,0,.54-.16A.4.4,0,0,0,235,135Z"/><path fill="current" d="M234,136.81l-5.12-2.76a.39.39,0,1,0-.38.69l5.12,2.77a.4.4,0,0,0,.54-.16A.41.41,0,0,0,234,136.81Z"/><path fill="current" d="M229.51,136.82l-1.69-.91a.4.4,0,0,0-.54.16.41.41,0,0,0,.16.54l1.7.91a.38.38,0,0,0,.53-.16A.39.39,0,0,0,229.51,136.82Z"/></g></svg>
