<?xml version="1.0" encoding="UTF-8" standalone="no"?>
<svg
   id="e9c97af2-2a03-4248-a2dc-54c350d505bd"
   data-name="Layer 1"
   viewBox="0 0 100 99.51"
   version="1.1"
   xmlns="http://www.w3.org/2000/svg">
  <path
     d="M.61,51.49a4.59,4.59,0,0,0,1,1.5L15.17,66.55a4.51,4.51,0,0,0,7.28-2.15,4.49,4.49,0,0,0-.9-4.22L15.67,54.3H45.48V84.1l-5.84-5.88a4.53,4.53,0,0,0-6.38,6.38L46.83,98.17a4.51,4.51,0,0,0,6.42,0L66.82,84.6a4.53,4.53,0,0,0-2.15-7.28,4.54,4.54,0,0,0-4.22.9L54.52,84.1V54.3H84.33l-5.84,5.83h0a4.53,4.53,0,1,0,6.38,6.38L98.44,52.94a4.54,4.54,0,0,0,0-6.42L84.87,33a4.52,4.52,0,0,0-6.38,6.38l5.84,5.92H54.52V15.45l5.84,5.83a4.52,4.52,0,0,0,6.37-6.37L53.16,1.34a4.51,4.51,0,0,0-6.42,0L33.17,14.91a4.56,4.56,0,0,0,6.47,6.42l5.84-5.88v29.8H15.67l5.88-5.83A4.54,4.54,0,1,0,15.13,33L1.56,46.56a4.54,4.54,0,0,0-1,4.93Z"
     fill="current"
     id="path28" />
</svg>
