<svg
   id="b6c3fb75-8b39-4d32-a7cd-522b84fb4087"
   data-name="Layer 1"
   viewBox="0 0 100 99.51"
   version="1.1"
   xmlns="http://www.w3.org/2000/svg">

  <path
     d="M32.89,45.57a2.84,2.84,0,0,1,0,3.88L18.81,63.53a2.7,2.7,0,0,1-3.88,0L.84,49.45a2.66,2.66,0,0,1,0-3.88,2.66,2.66,0,0,1,3.88,0l9.8,9.8a33.05,33.05,0,0,1-.41-5.51A35.88,35.88,0,0,1,49.94,14a35.14,35.14,0,0,1,16.12,3.88,2.74,2.74,0,1,1-2.45,4.9,30.3,30.3,0,0,0-44,27,35.56,35.56,0,0,0,.41,4.7l9-9a2.66,2.66,0,0,1,3.88,0Zm66.24,4.49L85.15,36a2.66,2.66,0,0,0-3.88,0L67.18,50.06a2.74,2.74,0,0,0,3.88,3.88l9-9a33.94,33.94,0,0,1,.41,4.69,30.31,30.31,0,0,1-44,27.05A2.74,2.74,0,0,0,34,81.6,35.84,35.84,0,0,0,86.07,49.65a34.07,34.07,0,0,0-.41-5.51l9.8,9.8a2.72,2.72,0,0,0,3.87,0,2.85,2.85,0,0,0-.2-3.88Z"
fill="current"     id="path22" />
</svg>
