<svg id="Layer_1" data-name="Layer 1" xmlns="http://www.w3.org/2000/svg" viewBox="0 0 696.05 147.89">
    <defs>
        <style>.cls-1{fill:#163345;}.cls-2{fill:#f26d5a;}.cls-3{fill:#5ec2c1;}.cls-4{fill:#f4d265;}</style>
    </defs>
    <g id="lumofy-full-logo-color">
        <path class="cls-1" d="M251.34,119.28H217.15c-18.1,0-30.94-10.37-30.94-29.39V.16h11.91V92.05c0,4.18,2,8.2,5.88,12.22,2.47,2.48,6.8,3.71,13.15,3.71h34.19Z" />
        <path class="cls-1" d="M329.45,79.21c0,11.45-3.71,21-11.13,28.62-7.27,7.58-16.56,11.45-27.85,11.45s-20.58-3.87-28-11.45-11-17.17-11-28.62V28.93h11.91V80.6a26.09,26.09,0,0,0,8.05,19.18,26.41,26.41,0,0,0,19,7.89,26,26,0,0,0,18.87-7.89,26.2,26.2,0,0,0,8.2-19.18V28.93h11.91Z" />
        <path class="cls-1" d="M465.58,119.28H453.36V65.13a27.17,27.17,0,0,0-5.87-17.48A19.1,19.1,0,0,0,432,40.38a24.85,24.85,0,0,0-16.86,6.34,20.34,20.34,0,0,0-7,15.78v56.78H395.81V62.5a20,20,0,0,0-7.12-15.78A24.21,24.21,0,0,0,372,40.38a18.76,18.76,0,0,0-15.31,7.27c-3.87,4.8-5.73,10.52-5.73,17.48v54.15H338.72V66.52c0-11,3.1-19.95,9.44-26.6Q357,30.4,371.37,29.24c12.84-1.08,23.05,4.49,30.63,16.4,7.58-11.91,17.79-17.48,30.63-16.4C442.22,30,450,33.57,456,39.92c6.34,6.65,9.59,15.62,9.59,26.6Z" />
        <path class="cls-1" d="M551.11,106.09c-9.12,9.13-20.11,13.62-32.8,13.15a43.14,43.14,0,0,1-31.24-13.92,44.87,44.87,0,0,1-12.69-32,45.34,45.34,0,0,1,13.77-33.11c9.12-9.28,20.11-13.77,32.8-13.3A43.45,43.45,0,0,1,552.2,41.12a45,45,0,0,1,12.84,32q0,19-13.93,33m-32.64,1.55a30.25,30.25,0,0,0,24.75-10.06,34.41,34.41,0,0,0,10.06-25.37,35.07,35.07,0,0,0-10.06-23.82,30.34,30.34,0,0,0-22.89-9.9,31.9,31.9,0,0,0-24,9.9,33.19,33.19,0,0,0-10.06,24,34.22,34.22,0,0,0,9.13,24.44,31.37,31.37,0,0,0,23.05,10.83" />
        <path class="cls-1" d="M585,119.28H573.07V29.4C573.07,10.68,585.91,0,604,0h3.09V10.52l-3.09.16c-6.19.3-10.52,1.7-13.15,4.33C587,19.18,585,23.21,585,27.38V31.1H607.1V41.93H585Z" />
        <polygon class="cls-1" points="646.08 147.9 633.4 147.9 646.7 114.33 612.98 28.93 625.82 28.93 653.97 98.86 683.68 28.93 696.05 28.93 646.08 147.9" />
        <circle class="cls-1" cx="24.07" cy="24.22" r="24.07" />
        <circle class="cls-2" cx="24.07" cy="95.21" r="24.07" />
        <circle class="cls-3" cx="94.34" cy="24.22" r="24.07" />
        <circle class="cls-4" cx="94.34" cy="95.21" r="24.07" />
    </g>
</svg>