<svg xmlns="http://www.w3.org/2000/svg" viewBox="0 0 100 99.51"><defs></defs><g id="a1b88993-be48-4993-86e6-d800dbd6f45e" data-name="badges"><path fill="current" d="M50,20.73a4.15,4.15,0,0,0-4.15,4.15V49.75A4.15,4.15,0,0,0,50,53.9H74.88a4.15,4.15,0,0,0,0-8.29H54.15V24.88A4.15,4.15,0,0,0,50,20.73Z"/><path fill="current" d="M50,0A52.63,52.63,0,0,0,14.56,14.06l-9-9a3.1,3.1,0,0,0-5.3,2.2v27a3.1,3.1,0,0,0,3.11,3.1h27A3.1,3.1,0,0,0,32.5,32l-12-12A44.14,44.14,0,0,1,50,8.29a41.46,41.46,0,0,1,0,82.92A41.06,41.06,0,0,1,20.71,79.06a4.15,4.15,0,1,0-5.88,5.85A49.29,49.29,0,0,0,50,99.51,49.76,49.76,0,0,0,50,0Z"/></g></svg>
