<svg id="a0d4838d-1429-4fe2-8694-7fb2d9900d76" data-name="Layer 1" xmlns="http://www.w3.org/2000/svg" viewBox="0 0 100 99.51"><defs></defs><path fill="current" d="M85.71,87.25H14.29A14.28,14.28,0,0,1,0,73V26.54A14.29,14.29,0,0,1,14.29,12.25H85.71A14.29,14.29,0,0,1,100,26.54V73A14.28,14.28,0,0,1,85.71,87.25ZM14.29,19.4a7.14,7.14,0,0,0-7.15,7.14V73a7.15,7.15,0,0,0,7.15,7.14H85.71A7.15,7.15,0,0,0,92.86,73V26.54a7.14,7.14,0,0,0-7.15-7.14Z"/><path fill="current" d="M85.71,53.32a3.53,3.53,0,0,1-2.51-1,2.48,2.48,0,0,1-.45-.53,5.24,5.24,0,0,1-.34-.61,3.31,3.31,0,0,1-.2-.68,3.26,3.26,0,0,1-.07-.7,3.59,3.59,0,0,1,1.06-2.51,2.08,2.08,0,0,1,.53-.45,4.53,4.53,0,0,1,.61-.34,5.31,5.31,0,0,1,.68-.2,3.55,3.55,0,0,1,2,.2,3.83,3.83,0,0,1,.63.34,2.26,2.26,0,0,1,.53.45,3.59,3.59,0,0,1,1.06,2.51,4.09,4.09,0,0,1,0,.7,5.31,5.31,0,0,1-.2.68,5.24,5.24,0,0,1-.34.61,2.48,2.48,0,0,1-.45.53A3.54,3.54,0,0,1,85.71,53.32Z"/></svg>
