<svg id="b1f292ec-779e-4571-b65e-b8f2aa45295a" data-name="Layer 1" xmlns="http://www.w3.org/2000/svg" viewBox="0 0 100 99.51"><defs></defs><path fill="current" d="M63.44,70.19A6.83,6.83,0,0,1,59.68,69,77.64,77.64,0,0,1,32.34,42.08C31.12,40.19,30,38,30.45,35.77c.78-4.21,6.09-5.87,7.64-9.86,1.44-3.43-.44-7.3-2.65-10.29A47.57,47.57,0,0,0,21.82,3.11,19,19,0,0,0,13.52,0C.13-.65-.65,21.71,1.12,30.45,3,39.53,7.54,47.94,12.86,55.58c12.5,18.15,29.66,33.54,50.47,40.84,7.3,2.55,15.16,4.1,22.69,2.33a19.29,19.29,0,0,0,10-5.43,12.37,12.37,0,0,0,3.43-10.51c-.66-3.88-3.32-7-6-9.74A78.87,78.87,0,0,0,80.6,62.44a7,7,0,0,0-2.77-1.22,5.46,5.46,0,0,0-3.1,1,38,38,0,0,0-7.53,5.53A6.78,6.78,0,0,1,63.77,70C63.66,70.08,63.55,70.19,63.44,70.19Z"/></svg>
