<svg id="bb4ea0f4-1fe1-4ced-973f-a1b0e13f7d23" data-name="Layer 1" xmlns="http://www.w3.org/2000/svg" viewBox="0 0 100 99.51"><defs></defs><path fill="current" d="M66,99.51H34A14.22,14.22,0,0,1,19.79,85.29V14.22A14.22,14.22,0,0,1,34,0H66A14.22,14.22,0,0,1,80.21,14.22V85.29A14.22,14.22,0,0,1,66,99.51ZM34,7.11a7.11,7.11,0,0,0-7.11,7.11V85.29A7.11,7.11,0,0,0,34,92.4H66a7.11,7.11,0,0,0,7.11-7.11V14.22A7.11,7.11,0,0,0,66,7.11Z"/><path fill="current" d="M50,88.84a2.57,2.57,0,0,1-1.37-.19,2.73,2.73,0,0,1-.6-.34,3.57,3.57,0,0,1-.54-.42,4,4,0,0,1-.44-.56,2.73,2.73,0,0,1-.34-.6,2.69,2.69,0,0,1-.19-.67,3.26,3.26,0,0,1,0-1.39,2.76,2.76,0,0,1,.19-.68,3,3,0,0,1,.34-.6,3.93,3.93,0,0,1,.44-.55,3.64,3.64,0,0,1,.54-.43,3.21,3.21,0,0,1,.6-.34,3.11,3.11,0,0,1,.68-.19,3.56,3.56,0,0,1,1.38,0,2.94,2.94,0,0,1,.66.19,2.87,2.87,0,0,1,.62.34,3.64,3.64,0,0,1,.54.43,3.93,3.93,0,0,1,.44.55,4.42,4.42,0,0,1,.34.6,3.86,3.86,0,0,1,.19,2.07,3.19,3.19,0,0,1-.19.67,4.42,4.42,0,0,1-.34.6,4,4,0,0,1-.44.56,3.57,3.57,0,0,1-.54.42,3.16,3.16,0,0,1-1.28.53A2.66,2.66,0,0,1,50,88.84Z"/></svg>
