<svg id="a74b5dfd-8ca7-4650-95b5-758b040dbe17" data-name="Layer 1" xmlns="http://www.w3.org/2000/svg" viewBox="0 0 100 99.51"><defs></defs><path fill="current" d="M9.94.46A10,10,0,0,0,0,10.4V54.06A10,10,0,0,0,9.94,64H53.6a10,10,0,0,0,9.95-9.94V10.4A10,10,0,0,0,53.6.46Zm0,6.62H53.6a3.24,3.24,0,0,1,3.32,3.32V54.06a3.24,3.24,0,0,1-3.32,3.32H9.94a3.24,3.24,0,0,1-3.31-3.32V10.4A3.24,3.24,0,0,1,9.94,7.08ZM69.35,35.5a3.32,3.32,0,0,0,.33,6.63H90.06a3.23,3.23,0,0,1,3.31,3.31V89.11a3.23,3.23,0,0,1-3.31,3.31H46.4a3.24,3.24,0,0,1-3.32-3.31V69.89a3.32,3.32,0,0,0-6.63-.09V89.11a10,10,0,0,0,9.95,9.94H90.06A10,10,0,0,0,100,89.11V45.44a10,10,0,0,0-9.94-9.94H69.35Z"/></svg>
