<svg xmlns="http://www.w3.org/2000/svg" viewBox="0 0 100 99.51"><defs></defs><g id="ef7da86c-83e4-4419-88de-6ae2fbd5bcc3" data-name="badges"><path fill="current" d="M36.6,0H9.81A9.57,9.57,0,0,0,.25,9.57V36.36a9.57,9.57,0,0,0,9.56,9.57H36.6a9.58,9.58,0,0,0,9.57-9.57V9.57A9.58,9.58,0,0,0,36.6,0Z"/><rect fill="current" x="4.07" y="3.83" width="38.27" height="38.27" rx="5.74"/><path fill="current" d="M90.19,0H63.4a9.58,9.58,0,0,0-9.57,9.57V36.36a9.58,9.58,0,0,0,9.57,9.57H90.19a9.57,9.57,0,0,0,9.56-9.57V9.57A9.57,9.57,0,0,0,90.19,0Z"/><rect fill="current" x="57.65" y="3.83" width="38.27" height="38.27" rx="5.74"/><path fill="current" d="M36.6,53.58H9.81A9.57,9.57,0,0,0,.25,63.15V89.94a9.57,9.57,0,0,0,9.56,9.57H36.6a9.58,9.58,0,0,0,9.57-9.57V63.15A9.58,9.58,0,0,0,36.6,53.58Z"/><rect fill="current" x="4.07" y="57.41" width="38.27" height="38.27" rx="5.74"/><path fill="current" d="M76.79,53.58a23,23,0,1,0,23,23A23,23,0,0,0,76.79,53.58Z"/><path fill="current" d="M76.79,95.68A19.14,19.14,0,1,1,95.93,76.54,19.14,19.14,0,0,1,76.79,95.68Z"/></g></svg>
