<svg id="ef06f201-acab-4f82-87e1-344cc18a8851" data-name="Layer 1" xmlns="http://www.w3.org/2000/svg" viewBox="0 0 100 99.51"><path d="M77,99.51a22.75,22.75,0,0,1-16.14-6.68L40.76,72.7a22.85,22.85,0,0,1,0-32.28,4.33,4.33,0,0,1,6.12,6.12,14.17,14.17,0,0,0,0,20L67,86.71a14.17,14.17,0,0,0,20-20L74.42,54a4.33,4.33,0,0,1,6.12-6.12L93.17,60.54A22.83,22.83,0,0,1,77,99.51Z" style="fill:current"/><path d="M56.18,60.36A4.34,4.34,0,0,1,53.12,53a14.16,14.16,0,0,0,0-20L33,12.8a14.17,14.17,0,0,0-20,20L25.58,45.46a4.33,4.33,0,1,1-6.12,6.13L6.83,39A22.83,22.83,0,0,1,39.11,6.68L59.24,26.8a22.83,22.83,0,0,1,0,32.29A4.32,4.32,0,0,1,56.18,60.36Z" style="fill:current"/></svg>