<svg id="b4d65988-a1a2-4b63-ae62-bd5cfec9a1ea" data-name="Layer 1" xmlns="http://www.w3.org/2000/svg" viewBox="0 0 100 99.51"><defs></defs><path fill="current" d="M73.73,97.87a11.61,11.61,0,0,1-5.41-1.34L52.47,88.19a5.33,5.33,0,0,0-4.94,0L31.68,96.53A11.61,11.61,0,0,1,14.84,84.29l3-17.65a5.3,5.3,0,0,0-1.52-4.7L3.51,49.44A11.61,11.61,0,0,1,10,29.64l17.72-2.57a5.29,5.29,0,0,0,4-2.91l7.93-16a11.61,11.61,0,0,1,20.82,0h0l7.93,16.05a5.29,5.29,0,0,0,4,2.91l17.72,2.57a11.61,11.61,0,0,1,6.44,19.8L83.66,61.94a5.3,5.3,0,0,0-1.52,4.7l3,17.65A11.62,11.62,0,0,1,73.73,97.87ZM50,81.28a11.56,11.56,0,0,1,5.4,1.33L71.25,91a5.31,5.31,0,0,0,7.7-5.6l-3-17.65a11.61,11.61,0,0,1,3.34-10.27l12.83-12.5a5.31,5.31,0,0,0-2.94-9L71.42,33.3A11.58,11.58,0,0,1,62.68,27L54.76,10.89a5.32,5.32,0,0,0-9.52,0L37.32,27a11.58,11.58,0,0,1-8.74,6.35L10.85,35.88a5.31,5.31,0,0,0-2.94,9l12.83,12.5A11.64,11.64,0,0,1,24.08,67.7l-3,17.65a5.31,5.31,0,0,0,7.7,5.6L44.6,82.61A11.56,11.56,0,0,1,50,81.28Z"/></svg>
