<svg id="e34aa141-71ab-4481-bd1e-34f81c64234d" data-name="Layer 1" xmlns="http://www.w3.org/2000/svg" viewBox="0 0 100 99.51"><defs></defs><path fill="current" d="M36.55,55.71,33.1,59.17l-8.29,8.28-10,10L6.1,86.17C4.69,87.58,3.26,89,1.87,90.4l-.06.06a5.31,5.31,0,0,0,0,7.5A5.3,5.3,0,0,0,5.56,99.5,5.55,5.55,0,0,0,9.3,98l3.45-3.46L21,86.22l10-10,8.68-8.68c1.41-1.41,2.84-2.8,4.23-4.23l.06-.06a5.31,5.31,0,0,0,0-7.5,5.31,5.31,0,0,0-3.75-1.54,5.48,5.48,0,0,0-3.75,1.54Z"/><path fill="current" d="M.27,70.39v23.8a5.37,5.37,0,0,0,5.3,5.29h23.8a5.5,5.5,0,0,0,3.74-1.54,5.31,5.31,0,0,0,0-7.5,5.47,5.47,0,0,0-3.74-1.55H5.57l5.29,5.3V70.39a5.47,5.47,0,0,0-1.55-3.75,5.36,5.36,0,0,0-3.74-1.55,5.41,5.41,0,0,0-3.75,1.55A5.56,5.56,0,0,0,.27,70.39Z"/><path fill="current" d="M63.45,43.79l3.45-3.45,8.29-8.29,10-10,8.68-8.68c1.41-1.4,2.84-2.79,4.23-4.22l.06-.06A5.45,5.45,0,0,0,99.74,5.3,5.29,5.29,0,0,0,94.44,0,5.56,5.56,0,0,0,90.7,1.55L87.25,5,79,13.29l-10,10L60.24,32C58.83,33.42,57.4,34.8,56,36.23L56,36.3a5.3,5.3,0,0,0,0,7.49,5.37,5.37,0,0,0,3.75,1.55,5.45,5.45,0,0,0,3.75-1.55Z"/><path fill="current" d="M99.74,29.12V5.32A5.37,5.37,0,0,0,94.44,0H70.64A5.5,5.5,0,0,0,66.9,1.57a5.38,5.38,0,0,0-1.55,3.75A5.4,5.4,0,0,0,66.9,9.07a5.48,5.48,0,0,0,3.74,1.54h23.8L89.15,5.32v23.8a5.51,5.51,0,0,0,1.55,3.75,5.31,5.31,0,0,0,3.74,1.54,5.4,5.4,0,0,0,3.75-1.54,5.58,5.58,0,0,0,1.55-3.75Z"/></svg>
