<svg id="b05c1f63-761e-4b1e-891b-5adc36e88be0" data-name="Layer 1" xmlns="http://www.w3.org/2000/svg" viewBox="0 0 100 99.51"><defs></defs><path fill="current" d="M66.17,47.23,42.73,32.67a2.93,2.93,0,0,0-4.47,2.49l.08,29.25A2.93,2.93,0,0,0,39.86,67a3,3,0,0,0,1.42.36,2.87,2.87,0,0,0,1.54-.45L66.18,52.19a2.92,2.92,0,0,0,0-5Zm-22,11.89-.06-18.7,15,9.31Z"/><path fill="current" d="M85.19,11.63l-70.59.2A14.64,14.64,0,0,0,0,26.5L.15,73.3A14.64,14.64,0,0,0,14.81,87.88l70.59-.2A14.66,14.66,0,0,0,100,73l-.14-46.8A14.63,14.63,0,0,0,85.19,11.63Zm9,61.4a8.79,8.79,0,0,1-8.75,8.8L14.8,82A8.78,8.78,0,0,1,6,73.28l-.14-46.8a8.78,8.78,0,0,1,8.75-8.8l70.59-.2A8.78,8.78,0,0,1,94,26.23Z"/></svg>
