<svg id="a428ac12-19bb-41d0-afab-3c9021229aec" data-name="Layer 1" xmlns="http://www.w3.org/2000/svg" viewBox="0 0 100 99.51"><defs></defs><path fill="current" d="M96.4,11.87H3.6a3.11,3.11,0,0,1,0-6.22H96.4a3.11,3.11,0,0,1,0,6.22Z"/><path fill="current" d="M96.4,52.86H3.6a3.11,3.11,0,0,1,0-6.22H96.4a3.11,3.11,0,0,1,0,6.22Z"/><path fill="current" d="M96.4,93.85H3.6a3.11,3.11,0,1,1,0-6.22H96.4a3.11,3.11,0,1,1,0,6.22Z"/><circle fill="current" cx="74.6" cy="8.94" r="8.94"/><circle fill="current" cx="30.15" cy="49.75" r="8.94"/><circle fill="current" cx="74.6" cy="90.56" r="8.94"/></svg>
