<svg id="ece36cde-d954-46a8-854b-186f7a64e21b" data-name="Layer 1" xmlns="http://www.w3.org/2000/svg" viewBox="0 0 100 99.51"><defs></defs><path fill="current" d="M14.91,94.84A14.84,14.84,0,0,1,7.58,92.9,14.76,14.76,0,0,1,0,79.86V19.62A14.75,14.75,0,0,1,7.71,6.55a15,15,0,0,1,15.19.38l48.77,30.2A14.79,14.79,0,0,1,78.83,50a14.47,14.47,0,0,1-7.22,12.4L22.88,92.57A15.39,15.39,0,0,1,14.91,94.84Zm.1-78.4a3.2,3.2,0,0,0-1.58.42,3.09,3.09,0,0,0-1.64,2.76V79.86a3,3,0,0,0,1.58,2.77,3.23,3.23,0,0,0,3.36-.11L65.61,52.25A2.72,2.72,0,0,0,67,49.85a3,3,0,0,0-1.55-2.68l0,0L16.68,16.94A3.06,3.06,0,0,0,15,16.44Z"/><path fill="current" d="M94.14,94.8a5.86,5.86,0,0,1-5.86-5.86V10.54a5.86,5.86,0,1,1,11.72,0v78.4A5.86,5.86,0,0,1,94.14,94.8Z"/></svg>
