<svg id="b11c9ed3-2b30-4220-a27f-422608d4fd03" data-name="Layer 1" xmlns="http://www.w3.org/2000/svg" viewBox="0 0 100 99.51"><defs></defs><rect fill="current" y="20.12" width="66.67" height="59.26" rx="12.96"/><rect fill="current" x="7.41" y="27.53" width="51.85" height="44.44" rx="5.56"/><path fill="current" d="M76.68,31.37,89,27.9a8.66,8.66,0,0,1,10.66,6,8.8,8.8,0,0,1,.32,2.34V63.28a8.64,8.64,0,0,1-8.64,8.64A8.42,8.42,0,0,1,89,71.6L76.68,68.14a8.64,8.64,0,0,1-6.31-8.32V39.69A8.63,8.63,0,0,1,76.68,31.37Z"/><path fill="current" d="M78.68,38.5a1.23,1.23,0,0,0-.9,1.19V59.82a1.24,1.24,0,0,0,.9,1.19L91,64.47a1.33,1.33,0,0,0,.34,0,1.24,1.24,0,0,0,1.23-1.24V36.23a1.27,1.27,0,0,0,0-.34A1.24,1.24,0,0,0,91,35Z"/></svg>
