<svg id="a63b4c4e-4887-4f63-994b-3566a1d9dc78" data-name="Layer 1" xmlns="http://www.w3.org/2000/svg" viewBox="0 0 100 99.51"><defs></defs><path fill="current" d="M100,91.32a6.32,6.32,0,0,1-5.7,6.88l-2.52.23a6.31,6.31,0,0,1-6.87-5.71l-.24-2.5c0-.09,0-.17,0-.25a54.85,54.85,0,0,0-58.72-48.4L37.78,54a6.26,6.26,0,0,1,0,8.85L36,64.6a6.25,6.25,0,0,1-8.85,0L2.05,38.26,1.81,38a6.26,6.26,0,0,1,0-8.85l.25-.25L27.4,2.86a6.26,6.26,0,0,1,8.85,0L38,4.67a6.26,6.26,0,0,1,0,8.85L25.54,26.32A69.83,69.83,0,0,1,99.78,88.86l0,0Z"/></svg>
