<svg id="b7dfb65b-ee87-4f49-9430-65512db0f520" data-name="Layer 1" xmlns="http://www.w3.org/2000/svg" viewBox="0 0 100 99.51"><defs></defs><path fill="current" d="M40.12,16.39a9.81,9.81,0,1,0,9.78,9.78A9.79,9.79,0,0,0,40.12,16.39Zm0,0a9.81,9.81,0,1,0,9.78,9.78A9.79,9.79,0,0,0,40.12,16.39Zm0,0a9.81,9.81,0,1,0,9.78,9.78A9.79,9.79,0,0,0,40.12,16.39ZM89.11,0h-85A3.27,3.27,0,0,0,.91,3.28v85a3.27,3.27,0,0,0,3.22,3.27H55A25.75,25.75,0,0,1,51.25,78,26.35,26.35,0,0,1,77.53,51.65a26,26,0,0,1,14.86,4.63v-53A3.28,3.28,0,0,0,89.11,0ZM85.89,41.14,75.1,30.4a3.24,3.24,0,0,0-4.63,0L41.76,59.11,26.11,43.45a3.42,3.42,0,0,0-4.69,0l-14,14V6.56H85.89ZM40.12,36a9.81,9.81,0,1,0-9.83-9.83A9.79,9.79,0,0,0,40.12,36Zm0-19.61a9.81,9.81,0,1,0,9.78,9.78A9.79,9.79,0,0,0,40.12,16.39Zm0,0a9.81,9.81,0,1,0,9.78,9.78A9.79,9.79,0,0,0,40.12,16.39Zm0,0a9.81,9.81,0,1,0,9.78,9.78A9.79,9.79,0,0,0,40.12,16.39Z"/><path fill="current" d="M77.56,56.43A21.54,21.54,0,1,0,99.09,78,21.54,21.54,0,0,0,77.56,56.43ZM89,79.09H78.67V89.43a1.12,1.12,0,1,1-2.23,0V79.09H66.09a1.12,1.12,0,0,1,0-2.24H76.44V66.51a1.12,1.12,0,1,1,2.23,0V76.85H89a1.12,1.12,0,0,1,0,2.24Z"/></svg>
