<svg id="ad581d80-33a5-4729-baf0-cf54f884ec0c" data-name="Layer 1" xmlns="http://www.w3.org/2000/svg" viewBox="0 0 100 99.51"><defs></defs><circle fill="current" cx="49.93" cy="73.57" r="4.86"/><path fill="current" d="M50.14,0A49.77,49.77,0,1,0,99.77,49.89,49.75,49.75,0,0,0,50.14,0Zm-.26,91.77A42,42,0,1,1,92,49.87,42,42,0,0,1,49.88,91.75Z"/><path fill="current" d="M50.07,25a15.57,15.57,0,0,0-15.6,15.51,3.89,3.89,0,0,0,7.78,0A7.78,7.78,0,1,1,50,48.3a3.87,3.87,0,0,0-3.89,3.87l0,9.72a3.89,3.89,0,1,0,7.77,0l0-6.32A15.55,15.55,0,0,0,50.07,25Z"/></svg>
