<svg id="ba21fc7a-3f7c-4108-9b36-771dbd8fa42c" data-name="Layer 1" xmlns="http://www.w3.org/2000/svg" viewBox="0 0 100 99.51"><defs></defs><path fill="current" d="M84.57,20.67,65.84,2.93A10.67,10.67,0,0,0,58.49,0H22.82a10.7,10.7,0,0,0-10.7,10.68l0,78.13A10.69,10.69,0,0,0,22.77,99.49l54.42,0A10.7,10.7,0,0,0,87.88,88.83l0-60.39A10.75,10.75,0,0,0,84.57,20.67Zm-5.66,2.67H64.4a1,1,0,0,1-1-1V8.68ZM77.19,93.69l-54.42,0a4.85,4.85,0,0,1-4.85-4.86l0-78.13a4.86,4.86,0,0,1,4.86-4.85H57.6V22.35a6.82,6.82,0,0,0,6.8,6.81H82.08l0,59.66A4.87,4.87,0,0,1,77.19,93.69Z"/><path fill="current" d="M70.8,38.88l-42.75,0a2.92,2.92,0,1,0,0,5.83l42.76,0a2.92,2.92,0,1,0,0-5.83Z"/><path fill="current" d="M70.79,54.43,28,54.41a2.92,2.92,0,1,0,0,5.83l42.75,0a2.92,2.92,0,1,0,0-5.83Z"/><path fill="current" d="M42.16,70H28a2.92,2.92,0,1,0,0,5.83H42.16a2.92,2.92,0,1,0,0-5.83Z"/></svg>
