<svg id="b6477afd-c8eb-4a2b-b5b7-699458094c76" data-name="Layer 1" xmlns="http://www.w3.org/2000/svg" viewBox="0 0 100 99.51"><defs></defs><path fill="current" d="M94,55.78a5.7,5.7,0,0,1-4-1.68l-44-44A5.73,5.73,0,0,1,54.05,2l44,44a5.73,5.73,0,0,1-4,9.78Z"/><path fill="current" d="M6,55.78a5.73,5.73,0,0,1-4-9.78L46,2a5.73,5.73,0,1,1,8.1,8.1l-44,44A5.7,5.7,0,0,1,6,55.78Z"/><path fill="current" d="M94,99.21a5.7,5.7,0,0,1-4-1.68l-44-44a5.73,5.73,0,0,1,8.1-8.1l44,44a5.73,5.73,0,0,1-4,9.78Z"/><path fill="current" d="M6,99.21a5.73,5.73,0,0,1-4-9.78l44-44a5.73,5.73,0,0,1,8.1,8.1l-44,44A5.7,5.7,0,0,1,6,99.21Z"/></svg>
