<svg id="e9857258-6b63-4013-b83e-6ca09fbe5104" data-name="Layer 1" xmlns="http://www.w3.org/2000/svg" viewBox="0 0 100 99.51"><defs></defs><path fill="current" d="M9.3,98l3.45-3.46L21,86.22l10-10,8.68-8.68c1.41-1.41,2.84-2.8,4.23-4.23l.06-.06a5.31,5.31,0,0,0,0-7.5,5.31,5.31,0,0,0-3.75-1.54,5.57,5.57,0,0,0-3.75,1.54L33.1,59.17l-8.29,8.28-10,10L6.1,86.17C4.69,87.58,3.26,89,1.87,90.4l-.06.06a5.31,5.31,0,0,0,0,7.5A5.3,5.3,0,0,0,5.56,99.5,5.46,5.46,0,0,0,9.3,98Z"/><path fill="current" d="M45.59,83.28V59.48a5.37,5.37,0,0,0-5.3-5.29H16.49a5.55,5.55,0,0,0-3.75,1.54,5.34,5.34,0,0,0,0,7.5,5.52,5.52,0,0,0,3.75,1.55h23.8L35,59.48v23.8A5.51,5.51,0,0,0,36.54,87,5.31,5.31,0,0,0,44,87a5.56,5.56,0,0,0,1.55-3.75Z"/><path fill="current" d="M90.7,1.55,87.25,5,79,13.29l-10,10L60.24,32C58.83,33.42,57.4,34.8,56,36.23L56,36.3a5.3,5.3,0,0,0,0,7.49,5.37,5.37,0,0,0,3.75,1.55,5.58,5.58,0,0,0,3.75-1.55l3.45-3.45,8.29-8.29,10-10,8.68-8.68c1.41-1.4,2.84-2.79,4.23-4.22l.06-.06A5.45,5.45,0,0,0,99.74,5.3,5.29,5.29,0,0,0,94.44,0,5.47,5.47,0,0,0,90.7,1.55Z"/><path fill="current" d="M54.4,16.22V40a5.38,5.38,0,0,0,5.3,5.3H83.5a5.56,5.56,0,0,0,3.75-1.55,5.32,5.32,0,0,0,0-7.49,5.47,5.47,0,0,0-3.75-1.55H59.7L65,40V16.22a5.5,5.5,0,0,0-1.54-3.74,5.31,5.31,0,0,0-7.5,0,5.54,5.54,0,0,0-1.55,3.74Z"/></svg>
