<svg xmlns="http://www.w3.org/2000/svg" viewBox="0 0 100 99.51"><defs></defs><g id="a00db311-511e-4e8b-af4c-60b778495b82" data-name="badges"><path fill="current" d="M50,0A34.54,34.54,0,0,0,33.58,64.92v7.13a3.6,3.6,0,0,0,3.59,3.6H62.71a3.6,3.6,0,0,0,3.6-3.6V64.93A34.51,34.51,0,0,0,50,0ZM61.22,59.43a3.6,3.6,0,0,0-2.11,3.27v5.76H40.77V62.7a3.62,3.62,0,0,0-2.09-3.27,27.38,27.38,0,1,1,22.54,0Z"/><path fill="current" d="M60,80.44H40.05a3.6,3.6,0,0,0,0,7.2H60a3.6,3.6,0,0,0,0-7.2Z"/><path fill="current" d="M54.2,92.31H45.8a3.6,3.6,0,0,0,0,7.2h8.4a3.6,3.6,0,0,0,0-7.2Z"/></g></svg>
