<svg id="e69b365e-03ed-49aa-8d90-ea1247127099" data-name="Layer 1" xmlns="http://www.w3.org/2000/svg" viewBox="0 0 100 99.51"><defs></defs><path fill="current" d="M77.4,91.16a2.61,2.61,0,0,1-2.6-2.6V11A2.6,2.6,0,1,1,80,11V88.56A2.6,2.6,0,0,1,77.4,91.16Z"/><path fill="current" d="M77.4,91.16a2.64,2.64,0,0,1-1.84-.76,2.61,2.61,0,0,1,0-3.68l20-20a2.6,2.6,0,1,1,3.68,3.68l-20,20A2.62,2.62,0,0,1,77.4,91.16Z"/><path fill="current" d="M77.4,91.16a2.64,2.64,0,0,1-1.84-.76l-20-20a2.6,2.6,0,0,1,3.67-3.68l20,20a2.6,2.6,0,0,1,0,3.68A2.62,2.62,0,0,1,77.4,91.16Z"/><path fill="current" d="M42.59,33.55a2.57,2.57,0,0,1-1.83-.77l-20-20a2.6,2.6,0,0,1,3.68-3.68l20,20a2.61,2.61,0,0,1-1.84,4.44Z"/><path fill="current" d="M2.6,33.55A2.61,2.61,0,0,1,.76,29.11l20-20a2.6,2.6,0,0,1,3.68,3.68l-20,20A2.59,2.59,0,0,1,2.6,33.55Z"/><path fill="current" d="M22.6,91.16a2.6,2.6,0,0,1-2.6-2.6V11a2.6,2.6,0,1,1,5.2,0V88.56A2.61,2.61,0,0,1,22.6,91.16Z"/></svg>
