<svg id="e731c79f-5856-4834-a4d4-950d5f3cae14" data-name="Layer 1" xmlns="http://www.w3.org/2000/svg" viewBox="0 0 100 99.51"><defs></defs><path fill="current" d="M91.33,59.62a3.89,3.89,0,0,0-7.21,2.91l4.57,11.33-13.59-6a3.85,3.85,0,0,0-3.1,0,37.48,37.48,0,0,1-14.8,3c-20.81,0-34.78-16.32-34.76-31.54,0-17.38,15.63-31.51,34.82-31.49S92,22,92,39.32a31.8,31.8,0,0,1-.35,4.46,3.89,3.89,0,1,0,7.69,1.15,38.87,38.87,0,0,0,.43-5.6A37.55,37.55,0,0,0,87.23,11.42,44.2,44.2,0,0,0,57.26,0a44.17,44.17,0,0,0-30,11.37A37.73,37.73,0,0,0,14.82,35.91C5.68,42,.27,51.63.26,62.07a30.13,30.13,0,0,0,5.94,18l-5.69,14a3.9,3.9,0,0,0,5.17,5L22.06,92a36.85,36.85,0,0,0,13,2.32h.28a36.84,36.84,0,0,0,18.3-5A33.45,33.45,0,0,0,65.38,77.87a44.41,44.41,0,0,0,8.08-2.24l20.85,9.21a3.75,3.75,0,0,0,1.56.34,3.89,3.89,0,0,0,3.61-5.35ZM35,86.49h-.16a29,29,0,0,1-11.35-2.33,3.89,3.89,0,0,0-3.1,0l-9.1,4,2.94-7.26a3.89,3.89,0,0,0-.64-4A22.72,22.72,0,0,1,8,62.07a23.17,23.17,0,0,1,7.2-16.55,39.21,39.21,0,0,0,11.49,21A43.37,43.37,0,0,0,55,78.53,28.58,28.58,0,0,1,35,86.49Z"/><circle fill="current" cx="57.04" cy="39.46" r="3.89"/><circle fill="current" cx="72.59" cy="39.48" r="3.89"/><circle fill="current" cx="41.49" cy="39.45" r="3.89"/></svg>
