<svg id="a55c3f22-a33d-47e0-947b-14af1741a48c" data-name="Layer 1" xmlns="http://www.w3.org/2000/svg" viewBox="0 0 100 99.51"><defs></defs><path fill="current" d="M76.82,29.91a9.33,9.33,0,1,0-9.32-9.33A9.34,9.34,0,0,0,76.82,29.91Zm0-14.59a5.26,5.26,0,1,1-5.25,5.26A5.27,5.27,0,0,1,76.82,15.32ZM23.55,69.6a9.33,9.33,0,1,0,9.33,9.33A9.34,9.34,0,0,0,23.55,69.6Zm0,14.59a5.26,5.26,0,1,1,5.26-5.26A5.27,5.27,0,0,1,23.55,84.19Zm71.05-26A16.75,16.75,0,0,0,79.18,47.72H55.9a6.24,6.24,0,0,0-11.8,0H20.82A12.65,12.65,0,0,1,9.47,40.5a6.24,6.24,0,0,0,0-10.67,12.65,12.65,0,0,1,11.35-7.22H60.33a16.63,16.63,0,1,0,0-4.07H20.82A16.76,16.76,0,0,0,5.4,29a6.24,6.24,0,0,0,0,12.37A16.76,16.76,0,0,0,20.82,51.79H44.1a6.24,6.24,0,0,0,11.8,0H79.18A12.65,12.65,0,0,1,90.53,59a6.23,6.23,0,0,0,0,10.66,12.65,12.65,0,0,1-11.35,7.22H40.05a16.63,16.63,0,1,0,0,4.07H79.18A16.75,16.75,0,0,0,94.6,70.52a6.24,6.24,0,0,0,0-12.36ZM76.82,8A12.56,12.56,0,1,1,64.27,20.58,12.58,12.58,0,0,1,76.82,8ZM6.58,37.3h0l-.29,0a2.17,2.17,0,1,1,0-4.33l.29,0h0a2.16,2.16,0,0,1,0,4.27ZM50,51.92a2.17,2.17,0,1,1,2.17-2.17A2.17,2.17,0,0,1,50,51.92ZM23.55,91.48A12.55,12.55,0,1,1,36.11,78.93,12.56,12.56,0,0,1,23.55,91.48Zm70.21-25-.29,0h0a2.17,2.17,0,0,1,0-4.28h0l.29,0a2.17,2.17,0,0,1,0,4.34Z"/></svg>
