<svg id="a50474c4-f740-4638-871b-fcd91496b81a" data-name="Layer 1" xmlns="http://www.w3.org/2000/svg" viewBox="0 0 100 99.51"><defs></defs><path fill="current" d="M0,57.93A12.48,12.48,0,0,1,16.36,46.09V27.22a2.93,2.93,0,0,1,2.93-2.93H38.16a12.59,12.59,0,0,1-.61-4.48,12.46,12.46,0,0,1,24.91.58,12.2,12.2,0,0,1-.62,3.9H80.71a2.93,2.93,0,0,1,2.93,2.94V46.09a12.79,12.79,0,0,1,4.44-.61A12.51,12.51,0,0,1,100,57.89v0A12.46,12.46,0,0,1,87.54,70.39a12.2,12.2,0,0,1-3.9-.62V88.64a2.94,2.94,0,0,1-2.93,2.94H60.28a4.79,4.79,0,0,1-4.08-2.25,4.84,4.84,0,0,1-.26-4.68,6.5,6.5,0,0,0,.65-2.85A6.57,6.57,0,0,0,50,75.22a6.66,6.66,0,0,0-6.57,6.29,6.52,6.52,0,0,0,.64,3.14,4.82,4.82,0,0,1-.27,4.68,4.76,4.76,0,0,1-4.07,2.25H19.29a2.94,2.94,0,0,1-2.93-2.94V69.77a12.71,12.71,0,0,1-4.42.61A12.5,12.5,0,0,1,0,58ZM22.23,30.16V47.65A4.82,4.82,0,0,1,15.31,52a6.58,6.58,0,0,0-7.52,1.29,6.6,6.6,0,0,0-1.92,4.65v0a6.65,6.65,0,0,0,6.31,6.54,6.52,6.52,0,0,0,3.12-.63,4.82,4.82,0,0,1,6.93,4.33V85.7H38.16a12.88,12.88,0,0,1-.61-4.45,12.46,12.46,0,0,1,24.91.55,12.16,12.16,0,0,1-.62,3.9H77.77V68.21a4.83,4.83,0,0,1,6.92-4.34,6.6,6.6,0,0,0,9.44-6,6.66,6.66,0,0,0-6.3-6.56A6.48,6.48,0,0,0,84.7,52a4.82,4.82,0,0,1-6.93-4.33V30.16H60.28a4.83,4.83,0,0,1-4.34-6.92,6.5,6.5,0,0,0,.65-2.85,6.59,6.59,0,1,0-12.53,2.85,4.82,4.82,0,0,1-4.34,6.92Z"/></svg>
