<svg xmlns="http://www.w3.org/2000/svg" viewBox="0 0 100 99.51"><defs></defs><g id="a09c0248-5d45-40ea-a0ea-049443e736dc" data-name="badges"><path fill="current" d="M50,0A49.76,49.76,0,1,1,24.45,92.45l-2.31-1.37L10,94.4a3.73,3.73,0,0,1-4.58-2.62,3.83,3.83,0,0,1,0-2L8.7,77.65C7.41,75.48,6.57,74,6.16,73.24A49.75,49.75,0,0,1,50,0Zm0,68.41a3.74,3.74,0,1,0,3.73,3.73A3.74,3.74,0,0,0,50,68.41Zm-.29-43.53a16.53,16.53,0,0,0-13.83,7.39A15.61,15.61,0,0,0,34,36.15a3.74,3.74,0,0,0,7.11,2.33,8,8,0,0,1,1-2.07,9,9,0,0,1,7.6-4,8.71,8.71,0,0,1,.48,17.42h-.48A3.74,3.74,0,0,0,46,53.51V61a3.74,3.74,0,1,0,7.47.31V56.83a16.14,16.14,0,0,0-3.73-31.95Z"/></g></svg>
