<svg id="a851d03a-b76c-4dcf-9414-c9cc93c879df" data-name="Layer 1" xmlns="http://www.w3.org/2000/svg" viewBox="0 0 100 99.51"><defs></defs><path fill="current" d="M88.45,63.58V77a22.47,22.47,0,0,1-.1,2.84l.21-1.54a12.07,12.07,0,0,1-.84,3c.2-.46.4-.93.58-1.38a11.74,11.74,0,0,1-1.55,2.62l.91-1.17a12.76,12.76,0,0,1-2,2l1.18-.9a13.09,13.09,0,0,1-2.62,1.55c.46-.2.92-.4,1.38-.58a12.69,12.69,0,0,1-3,.83l1.54-.21a23.48,23.48,0,0,1-3,.11H25.12c-2.5,0-5,0-7.51,0A13.06,13.06,0,0,1,16,84.14l1.54.21a12.49,12.49,0,0,1-3-.83l1.38.58a12.56,12.56,0,0,1-2.62-1.55l1.17.9a12.7,12.7,0,0,1-2-2l.91,1.17A12.18,12.18,0,0,1,11.74,80c.2.46.4.93.58,1.38a12.49,12.49,0,0,1-.83-3l.21,1.54A45,45,0,0,1,11.59,74V63.58a6,6,0,0,0-1.69-4.1,5.83,5.83,0,0,0-8.21,0A6,6,0,0,0,0,63.58V76a23.64,23.64,0,0,0,.81,7.53,18.46,18.46,0,0,0,4.16,7,18.23,18.23,0,0,0,6.78,4.3c2.92,1.14,6.05,1,9.11,1H77c1.82,0,3.64,0,5.46,0a16.38,16.38,0,0,0,6-1.06A17.48,17.48,0,0,0,100,78.11V63.59a6,6,0,0,0-1.69-4.1,5.83,5.83,0,0,0-8.21,0,6.18,6.18,0,0,0-1.65,4.09Z"/><path fill="current" d="M44.24,9.47v50c0,2.31,0,4.61,0,6.92v.11a6,6,0,0,0,1.7,4.1A5.84,5.84,0,0,0,50,72.32a5.91,5.91,0,0,0,4.1-1.69,6,6,0,0,0,1.7-4.1v-50c0-2.31,0-4.62,0-6.92V9.47a6,6,0,0,0-1.7-4.1A5.82,5.82,0,0,0,50,3.68a5.88,5.88,0,0,0-4.1,1.69,6,6,0,0,0-1.7,4.1Z"/><path fill="current" d="M54.13,70.61l6.7-6.7L71.52,53.22,74,50.76a5.83,5.83,0,0,0,0-8.21,5.87,5.87,0,0,0-4.11-1.69,6.08,6.08,0,0,0-4.1,1.69l-6.7,6.7L48.38,59.94,45.93,62.4a5.81,5.81,0,0,0,0,8.21A5.87,5.87,0,0,0,50,72.3a6,6,0,0,0,4.1-1.69Z"/><path fill="current" d="M54.13,62.41l-6.7-6.7L36.75,45l-2.46-2.45a5.81,5.81,0,0,0-8.21,0,5.82,5.82,0,0,0-1.69,4.1,6.08,6.08,0,0,0,1.69,4.1l6.7,6.7L43.47,68.16l2.46,2.46a5.82,5.82,0,0,0,8.2,0,5.83,5.83,0,0,0,1.69-4.11,5.9,5.9,0,0,0-1.69-4.1Z"/></svg>
