<svg id="a6d30e03-e978-495b-a9aa-514b1520f20c" data-name="Layer 1" xmlns="http://www.w3.org/2000/svg" viewBox="0 0 100 99.51"><defs></defs><path fill="current" d="M79.33,0H20.67A20.38,20.38,0,0,0,.25,20.42V79.08A20.45,20.45,0,0,0,20.67,99.51H79.33A20.45,20.45,0,0,0,99.75,79.08V20.42A20.38,20.38,0,0,0,79.33,0ZM92,79.08A12.65,12.65,0,0,1,79.33,91.76H20.67A12.65,12.65,0,0,1,8,79.08V20.42A12.65,12.65,0,0,1,20.67,7.75H79.33A12.65,12.65,0,0,1,92,20.42Z"/><path fill="current" d="M68.75,59.08a3.84,3.84,0,0,0-5.13,1.78,15.18,15.18,0,0,1-27.24,0,3.84,3.84,0,1,0-6.91,3.35,22.88,22.88,0,0,0,41.06,0A3.86,3.86,0,0,0,68.75,59.08Z"/><circle fill="current" cx="32.82" cy="37.18" r="6.91"/><circle fill="current" cx="67.18" cy="37.18" r="6.91"/></svg>
