<svg id="e070d394-c6fa-495e-a1b5-dbea03c50591" data-name="Layer 1" xmlns="http://www.w3.org/2000/svg" viewBox="0 0 100 99.51"><defs></defs><circle fill="current" cx="32.82" cy="37.18" r="6.91"/><circle fill="current" cx="67.18" cy="37.18" r="6.91"/><path fill="current" d="M78.8,0H21.2A21,21,0,0,0,.25,21V78.56a21,21,0,0,0,21,21H78.8a21,21,0,0,0,21-21V21A21,21,0,0,0,78.8,0ZM90.33,78.56A11.56,11.56,0,0,1,78.8,90.08H21.2A11.56,11.56,0,0,1,9.67,78.56V21A11.56,11.56,0,0,1,21.2,9.43H78.8A11.56,11.56,0,0,1,90.33,21Z"/><path fill="current" d="M60.37,62.85H39.63a4.71,4.71,0,0,0,0,9.42H60.47a4.69,4.69,0,0,0,4.72-4.71A4.78,4.78,0,0,0,60.37,62.85Z"/></svg>
