<svg id="bcf4c7f7-11ce-4d92-9536-4c16c0cea821" data-name="Layer 1" xmlns="http://www.w3.org/2000/svg" viewBox="0 0 100 99.51"><defs></defs><path fill="current" d="M81.17,37.83H77.52V27.56a27.54,27.54,0,1,0-55.08,0V37.81H18.81a6.53,6.53,0,0,0-6.52,6.52V93a6.53,6.53,0,0,0,6.52,6.52H81.19A6.53,6.53,0,0,0,87.71,93V44.33a6.55,6.55,0,0,0-6.54-6.5ZM30.73,27.54a19.25,19.25,0,0,1,38.5,0V37.79H30.73V27.54ZM79.38,91.22H20.57V46.12H79.41v45.1Z"/><path fill="current" d="M50,85a4.14,4.14,0,0,0,4.14-4.15V70.2a4.14,4.14,0,0,0-8.28,0V80.88A4.14,4.14,0,0,0,50,85Z"/></svg>
