<svg id="ff232520-8295-4b4b-a582-ebf5b5247e0a" data-name="Layer 1" xmlns="http://www.w3.org/2000/svg" viewBox="0 0 100 99.51"><defs></defs><path fill="current" d="M98.07,15.38l-6.92-3.57a39.49,39.49,0,0,0-35.89,0L50,14.54l-5.28-2.73a39.47,39.47,0,0,0-35.88,0L1.93,15.38A3.58,3.58,0,0,0,0,18.56V88.44a3.57,3.57,0,0,0,5.21,3.17l6.89-3.56a32.28,32.28,0,0,1,29.35,0l6.91,3.57a3.69,3.69,0,0,0,.84.31h0l.18,0h.06l.16,0h.65l.13,0h.11l.13,0,.1,0,.13,0,.1,0,.13,0,.09,0,.15-.06.07,0,.22-.1,6.89-3.56a32.28,32.28,0,0,1,29.35,0l6.91,3.57a3.52,3.52,0,0,0,1.64.4A3.56,3.56,0,0,0,100,88.44V18.56A3.6,3.6,0,0,0,98.07,15.38ZM46.43,82.57l-1.71-.88a39.51,39.51,0,0,0-35.89,0l-1.69.88V20.73l5-2.57a32.31,32.31,0,0,1,29.35,0l5,2.57Zm46.43,0-1.71-.88a39.51,39.51,0,0,0-35.89,0l-1.69.88V20.73l5-2.57a32.31,32.31,0,0,1,29.35,0l5,2.57Z"/></svg>
