<svg xmlns="http://www.w3.org/2000/svg" viewBox="0 0 100 99.51"><defs></defs><g id="a519eb72-2e1e-4b34-b640-76ff9e14c90b" data-name="badges"><path fill="current" d="M12.69,93.29a6.23,6.23,0,0,1-4.4-10.62L82.92,8a6.22,6.22,0,1,1,8.79,8.8L17.08,91.46A6.16,6.16,0,0,1,12.69,93.29ZM22,43.53A21.77,21.77,0,1,1,43.78,21.77,21.78,21.78,0,0,1,22,43.53Zm0-31.09a9.33,9.33,0,1,0,9.33,9.33A9.33,9.33,0,0,0,22,12.44ZM78,99.51A21.77,21.77,0,1,1,99.75,77.74,21.79,21.79,0,0,1,78,99.51Zm0-31.1a9.33,9.33,0,1,0,9.32,9.33A9.34,9.34,0,0,0,78,68.41Z"/></g></svg>
