<svg id="e3e65ec4-a5fb-45eb-9e95-1662af92ca39" data-name="Layer 1" xmlns="http://www.w3.org/2000/svg" viewBox="0 0 100 99.51"><defs></defs><path fill="current" d="M83.17,8.29H79V4.15a4.15,4.15,0,1,0-8.29,0V8.29H54.15V4.15a4.15,4.15,0,0,0-8.3,0V8.29H29.27V4.15a4.15,4.15,0,1,0-8.29,0V8.29H16.83A16.58,16.58,0,0,0,.25,24.88v58A16.58,16.58,0,0,0,16.83,99.51H83.17A16.58,16.58,0,0,0,99.75,82.92v-58A16.58,16.58,0,0,0,83.17,8.29ZM16.83,16.58H21v4.15a4.15,4.15,0,1,0,8.29,0V16.58H45.85v4.15a4.15,4.15,0,0,0,8.3,0V16.58H70.73v4.15a4.15,4.15,0,1,0,8.29,0V16.58h4.15a8.3,8.3,0,0,1,8.29,8.3v8.29H8.54V24.88A8.3,8.3,0,0,1,16.83,16.58ZM83.17,91.21H16.83a8.29,8.29,0,0,1-8.29-8.29V41.46H91.46V82.92A8.29,8.29,0,0,1,83.17,91.21Z"/><circle fill="current" cx="25.12" cy="58.05" r="4.15"/><circle fill="current" cx="25.12" cy="74.63" r="4.15"/><circle fill="current" cx="41.71" cy="58.05" r="4.15"/><circle fill="current" cx="41.71" cy="74.63" r="4.15"/><circle fill="current" cx="58.29" cy="58.05" r="4.15"/><circle fill="current" cx="58.29" cy="74.63" r="4.15"/><circle fill="current" cx="74.88" cy="58.05" r="4.15"/><circle fill="current" cx="74.88" cy="74.63" r="4.15"/></svg>
