<svg id="b2e29324-20a1-4c07-bd02-34dd40c2162e" data-name="Layer 1" xmlns="http://www.w3.org/2000/svg" viewBox="0 0 100 99.51"><defs></defs><path fill="current" d="M76.62,72.92l0-38.65v0h0l-.11-8.08a3.42,3.42,0,0,0-6.83.14l.13,8h0l0,38.64a19.77,19.77,0,1,1-39.54,0l0-19.32h0V49.52l0-22.91h0V18.88a12,12,0,0,1,24.07,0l0,34.78h0l0,19.3a4.32,4.32,0,0,1-8.64,0l0-19.32V34.31a3.41,3.41,0,1,0-6.81,0l0,19.31,0,19.32a11.14,11.14,0,1,0,22.27,0h0l0-19.31h0l0-34.78a18.87,18.87,0,0,0-37.73.05l0,28.67V73a26.6,26.6,0,1,0,53.19,0Z"/></svg>
