<svg id="ebdd9f4d-6a93-477e-94bd-a1a0d4aaa683" data-name="Layer 1" xmlns="http://www.w3.org/2000/svg" viewBox="0 0 100 99.51"><defs></defs><path fill="current" d="M91,34.37H89.34a6.58,6.58,0,0,1-5.77-3.32c-.19-.35-.38-.7-.6-1a6.57,6.57,0,0,1,0-6.64l.81-1.4a9.06,9.06,0,0,0-3.3-12.35l-11-6.35A9,9,0,0,0,57.16,6.58L56.35,8A7.1,7.1,0,0,1,50,11.32h0A7.05,7.05,0,0,1,43.65,8l-.81-1.4A9,9,0,0,0,30.5,3.27l-11,6.35A9.05,9.05,0,0,0,16.2,22L17,23.33a6.85,6.85,0,0,1-.11,6.89c0,.05-.17.29-.2.34l-.09.16a6.89,6.89,0,0,1-6,3.65H9a9,9,0,0,0-9,9V56.09a9,9,0,0,0,9,9h1.63a6.55,6.55,0,0,1,5.77,3.31,11.73,11.73,0,0,0,.6,1,6.57,6.57,0,0,1,0,6.64l-.81,1.41a9,9,0,0,0,3.3,12.34l11,6.35a9,9,0,0,0,12.34-3.31l.81-1.4a7.1,7.1,0,0,1,6.4-3.33h0a6.66,6.66,0,0,1,6.29,3.33l.8,1.4a9,9,0,0,0,12.34,3.31h0l11-6.35a9.05,9.05,0,0,0,3.31-12.35L83,76.17a6.85,6.85,0,0,1,.11-6.89l.3-.5a6.87,6.87,0,0,1,5.93-3.64H91a9.05,9.05,0,0,0,9-9V43.41A9,9,0,0,0,91,34.37ZM50,69A19.23,19.23,0,1,1,69.23,49.75,19.23,19.23,0,0,1,50,69Z"/></svg>
