<svg xmlns="http://www.w3.org/2000/svg" viewBox="0 0 100 99.51"><defs></defs><g id="a8829a9f-7ffb-4297-9877-34b254e6f575" data-name="badges"><path fill="current" d="M25.12,0a3.55,3.55,0,0,0-3.55,3.55V7.11H14.46A14.26,14.26,0,0,0,.25,21.32v64A14.27,14.27,0,0,0,14.46,99.51H85.54A14.27,14.27,0,0,0,99.75,85.29v-64A14.26,14.26,0,0,0,85.54,7.11H78.43V3.55a3.56,3.56,0,0,0-7.11,0V7.11H53.55V3.55a3.55,3.55,0,1,0-7.1,0V7.11H28.68V3.55A3.55,3.55,0,0,0,25.12,0ZM14.46,14.22h7.11v3.55a3.56,3.56,0,0,0,7.11,0V14.22H46.45v3.55a3.55,3.55,0,1,0,7.1,0V14.22H71.32v3.55a3.56,3.56,0,0,0,7.11,0V14.22h7.11a7,7,0,0,1,7.11,7.1v7.11H7.35V21.32A7,7,0,0,1,14.46,14.22ZM50.07,42.31a3.38,3.38,0,0,1,3.27,2.21l4,11,11.74.37a3.55,3.55,0,0,1,2.08,6.35l-9.28,7.2,3.28,11.27a3.56,3.56,0,0,1-5.42,3.93L50,78.09,40.3,84.68a3.56,3.56,0,0,1-5.42-3.93l3.26-11.26L28.87,62.3a3.55,3.55,0,0,1,2.06-6.36l11.74-.38,4-11A3.35,3.35,0,0,1,50.07,42.31ZM50,56.19l-1.46,4a3.55,3.55,0,0,1-3.23,2.35L41,62.72l3.39,2.63a3.54,3.54,0,0,1,1.24,3.8l-1.19,4.11L48,70.85a3.58,3.58,0,0,1,4,0l3.56,2.41-1.2-4.12a3.55,3.55,0,0,1,1.23-3.8L59,62.71l-4.29-.13a3.55,3.55,0,0,1-3.23-2.35Z"/></g></svg>
