<svg id="a0a66330-3ea8-4007-b726-3da8053172e9" data-name="Layer 1" xmlns="http://www.w3.org/2000/svg" viewBox="0 0 100 99.51"><circle cx="49.91" cy="72.21" r="4.99" style="fill:current"/><path d="M50,22.31A16,16,0,0,0,34,38.23a4,4,0,0,0,8,0,8,8,0,1,1,8,8,4,4,0,0,0-4,4l0,10a4,4,0,0,0,8,0l0-6.49A16,16,0,0,0,50,22.31Z" style="fill:current"/><path d="M50,99.51A49.76,49.76,0,1,1,99.75,49.75,49.81,49.81,0,0,1,50,99.51ZM50,7.7A42.06,42.06,0,1,0,92.06,49.75,42.1,42.1,0,0,0,50,7.7Z" style="fill:current"/></svg>