<svg xmlns="http://www.w3.org/2000/svg" viewBox="0 0 100 99.51"><defs></defs><g id="b47b33e0-4682-4a30-a3f3-a02e5874b121" data-name="badges"><path fill="current" d="M95,11.67H71.08V6.47C71.08,2.81,67.71,0,63.49,0h-27c-4.22,0-7.59,2.81-7.59,6.47v5.2H5A4.22,4.22,0,1,0,5,20.1h5.2l5.2,65.49A14.07,14.07,0,0,0,29.48,99.51h40.9A14.07,14.07,0,0,0,84.43,85.59l5.34-65.35H95A4.15,4.15,0,0,0,99.19,16,4.26,4.26,0,0,0,95,11.67ZM37.35,8.43h25.3v3.24H37.35ZM39,76.88H38.9a4.3,4.3,0,0,1-4.22-4.08L33.13,38.51a4.07,4.07,0,0,1,4.08-4.36h.14a4.3,4.3,0,0,1,4.22,4.08l1.54,34.29A4.32,4.32,0,0,1,39,76.88ZM65.32,72.8a4.3,4.3,0,0,1-4.22,4.08H61a4.32,4.32,0,0,1-4.07-4.36l1.54-34.29a4.3,4.3,0,0,1,4.22-4.08h.14a4.33,4.33,0,0,1,4.08,4.36Z"/></g></svg>
