<svg xmlns="http://www.w3.org/2000/svg" viewBox="0 0 100 99.51"><defs></defs><g id="e56e7086-24f6-4cb1-bdc4-6f3e0ca9c83a" data-name="badges"><path fill="current" d="M79.27,5.85H73.41V2.93a2.93,2.93,0,1,0-5.85,0V5.85H32.44V2.93a2.93,2.93,0,1,0-5.85,0V5.85H20.73A17.57,17.57,0,0,0,3.17,23.41V82A17.57,17.57,0,0,0,20.73,99.51H79.27A17.57,17.57,0,0,0,96.83,82V23.41A17.57,17.57,0,0,0,79.27,5.85ZM91,82a11.7,11.7,0,0,1-11.7,11.7H20.73A11.7,11.7,0,0,1,9,82V35.12H91ZM52.93,79A2.93,2.93,0,1,1,50,76.09,2.93,2.93,0,0,1,52.93,79Zm0-29.27V67.31h0a2.93,2.93,0,1,1-5.86,0h0V49.75h0a2.93,2.93,0,0,1,5.86,0Z"/></g></svg>
