<svg id="bed637fd-bf0b-45c6-ab11-ea4a038b7c23" data-name="Layer 1" xmlns="http://www.w3.org/2000/svg" viewBox="0 0 100 99.51"><defs></defs><path fill="current" d="M68.09,31.62,26.85,73.05a4,4,0,0,1-5.72,0L.59,52.37a2,2,0,0,1,0-2.88l2.86-2.88a2,2,0,0,1,2.86,0L22.61,63a2,2,0,0,0,2.86,0L62.38,25.86a2,2,0,0,1,2.86,0l2.86,2.88A2,2,0,0,1,68.09,31.62Zm31.33-2.88L96.6,25.86a2,2,0,0,0-2.82,0L57.42,63a2,2,0,0,1-2.82,0l-2.92-3a2,2,0,0,0-2.82,0L46,62.91a2.08,2.08,0,0,0,0,2.89l7.1,7.25a3.92,3.92,0,0,0,5.63,0L99.41,31.62A2.06,2.06,0,0,0,99.42,28.74Z"/></svg>
