<svg id="a50de665-a3f1-414f-adb9-99939d869317" data-name="Layer 1" xmlns="http://www.w3.org/2000/svg" viewBox="0 0 100 99.51"><defs></defs><path fill="current" d="M38.1,32.45a13,13,0,1,1,13,13A13,13,0,0,1,38.1,32.45Zm22.57,14.4a17.3,17.3,0,1,0-19.18,0c-14.52,4.43-25,18.67-25,35.35a2.17,2.17,0,0,0,4.33,0c0-18,13.69-32.45,30.28-32.45S81.37,64.15,81.37,82.2a2.16,2.16,0,1,0,4.32,0C85.69,65.52,75.19,51.28,60.67,46.85Zm11-2.5a2.17,2.17,0,0,1,2.16-2.17,8.65,8.65,0,1,0,0-17.3,2.17,2.17,0,0,1,0-4.33A13,13,0,0,1,82,43.6C92.39,47.34,99.75,58,99.75,70.3a2.16,2.16,0,1,1-4.32,0c0-13.32-9.86-23.79-21.64-23.79A2.16,2.16,0,0,1,71.63,44.35Zm-43.26,0a2.17,2.17,0,0,0-2.16-2.17,8.65,8.65,0,1,1,0-17.3,2.17,2.17,0,0,0,0-4.33A13,13,0,0,0,18,43.6C7.61,47.34.25,58,.25,70.3a2.16,2.16,0,1,0,4.32,0c0-13.32,9.86-23.79,21.64-23.79A2.16,2.16,0,0,0,28.37,44.35Z"/></svg>
