<svg id="a3fd1449-cf86-46d0-ad0d-efe88a423796" data-name="Layer 1" xmlns="http://www.w3.org/2000/svg" viewBox="0 0 100 99.51"><defs></defs><path fill="current" d="M87.45,81H12.55A12.49,12.49,0,0,1,.06,68.48V18.54A12.49,12.49,0,0,1,12.55,6.06h74.9A12.49,12.49,0,0,1,99.94,18.54V68.48A12.49,12.49,0,0,1,87.45,81ZM12.55,12.3A6.24,6.24,0,0,0,6.3,18.54V68.48a6.24,6.24,0,0,0,6.25,6.24h74.9a6.24,6.24,0,0,0,6.25-6.24V18.54a6.24,6.24,0,0,0-6.25-6.24Z"/><path fill="current" d="M50,71.6a3.12,3.12,0,0,1-2.2-.9,2.63,2.63,0,0,1-.39-.49,2.86,2.86,0,0,1-.3-.54,2.41,2.41,0,0,1-.17-.58,3.13,3.13,0,0,1,0-1.22,2.41,2.41,0,0,1,.17-.58,2.86,2.86,0,0,1,.3-.54,2.22,2.22,0,0,1,.39-.47,3.22,3.22,0,0,1,4.42,0,3.81,3.81,0,0,1,.67,1,3.86,3.86,0,0,1,.17.58,3.13,3.13,0,0,1,0,1.22,3.86,3.86,0,0,1-.17.58,2.86,2.86,0,0,1-.3.54,4.49,4.49,0,0,1-.37.49A3.12,3.12,0,0,1,50,71.6Z"/><path fill="current" d="M65.61,93.45H34.39a3.12,3.12,0,1,1,0-6.24H65.61a3.12,3.12,0,0,1,0,6.24Z"/><path fill="current" d="M59.36,93.45a3.12,3.12,0,0,1-3.12-3.12V77.84a3.12,3.12,0,1,1,6.24,0V90.33A3.12,3.12,0,0,1,59.36,93.45Z"/><path fill="current" d="M40.64,93.45a3.12,3.12,0,0,1-3.12-3.12V77.84a3.12,3.12,0,0,1,6.24,0V90.33A3.12,3.12,0,0,1,40.64,93.45Z"/></svg>
