<svg id="ad3ce0ab-bac7-442c-84f1-da1ed693799b" data-name="Layer 1" xmlns="http://www.w3.org/2000/svg" viewBox="0 0 100 99.51"><defs></defs><path fill="current" d="M67.39,61.17H24c-13.44,0-13.44-14.3-13.44-25.79a2.71,2.71,0,1,1,5.42,0c0,13.84.79,20.37,8,20.37H67.39a2.71,2.71,0,0,1,0,5.42Z"/><path fill="current" d="M88,84.24H44.59c-13.44,0-13.44-14.9-13.44-25.78a2.71,2.71,0,0,1,5.42,0c0,14.08,1.16,20.36,8,20.36H88a2.71,2.71,0,0,1,0,5.42Z"/><path fill="current" d="M13.22,38.42A13.22,13.22,0,1,1,26.43,25.2,13.23,13.23,0,0,1,13.22,38.42Zm0-20.35a7.14,7.14,0,1,0,7.13,7.13A7.14,7.14,0,0,0,13.22,18.07Z"/><circle fill="current" cx="71.12" cy="58.46" r="5.98"/><circle fill="current" cx="94.02" cy="81.53" r="5.98"/></svg>
