<svg id="ae430502-b5e1-47d4-ae4c-7e2d29e93121" data-name="Layer 1" xmlns="http://www.w3.org/2000/svg" viewBox="0 0 100 99.51"><defs></defs><path fill="current" d="M20.28,53.06,7.07,39.85a23.35,23.35,0,0,1,33-33L59.91,26.64a23.38,23.38,0,0,1,0,33,4.67,4.67,0,0,1-6.61-6.6,14,14,0,0,0,0-19.82L33.49,13.43A14,14,0,0,0,13.68,33.24L26.89,46.45a4.67,4.67,0,0,1-6.61,6.61Z"/><path fill="current" d="M59.91,92.68,40.09,72.87a23.38,23.38,0,0,1,0-33,4.67,4.67,0,0,1,6.61,6.6,14,14,0,0,0,0,19.81L66.51,86.07A14,14,0,0,0,86.32,66.26L73.11,53.06a4.67,4.67,0,1,1,6.61-6.61L92.93,59.66a23.35,23.35,0,0,1-33,33Z"/></svg>
