<svg id="b9ca38be-def1-47ad-a3f7-f64af587f25d" data-name="Layer 1" xmlns="http://www.w3.org/2000/svg" viewBox="0 0 100 99.51"><defs></defs><circle fill="current" cx="32.82" cy="37.18" r="6.91"/><circle fill="current" cx="67.18" cy="37.18" r="6.91"/><path fill="current" d="M78.8,0H21.2A21,21,0,0,0,.25,21V78.56a21,21,0,0,0,21,21H78.8a21,21,0,0,0,21-21V21A21,21,0,0,0,78.8,0ZM90.33,78.56A11.56,11.56,0,0,1,78.8,90.08H21.2A11.56,11.56,0,0,1,9.67,78.56V21A11.56,11.56,0,0,1,21.2,9.43H78.8A11.56,11.56,0,0,1,90.33,21Z"/><path fill="current" d="M50,54.26A23.38,23.38,0,0,0,29.05,67.35a4.65,4.65,0,0,0,2.2,6.28,4.71,4.71,0,0,0,6.39-2.09,13.9,13.9,0,0,1,24.93,0,4.71,4.71,0,1,0,8.48-4.09A23.24,23.24,0,0,0,50,54.26Z"/></svg>
