<svg xmlns="http://www.w3.org/2000/svg" viewBox="0 0 100 99.51"><defs></defs><g id="ffd41e47-dc3a-4467-b946-b1c877f0b453" data-name="badges"><path fill="current" d="M36.6,0H9.81A9.57,9.57,0,0,0,.25,9.57V36.36a9.57,9.57,0,0,0,9.56,9.57H36.6a9.58,9.58,0,0,0,9.57-9.57V9.57A9.58,9.58,0,0,0,36.6,0Zm5.75,36.36A5.74,5.74,0,0,1,36.6,42.1H9.81a5.74,5.74,0,0,1-5.74-5.74V9.57A5.74,5.74,0,0,1,9.81,3.83H36.6a5.74,5.74,0,0,1,5.75,5.74ZM90.19,0H63.4a9.58,9.58,0,0,0-9.57,9.57V36.36a9.58,9.58,0,0,0,9.57,9.57H90.19a9.57,9.57,0,0,0,9.56-9.57V9.57A9.57,9.57,0,0,0,90.19,0Zm5.74,36.36a5.74,5.74,0,0,1-5.74,5.74H63.4a5.74,5.74,0,0,1-5.75-5.74V9.57A5.74,5.74,0,0,1,63.4,3.83H90.19a5.74,5.74,0,0,1,5.74,5.74ZM36.6,53.58H9.81A9.57,9.57,0,0,0,.25,63.15V89.94a9.57,9.57,0,0,0,9.56,9.57H36.6a9.58,9.58,0,0,0,9.57-9.57V63.15A9.58,9.58,0,0,0,36.6,53.58Zm5.75,36.36a5.74,5.74,0,0,1-5.75,5.74H9.81a5.74,5.74,0,0,1-5.74-5.74V63.15a5.74,5.74,0,0,1,5.74-5.74H36.6a5.74,5.74,0,0,1,5.75,5.74ZM76.79,53.58a23,23,0,1,0,23,23A23,23,0,0,0,76.79,53.58Zm0,42.1A19.14,19.14,0,1,1,95.93,76.54,19.14,19.14,0,0,1,76.79,95.68Z"/></g></svg>
