<svg id="bcbd0d89-ca5b-4ab8-95a6-af87a656043a" data-name="Layer 1" xmlns="http://www.w3.org/2000/svg" viewBox="0 0 100 99.51"><defs></defs><path fill="current" d="M93.82,9.08a3.08,3.08,0,0,0-5.15-1.47l-5.26,5.26A50,50,0,0,0,14.67,85.4c.63.63,1.26,1.16,1.78,1.79A5.25,5.25,0,0,0,20,88.56a5.41,5.41,0,0,0,4-1.79,5.34,5.34,0,0,0-.42-7.57l-1.47-1.37A39.33,39.33,0,0,1,75.85,20.44l-5.79,5.78a3.08,3.08,0,0,0,1.48,5.15l24.59,6a3.16,3.16,0,0,0,3.79-3.78Z"/><path fill="current" d="M67.65,54.81,55.35,47V27.38a5.37,5.37,0,1,0-10.73,0V49.87a5.32,5.32,0,0,0,2.53,4.52l14.71,9.36a5.67,5.67,0,0,0,2.84.84,5.22,5.22,0,0,0,4.52-2.52A5.1,5.1,0,0,0,67.65,54.81Z"/><path fill="current" d="M39.79,87.93l-2-.64a5.32,5.32,0,1,0-3.36,10.1,23.9,23.9,0,0,0,2.52.73,5.91,5.91,0,0,0,1.37.21,5.36,5.36,0,0,0,5.15-4A5.13,5.13,0,0,0,39.79,87.93Z"/><path fill="current" d="M58,88.45l-2.1.32a5.35,5.35,0,0,0-4.52,6.09,5.5,5.5,0,0,0,5.26,4.63,2.51,2.51,0,0,0,.84-.11c.84-.1,1.79-.31,2.63-.42a5.37,5.37,0,0,0,4.2-6.3A5.52,5.52,0,0,0,58,88.45Z"/><path fill="current" d="M74.37,80.88l-1.68,1.26a5.37,5.37,0,0,0-1.26,7.47A5.37,5.37,0,0,0,78.89,91c.74-.52,1.48-1,2.11-1.57a5.36,5.36,0,0,0,.84-7.57A5.25,5.25,0,0,0,74.37,80.88Z"/></svg>
