<?xml version="1.0" encoding="utf-8"?>
<svg version="1.1" id="Layer_1" xmlns="http://www.w3.org/2000/svg" xmlns:xlink="http://www.w3.org/1999/xlink" x="0px" y="0px"
	 viewBox="0 0 100 99.5" style="enable-background:new 0 0 100 99.5;" xml:space="preserve">
<g>
	<path fill="current" d="M93.1,49.8c0,23.8-19.3,43.2-43.1,43.2c-23.8,0-43.2-19.3-43.2-43.1C6.8,26,26.1,6.6,49.9,6.6
		c11.6,0,22.7,4.7,30.9,13c1.3,1.3,3.4,1.3,4.7,0c0.6-0.6,1-1.5,1-2.4v-14C86.5,1.5,85,0,83.2,0s-3.3,1.5-3.3,3.3c0,0,0,0,0,0V10
		C57.9-6.5,26.7-2,10.2,20s-12,53.2,10,69.7s53.2,12,69.7-10c6.5-8.6,10-19.1,9.9-29.9c-0.1-1.8-1.7-3.2-3.5-3.1
		C94.6,46.8,93.2,48.1,93.1,49.8L93.1,49.8z"/>
	<g>
		<path fill="current" d="M50,13.3c-20.2,0-36.5,16.3-36.5,36.5S29.8,86.2,50,86.2s36.5-16.3,36.5-36.5v0C86.5,29.6,70.2,13.3,50,13.3z
			 M65.6,65.6c-1.4,1.2-3.5,1.1-4.7-0.2L47.7,52.1c-0.6-0.6-1-1.5-1-2.4V29.9c0-1.8,1.5-3.3,3.3-3.3s3.3,1.5,3.3,3.3v18.5l12.3,12.3
			c0.1,0.1,0.2,0.1,0.2,0.2C67.1,62.3,67,64.4,65.6,65.6z"/>
	</g>
</g>
</svg>
