<svg id="e96c3216-b54f-44e6-b98d-5dbab46654b2" data-name="Layer 1" xmlns="http://www.w3.org/2000/svg" viewBox="0 0 100 99.51"><defs></defs><path fill="current" d="M79.33,0H20.67A20.38,20.38,0,0,0,.25,20.42V79.08A20.45,20.45,0,0,0,20.67,99.51H79.33A20.45,20.45,0,0,0,99.75,79.08V20.42A20.38,20.38,0,0,0,79.33,0ZM92,79.08A12.65,12.65,0,0,1,79.33,91.76H20.67A12.65,12.65,0,0,1,8,79.08V20.42A12.65,12.65,0,0,1,20.67,7.75H79.33A12.65,12.65,0,0,1,92,20.42Z"/><circle fill="current" cx="32.82" cy="33.41" r="6.91"/><circle fill="current" cx="67.18" cy="33.41" r="6.91"/><path fill="current" d="M62.36,52H37.64a9.22,9.22,0,0,0-7.86,4.3,9.4,9.4,0,0,0-.73,8.8A23.08,23.08,0,0,0,50,78.77,22.8,22.8,0,0,0,71,65.05,9.38,9.38,0,0,0,62.36,52ZM63.93,62a15.21,15.21,0,0,1-27.86,0,1.64,1.64,0,0,1,.1-1.47,1.75,1.75,0,0,1,1.47-.73H62.36a1.92,1.92,0,0,1,1.47.73A1.58,1.58,0,0,1,63.93,62Z"/></svg>
