<svg id="bf60d2db-3a34-4fca-a823-fd32218d5363" data-name="Layer 1" xmlns="http://www.w3.org/2000/svg" viewBox="0 0 100 99.51"><defs></defs><path fill="current" d="M23,99.51a16.54,16.54,0,0,1-8.09-2.14A16.33,16.33,0,0,1,6.51,83V16.5A16.28,16.28,0,0,1,15,2.08a16.5,16.5,0,0,1,16.76.42L85.59,35.82A16.31,16.31,0,0,1,93.49,50a16,16,0,0,1-8,13.74L31.76,97A16.9,16.9,0,0,1,23,99.51ZM23.07,13a3.7,3.7,0,0,0-1.75.46,3.45,3.45,0,0,0-1.81,3.05V83a3.35,3.35,0,0,0,1.75,3A3.56,3.56,0,0,0,25,85.9L78.75,52.6a3.15,3.15,0,0,0,1.74-2.74,3.41,3.41,0,0,0-1.71-3l0,0L24.91,13.54A3.45,3.45,0,0,0,23.07,13Z"/></svg>
