<svg xmlns="http://www.w3.org/2000/svg" viewBox="0 0 100 99.51"><defs></defs><g id="af8de2f0-9580-4da7-a7ac-1258818b9207" data-name="badges"><path fill="current" d="M13.66,65h9.6V99.44h-9.6A11.49,11.49,0,0,1,2.18,88V76.48A11.48,11.48,0,0,1,13.66,65Z"/><path fill="current" d="M40.44,49.7H50V99.44H29V63.94h0V61.18A11.49,11.49,0,0,1,40.44,49.7Z"/><path fill="current" d="M97.82,34.4A3.81,3.81,0,0,1,94,38.23H86.34V88A11.46,11.46,0,0,1,74.87,99.44H55.78V49.51h0V38.23H48.09a3.92,3.92,0,0,1-2.3-.77A3.83,3.83,0,0,1,45,32.11L68,1.5A3.58,3.58,0,0,1,68.55,1a4,4,0,0,1,5.55.53l23,30.61A3.8,3.8,0,0,1,97.82,34.4Z"/><polygon fill="current" points="71.06 10.18 86.36 30.58 55.75 30.58 71.06 10.18"/><path fill="current" d="M78.71,38.23V88a3.83,3.83,0,0,1-3.83,3.83H63.4V38.23Z"/></g></svg>
