<svg id="f2a57c7f-2fd6-410a-845f-03188ace0d5d" data-name="Layer 1" xmlns="http://www.w3.org/2000/svg" width="28.09" height="28.23" viewBox="0 0 28.09 28.23"><path d="M14.2,13.07A4.81,4.81,0,1,1,19,17.9,4.82,4.82,0,0,1,14.2,13.07Zm8.37,5.35a6.41,6.41,0,1,0-7.12,0A13.59,13.59,0,0,0,6.17,31.57a.8.8,0,1,0,1.6,0c0-6.71,5.08-12.08,11.23-12.08s11.23,5.36,11.23,12.07a.8.8,0,1,0,1.6,0A13.55,13.55,0,0,0,22.57,18.42Z" transform="translate(-6.17 -6.63)" style="fill:current;fill-rule:evenodd"/><path d="M26.8,34.86a7.46,7.46,0,1,1,7.46-7.46,7.46,7.46,0,0,1-7.46,7.46" transform="translate(-6.17 -6.63)" style="fill:current"/><line x1="17.47" y1="20.77" x2="23.78" y2="20.77" style="fill:none;stroke:#fff;stroke-linecap:round;stroke-miterlimit:10"/></svg>