<svg xmlns="http://www.w3.org/2000/svg" viewBox="0 0 100 99.51"><defs></defs><g id="b7d3802f-8ca2-4e17-a2a3-84189da5adb9" data-name="badges"><path fill="current" d="M80.93,20.46H19A19.07,19.07,0,0,0,0,39.53v40.7A19.07,19.07,0,0,0,19,99.3H80.93A19.09,19.09,0,0,0,100,80.23V39.53A19.09,19.09,0,0,0,80.93,20.46ZM19,25.83H80.93a13.72,13.72,0,0,1,13.7,13.7v3.92H61v-4.3a6.48,6.48,0,0,0-6.48-6.47h-9A6.49,6.49,0,0,0,39,39.15v4.3H5.37V39.53A13.7,13.7,0,0,1,19,25.83Zm36.55,23v5.34a1.13,1.13,0,0,1-1.11,1.1h-9a1.13,1.13,0,0,1-1.13-1.1v-15a1.11,1.11,0,0,1,1.13-1.1h9a1.11,1.11,0,0,1,1.11,1.1v9.67ZM80.93,93.93H19A13.7,13.7,0,0,1,5.37,80.23V48.82H39v5.34a6.49,6.49,0,0,0,6.5,6.47h9A6.48,6.48,0,0,0,61,54.16V48.82H94.63V80.23A13.72,13.72,0,0,1,80.93,93.93Z"/><path fill="current" d="M27.28,15.69A2.68,2.68,0,0,0,30,13V8.81c0-1.75,2.18-3.23,4.76-3.23H65.26C67.84,5.58,70,7.06,70,8.81V13a2.69,2.69,0,0,0,5.37,0V8.81c0-4.75-4.54-8.6-10.13-8.6H34.72c-5.58,0-10.13,3.85-10.13,8.6V13A2.68,2.68,0,0,0,27.28,15.69Z"/></g></svg>
