<svg viewBox="0 0 224.53 109.82">
   <defs>
      <style>
         .some-opacity {
            opacity: .025
         }

         .full-opacity {
            opacity: .1
         }
      </style>
   </defs>
   <g class="colored">
      <path d="M-95.14-25.73c0-46.07 64.05-83.42 143.07-83.42s438.38-66.78 240 42c-98.62 54-155.59 145.87-234.6 145.87S-95.14 20.34-95.14-25.73Z"
            class="some-opacity" />
      <path d="M252.693-160.88c-19.355-.388-43.394 2.326-72.025 8.405-45.81 9.728-103.357 28.111-172.098 56.43-41.311 17.002-67.52 34.83-83.424 54.313C-90.757-22.25-96.27-1.128-96.27 22.1c0 23.51 14.877 45.26 41.311 61.03 26.434 15.771 64.47 25.664 111.209 25.66 71.525 0 120.766-49.85 152.975-90.427l.002-.002a725.477 725.477 0 0 1 50.369-57.24l.002-.002c30.208-30.76 46.985-56.712 50.763-76.922 1.89-10.105.478-18.83-4.252-25.79-4.729-6.962-12.695-12.09-23.656-15.3-8.22-2.407-18.146-3.756-29.76-3.988zm-.039 2.278c11.463.226 21.198 1.544 29.164 3.877 10.622 3.111 18.064 7.989 22.42 14.4 4.357 6.413 5.71 14.427 3.9 24.106-3.619 19.358-20.098 45.154-50.154 75.758h-.002a727.759 727.759 0 0 0-50.529 57.42c-32.071 40.403-80.73 89.57-151.203 89.57-46.42.005-84.08-9.845-110.05-25.34-25.972-15.494-40.21-36.53-40.21-59.09 0-22.872 5.347-43.339 20.908-62.402C-57.54-59.365-31.679-77.037 9.43-93.955c68.648-28.281 126.087-46.621 171.707-56.309 28.512-6.054 52.414-8.714 71.517-8.338z"
            class="some-opacity" />
      <path d="M-50.59-69c0-36.94 34.42-66.88 76.89-66.88s150.76 3.22 112.7 85.06C110.13 11.26 71.66 14.73 29.2 14.73S-50.59-32.08-50.59-69Z"
            class="some-opacity" />
      <circle id="circle1398"
              cx="165.13"
              cy="63.74"
              r="3.31"
              class="full-opacity" />
   </g>
</svg>