<svg viewBox="0 0 176.56 74.62">
    <defs>
        <style>
            .some-opacity {
                opacity: .025
            }

            .full-opacity {
                opacity: .1
            }
        </style>
    </defs>
    <g class="colored">
        <path d="M206.22 89.94c0 32.81-41.8 59.4-93.37 59.4S-33.85 138.31-12.54 98C18.87 38.59 55.56 0 107.13 0s99.09 57.13 99.09 89.94Z"
              class="some-opacity" />
        <path d="M118.91 126.15c-18.89 0-64.31-2-78-21-4.38-6-5.23-13.29-2.52-21.55 10.34-31.63 41-52.06 78.1-52.06 36 0 68.05 29.34 68.05 52.47s-29.45 42.14-65.63 42.14Zm-2.44-92.57c-36.22 0-66.13 19.89-76.2 50.68-2.5 7.62-1.74 14.27 2.24 19.76 13.17 18.17 57.82 20.13 76.4 20.13 35.07 0 63.61-18 63.61-40.1s-31.1-50.47-66.05-50.47Z"
              class="some-opacity" />
        <path d="M165.62 86.58c0 17.88-22.79 32.38-50.89 32.38s-77.26-.76-68.35-28C54.67 65.64 84.7 46 112.81 46s52.81 22.7 52.81 40.58Z"
              class="some-opacity" />
        <ellipse cx="83.1"
                 cy="39.05"
                 rx="3.43"
                 ry="2.93"
                 class="full-opacity" />
    </g>
</svg>