<svg viewBox="0 0 496.1 262" opacity="0.05">
    <g class="colored">
        <path d="M143.68,59.74l-14.55-7.52a83,83,0,0,0-75.45,0L42.62,58l-11.1-5.74a83,83,0,0,0-75.45,0l-14.52,7.51a7.51,7.51,0,0,0-4.06,6.67V213.33a7.5,7.5,0,0,0,3.61,6.41,7.49,7.49,0,0,0,7.35.26l14.49-7.49a67.91,67.91,0,0,1,61.71,0L39.16,220a7.69,7.69,0,0,0,1.77.65H41l.38.08h.11l.34.05H42l.31,0H43l.23,0,.27,0,.22,0,.28,0,.21,0,.28-.07.2,0,.29-.09.18-.06.31-.12.16-.06.45-.22,14.49-7.49a67.94,67.94,0,0,1,61.71,0L136.78,220a7.48,7.48,0,0,0,3.45.84,7.49,7.49,0,0,0,7.5-7.51V66.41A7.5,7.5,0,0,0,143.68,59.74ZM35.11,201l-3.59-1.85a82.79,82.79,0,0,0-37.71-9.06,82.85,82.85,0,0,0-37.74,9.07L-47.49,201V71l10.43-5.39a67.94,67.94,0,0,1,61.71,0L35.11,71Zm97.61,0-3.59-1.85a83,83,0,0,0-75.45,0L50.12,201V71l10.43-5.39a67.94,67.94,0,0,1,61.71,0L132.72,71Z" />
        <path d="M305.86,62.48l-5.76-1.13a29.76,29.76,0,0,0-25.93,7.57L270.94,72l-4.39-.86a29.74,29.74,0,0,0-25.93,7.58l-4.24,4a2.71,2.71,0,0,0-.72,2.7L250.39,136a2.69,2.69,0,0,0,4.44,1.2l4.23-4a24.31,24.31,0,0,1,21.21-6.2l5.74,1.13a3,3,0,0,0,.67,0h.21l.12,0h.05l.11,0,.06,0h.09l.09,0,.07,0,.09,0,.08,0,.09,0,.06,0,.09,0,.07,0a.47.47,0,0,0,.09-.06l.06,0,.09-.07.05,0,.13-.12,4.23-4a24.31,24.31,0,0,1,21.21-6.2l5.74,1.13a2.69,2.69,0,0,0,3.1-3.4l-14.74-50.5A2.69,2.69,0,0,0,305.86,62.48Zm-23.15,59.44-1.42-.28a29.71,29.71,0,0,0-25.93,7.58l-1,1-13-44.69,3-2.9a24.32,24.32,0,0,1,21.21-6.2l4.14.81Zm33.55-9.79-1.42-.28a29.74,29.74,0,0,0-25.93,7.57l-1,1-13-44.68,3-2.9a24.32,24.32,0,0,1,21.21-6.2l4.14.81Z" />
        <path d="M289.74,199.41l-5.24-1.16a27.19,27.19,0,0,0-23.9,6.37l-3,2.74-4-.88a27.22,27.22,0,0,0-23.9,6.37l-4,3.6a2.49,2.49,0,0,0-.73,2.46l12.39,46.54a2.47,2.47,0,0,0,4,1.18l4-3.59a22.28,22.28,0,0,1,19.55-5.21l5.23,1.15a2.14,2.14,0,0,0,.61.06H271l.11,0h.05l.1,0h.14l.08,0,.07,0,.08,0,.07,0,.09,0,.06,0,.08,0,.06,0,.09-.06.05,0,.09-.07,0,0,.13-.11,4-3.59a22.28,22.28,0,0,1,19.55-5.21l5.23,1.15a2.44,2.44,0,0,0,1.17,0,2.58,2.58,0,0,0,1.14-.68,2.46,2.46,0,0,0,.6-2.33l-12.39-46.54A2.45,2.45,0,0,0,289.74,199.41Zm-22.48,53.9L266,253a27.2,27.2,0,0,0-23.9,6.37l-1,.88-11-41.18L233,216.5a22.28,22.28,0,0,1,19.55-5.21l3.77.83Zm30.92-8.24-1.29-.28a27.2,27.2,0,0,0-23.9,6.37l-1,.88-11-41.18,2.84-2.59a22.28,22.28,0,0,1,19.55-5.21l3.77.83Z" />
        <path d="M495.62,246.12l-2.4-2.32a16.93,16.93,0,0,0-14.73-4.37l-2.49.48-1.83-1.77a16.93,16.93,0,0,0-14.73-4.37l-3.27.63a1.49,1.49,0,0,0-1.17,1.06l-8.52,28.67a1.5,1.5,0,0,0,.33,1.46,1.52,1.52,0,0,0,1.42.48l3.26-.62a13.84,13.84,0,0,1,12,3.57l2.4,2.31a1.39,1.39,0,0,0,.31.23h0l.07,0h0l.06,0h0l.06,0h.69l.1,0,3.26-.62a13.84,13.84,0,0,1,12,3.57L485,277a1.45,1.45,0,0,0,.62.36,1.52,1.52,0,0,0,1.91-1L496,247.65A1.5,1.5,0,0,0,495.62,246.12Zm-29.38,21.27-.59-.57a16.89,16.89,0,0,0-14.73-4.38l-.8.16,7.54-25.38,2.35-.44a13.84,13.84,0,0,1,12,3.57l1.73,1.66Zm19.05,5.66-.59-.57A16.91,16.91,0,0,0,470,268.1l-.8.16,7.54-25.38,2.35-.44a13.84,13.84,0,0,1,12,3.57l1.73,1.66Z" />
        <path d="M421.53,140l-1.75-1.4a11.43,11.43,0,0,0-10.15-2l-1.64.48L406.66,136a11.39,11.39,0,0,0-10.15-2l-2.15.62a1,1,0,0,0-.72.79l-3.91,19.75a1,1,0,0,0,1.29,1.19l2.15-.63a9.34,9.34,0,0,1,8.3,1.64l1.75,1.4a1,1,0,0,0,.22.13h0l.05,0h0l.05,0h.52l.07,0,2.14-.62a9.34,9.34,0,0,1,8.3,1.64l1.75,1.4a1,1,0,0,0,.44.2,1.07,1.07,0,0,0,.56,0,1.06,1.06,0,0,0,.65-.77L421.9,141A1,1,0,0,0,421.53,140Zm-18.35,16.1-.43-.35a11.37,11.37,0,0,0-10.15-2l-.52.15,3.46-17.48,1.54-.45a9.34,9.34,0,0,1,8.3,1.64l1.26,1Zm13.12,2.59-.43-.34a11.42,11.42,0,0,0-10.15-2l-.52.16,3.46-17.48,1.54-.45a9.34,9.34,0,0,1,8.3,1.64l1.26,1Z" />
    </g>
</svg>