<?xml version="1.0" encoding="UTF-8"?><svg id="uuid-252d279a-739f-4155-a05b-be6b8ca95289" xmlns="http://www.w3.org/2000/svg" viewBox="0 0 200 200"><path d="M197.48,165l-23.67-23.44c-2.06-2.04-5.39-2.03-7.43,.04-2.04,2.06-2.03,5.39,.04,7.43l15.76,15.6H44.64c-16.01,0-29.03-13.03-29.03-29.03v-1.48c0-16.01,13.03-29.03,29.03-29.03h111.23c21.8,0,39.54-17.74,39.54-39.54v-1.48c0-21.8-17.74-39.54-39.54-39.54H59.48C56.99,10.6,44.82,0,30.2,0,13.78,0,.43,13.36,.43,29.77s13.36,29.77,29.77,29.77c14.62,0,26.79-10.6,29.28-24.52h96.39c16.01,0,29.03,13.03,29.03,29.03v1.48c0,16.01-13.03,29.03-29.03,29.03H44.64c-21.8,0-39.54,17.74-39.54,39.54v1.48c0,21.8,17.74,39.54,39.54,39.54H182.44l-16.03,15.87c-2.06,2.04-2.08,5.37-.04,7.43,1.03,1.04,2.38,1.56,3.73,1.56s2.67-.51,3.7-1.52l23.67-23.44c1.35-1.34,2.09-3.12,2.09-5.02s-.74-3.68-2.09-5.01ZM30.2,49.04c-10.62,0-19.27-8.64-19.27-19.27S19.58,10.51,30.2,10.51s19.27,8.64,19.27,19.27-8.64,19.27-19.27,19.27Z"/></svg>