<svg id="b720f763-0b81-405d-9890-a4a1500af1e3" data-name="Layer 1" xmlns="http://www.w3.org/2000/svg" xmlns:xlink="http://www.w3.org/1999/xlink" viewBox="0 0 599.34 262"><defs><style>.f75cd714-f854-48ac-af47-f72a32f49ee3{fill:none;}.acffde39-3931-4e2c-89ad-98f6e93c25ca{clip-path:url(#af6ca21d-67a3-4836-a16d-0161514a080a);}.b4c4fbeb-2f19-469c-8b30-7328f1f9ecfd,.b6c5776c-f80f-4a5f-95ea-59a1bd40ed2e,.f450c7da-ffc0-4427-9990-ad67b3d2e41d{fill:#5ec2c1;}.f450c7da-ffc0-4427-9990-ad67b3d2e41d{opacity:0.1;}.a39a8b2a-a8e1-45d4-a0db-0b9a1a9085f9,.b42f9407-6c5a-4c9f-8ba2-7d2c4041ab01,.b4c4fbeb-2f19-469c-8b30-7328f1f9ecfd,.f264bdbe-542a-4ab8-92eb-bd36e91577c7{isolation:isolate;}.a39a8b2a-a8e1-45d4-a0db-0b9a1a9085f9,.b4c4fbeb-2f19-469c-8b30-7328f1f9ecfd{opacity:0.2;}.bf9838c0-d059-49f8-8cbd-a844f8637f21{fill:#a7eae6;}.a9559634-0eb9-4947-9ecb-7a2edc139da1{fill:#163345;}.e51e67f3-395b-411a-a958-8a8498dd3bc9{fill:#e7ada2;}.e4678b01-f119-4cd2-a16e-683cbd56713f{fill:#407bff;}.a17e65d9-18dc-4adb-8280-7064ba7192cc{fill:#d18c8c;opacity:0.7;}.ef1bc02b-8323-4a1c-9865-4e7b6ac7fa8f{fill:#fff;}.f264bdbe-542a-4ab8-92eb-bd36e91577c7{opacity:0.1;}.bb7b73a2-cff2-46d8-b7d4-50553ddd693f{fill:#4ea09d;}.a8e65b9b-a0bb-45ac-95f3-3596c0ee5486{fill:#f26d5a;}.b42f9407-6c5a-4c9f-8ba2-7d2c4041ab01{opacity:0.03;}.aa8ef6bf-0c00-43ce-98c0-6785eba6a35e{fill:#f98c80;}.eddc2bcd-ddb7-401b-9289-126ae72a2e78{fill:#e25e50;}</style><clipPath id="af6ca21d-67a3-4836-a16d-0161514a080a"><rect class="f75cd714-f854-48ac-af47-f72a32f49ee3" width="599.34" height="262"/></clipPath></defs><g class="acffde39-3931-4e2c-89ad-98f6e93c25ca"><path class="f450c7da-ffc0-4427-9990-ad67b3d2e41d" d="M623.9,295.3,322.24,318.73S0,378,0,280.66c0-106.87,115.66-61.72,189.42-161.74C262.47,19.88,298-1.35,338.09-11.32,391-24.5,448.12-16.95,494.34,9,564.09,48.28,644.79,130,623.9,295.3Z"/><path class="f450c7da-ffc0-4427-9990-ad67b3d2e41d" d="M623.9,354.78,322.24,378.21S0,437.46,0,340.15c0-106.88,115.66-61.73,189.42-161.74C262.47,79.36,298,58.13,338.09,48.16,391,35,448.12,42.53,494.34,68.52,564.09,107.76,644.79,189.49,623.9,354.78Z"/><path class="f450c7da-ffc0-4427-9990-ad67b3d2e41d" d="M623.9,494.83,322.24,518.25S0,577.51,0,480.19c0-106.87,115.66-61.73,189.42-161.74,73.05-99,108.6-120.27,148.67-130.25,52.92-13.18,110-5.63,156.25,20.37C564.09,247.81,644.79,329.53,623.9,494.83Z"/><g id="bb9c771a-f71d-4d30-8fdf-7c762b883487" data-name="freepik--Stairs--inject-727"><rect class="b6c5776c-f80f-4a5f-95ea-59a1bd40ed2e" x="387.76" y="230.34" width="35.14" height="140.58"/><rect class="b4c4fbeb-2f19-469c-8b30-7328f1f9ecfd" x="387.76" y="230.34" width="35.14" height="140.58"/><rect class="a39a8b2a-a8e1-45d4-a0db-0b9a1a9085f9" x="414.12" y="230.34" width="8.78" height="140.58"/><rect class="b6c5776c-f80f-4a5f-95ea-59a1bd40ed2e" x="458.05" y="160.05" width="35.15" height="210.87"/><rect class="a39a8b2a-a8e1-45d4-a0db-0b9a1a9085f9" x="484.4" y="160.06" width="8.78" height="210.87"/><polygon class="bf9838c0-d059-49f8-8cbd-a844f8637f21" points="223.28 327.25 177.43 327.25 160.89 320.22 205.21 320.22 205.21 285.07 275.5 285.07 275.5 249.93 345.79 249.93 345.79 197.21 416.08 197.21 416.08 126.92 475.37 126.92 475.37 65.67 493.45 65.67 493.45 133.96 434.15 133.96 434.15 204.23 363.86 204.23 363.86 256.95 293.57 256.95 293.57 292.11 223.28 292.11 223.28 327.25"/><polygon class="b6c5776c-f80f-4a5f-95ea-59a1bd40ed2e" points="475.37 126.92 475.37 65.67 493.45 65.67 493.45 133.96 475.37 126.92"/><polygon class="b6c5776c-f80f-4a5f-95ea-59a1bd40ed2e" points="416.08 197.21 416.08 126.92 434.15 133.96 434.15 204.23 416.08 197.21"/><polygon class="b6c5776c-f80f-4a5f-95ea-59a1bd40ed2e" points="345.79 249.93 345.79 197.21 363.86 204.23 363.86 256.95 345.79 249.93"/><polygon class="b6c5776c-f80f-4a5f-95ea-59a1bd40ed2e" points="275.5 285.07 275.5 249.93 293.57 256.95 293.57 292.11 275.5 285.07"/><polygon class="b6c5776c-f80f-4a5f-95ea-59a1bd40ed2e" points="463.29 70.68 484.4 45.29 505.52 86.05 463.29 70.68"/></g><g id="a0e98484-2c85-4204-9cb9-eabe9f7f519f" data-name="freepik--Character--inject-727"><path class="a9559634-0eb9-4947-9ecb-7a2edc139da1" d="M270.74,107.6a57.92,57.92,0,0,0-4,10.28l-.07.26c-.15.54-.44,1.77-.45,1.82-.13.56-.23,1.08-.34,1.69,0,0-.22,1.26-.29,1.87a.67.67,0,0,0,0,.2c-.16,1.22-.27,3.81-.27,3.86v1.87s.11,1.38.19,2h0v0c1.64,10.24,3.16,11.57,4.42,15.37,3.67,11.18,6.52,46.62,6.52,46.62-21.25,5.73-46.82,29-46.82,29l4.59,10.61S289.37,207,293.33,201.7c4.64-6.28,2-39.58,3.43-52.69.54-4.85,1.15-9.07,1.77-12.89l6.91-10.65Z"/><path class="a39a8b2a-a8e1-45d4-a0db-0b9a1a9085f9" d="M281,135.61l-4.12-4.39s-7.64,6.35,19.34,29.73a115.59,115.59,0,0,1,.49-11.91,9,9,0,0,1,.14-1.16Z"/><polygon class="e51e67f3-395b-411a-a958-8a8498dd3bc9" points="230.46 224.36 219.28 230.05 222.72 235.69 233.13 231.07 230.46 224.36"/><path class="e4678b01-f119-4cd2-a16e-683cbd56713f" d="M223.21,237.11a.18.18,0,0,1,0-.24.19.19,0,0,1,.18,0c.13.06,2.89,1.38,3.33,2.62a.88.88,0,0,1,0,.71.67.67,0,0,1-.64.46c-.52,0-1.21-.73-1.75-1.51A13.79,13.79,0,0,1,223.21,237.11Zm.52.34c.67,1.27,1.78,2.85,2.39,2.85.07,0,.19,0,.3-.25a.56.56,0,0,0,0-.44,1.82,1.82,0,0,0-.16-.31,8.3,8.3,0,0,0-2.54-1.85Z"/><path class="e4678b01-f119-4cd2-a16e-683cbd56713f" d="M223.15,237a.18.18,0,0,1,.1-.16,5.26,5.26,0,0,1,3.1-.7,1.34,1.34,0,0,1,.82.65c.25.44.13.71,0,.85-.61.62-3,.05-3.87-.48a.12.12,0,0,1-.05-.05A.18.18,0,0,1,223.15,237Zm3.68-.12a1.06,1.06,0,0,0-.55-.38,4.31,4.31,0,0,0-2.49.5c1,.46,2.74.71,3.13.38,0,0,.13-.13,0-.41l-.06-.09Z"/><path class="a9559634-0eb9-4947-9ecb-7a2edc139da1" d="M223.64,235.84,218.9,229a.67.67,0,0,0-.8-.24l-6.45,2.62a1.08,1.08,0,0,0-.65,1.38l0,.06a.91.91,0,0,0,.11.22c1.75,2.44,3.4,4.54,5.53,7.61,2.5,3.63,1.44,3,4.29,7.32,1.74,2.58,5,1.07,4.38-.16-2.82-5.37-1.67-7-1.22-10.13A2.65,2.65,0,0,0,223.64,235.84Z"/><polygon class="a17e65d9-18dc-4adb-8280-7064ba7192cc" points="228.7 225.26 224.51 227.39 227.54 233.55 230.99 232.03 228.7 225.26"/><polygon class="b6c5776c-f80f-4a5f-95ea-59a1bd40ed2e" points="229.65 218.96 224.91 221.71 230.84 235.29 236.34 233.77 229.65 218.96"/><path class="a9559634-0eb9-4947-9ecb-7a2edc139da1" d="M329.39,185.67S281,144.86,276.86,137.6s6.91-17.19,6.91-17.19L296,122.13s51.74,46.94,49.62,56.33Z"/><path class="a9559634-0eb9-4947-9ecb-7a2edc139da1" d="M345.66,178.46c-1.36,9.54-21.8,55.39-21.8,55.39s-4.22-.24-11.95-5.08c0,0,8.07-36.24,16.28-50.31Z"/><polygon class="e51e67f3-395b-411a-a958-8a8498dd3bc9" points="315.37 230.94 311.72 242.94 318.18 244.37 322.06 233.67 315.37 230.94"/><path class="e4678b01-f119-4cd2-a16e-683cbd56713f" d="M319.53,245a.2.2,0,0,1-.12-.17.17.17,0,0,1,.12-.17c.13,0,3-1.13,4.2-.57a1,1,0,0,1,.49.5.67.67,0,0,1-.11.78,3.24,3.24,0,0,1-2.31.21A13.74,13.74,0,0,1,319.53,245Zm.62-.15c1.37.4,3.23.7,3.7.27.06,0,.13-.15,0-.4a.5.5,0,0,0-.25-.3,2,2,0,0,0-.33-.09,8.32,8.32,0,0,0-3.12.52Z"/><path class="e4678b01-f119-4cd2-a16e-683cbd56713f" d="M319.44,245a.17.17,0,0,1,0-.17,5.13,5.13,0,0,1,1.65-2.73,1.38,1.38,0,0,1,1.07-.14c.49.13.59.41.58.61,0,.87-2.05,2.22-3,2.46h-.07A.16.16,0,0,1,319.44,245Zm2.45-2.72a.9.9,0,0,0-.64.12,4.27,4.27,0,0,0-1.38,2.15c1-.4,2.42-1.48,2.45-2,0-.05,0-.18-.32-.27Z"/><path class="a9559634-0eb9-4947-9ecb-7a2edc139da1" d="M318.94,243.83l-8.23-1.33a.67.67,0,0,0-.73.41l-2.56,6.44a1.06,1.06,0,0,0,.54,1.42l.07,0,.22.08c3,.43,5.63.68,9.33,1.3,4.35.69,3.15,1.07,8.27,1.94,3.07.55,4.21-2.87,2.93-3.22-5.87-1.72-6.2-3.63-8.15-6.15A2.71,2.71,0,0,0,318.94,243.83Z"/><polygon class="a17e65d9-18dc-4adb-8280-7064ba7192cc" points="314.81 232.83 313.43 237.33 319.97 239.43 321.27 235.87 314.81 232.83"/><polygon class="b6c5776c-f80f-4a5f-95ea-59a1bd40ed2e" points="310.93 227.78 309.63 233.09 323.53 238.25 326.23 233.23 310.93 227.78"/><path class="e51e67f3-395b-411a-a958-8a8498dd3bc9" d="M255.42,91.11l.8-7.77L263,84.76l-2.31,7.88s2.29,3.64,2.15,6.88-2,2.8-2,2.8.19,3.42-2.72,2.41-6.67-2.5-6-5.37A42.51,42.51,0,0,1,255.42,91.11Z"/><path class="b6c5776c-f80f-4a5f-95ea-59a1bd40ed2e" d="M304.85,58.41c-2.33-8.78-29.16-.41-29.16-.41s-13.09,4.23-16.53,7.4-5.37,21.87-5.37,21.87l9.4,2L269,73.21C295.22,68.73,307.12,66.93,304.85,58.41Z"/><path class="ef1bc02b-8323-4a1c-9865-4e7b6ac7fa8f" d="M263.46,86.31a.81.81,0,1,1-.08-1.15.81.81,0,0,1,.08,1.15Z"/><path class="f264bdbe-542a-4ab8-92eb-bd36e91577c7" d="M298.07,63.72l.07-8.29s-5.64-1-14.22,15.19c3.85-.73,7.18-1.42,10-2.14Z"/><path class="e51e67f3-395b-411a-a958-8a8498dd3bc9" d="M308.77,57s4.66.34,6.08-8.09c0,0,4.57-1.18,6.87,1.78s-3.94,7.87-1,10.92S308.77,57,308.77,57Z"/><path class="a17e65d9-18dc-4adb-8280-7064ba7192cc" d="M318.59,53.63a16.09,16.09,0,0,0,2,3.45c.44-1.07,1-2.15,1.35-3.13Z"/><path class="e51e67f3-395b-411a-a958-8a8498dd3bc9" d="M312.93,36.48c-.92,7.2-1.46,10.23,1.42,14.57,4.78,4.76,13.41,6.08,16.47-.7,2.75-6.1,3.79-16.81-2.63-21a9.92,9.92,0,0,0-15.26,7.15Z"/><path class="a9559634-0eb9-4947-9ecb-7a2edc139da1" d="M327.1,43.17l2.56-.14A6.2,6.2,0,0,1,330.87,37c2.47-3.23,8.59-4.88,3.62-10.38a13.42,13.42,0,0,0-11.09-4.66l4.09,2.93s-8.44-6.19-13.43.54a5.93,5.93,0,0,1,3.77.06s-22.42,7.59-3.48,25.58c0,0,.72-1.47,3.75.91a17.67,17.67,0,0,0,5.26-5.69C325.18,42.84,326.47,39.62,327.1,43.17Z"/><path class="e51e67f3-395b-411a-a958-8a8498dd3bc9" d="M327,40.76a5.5,5.5,0,0,1,1.13,4.12c-.27,2-2.2,2.15-3.64,1s-2.72-3.36-1.72-5a2.54,2.54,0,0,1,3.48-.82A2.49,2.49,0,0,1,327,40.76Z"/><path class="a9559634-0eb9-4947-9ecb-7a2edc139da1" d="M336.9,28.57s.65,3.91-5.49,6.23C331.41,34.8,340,35.67,336.9,28.57Z"/><path class="e4678b01-f119-4cd2-a16e-683cbd56713f" d="M308.11,58.07,310.55,55S322.24,56,323,62.65Z"/><path class="bb7b73a2-cff2-46d8-b7d4-50553ddd693f" d="M308.11,58.07,310.55,55S322.24,56,323,62.65Z"/><path class="b6c5776c-f80f-4a5f-95ea-59a1bd40ed2e" d="M282.37,85c3.22-8,8.41-29.29,16.67-30.26s32,8.52,34.81,17-29.72,56.45-29.72,56.45l-34.51-19S279.83,91.33,282.37,85Z"/><path class="f264bdbe-542a-4ab8-92eb-bd36e91577c7" d="M322.92,68.91s-6.26,11.94,1.29,27a147.32,147.32,0,0,0,7.65-15.16l-2.65-6.27Z"/><path class="a8e65b9b-a0bb-45ac-95f3-3596c0ee5486" d="M288.36,85.8c4.52.68,9.47-.66,13.48-2.62,4.6-2.24,8-5.61,11.39-9.37,3-3.36,7-7.18,11.73-7.8,10.66-1.43,12.89,15.57,11.82,23-1.32,8.8-6.27,16.87-11.7,23.76a85.48,85.48,0,0,1-10.74,11.52c-1.26,1.07.72,2.83,2,1.74,10.18-8.94,20.06-21.58,22.76-35.07,1.63-8.14-.42-19.75-7.68-25-6.56-4.77-13.81-.37-18.61,4.47-6.45,6.44-13.79,14.33-24,12.83-1.67-.25-2.15,2.33-.51,2.58Z"/><path class="e51e67f3-395b-411a-a958-8a8498dd3bc9" d="M365,100.13l-7.25,2.45-1-5.46,7.43-2.33s1.47-3.84,4.42-5,4.16,1,4.16,1,3-1.58,3.22,1.43.19,7.81-2.59,8.4S367.46,100.16,365,100.13Z"/><path class="b6c5776c-f80f-4a5f-95ea-59a1bd40ed2e" d="M361.19,94.25,345.9,96.66c-10-23.53-14.42-33.94-22-29.86-8,4.3,6.2,27.11,6.2,27.11s6.74,12.39,10.32,15.44a2.6,2.6,0,0,0,.73.49c4.54,1.23,21.68-7,21.68-7Z"/><path class="ef1bc02b-8323-4a1c-9865-4e7b6ac7fa8f" d="M361.19,102.61a.82.82,0,0,1-1.3-1l.08-.09a.81.81,0,0,1,1.14-.06.8.8,0,0,1,.08,1.13Z"/><path class="a8e65b9b-a0bb-45ac-95f3-3596c0ee5486" d="M290.61,84.77l25.88,37.35a3.48,3.48,0,0,1-.88,4.84h0l-19.17,13.28a6,6,0,0,1-8.35-1.52l-23-33.17a6,6,0,0,1,1.52-8.35L285.8,83.92a3.48,3.48,0,0,1,4.84.88h0Z"/><path class="b42f9407-6c5a-4c9f-8ba2-7d2c4041ab01" d="M314.47,124.47,287.62,85.74a2.65,2.65,0,0,0-3.69-.66h0l-.81.56A7.51,7.51,0,0,0,281.23,96l21.34,30.79a7.52,7.52,0,0,0,10.4,1.89l.79-.54A2.67,2.67,0,0,0,314.47,124.47Z"/><path class="e4678b01-f119-4cd2-a16e-683cbd56713f" d="M316.94,122.81,290.09,84.08a2.66,2.66,0,0,0-3.69-.67h0l-.8.56a7.53,7.53,0,0,0-1.89,10.4L305,125.16a7.53,7.53,0,0,0,10.4,1.89l.8-.55a2.64,2.64,0,0,0,.71-3.68Z"/><path class="aa8ef6bf-0c00-43ce-98c0-6785eba6a35e" d="M316.94,122.81,290.09,84.08a2.66,2.66,0,0,0-3.69-.67h0l-.8.56a7.53,7.53,0,0,0-1.89,10.4L305,125.16a7.53,7.53,0,0,0,10.4,1.89l.8-.55a2.64,2.64,0,0,0,.71-3.68Z"/><rect class="eddc2bcd-ddb7-401b-9289-126ae72a2e78" x="281.31" y="97.31" width="10.54" height="5.02" rx="2.09" transform="translate(-5.84 180.95) rotate(-34.71)"/><rect class="eddc2bcd-ddb7-401b-9289-126ae72a2e78" x="295.75" y="118.16" width="10.54" height="5.02" rx="2.09" transform="translate(-15.13 192.93) rotate(-34.72)"/><path class="a8e65b9b-a0bb-45ac-95f3-3596c0ee5486" d="M299.89,99.28c2.15-.3,3.22-1.49,5-2.31,1.21-.57-.23-1.08.84-.08a7,7,0,0,1,.92,1.37c.72,1.13,1.34,2.35,2.08,3.48.64,1,2.32,2,2.74,3,.67,1.61-2.82,3.87-3.83,4.69-1.2,1,.19,3,1.41,2,1.74-1.44,5.21-3.73,5.09-6.44-.08-1.65-1.52-2.42-2.52-3.52-1.88-2.08-2.63-5.77-5.13-7.26a2.14,2.14,0,0,0-2.42,0c-1,.52-1.43,1.59-2.55,2.08a7.75,7.75,0,0,1-1.82.53c-1.57.21-1.39,2.66.18,2.45Z"/></g></g></svg>