<svg viewBox="0 0 488.22 262" opacity="0.05">
    <g class="colored">
        <path d="M110.61,85.87A21.21,21.21,0,1,0,89.4,64.66,21.23,21.23,0,0,0,110.61,85.87Zm0-33.17a12,12,0,1,1-12,12A12,12,0,0,1,110.61,52.7ZM-10.52,176.13a21.23,21.23,0,0,0-21.21,21.21,21.23,21.23,0,0,0,21.21,21.21,21.23,21.23,0,0,0,21.21-21.21A21.23,21.23,0,0,0-10.52,176.13Zm0,33.17a12,12,0,0,1-12-12,12,12,0,0,1,12-12,12,12,0,0,1,12,12A12,12,0,0,1-10.52,209.3ZM151,150.12A38.1,38.1,0,0,0,116,126.37H63a14.18,14.18,0,0,0-26.81,0H-16.73A28.77,28.77,0,0,1-42.54,110a14.18,14.18,0,0,0,6.83-12.12,14.18,14.18,0,0,0-6.83-12.12A28.77,28.77,0,0,1-16.73,69.29H73.09a37.8,37.8,0,1,0,0-9.26H-16.73A38.11,38.11,0,0,0-51.8,83.78a14.2,14.2,0,0,0-12.28,14,14.2,14.2,0,0,0,12.28,14,38.11,38.11,0,0,0,35.07,23.75H36.21a14.18,14.18,0,0,0,26.81,0H116a28.77,28.77,0,0,1,25.82,16.42,14.17,14.17,0,0,0,0,24.24A28.77,28.77,0,0,1,116,192.71H27a37.85,37.85,0,0,0-37.52-33.17,37.85,37.85,0,0,0-37.8,37.8,37.85,37.85,0,0,0,37.8,37.8A37.86,37.86,0,0,0,27,202h89A38.1,38.1,0,0,0,151,178.22a14.18,14.18,0,0,0,0-28.1Zm-40.41-114A28.54,28.54,0,1,1,82.07,64.66,28.57,28.57,0,0,1,110.61,36.12ZM-49.12,102.69l-.11,0a4.91,4.91,0,0,1-.67.05,4.93,4.93,0,0,1-4.92-4.93,4.93,4.93,0,0,1,4.92-4.92,4.68,4.68,0,0,1,.66,0l.12,0A4.93,4.93,0,0,1-45,97.83,4.93,4.93,0,0,1-49.12,102.69Zm98.73,33.24A4.93,4.93,0,1,1,54.54,131,4.93,4.93,0,0,1,49.61,135.93Zm-60.13,89.95a28.57,28.57,0,0,1-28.54-28.54A28.57,28.57,0,0,1-10.52,168.8,28.57,28.57,0,0,1,18,197.34,28.57,28.57,0,0,1-10.52,225.88Zm159.64-56.79a4.87,4.87,0,0,1-.66,0l-.12,0a4.92,4.92,0,0,1,0-9.72l.11,0a4.92,4.92,0,1,1,.66,9.8Z" />
        <path d="M290.53,77.59a8,8,0,1,0-9.71-5.76A8,8,0,0,0,290.53,77.59Zm-3.09-12.1A4.51,4.51,0,1,1,284.2,71,4.52,4.52,0,0,1,287.44,65.49ZM254.76,121.8a8,8,0,1,0,9.71,5.76A8,8,0,0,0,254.76,121.8Zm3.09,12.1a4.51,4.51,0,1,1,3.24-5.48A4.52,4.52,0,0,1,257.85,133.9Zm53.41-36.64a14.34,14.34,0,0,0-15-5.39L277,96.8a5.34,5.34,0,0,0-9.78,2.5l-19.31,4.93a10.84,10.84,0,0,1-11-3.59,5.33,5.33,0,0,0-2.26-8.84,10.84,10.84,0,0,1,7.89-8.4L275.3,75a14.24,14.24,0,1,0-.86-3.38L241.68,80A14.34,14.34,0,0,0,231.1,92a5.34,5.34,0,0,0,2.62,10.25,14.33,14.33,0,0,0,15,5.39L268,102.67a5.34,5.34,0,0,0,9.78-2.5l19.31-4.93a10.83,10.83,0,0,1,10.94,3.59,5.33,5.33,0,0,0,2.26,8.84,10.82,10.82,0,0,1-7.89,8.4L270,124.35a14.24,14.24,0,1,0,.86,3.38l32.45-8.29a14.35,14.35,0,0,0,10.58-11.92,5.34,5.34,0,0,0-2.62-10.26ZM285.9,59.44a10.75,10.75,0,1,1-7.75,13.07A10.77,10.77,0,0,1,285.9,59.44ZM233.84,98.61h0l-.24.08a1.85,1.85,0,1,1-.92-3.59l.25,0h0a1.86,1.86,0,0,1,.91,3.55ZM273,101.53a1.85,1.85,0,1,1,1.33-2.25A1.84,1.84,0,0,1,273,101.53ZM259.39,140a10.75,10.75,0,1,1,7.75-13.07A10.77,10.77,0,0,1,259.39,140Zm52.94-35.59-.24,0h0a1.86,1.86,0,0,1-.9-3.55h0a1.69,1.69,0,0,1,.24-.08,1.85,1.85,0,0,1,.91,3.59Z" />
        <path d="M275.28,207.59a7.79,7.79,0,1,0-10.51-3.3A7.79,7.79,0,0,0,275.28,207.59Zm-5.64-10.8a4.39,4.39,0,1,1-1.86,5.93A4.41,4.41,0,0,1,269.64,196.79Zm-18.47,60.77a7.79,7.79,0,1,0,10.51,3.31A7.81,7.81,0,0,0,251.17,257.56Zm5.64,10.81a4.39,4.39,0,1,1,1.86-5.93A4.4,4.4,0,0,1,256.81,268.37Zm42.54-46.72a14,14,0,0,0-15.45-1.78l-17.24,9a5.2,5.2,0,0,0-8.73,4.55l-17.23,9a10.58,10.58,0,0,1-11.2-1,5.21,5.21,0,0,0-4.12-7.9,10.56,10.56,0,0,1,5.62-9.73l29.24-15.26a13.9,13.9,0,1,0-1.57-3l-29.25,15.27A14,14,0,0,0,222,234.51a5.21,5.21,0,0,0,4.77,9.15,14,14,0,0,0,15.46,1.77l17.24-9a5.21,5.21,0,0,0,8.73-4.56l17.23-9a10.56,10.56,0,0,1,11.2,1,5.21,5.21,0,0,0,4.12,7.89,10.56,10.56,0,0,1-5.62,9.73l-29,15.12a13.89,13.89,0,1,0,1.57,3l29-15.11a14,14,0,0,0,7.39-13.69,5.21,5.21,0,0,0-4.78-9.15Zm-32.53-30.26a10.48,10.48,0,1,1-4.44,14.15A10.5,10.5,0,0,1,266.82,191.39Zm-40.7,48.82,0,0a1.43,1.43,0,0,1-.21.12,1.8,1.8,0,1,1-1.67-3.2l.22-.1,0,0a1.83,1.83,0,0,1,2.18.88A1.8,1.8,0,0,1,226.12,240.21Zm37.8-6a1.81,1.81,0,1,1,.77-2.44A1.82,1.82,0,0,1,263.92,234.26Zm-4.29,39.51a10.48,10.48,0,1,1,4.44-14.15A10.5,10.5,0,0,1,259.63,273.77ZM302,228.15l-.22.1h0a1.81,1.81,0,0,1-1.66-3.17l0,0a1.07,1.07,0,0,1,.21-.13,1.81,1.81,0,1,1,1.67,3.21Z" />
        <path d="M480.85,248.56a3.72,3.72,0,1,0-2.63-4.57A3.72,3.72,0,0,0,480.85,248.56Zm1.52-5.62a2.1,2.1,0,1,1-2.58,1.48A2.09,2.09,0,0,1,482.37,242.94ZM456.19,258.3a3.72,3.72,0,1,0,2.62,4.56A3.72,3.72,0,0,0,456.19,258.3Zm-1.52,5.61a2.1,2.1,0,1,1,1.1-4.05,2.1,2.1,0,1,1-1.1,4.05Zm30.08-2.62a6.71,6.71,0,0,0-4.85-5.63l-9-2.42a2.48,2.48,0,0,0-4.54-1.23l-9-2.43a5,5,0,0,1-3.62-4,2.49,2.49,0,0,0,1.11-4.11,5.08,5.08,0,0,1,5.13-1.6L475.25,244a6.62,6.62,0,1,0,.42-1.57l-15.21-4.11a6.69,6.69,0,0,0-7,2.41,2.49,2.49,0,0,0-1.29,4.76,6.68,6.68,0,0,0,4.86,5.63l9,2.43a2.49,2.49,0,0,0,4.54,1.23l9,2.42a5,5,0,0,1,3.62,4,2.48,2.48,0,0,0-1.11,4.1,5,5,0,0,1-5.12,1.6l-15.07-4.08a6.65,6.65,0,1,0-.43,1.57l15.07,4.08a6.68,6.68,0,0,0,7-2.42,2.49,2.49,0,0,0,1.29-4.76Zm-1.62-21.16a5,5,0,1,1-6.15,3.53A5,5,0,0,1,483.13,240.13Zm-30.11,4h0l-.12,0a.86.86,0,0,1,.45-1.67l.11,0h0a.86.86,0,0,1,.48,1A.87.87,0,0,1,453,244.09Zm15.2,10.15a.86.86,0,1,1,1.06-.61A.87.87,0,0,1,468.22,254.24Zm-14.31,12.48a5,5,0,1,1,6.14-3.52A5,5,0,0,1,453.91,266.72Zm29.65-2.3-.11,0h0a.87.87,0,0,1-.48-1,.85.85,0,0,1,.92-.63h0l.12,0a.86.86,0,1,1-.45,1.67Z" />
        <path d="M410.91,134.69a2.53,2.53,0,1,0-3-2A2.54,2.54,0,0,0,410.91,134.69Zm-.78-3.89a1.43,1.43,0,1,1-1.12,1.69A1.43,1.43,0,0,1,410.13,130.8Zm-11.3,17.32a2.54,2.54,0,1,0,3,2A2.55,2.55,0,0,0,398.83,148.12Zm.78,3.89a1.43,1.43,0,1,1,1.12-1.68A1.43,1.43,0,0,1,399.61,152Zm17.55-10.74a4.57,4.57,0,0,0-4.67-2l-6.21,1.25a1.69,1.69,0,0,0-3.14.63l-6.21,1.25a3.45,3.45,0,0,1-3.41-1.32,1.69,1.69,0,0,0-.57-2.84,3.44,3.44,0,0,1,2.64-2.54l10.53-2.11a4.52,4.52,0,1,0-.22-1.09l-10.53,2.12a4.56,4.56,0,0,0-3.55,3.61,1.69,1.69,0,0,0,.66,3.29,4.55,4.55,0,0,0,4.67,2l6.21-1.24a1.7,1.7,0,0,0,3.14-.64l6.21-1.24a3.43,3.43,0,0,1,3.41,1.32,1.67,1.67,0,0,0-.51,1.58,1.69,1.69,0,0,0,1.08,1.26,3.43,3.43,0,0,1-2.64,2.53l-10.43,2.09a4.52,4.52,0,1,0,.22,1.09l10.43-2.09a4.58,4.58,0,0,0,3.55-3.61,1.7,1.7,0,0,0-.66-3.3Zm-7.42-12.41a3.41,3.41,0,1,1-2.68,4A3.42,3.42,0,0,1,409.74,128.86Zm-17.16,11.56h0l-.08,0a.59.59,0,0,1-.23-1.16h.09a.59.59,0,0,1,.23,1.14ZM404.94,142a.59.59,0,1,1-.24-1.15.6.6,0,0,1,.7.46A.59.59,0,0,1,404.94,142ZM400,154a3.42,3.42,0,1,1,2.68-4A3.41,3.41,0,0,1,400,154Zm17.38-10.42h-.09a.59.59,0,0,1-.23-1.14h0l.07,0a.59.59,0,1,1,.23,1.15Z" />
    </g>
</svg>