<?xml version="1.0" encoding="UTF-8"?><svg id="uuid-e2eef994-a217-4897-bfd7-22af587bf7b1" xmlns="http://www.w3.org/2000/svg" viewBox="0 0 200 200"><path d="M197.09,163.16l-21.12-20.91c-3.13-3.1-8.18-3.07-11.27,.05-3.1,3.13-3.07,8.18,.05,11.27l8.52,8.44H44.49c-14.48,0-26.26-11.78-26.26-26.26v-1.48c0-14.48,11.78-26.26,26.26-26.26h96.42c.59,0,1.16-.07,1.71-.19h13.22c23.3,0,42.26-18.96,42.26-42.26v-1.48c0-23.3-18.96-42.26-42.26-42.26H58.86C55.38,9.26,43.86,0,30.2,0,13.78,0,.43,13.36,.43,29.77s13.36,29.77,29.77,29.77c13.63,0,25.11-9.21,28.63-21.72h97c14.48,0,26.26,11.78,26.26,26.26v1.48c0,14.48-11.78,26.26-26.26,26.26H59.42c-.59,0-1.16,.07-1.71,.19h-13.22c-23.3,0-42.26,18.96-42.26,42.26v1.48c0,23.3,18.96,42.26,42.26,42.26H173.18l-8.42,8.34c-3.13,3.1-3.15,8.15-.05,11.27,1.56,1.57,3.61,2.36,5.66,2.36s4.06-.77,5.61-2.31l21.12-20.92c1.83-1.81,2.83-4.23,2.83-6.81,0-2.57-1.01-4.99-2.84-6.8Z"/></svg>