<?xml version="1.0" encoding="UTF-8"?><svg id="uuid-a090f5c4-7eca-4133-9552-8f28e1570eba" xmlns="http://www.w3.org/2000/svg" viewBox="0 0 200 200"><path d="M196.97,32.26l-10.46-5.51c-24.52-12.99-53.8-12.99-78.32,0l-.31,.16c-1.57,.83-2.56,2.47-2.56,4.25V176.61c0,2.32,2.34,3.9,4.49,3.04l13.12-5.24c15.74-6.3,33.09-6.3,48.83,0l20.43,8.17c1.75,.71,3.74,.5,5.3-.57,1.59-1.07,2.51-2.84,2.51-4.73V37.3c0-2.11-1.16-4.02-3.03-5.04Z"/><path d="M92.1,26.89l-.27-.14c-24.52-12.99-53.8-12.99-78.32,0l-10.49,5.54C1.16,33.28,0,35.22,0,37.33V177.05c0,1.86,.77,3.71,2.28,4.8,1.02,.74,2.22,1.13,3.45,1.13,.71,0,1.42-.12,2.11-.4l20.43-8.17c15.74-6.3,33.09-6.3,48.83,0l13.09,5.23c2.15,.86,4.49-.72,4.49-3.04V31.14c0-1.79-.99-3.42-2.57-4.25Z"/></svg>