<svg viewBox="0 0 153.62 262" opacity="0.05">
    <g class="colored">
        <path d="M100.92,87.87A21.21,21.21,0,1,0,79.71,66.66,21.23,21.23,0,0,0,100.92,87.87Zm0-33.17a12,12,0,1,1-12,12A12,12,0,0,1,100.92,54.7ZM-20.21,178.13a21.23,21.23,0,0,0-21.21,21.21,21.23,21.23,0,0,0,21.21,21.21A21.24,21.24,0,0,0,1,199.34,21.24,21.24,0,0,0-20.21,178.13Zm0,33.17a12,12,0,0,1-11.95-12,12,12,0,0,1,11.95-12,12,12,0,0,1,12,12A12,12,0,0,1-20.21,211.3Zm161.55-59.18a38.1,38.1,0,0,0-35.07-23.75H53.33a14.18,14.18,0,0,0-26.81,0H-26.41A28.77,28.77,0,0,1-52.23,112,14.18,14.18,0,0,0-45.4,99.83a14.18,14.18,0,0,0-6.83-12.12A28.77,28.77,0,0,1-26.41,71.29H63.41a37.8,37.8,0,1,0,0-9.26H-26.41A38.1,38.1,0,0,0-61.48,85.78a14.2,14.2,0,0,0-12.28,14,14.2,14.2,0,0,0,12.28,14,38.1,38.1,0,0,0,35.07,23.75H26.52a14.18,14.18,0,0,0,26.81,0h52.94a28.76,28.76,0,0,1,25.81,16.42,14.18,14.18,0,0,0,0,24.24,28.76,28.76,0,0,1-25.81,16.42h-89a37.85,37.85,0,0,0-37.52-33.17A37.84,37.84,0,0,0-58,199.34a37.84,37.84,0,0,0,37.79,37.8A37.86,37.86,0,0,0,17.31,204h89a38.1,38.1,0,0,0,35.07-23.75,14.18,14.18,0,0,0,0-28.1Zm-40.42-114A28.54,28.54,0,1,1,72.38,66.66,28.57,28.57,0,0,1,100.92,38.12ZM-58.81,104.69l-.11,0a4.89,4.89,0,0,1-.66.05,4.93,4.93,0,0,1-4.93-4.93,4.93,4.93,0,0,1,4.93-4.92,4.87,4.87,0,0,1,.66,0l.12,0a4.93,4.93,0,0,1,4.14,4.86A4.93,4.93,0,0,1-58.81,104.69Zm98.74,33.24A4.93,4.93,0,1,1,44.85,133,4.93,4.93,0,0,1,39.93,137.93Zm-60.14,89.95a28.57,28.57,0,0,1-28.54-28.54A28.57,28.57,0,0,1-20.21,170.8,28.58,28.58,0,0,1,8.34,199.34,28.58,28.58,0,0,1-20.21,227.88Zm159.65-56.79a4.68,4.68,0,0,1-.66,0l-.12,0a4.92,4.92,0,0,1,0-9.72l.12,0a4.65,4.65,0,0,1,.66,0,4.93,4.93,0,0,1,0,9.85Z" />
    </g>
</svg>