<?xml version="1.0" encoding="UTF-8"?><svg id="uuid-f22add88-41e8-4468-81fb-53aa319238f4" xmlns="http://www.w3.org/2000/svg" viewBox="0 0 200 200"><path d="M66.17,0H25.04C11.23,0,0,11.23,0,25.04v41.13C0,79.97,11.23,91.2,25.04,91.2h41.13c13.8,0,25.04-11.23,25.04-25.04V25.04c0-13.8-11.23-25.04-25.04-25.04Zm12.86,66.17c0,7.09-5.77,12.86-12.86,12.86H25.04c-7.09,0-12.86-5.77-12.86-12.86V25.04c0-7.09,5.77-12.86,12.86-12.86h41.13c7.09,0,12.86,5.77,12.86,12.86v41.13Z"/><path d="M174.96,0h-41.13c-13.8,0-25.04,11.23-25.04,25.04v41.13c0,13.8,11.23,25.04,25.04,25.04h41.13c13.8,0,25.04-11.23,25.04-25.04V25.04c0-13.8-11.23-25.04-25.04-25.04Zm12.86,66.17c0,7.09-5.77,12.86-12.86,12.86h-41.13c-7.09,0-12.86-5.77-12.86-12.86V25.04c0-7.09,5.77-12.86,12.86-12.86h41.13c7.09,0,12.86,5.77,12.86,12.86v41.13Z"/><path d="M66.17,108.8H25.04C11.23,108.8,0,120.03,0,133.83v41.13C0,188.77,11.23,200,25.04,200h41.13c13.8,0,25.04-11.23,25.04-25.04v-41.13c0-13.8-11.23-25.04-25.04-25.04Zm12.86,66.17c0,7.09-5.77,12.86-12.86,12.86H25.04c-7.09,0-12.86-5.77-12.86-12.86v-41.13c0-7.09,5.77-12.86,12.86-12.86h41.13c7.09,0,12.86,5.77,12.86,12.86v41.13Z"/><path d="M174.96,108.8h-41.13c-13.8,0-25.04,11.23-25.04,25.04v41.13c0,13.8,11.23,25.04,25.04,25.04h41.13c13.8,0,25.04-11.23,25.04-25.04v-41.13c0-13.8-11.23-25.04-25.04-25.04Zm12.86,66.17c0,7.09-5.77,12.86-12.86,12.86h-41.13c-7.09,0-12.86-5.77-12.86-12.86v-41.13c0-7.09,5.77-12.86,12.86-12.86h41.13c7.09,0,12.86,5.77,12.86,12.86v41.13Z"/></svg>