<?xml version="1.0" encoding="UTF-8"?><svg id="uuid-440160d6-b5c0-4397-8fb2-ad21d32f69db" xmlns="http://www.w3.org/2000/svg" viewBox="0 0 200 200"><path d="M196.97,32.28l-10.46-5.54c-24.53-12.98-53.81-12.98-78.33,0l-8.17,4.32-8.17-4.32c-24.52-12.98-53.81-12.98-78.33,0l-10.42,5.51c-1.9,.98-3.08,2.92-3.08,5.06V177.29c0,1.89,.93,3.65,2.5,4.72,1.57,1.06,3.55,1.29,5.33,.58l20.42-8.16c15.75-6.29,33.08-6.29,48.83,0l20.44,8.17c.68,.27,1.39,.4,2.1,.4,.08,0,.17-.03,.25-.04,.88,.08,1.78-.03,2.63-.37l20.42-8.16c15.75-6.29,33.08-6.29,48.83,0l20.44,8.17c.68,.27,1.39,.4,2.1,.4,1.13,0,2.25-.34,3.21-.99,1.56-1.07,2.5-2.83,2.5-4.72V37.32c0-2.14-1.18-4.08-3.03-5.04ZM24.3,164.54l-13.65,5.45V40.3l7.83-4.14c21.4-11.32,46.96-11.33,68.37,0l7.83,4.14V169.99l-13.65-5.45c-18.29-7.31-38.44-7.31-56.73,0Zm165.05,5.45l-13.65-5.45c-18.29-7.31-38.44-7.31-56.73,0l-13.65,5.45V40.3l7.83-4.14c21.4-11.32,46.96-11.33,68.37,0l7.83,4.14V169.99Z"/></svg>