<svg xmlns="http://www.w3.org/2000/svg" id="b85defcf-4adf-4a1e-a900-20afdb7731d9" data-name="Layer 1" version="1.1" viewBox="0 0 550.92 262"><defs id="defs16"><clipPath id="ac022ff0-2dde-4447-86e5-3e7d126504af"><path id="rect4" d="M-24.21-380.97h599.34v262H-24.21z" class="a61f70b8-9e2c-4f4e-a297-3d94d1743298"/></clipPath><clipPath id="adb1b9d2-99e6-463e-9a73-d2fd45eb016f"><path id="rect7" d="M-698.37 0h153.62v262h-153.62z" class="a61f70b8-9e2c-4f4e-a297-3d94d1743298"/></clipPath><clipPath id="a0b2c169-4747-470c-b7fd-7d5915b20f14"><path id="rect10" d="M0 0h550.92v262H0z" class="a61f70b8-9e2c-4f4e-a297-3d94d1743298"/></clipPath><clipPath id="bc456495-2255-4f52-9ad6-4b079a7e6087"><path id="path13" d="M636.48 165.56c0 105.24-85.31 190.56-190.56 190.56-48.12 0-417.85-1.88-439.26-41-29.32-53.6.23-118.31 111.43-133.1C328.68 154 235.51 3.16 435.56-25c104.21-14.67 200.92 85.32 200.92 190.56Z" class="a61f70b8-9e2c-4f4e-a297-3d94d1743298"/></clipPath><style id="style2">.a61f70b8-9e2c-4f4e-a297-3d94d1743298{fill:none}.af27ca15-b9f7-4ac7-95b2-83fb9e459fa4{opacity:.5}</style></defs><g id="g146" clip-path="url(#a0b2c169-4747-470c-b7fd-7d5915b20f14)" style="clip-path:url(#a0b2c169-4747-470c-b7fd-7d5915b20f14)"><path id="path24" d="M640.7 164c0 105.24-85.32 190.56-190.56 190.56-48.12 0-417.86-1.88-439.27-41-29.32-53.59.24-118.31 111.43-133.09 210.59-28 117.42-178.85 317.47-207C544-41.23 640.7 58.75 640.7 164Z" class="colored" style="opacity:.1"/><g id="g144" style="clip-path:url(#bc456495-2255-4f52-9ad6-4b079a7e6087)"><g id="g86" class="af27ca15-b9f7-4ac7-95b2-83fb9e459fa4"><circle id="circle26" cx="378.9" cy="10.41" r="2.82" class="colored"/><circle id="circle28" cx="376.08" cy="154.8" r="2.82" class="colored"/><circle id="circle30" cx="288.03" cy="239.55" r="2.82" class="colored"/><circle id="circle32" cx="271.78" cy="52.63" r="2.82" class="colored"/><circle id="circle34" cx="487.29" cy="147.09" r="2.82" class="colored"/><circle id="circle36" cx="364.24" cy="123.43" r="3.99" class="colored"/><circle id="circle38" cx="490.11" cy="231.25" r="3.99" class="colored"/><circle id="circle40" cx="274.6" cy="164.15" r="3.99" class="colored"/><rect id="rect42" width="11.19" height="2.55" x="488.87" y="19.55" class="colored" rx="1.08" transform="rotate(39.01 494.46 20.817)"/><rect id="rect44" width="11.19" height="2.55" x="466.24" y="162.62" class="colored" rx="1.08" transform="rotate(39.01 471.822 163.889)"/><rect id="rect46" width="11.19" height="2.55" x="481.69" y="255.44" class="colored" rx="1.08" transform="rotate(129.01 487.289 256.712)"/><rect id="rect48" width="10.23" height="2.33" x="373.79" y="51.46" class="colored" rx=".98" transform="rotate(-45 378.907 52.622)"/><rect id="rect50" width="10.23" height="2.33" x="373.79" y="51.46" class="colored" rx=".98" transform="rotate(45 378.902 52.626)"/><rect id="rect52" width="10.23" height="2.33" x="263.85" y="132.75" class="colored" rx=".98" transform="rotate(-45 268.967 133.91)"/><rect id="rect54" width="10.23" height="2.33" x="263.85" y="132.75" class="colored" rx=".98" transform="rotate(45 268.96 133.917)"/><rect id="rect56" width="10.23" height="2.33" x="500.57" y="-2.84" class="colored" rx=".98" transform="rotate(-45 505.696 -1.676)"/><rect id="rect58" width="10.23" height="2.33" x="500.57" y="-2.84" class="colored" rx=".98" transform="rotate(45 505.694 -1.675)"/><rect id="rect60" width="10.23" height="2.33" x="466.72" y="82.58" class="colored" rx=".98"/><rect id="rect62" width="10.23" height="2.33" x="466.72" y="82.58" class="colored" rx=".98" transform="rotate(90 471.83 83.75)"/><rect id="rect64" width="10.23" height="2.33" x="353.16" y="235.2" class="colored" rx=".98"/><rect id="rect66" width="10.23" height="2.33" x="353.16" y="235.2" class="colored" rx=".98" transform="rotate(90 358.27 236.37)"/><path id="path68" d="M312.16 88a2.92 2.92 0 1 0-3.56-2.08 2.92 2.92 0 0 0 3.56 2.08ZM311 83.61a1.64 1.64 0 1 1-1.17 2 1.64 1.64 0 0 1 1.17-2Zm-11.78 20.64a2.92 2.92 0 1 0 3.57 2.08 2.92 2.92 0 0 0-3.57-2.08Zm1.17 4.41a1.64 1.64 0 1 1 1.17-2 1.65 1.65 0 0 1-1.17 2Zm19.39-13.52a5.23 5.23 0 0 0-5.49-1.93l-7 1.85a1.95 1.95 0 0 0-3.56.94l-7 1.86a4 4 0 0 1-4-1.28 1.95 1.95 0 0 0-.85-3.22 4 4 0 0 1 2.86-3.09l11.93-3.14a5.22 5.22 0 1 0-.32-1.23L294.33 89a5.26 5.26 0 0 0-3.83 4.38 2 2 0 0 0 1 3.74 5.23 5.23 0 0 0 5.5 1.97l7-1.86a1.95 1.95 0 0 0 3.56-.94l7-1.85a4 4 0 0 1 4 1.28 1.94 1.94 0 0 0-.49 1.85 2 2 0 0 0 1.34 1.37 4 4 0 0 1-2.86 3.08l-11.82 3.12a5.21 5.21 0 1 0 .32 1.23l11.83-3.12a5.21 5.21 0 0 0 3.82-4.38 1.95 1.95 0 0 0-1-3.73Zm-9.36-13.74a3.92 3.92 0 1 1-2.8 4.8 3.93 3.93 0 0 1 2.8-4.8Zm-18.9 14.44h-.09a.66.66 0 0 1-.82-.48.68.68 0 0 1 .48-.83h.09a.68.68 0 0 1 .72.5.67.67 0 0 1-.38.81Zm14.29 1a.68.68 0 1 1-.35-1.31.69.69 0 0 1 .83.49.67.67 0 0 1-.48.78ZM301 110.86a3.92 3.92 0 1 1 2.79-4.79 3.94 3.94 0 0 1-2.79 4.79Zm19.22-13.14h-.09a.67.67 0 0 1-.73-.5.69.69 0 0 1 .39-.79h.09a.67.67 0 1 1 .34 1.3Z" class="colored"/><path id="path70" d="M539.74 88.12a2.91 2.91 0 1 0-3.56 2.07 2.91 2.91 0 0 0 3.56-2.07Zm-1.23-.33a1.64 1.64 0 1 1-1.17-2 1.64 1.64 0 0 1 1.17 2Zm7 20.71a2.92 2.92 0 1 0 3.57-2.07 2.93 2.93 0 0 0-3.53 2.07Zm1.23.33a1.64 1.64 0 1 1 1.17 2 1.65 1.65 0 0 1-1.13-2Zm-20.3-10.08a2 2 0 0 0 1.14 2.3 5.22 5.22 0 0 0 3.82 4.38l11.83 3.12a5.17 5.17 0 1 0 .32-1.23l-11.82-3.12a4 4 0 0 1-2.86-3.08 1.95 1.95 0 0 0 .85-3.22 4 4 0 0 1 4-1.28l7 1.85a1.95 1.95 0 0 0 3.56.94l7 1.85a5.23 5.23 0 0 0 5.49-1.92 2 2 0 0 0 1-3.74 5.22 5.22 0 0 0-3.77-4.38l-11.94-3.15a5.18 5.18 0 1 0-.32 1.23l11.93 3.15a4 4 0 0 1 2.86 3.09 1.95 1.95 0 0 0-.85 3.22 4 4 0 0 1-4 1.27l-7-1.85a1.95 1.95 0 0 0-3.56-.94l-7-1.85a5.24 5.24 0 0 0-5.49 1.92 2 2 0 0 0-2.19 1.44Zm14.28-10.38a3.92 3.92 0 1 1-2.8-4.79 3.93 3.93 0 0 1 2.8 4.79Zm15.72 8.86a.68.68 0 0 1 .72-.5h.09a.68.68 0 0 1-.34 1.31h-.09a.67.67 0 0 1-.38-.81Zm-14.39.92a.68.68 0 1 1 1.31.35.68.68 0 0 1-1.31-.35Zm2.53 10.1a3.92 3.92 0 1 1 2.79 4.79 3.93 3.93 0 0 1-2.79-4.79Zm-16.91-9.17a.68.68 0 0 1 .82-.49h.09a.67.67 0 0 1-.34 1.29h-.09a.66.66 0 0 1-.48-.8Z" class="colored"/><path id="path72" d="M434 1.35a2.92 2.92 0 0 0 3.74-1.74A2.92 2.92 0 0 0 436-4.13a2.92 2.92 0 0 0-3.74 1.74A2.92 2.92 0 0 0 434 1.35Zm1.56-4.28a1.64 1.64 0 0 1 1 2.1 1.65 1.65 0 0 1-2.11 1 1.63 1.63 0 0 1-1-2.11 1.63 1.63 0 0 1 2.1-.99ZM414.1 7.29a2.91 2.91 0 1 0 1.74 3.71 2.92 2.92 0 0 0-1.74-3.71Zm-1.56 4.28a1.64 1.64 0 1 1 2.1-1 1.63 1.63 0 0 1-2.1 1Zm23.64 0a5.22 5.22 0 0 0-3.41-4.71l-6.83-2.5a1.95 1.95 0 0 0-3.46-1.26L415.64.57a4 4 0 0 1-2.56-3.33A2 2 0 0 0 414.54-4a1.94 1.94 0 0 0-.31-1.88 4 4 0 0 1 4.1-.91l11.6 4.24a5.2 5.2 0 0 0 3.28 6.05 5.21 5.21 0 0 0 6.66-3.1 5.2 5.2 0 0 0-3.1-6.66 5.21 5.21 0 0 0-6.41 2.51L418.77-8a5.23 5.23 0 0 0-5.65 1.41 1.94 1.94 0 0 0-2.24 1.24 2 2 0 0 0 .92 2.39 5.24 5.24 0 0 0 3.41 4.72l6.79 2.5a1.95 1.95 0 0 0 3.46 1.27L432.33 8a4 4 0 0 1 2.56 3.34 1.95 1.95 0 0 0-1.14 3.13 4 4 0 0 1-4.11.9l-11.48-4.17a5.21 5.21 0 1 0-.44 1.19l11.49 4.19a5.21 5.21 0 0 0 5.64-1.41 2 2 0 0 0 1.33-3.63Zm.15-16.62a3.93 3.93 0 0 1 2.34 5 3.92 3.92 0 0 1-5 2.34 3.93 3.93 0 0 1-2.34-5 3.93 3.93 0 0 1 5-2.37ZM412.58-4h-.09a.68.68 0 0 1-.4-.87.68.68 0 0 1 .87-.4.2.2 0 0 1 .08 0 .68.68 0 0 1 .3.83.68.68 0 0 1-.76.44Zm11.18 8.94a.68.68 0 1 1 .86-.4.66.66 0 0 1-.86.39Zm-12 8.78a3.92 3.92 0 1 1 5-2.34 3.93 3.93 0 0 1-5.01 2.33Zm23.24.18h-.09a.68.68 0 0 1-.31-.82.69.69 0 0 1 .77-.44h.09a.69.69 0 0 1 .41.87.68.68 0 0 1-.87.39Z" class="colored"/><path id="path74" d="M429.86 189.18a2.91 2.91 0 1 0-3.72-1.79 2.92 2.92 0 0 0 3.72 1.79Zm-1.51-4.3a1.64 1.64 0 1 1-1 2.09 1.65 1.65 0 0 1 1-2.09Zm-10.12 21.5a2.91 2.91 0 1 0 3.71 1.79 2.92 2.92 0 0 0-3.71-1.79Zm1.5 4.3a1.64 1.64 0 1 1 1-2.09 1.64 1.64 0 0 1-1 2.09Zm18.28-15a5.22 5.22 0 0 0-5.62-1.49l-6.87 2.39a2 2 0 0 0-3.48 1.22l-6.87 2.4a4 4 0 0 1-4.09-1 2 2 0 0 0 .34-1.89 2 2 0 0 0-1.42-1.21 4 4 0 0 1 2.61-3.3l11.65-4.07a5.19 5.19 0 1 0-.42-1.2l-11.65 4.07a5.24 5.24 0 0 0-3.48 4.67 2 2 0 0 0 1.28 3.65 5.25 5.25 0 0 0 5.62 1.49l6.87-2.4a2 2 0 0 0 3.48-1.22l6.86-2.39a4 4 0 0 1 4.1 1 2 2 0 0 0-.34 1.88 1.91 1.91 0 0 0 1.42 1.22 4 4 0 0 1-2.61 3.3l-11.54 4a5.2 5.2 0 1 0 .42 1.2l11.54-4a5.21 5.21 0 0 0 3.47-4.67 1.94 1.94 0 0 0-1.27-3.64Zm-10.41-13a3.92 3.92 0 1 1-2.41 5 3.93 3.93 0 0 1 2.41-4.95Zm-17.7 15.92h-.08a.67.67 0 1 1-.45-1.27h.09a.66.66 0 0 1 .75.44.67.67 0 0 1-.31.83Zm14.31-.16a.68.68 0 1 1-.44-1.28.68.68 0 0 1 .44 1.28Zm-3.73 14.4a3.92 3.92 0 1 1 2.41-5 3.92 3.92 0 0 1-2.41 5Zm18.14-14.6h-.08a.68.68 0 0 1-.44-1.26h.09a.68.68 0 0 1 .86.41.68.68 0 0 1-.43.85Z" class="colored"/><path id="path76" d="M316.31 3.92 299-10.55l-21.7 5.88 8.16 6.87-1.7 7.71 20.6 4.54 1.7-7.71 5.09-1.4-1.92 8.73-3.4 4.5 2.58 4.63 4.29-3.11-1.19-5.52 2.19-9.93Zm-7.14 15.85-.56-1 1.1-1.46.39 1.79Zm-6.59-8.1-16-3.54 1.63-7.4a19.48 19.48 0 0 1 8.36 0 20 20 0 0 1 7.68 3.49Zm4.05-7.5.18-.83A22.53 22.53 0 0 0 297-1.51a22.09 22.09 0 0 0-10.83.31l-.17.83-3.81-3.21L298.46-8 311.4 2.85Z" class="colored"/><path id="path78" d="m538.77 4.64 2.23 9.93-1.19 5.52 4.29 3.11 2.59-4.63-3.4-4.5-1.93-8.73 5.09 1.4 1.7 7.71 20.61-4.54L567 2.2l8.16-6.87-21.74-5.88-17.27 14.47Zm3.6 14.45.38-1.79 1.11 1.46-.56 1Zm5.88-14.83a20.18 20.18 0 0 1 7.68-3.49 19.48 19.48 0 0 1 8.36 0l1.63 7.4-16 3.54Zm-7.18-1.41L554-8l16.25 4.4-3.81 3.23-.18-.83a22.1 22.1 0 0 0-10.83-.31 22.6 22.6 0 0 0-9.78 4.85l.19.83Z" class="colored"/><path id="path80" d="m522.07 197.79 2.18 9.92-1.19 5.52 4.29 3.12 2.59-4.64-3.4-4.5-1.93-8.72 5.09 1.4 1.7 7.7 20.6-4.54-1.7-7.7 8.15-6.88-21.73-5.88-17.28 14.48Zm3.6 14.44.38-1.78 1.11 1.46-.56 1Zm5.88-14.82a20.05 20.05 0 0 1 7.68-3.5 19.48 19.48 0 0 1 8.36 0l1.63 7.4-16 3.54Zm-7.18-1.41 12.93-10.84 16.25 4.4-3.81 3.21-.18-.83a22.1 22.1 0 0 0-10.83-.31 22.85 22.85 0 0 0-9.78 4.85l.19.83Z" class="colored"/><path id="path82" d="m327.57 194.89-17.29-14.48-21.73 5.88 8.16 6.88-1.7 7.7 20.6 4.54 1.7-7.7 5.1-1.4-1.93 8.69-3.4 4.51 2.58 4.63 4.3-3.12-1.2-5.52 2.19-9.92Zm-7.15 15.84-.56-1 1.1-1.46.39 1.79Zm-6.58-8.1-16-3.54 1.63-7.4a19.64 19.64 0 0 1 8.36 0 20.2 20.2 0 0 1 7.68 3.5Zm4-7.5.18-.83a22.7 22.7 0 0 0-9.77-4.85 22.1 22.1 0 0 0-10.83.31l-.18.83-3.81-3.21 16.25-4.4 12.93 10.84Z" class="colored"/><path id="path84" d="m439.84 89.63-22.11-4.44-16.26 15.56 10.45 2.14 2.2 7.57 20.26-5.87-2.2-7.59 3.8-3.67 2.49 8.58-.83 5.59 4.49 2.83 2.27-4.79-3.69-4.28-2.83-9.76Zm1.31 17.37-1-.62.27-1.81 1.2 1.39Zm-9.66-4-15.78 4.57-2.11-7.28a19.65 19.65 0 0 1 7.36-4 20 20 0 0 1 8.42-.6Zm0-8.53-.24-.81a22.57 22.57 0 0 0-10.9.42 22 22 0 0 0-9.35 5.46l.24.81-4.89-1 12.17-11.65L435 91Z" class="colored"/></g><g id="g142" class="af27ca15-b9f7-4ac7-95b2-83fb9e459fa4"><circle id="circle88" cx="38.98" cy="10.41" r="2.82" class="colored"/><circle id="circle90" cx="232.8" cy="55.45" r="2.82" class="colored"/><circle id="circle92" cx="36.16" cy="154.8" r="2.82" class="colored"/><circle id="circle94" cx="147.36" cy="147.09" r="2.82" class="colored"/><circle id="circle96" cx="242.08" cy="248.38" r="1.99" class="colored"/><circle id="circle98" cx="24.31" cy="123.43" r="3.99" class="colored"/><circle id="circle100" cx="150.18" cy="231.25" r="3.99" class="colored"/><circle id="circle102" cx="246.07" cy="78.63" r="3.99" class="colored"/><rect id="rect104" width="11.19" height="2.55" x="148.94" y="19.55" class="colored" rx="1.08" transform="rotate(39.01 154.533 20.819)"/><rect id="rect106" width="11.19" height="2.55" x="126.31" y="162.62" class="colored" rx="1.08" transform="rotate(39.01 131.909 163.886)"/><rect id="rect108" width="11.19" height="2.55" x="141.76" y="255.44" class="colored" rx="1.08" transform="rotate(129.01 147.364 256.716)"/><rect id="rect110" width="10.23" height="2.33" x="33.86" y="51.46" class="colored" rx=".98" transform="rotate(-45 38.97 52.628)"/><rect id="rect112" width="10.23" height="2.33" x="33.86" y="51.46" class="colored" rx=".98" transform="rotate(45 38.981 52.627)"/><rect id="rect114" width="10.23" height="2.33" x="160.65" y="-2.84" class="colored" rx=".98" transform="rotate(-45 165.764 -1.681)"/><rect id="rect116" width="10.23" height="2.33" x="160.65" y="-2.84" class="colored" rx=".98" transform="rotate(45 165.761 -1.67)"/><rect id="rect118" width="10.23" height="2.33" x="126.79" y="82.58" class="colored" rx=".98"/><rect id="rect120" width="10.23" height="2.33" x="126.79" y="82.58" class="colored" rx=".98" transform="rotate(90 131.91 83.75)"/><rect id="rect122" width="10.23" height="2.33" x="230.5" y="166.97" class="colored" rx=".98" transform="rotate(39.01 235.61 168.125)"/><rect id="rect124" width="10.23" height="2.33" x="230.5" y="166.97" class="colored" rx=".98" transform="matrix(-.63 .78 -.78 -.63 514.57 90.88)"/><rect id="rect126" width="10.23" height="2.33" x="13.23" y="235.2" class="colored" rx=".98"/><rect id="rect128" width="10.23" height="2.33" x="13.23" y="235.2" class="colored" rx=".98" transform="rotate(90 18.35 236.37)"/><path id="path130" d="M199.82 88.12a2.92 2.92 0 1 0-3.57 2.07 2.93 2.93 0 0 0 3.57-2.07Zm-1.23-.33a1.64 1.64 0 0 1-3.18-.83 1.64 1.64 0 0 1 3.18.83Zm7 20.71a2.91 2.91 0 1 0 3.56-2.07 2.92 2.92 0 0 0-3.52 2.07Zm1.23.33a1.64 1.64 0 1 1 1.17 2 1.64 1.64 0 0 1-1.13-2Zm-20.31-10.08a2 2 0 0 0 1.14 2.3 5.22 5.22 0 0 0 3.83 4.38l11.82 3.12a5.17 5.17 0 1 0 .32-1.23l-11.82-3.12a3.92 3.92 0 0 1-2.85-3.08 1.94 1.94 0 0 0 .84-3.22 4 4 0 0 1 4-1.28l7 1.85a2 2 0 0 0 3.57.94l7 1.85a5.22 5.22 0 0 0 5.49-1.92 2 2 0 0 0 1-3.74 5.24 5.24 0 0 0-3.83-4.38l-11.94-3.15a5.18 5.18 0 1 0-.32 1.23l11.93 3.15a4 4 0 0 1 2.86 3.09 1.95 1.95 0 0 0-.85 3.22 3.94 3.94 0 0 1-4 1.27l-7-1.85a1.95 1.95 0 0 0-3.56-.94l-7-1.85a5.25 5.25 0 0 0-5.49 1.92 2 2 0 0 0-2.14 1.44Zm14.28-10.38a3.92 3.92 0 1 1-2.79-4.79 3.92 3.92 0 0 1 2.79 4.79Zm15.72 8.86a.68.68 0 0 1 .72-.5h.09a.68.68 0 1 1-.35 1.31h-.09a.67.67 0 0 1-.37-.81Zm-14.39.92a.69.69 0 0 1 .83-.48.68.68 0 0 1 .48.83.66.66 0 0 1-.82.48.68.68 0 0 1-.49-.83Zm2.53 10.1a3.92 3.92 0 1 1 2.8 4.79 3.93 3.93 0 0 1-2.8-4.79Zm-16.91-9.17a.68.68 0 0 1 .83-.49h.08a.68.68 0 0 1-.34 1.29h-.09a.66.66 0 0 1-.48-.8Z" class="colored"/><path id="path132" d="M94.06 1.35A2.92 2.92 0 0 0 97.8-.39a2.92 2.92 0 0 0-1.74-3.74 2.92 2.92 0 0 0-3.74 1.74 2.92 2.92 0 0 0 1.74 3.74Zm1.56-4.28a1.62 1.62 0 0 1 1 2.1 1.64 1.64 0 0 1-2.1 1 1.65 1.65 0 0 1-1-2.11 1.63 1.63 0 0 1 2.1-.99ZM74.17 7.29A2.91 2.91 0 1 0 75.91 11a2.92 2.92 0 0 0-1.74-3.71Zm-1.56 4.28a1.65 1.65 0 1 1 2.1-1 1.65 1.65 0 0 1-2.1 1Zm23.64 0a5.22 5.22 0 0 0-3.41-4.71L86 4.33a1.95 1.95 0 0 0-3.46-1.26L75.72.57a4 4 0 0 1-2.56-3.33A2 2 0 0 0 74.61-4a1.94 1.94 0 0 0-.31-1.88 4 4 0 0 1 4.11-.91L90-2.56a5.21 5.21 0 0 0 3.28 6.05 5.2 5.2 0 0 0 6.66-3.1 5.2 5.2 0 0 0-3.1-6.66 5.19 5.19 0 0 0-6.4 2.51L78.84-8a5.21 5.21 0 0 0-5.64 1.42A2 2 0 0 0 71-5.34a2 2 0 0 0 .92 2.39 5.24 5.24 0 0 0 3.41 4.72l6.83 2.49a1.95 1.95 0 0 0 3.46 1.27L92.41 8A4 4 0 0 1 95 11.36a1.95 1.95 0 0 0-1.14 3.13 4 4 0 0 1-4.11.9L78.23 11.2a5.17 5.17 0 1 0-.43 1.19l11.48 4.19a5.21 5.21 0 0 0 5.64-1.41 2 2 0 0 0 1.33-3.63Zm.16-16.62a3.93 3.93 0 0 1 2.34 5 3.93 3.93 0 0 1-5 2.34 3.92 3.92 0 0 1-2.34-5 3.93 3.93 0 0 1 5-2.37ZM72.65-4h-.08a.69.69 0 0 1-.41-.87.68.68 0 0 1 .87-.4h.08a.7.7 0 0 1 .31.83.7.7 0 0 1-.77.44Zm11.18 8.93a.68.68 0 0 1-.4-.87.66.66 0 0 1 .86-.4.69.69 0 0 1 .41.87.68.68 0 0 1-.87.4Zm-12 8.78a3.92 3.92 0 1 1 5-2.34 3.92 3.92 0 0 1-5 2.34Zm23.28.19h-.08a.68.68 0 0 1 .46-1.26h.08a.68.68 0 1 1-.46 1.27Z" class="colored"/><path id="path134" d="M89.93 189.18a2.91 2.91 0 1 0-3.71-1.79 2.91 2.91 0 0 0 3.71 1.79Zm-1.5-4.3a1.64 1.64 0 1 1-1 2.09 1.64 1.64 0 0 1 1-2.09Zm-10.13 21.5a2.91 2.91 0 1 0 3.7 1.79 2.92 2.92 0 0 0-3.7-1.79Zm1.51 4.3a1.64 1.64 0 1 1 1-2.09 1.65 1.65 0 0 1-1 2.09Zm18.27-15a5.21 5.21 0 0 0-5.62-1.49l-6.87 2.39a2 2 0 0 0-3.48 1.22l-6.87 2.4a4 4 0 0 1-4.09-1 1.95 1.95 0 0 0-1.1-3.15 4 4 0 0 1 2.61-3.3l11.65-4.07a5.19 5.19 0 1 0-.42-1.2l-11.65 4.12a5.26 5.26 0 0 0-3.48 4.67 2 2 0 0 0 1.24 3.65 5.25 5.25 0 0 0 5.62 1.49l6.87-2.4a2 2 0 0 0 3.51-1.22l6.87-2.39a4 4 0 0 1 4.09 1 1.94 1.94 0 0 0 1.1 3.14 4 4 0 0 1-2.61 3.3l-11.54 4a5.2 5.2 0 1 0 .42 1.2l11.54-4a5.22 5.22 0 0 0 3.48-4.67 1.95 1.95 0 0 0-1.28-3.64Zm-10.4-13a3.92 3.92 0 1 1-2.41 5 3.92 3.92 0 0 1 2.41-4.95ZM70 198.6h-.08a.67.67 0 1 1-.44-1.27h.08a.68.68 0 0 1 .44 1.27Zm14.31-.16a.67.67 0 0 1-.86-.42.68.68 0 0 1 1.28-.44.67.67 0 0 1-.45.86Zm-3.72 14.4a3.92 3.92 0 1 1 2.41-5 3.93 3.93 0 0 1-2.44 5Zm18.14-14.6h-.09a.68.68 0 0 1-.44-1.26h.08a.68.68 0 0 1 .45 1.28Z" class="colored"/><path id="path136" d="m198.84 4.64 2.16 9.93-1.19 5.52 4.29 3.11 2.58-4.63-3.4-4.5-1.92-8.73 5.09 1.4 1.7 7.71 20.6-4.54-1.7-7.71 8.16-6.87-21.73-5.88-17.25 14.47Zm3.6 14.45.39-1.79 1.1 1.46-.56 1Zm5.88-14.83A20.18 20.18 0 0 1 216 .77a19.48 19.48 0 0 1 8.36 0L226 8.13l-16 3.54Zm-7.18-1.41L214.07-8l16.25 4.4-3.81 3.23-.18-.83a22.1 22.1 0 0 0-10.83-.31 22.45 22.45 0 0 0-9.77 4.85l.18.83Z" class="colored"/><path id="path138" d="m182.14 197.79 2.19 9.92-1.19 5.52 4.29 3.12 2.58-4.64-3.4-4.5-1.92-8.72 5.09 1.4 1.7 7.7 20.6-4.54-1.7-7.7 8.16-6.88-21.73-5.88-17.29 14.48Zm3.6 14.44.39-1.78 1.1 1.46-.56 1Zm5.88-14.82a20.05 20.05 0 0 1 7.68-3.5 19.48 19.48 0 0 1 8.36 0l1.64 7.4-16.05 3.54Zm-7.18-1.41 12.93-10.84 16.25 4.4-3.81 3.21-.18-.83a22.1 22.1 0 0 0-10.83-.31 22.7 22.7 0 0 0-9.77 4.85l.18.83Z" class="colored"/><path id="path140" d="m99.91 89.63-22.1-4.44-16.27 15.56L72 102.89l2.2 7.57 20.26-5.87-2.2-7.59 3.8-3.67 2.48 8.58-.83 5.59 4.49 2.83 2.27-4.79-3.68-4.28L98 91.51Zm1.31 17.37-1-.62.27-1.81 1.19 1.39Zm-9.66-4-15.78 4.57-2.11-7.28a19.72 19.72 0 0 1 7.36-4 20 20 0 0 1 8.42-.6Zm0-8.53-.23-.81a22.62 22.62 0 0 0-10.91.42A22.11 22.11 0 0 0 71 99.54l.24.81-4.88-1 12.18-11.64L95.08 91Z" class="colored"/></g></g></g></svg>