<svg id="b12db070-e52d-4559-9bb7-f71e8c15799b" data-name="Layer 1" xmlns="http://www.w3.org/2000/svg" xmlns:xlink="http://www.w3.org/1999/xlink" viewBox="0 0 599.34 262"><defs><style>.a2d3b75f-982f-437b-9cb6-f31a4ed6e68f,.a3d40385-8b64-4dea-b072-99a81b243b54,.afa66817-3efc-4e5f-b76c-85443fb50a6f,.b551afc4-487a-4561-8a26-2c5e76f813d7,.bd233f27-5e4a-48e9-a67a-42d6d181493c,.e36d80c7-a8ca-41b2-a960-7f0fe2ec23ed{fill:none;}.ff5857ae-a341-42fb-a1a0-368a791a5c0b{clip-path:url(#b4ea844a-74f5-432d-b8a1-1d2cc143cddd);}.a2528b03-a031-4441-b576-f1776271ed32,.a9c731a4-8aee-4e45-ae31-f0f04b4ed93c{fill:#5ec2c1;}.a2528b03-a031-4441-b576-f1776271ed32{opacity:0.1;}.a9df304a-e4fb-4442-8630-0fb426a3aa31{fill:#f26d5a;}.a2030e5a-1dec-41e0-8721-37ededf1feaa{fill:#f98c80;}.bc99bb39-60e5-4ff9-a559-ceda4ba9a32c{fill:#fff;}.a6c98bf1-fc55-4374-b499-7fa30cb35d16{fill:#a7eae6;}.a2d3b75f-982f-437b-9cb6-f31a4ed6e68f,.a3d40385-8b64-4dea-b072-99a81b243b54,.e36d80c7-a8ca-41b2-a960-7f0fe2ec23ed{stroke:#a7eae6;}.a2d3b75f-982f-437b-9cb6-f31a4ed6e68f,.a3d40385-8b64-4dea-b072-99a81b243b54,.afa66817-3efc-4e5f-b76c-85443fb50a6f,.b551afc4-487a-4561-8a26-2c5e76f813d7,.e36d80c7-a8ca-41b2-a960-7f0fe2ec23ed{stroke-miterlimit:10;}.afa66817-3efc-4e5f-b76c-85443fb50a6f{stroke:#f26d5a;}.e36d80c7-a8ca-41b2-a960-7f0fe2ec23ed{stroke-width:2px;}.a2d3b75f-982f-437b-9cb6-f31a4ed6e68f,.b551afc4-487a-4561-8a26-2c5e76f813d7{stroke-linecap:round;}.b551afc4-487a-4561-8a26-2c5e76f813d7{stroke:#fff;}.bfeff178-1fdb-49fb-ba58-6b9529b19655{fill:#e7ada2;}.e73ffd3c-cb6b-4eae-a2d9-72f369cd4e92{fill:#4ea09d;}.fe4e33cf-039c-41da-a34a-4e9bcd93e580{fill:#b55b52;}.bf11398a-8403-4b9a-a5b7-784159d67e49{fill:#163345;}.ab2a2834-4b94-4901-a618-4811bae42cd2{fill:#f4d265;}</style><clipPath id="b4ea844a-74f5-432d-b8a1-1d2cc143cddd"><rect class="bd233f27-5e4a-48e9-a67a-42d6d181493c" width="599.34" height="262"/></clipPath></defs><g class="ff5857ae-a341-42fb-a1a0-368a791a5c0b"><path class="a2528b03-a031-4441-b576-f1776271ed32" d="M623.9,295.3,322.24,318.73S0,378,0,280.66c0-106.87,115.66-61.72,189.42-161.74C262.47,19.88,298-1.35,338.09-11.32,391-24.5,448.12-16.95,494.34,9,564.09,48.28,644.79,130,623.9,295.3Z"/><path class="a2528b03-a031-4441-b576-f1776271ed32" d="M623.9,354.78,322.24,378.21S0,437.46,0,340.15c0-106.88,115.66-61.73,189.42-161.74C262.47,79.36,298,58.13,338.09,48.16,391,35,448.12,42.53,494.34,68.52,564.09,107.76,644.79,189.49,623.9,354.78Z"/><path class="a2528b03-a031-4441-b576-f1776271ed32" d="M623.9,494.83,322.24,518.25S0,577.51,0,480.19c0-106.87,115.66-61.73,189.42-161.74,73.05-99,108.6-120.27,148.67-130.25,52.92-13.18,110-5.63,156.25,20.37C564.09,247.81,644.79,329.53,623.9,494.83Z"/><g id="a267811a-774f-4384-8ba2-109fd3f7bdf3" data-name="freepik--Desk--inject-1"><polygon class="a9df304a-e4fb-4442-8630-0fb426a3aa31" points="165.65 262.38 204.71 262.38 220.34 186.01 181.28 186.01 165.65 262.38"/><path class="a9df304a-e4fb-4442-8630-0fb426a3aa31" d="M113.82,246.64H283.28a9.53,9.53,0,0,0,9.63-9.42c0-.27,0-.53,0-.8l-6.48-107.28a11,11,0,0,0-10.83-10.22H106.1a9.57,9.57,0,0,0-9.63,9.48c0,.25,0,.49,0,.74L103,236.42A11,11,0,0,0,113.82,246.64Z"/><path class="a2030e5a-1dec-41e0-8721-37ededf1feaa" d="M116.48,246.64H285.93a9.52,9.52,0,0,0,9.63-9.42,7.12,7.12,0,0,0,0-.8l-6.48-107.28a11,11,0,0,0-10.82-10.22H108.76a9.56,9.56,0,0,0-9.63,9.48,6.1,6.1,0,0,0,0,.74l6.47,107.28A11,11,0,0,0,116.48,246.64Z"/><path class="bc99bb39-60e5-4ff9-a559-ceda4ba9a32c" d="M286,241.33a4.37,4.37,0,0,0,3.16-1.32,4.46,4.46,0,0,0,1.14-3.27l-6.48-107.28a5.71,5.71,0,0,0-5.54-5.31H108.76a4.26,4.26,0,0,0-4.32,4.18c0,.14,0,.28,0,.41L110.93,236a5.67,5.67,0,0,0,5.55,5.3Z"/><path class="a6c98bf1-fc55-4374-b499-7fa30cb35d16" d="M270.63,209.46a4.18,4.18,0,0,0,2.61-.86,2.49,2.49,0,0,0,.95-2.09l-5.36-68.82c-.17-1.88-2.15-3.36-4.58-3.4H124.08c-1.94,0-3.54,1.17-3.57,2.68,0,.08,0,.17,0,.26l5.36,68.82c.16,1.89,2.15,3.37,4.59,3.41Z"/><path class="a3d40385-8b64-4dea-b072-99a81b243b54" d="M277.93,236a3.86,3.86,0,0,0,3.91-4.18L276,134.29a5.19,5.19,0,0,0-5-4.83H116.78a3.86,3.86,0,0,0-3.92,3.8c0,.12,0,.25,0,.37l5.89,97.57a5.18,5.18,0,0,0,5,4.83Z"/><ellipse class="a6c98bf1-fc55-4374-b499-7fa30cb35d16" cx="210.36" cy="223.2" rx="2.52" ry="2.66" transform="translate(-96.31 218.14) rotate(-45.75)"/><path class="a9df304a-e4fb-4442-8630-0fb426a3aa31" d="M141.25,222.36a.52.52,0,0,1,0,.89l-2,1.16-2,1.16a.52.52,0,0,1-.78-.45v-4.63a.52.52,0,0,1,.78-.45l2,1.16Z"/><path class="bc99bb39-60e5-4ff9-a559-ceda4ba9a32c" d="M267.75,198.9a1.22,1.22,0,0,0,1-.61,2.5,2.5,0,0,0,.29-1.51l-4.71-49.49c-.14-1.35-1-2.41-1.95-2.45H206.78c-.77,0-1.36.85-1.31,1.93a1.21,1.21,0,0,0,0,.19l4.72,49.49c.13,1.36,1,2.42,2,2.45Z"/><ellipse class="afa66817-3efc-4e5f-b76c-85443fb50a6f" cx="138.14" cy="223.2" rx="7.61" ry="8.02" transform="translate(-118.13 166.41) rotate(-45.75)"/></g><line class="e36d80c7-a8ca-41b2-a960-7f0fe2ec23ed" x1="146.95" y1="223.2" x2="211.96" y2="223.2"/><line class="a2d3b75f-982f-437b-9cb6-f31a4ed6e68f" x1="147.46" y1="223.2" x2="269.58" y2="223.2"/><line class="b551afc4-487a-4561-8a26-2c5e76f813d7" x1="134.06" y1="148.58" x2="194.79" y2="148.58"/><line class="b551afc4-487a-4561-8a26-2c5e76f813d7" x1="134.85" y1="163.61" x2="195.58" y2="163.61"/><line class="b551afc4-487a-4561-8a26-2c5e76f813d7" x1="135.64" y1="178.65" x2="196.37" y2="178.65"/><line class="b551afc4-487a-4561-8a26-2c5e76f813d7" x1="136.51" y1="195.16" x2="197.23" y2="195.16"/><g id="a2b6db8f-67ea-4bd6-a3f9-788e38434ed4" data-name="freepik--Character--inject-1"><path class="bfeff178-1fdb-49fb-ba58-6b9529b19655" d="M445.51,117l-11.72,9-16,12.24a16.34,16.34,0,0,1,1.56,5.86c.57,4.49,1.14,7.81-8.84,10.56a5.69,5.69,0,0,0-4.26,4.43c-.39,2.66,1.23,5.86,10.45,7.44a42.38,42.38,0,0,0,26-4.43c3.91-2,3.91-4.3,2.27-8.26C440.08,142.58,442.46,128.21,445.51,117Z"/><path class="e73ffd3c-cb6b-4eae-a2d9-72f369cd4e92" d="M459,157.4a81.42,81.42,0,0,1-5.54-13.51s-29.68-1.62-39.49,1.31S398,160.82,398,160.82Z"/><path class="bfeff178-1fdb-49fb-ba58-6b9529b19655" d="M446.54,179.49c.72,2.18,1.53,4.86,2.29,7.32l2.2,7.61c1.37,5.08,2.7,10.18,3.73,15.25a144.74,144.74,0,0,1,2.52,15,71.22,71.22,0,0,1,.43,14,30.65,30.65,0,0,1-.9,5.86c-.11.39-.21.82-.35,1.19l-.39,1.05h0a6,6,0,0,1,.31-.55,10.16,10.16,0,0,1,.65-.82,4.67,4.67,0,0,1,.86-.8c.39-.27.45-.23.37-.13a9.75,9.75,0,0,1-1.84,1c-.88.39-1.95.78-3,1.15-2.21.75-4.65,1.43-7.17,2.09-10.08,2.54-21.07,4.51-31.79,6.8l.35,13.53a172.09,172.09,0,0,0,17.26,1.42,163.66,163.66,0,0,0,17.58-.29,84.26,84.26,0,0,0,9.23-1.13c1.6-.29,3.26-.63,5-1.11a31.23,31.23,0,0,0,5.86-2.17,20.93,20.93,0,0,0,3.9-2.44,17.54,17.54,0,0,0,2.37-2.27,20.57,20.57,0,0,0,1.25-1.66c.19-.33.41-.66.58-1l.26-.47,1.34-2.75c.41-.92.75-1.82,1.1-2.74A54.79,54.79,0,0,0,483.19,242c1.95-13.57.41-25.68-1.62-37.45-1.09-5.86-2.38-11.72-3.9-17.28-.78-2.83-1.6-5.66-2.48-8.46s-1.82-5.48-2.95-8.55Z"/><path class="e73ffd3c-cb6b-4eae-a2d9-72f369cd4e92" d="M464.6,155c-18.45-4.88-29.4,10.23-23.15,35.15S449.78,216,449.78,216l38.06-6.35C483.15,185.23,483.52,160,464.6,155Z"/><path class="fe4e33cf-039c-41da-a34a-4e9bcd93e580" d="M405,250.17l2.87-.25c8.16,0,9.57,2.22,14.59,6.89l1.95,10.27c-13.18,6.73-20.25-.67-20.27-.67h-12.2l4.29-9.76A10.77,10.77,0,0,1,405,250.17Z"/><path class="bfeff178-1fdb-49fb-ba58-6b9529b19655" d="M450.55,97.6c-3.32,17.78-4.36,28.37-14.55,36.31-15.31,11.93-36.4.59-38.47-17.92-1.85-16.66,3.91-43,22.3-47.62A25.15,25.15,0,0,1,450.55,97.6Z"/><path class="bf11398a-8403-4b9a-a5b7-784159d67e49" d="M415.3,103.8c-12.69-1-9-14.39-5.06-17.18-5.95-2.26-10.05-11.71-4.33-18.2-3.36-8.76,6.25-19.33,23.1-17.75,12.3,1.14,13.67,7.64,13.67,7.64s14.74-1.54,20.87,10.62c5.23,10.43-1.11,16-1.11,16s11,3.21,8,17.58c-3.24,15.5-15.15,11.91-15.15,11.91s2.68,14.21-13.43,14.41c-13.92.17-14.1-10.25-14.1-10.25S409.68,116.89,415.3,103.8Z"/><path class="bfeff178-1fdb-49fb-ba58-6b9529b19655" d="M424.75,104.84a16.51,16.51,0,0,1-7.81,8.86c-4.65,2.39-8.2-2.55-7.38-7.63.74-4.55,4.71-10.39,9.61-10.66S426.49,100.11,424.75,104.84Z"/><path class="a9c731a4-8aee-4e45-ae31-f0f04b4ed93c" d="M393.55,153c11.38-2.23,62.72-1.58,62.72-1.58a20.5,20.5,0,0,1,20.93,18.18c1.79,15.83-8.26,51.21-8.61,69.25-.43,22.17,3.8,31.15,4.23,61l-98,4.49c0-60,2.62-109.67,5-133.49C380.68,162.46,382.17,155.22,393.55,153Z"/><path class="bfeff178-1fdb-49fb-ba58-6b9529b19655" d="M380.14,171.91c-3.07,10.54-6.16,21.38-9.34,32s-6.44,21.23-10.11,31.24c-.9,2.56-1.95,4.94-2.81,7.4L356.37,246l-.19.43v.33h0v-.13a7.19,7.19,0,0,1,1.25-1.64c.66-.65.91-.71,1-.71a4.55,4.55,0,0,1-1.48.92,24.25,24.25,0,0,1-2.95,1.19c-2.21.76-4.69,1.45-7.2,2.13-10.22,2.6-21.37,4.59-32.22,6.91l.35,13.53a164,164,0,0,0,17.57,1.43,156.35,156.35,0,0,0,17.85-.33,84.94,84.94,0,0,0,9.41-1.21c1.64-.32,3.34-.71,5.18-1.23a28.82,28.82,0,0,0,6.24-2.58,20,20,0,0,0,4.3-3.3,16.4,16.4,0,0,0,2.5-3.36l.66-1.23,2.21-4.18c1.29-2.73,2.69-5.49,3.9-8.2,2.41-5.49,4.51-10.91,6.62-16.36s3.91-10.9,5.72-16.36c3.62-11,6.88-21.87,9.77-33.2Z"/><path class="a9c731a4-8aee-4e45-ae31-f0f04b4ed93c" d="M408,161c-13.4-13.66-30.52-6.21-37.88,18.48s-6,26.47-6,26.47l36,14C408.53,196.43,421.67,175,408,161Z"/><path class="bfeff178-1fdb-49fb-ba58-6b9529b19655" d="M305,250.17l2.87-.25c8.16,0,9.55,2.22,14.57,6.89l1.95,10.27c-13.18,6.73-20.25-.67-20.25-.67H291.9l4.31-9.76A10.7,10.7,0,0,1,305,250.17Z"/></g><polygon class="bf11398a-8403-4b9a-a5b7-784159d67e49" points="246.72 159.21 256.89 159.21 259.21 186.12 249.04 186.12 246.72 159.21"/><polygon class="a9df304a-e4fb-4442-8630-0fb426a3aa31" points="233.4 167.32 243.57 167.32 245.46 186.12 235.29 186.12 233.4 167.32"/><polygon class="ab2a2834-4b94-4901-a618-4811bae42cd2" points="220.15 176.72 230.32 176.72 231.72 186.12 221.54 186.12 220.15 176.72"/></g></svg>