<svg xmlns="http://www.w3.org/2000/svg" xmlns:xlink="http://www.w3.org/1999/xlink" viewBox="0 0 1000 1000"><defs><style>.cls-1{fill:#e1e2e3;}.cls-2{fill:url(#linear-gradient);}.cls-3{fill:#fff;stroke:#e1e2e3;stroke-miterlimit:10;}</style><linearGradient id="linear-gradient" x1="500" y1="394.29" x2="500" y2="666.59" gradientUnits="userSpaceOnUse"><stop offset="0" stop-color="#e1e2e3"/><stop offset="0.53" stop-color="#f4f4f4"/><stop offset="1" stop-color="#fff"/></linearGradient></defs><g id="Layer_2" data-name="Layer 2"><path class="cls-1" d="M816.46,395.18A6.81,6.81,0,1,0,803,397.29c1,6.34,2.22,26.2-4.63,34.19a9.19,9.19,0,0,1-5.53,3.18l.63-37.83a9.84,9.84,0,1,0-19.68.08l1.78,71.79a9.19,9.19,0,0,1-5.76-3.21c-6.85-8-5.61-27.85-4.63-34.19a6.81,6.81,0,0,0-13.45-2.11c-.49,3.13-4.42,30.94,7.73,45.14a23.06,23.06,0,0,0,16.45,8.09l.78,31.24h14.85l1.08-65.28a23,23,0,0,0,16.1-8.06C820.88,426.12,817,398.31,816.46,395.18Z"/><path class="cls-1" d="M182.26,456a4.34,4.34,0,1,0-8.57,1.34c.62,4,1.42,16.7-2.95,21.79a5.82,5.82,0,0,1-3.53,2l.4-24.11a6.27,6.27,0,1,0-12.54.05l1.13,45.76a5.85,5.85,0,0,1-3.67-2c-4.36-5.1-3.57-17.76-2.95-21.8a4.34,4.34,0,1,0-8.57-1.34c-.31,2-2.82,19.72,4.93,28.77a14.68,14.68,0,0,0,10.48,5.16l.49,19.91h9.47l.69-41.61a14.63,14.63,0,0,0,10.26-5.14C185.08,475.76,182.57,458,182.26,456Z"/><ellipse class="cls-2" cx="500" cy="646.29" rx="489.82" ry="173.41"/><g id="freepik--window-no-data--inject-68"><polygon class="cls-3" points="623.41 566.32 622.67 225.09 551.39 180.3 346.52 180.3 347.38 566.32 623.41 566.32"/><polygon class="cls-1" points="622.67 225.09 551.39 180.3 574.57 239.68 622.67 225.09"/><path class="cls-1" d="M450.17,354.16a16,16,0,0,1-15,15.52l-.84,0a15.6,15.6,0,0,1-1.58-31.11,16.33,16.33,0,0,1,1.85,0A15.68,15.68,0,0,1,450.17,354.16Z"/><path class="cls-1" d="M551.1,354.16A15.55,15.55,0,0,1,537,369.65a13,13,0,0,1-1.76.05,15.68,15.68,0,0,1-15.64-15.54,16,16,0,0,1,14.91-15.59c.31,0,.61,0,.92,0A15.62,15.62,0,0,1,551.1,354.16Z"/><path class="cls-1" d="M516.55,413.08a1.19,1.19,0,0,1-1.2-1.19c0-9.07-13.71-16.43-30.48-16.43-11.14,0-21.37,3.32-26.69,8.64a10.69,10.69,0,0,0-3.56,7.6,1.44,1.44,0,0,1-1.33,1.42,1.22,1.22,0,0,1-1.34-1.23,13.59,13.59,0,0,1,4.39-9.55c5.72-5.82,16.8-9.46,28.63-9.46,18.42,0,32.86,8.27,32.87,18.82a1.4,1.4,0,0,1-1.29,1.36h0Z"/><path class="cls-1" d="M394.7,322.63a3.53,3.53,0,0,1-2.37-1,3.63,3.63,0,0,1,.36-5.08l16.87-16.87a3.6,3.6,0,0,1,5,0,3.56,3.56,0,0,1-.34,5h0L397.35,321.6A3.8,3.8,0,0,1,394.7,322.63Z"/><path class="cls-1" d="M574.52,322.63a3.8,3.8,0,0,1-2.37-1L555.29,304.8a3.55,3.55,0,0,1,.26-5l.09-.08a3.6,3.6,0,0,1,5,0l16.87,16.87a3.56,3.56,0,0,1-.34,5h0A4.13,4.13,0,0,1,574.52,322.63Z"/></g></g></svg>