<?xml version="1.0" encoding="UTF-8"?><svg id="uuid-dfcb0ff9-36bd-44ed-bbc7-2825b1b3f38e" xmlns="http://www.w3.org/2000/svg" viewBox="0 0 200 200"><path d="M158.06,127.52c-2.77-1.46-4.55-4.88-4.55-8.7v-49.28c0-27.68-21.12-50.51-48.1-53.23V5.41c0-2.99-2.42-5.41-5.41-5.41s-5.41,2.42-5.41,5.41v10.89c-26.97,2.72-48.1,25.56-48.1,53.23v49.28c0,3.82-1.79,7.23-4.56,8.7-7.08,3.74-11.48,11.01-11.48,18.97,0,11.82,9.62,21.44,21.44,21.44h96.19c11.82,0,21.44-9.62,21.44-21.44,0-7.96-4.4-15.24-11.48-18.97Z"/><path d="M116.03,189.18h-32.06c-2.99,0-5.41,2.42-5.41,5.41s2.42,5.41,5.41,5.41h32.06c2.99,0,5.41-2.42,5.41-5.41s-2.42-5.41-5.41-5.41Z"/></svg>