<?xml version="1.0" encoding="UTF-8"?><svg id="uuid-4be7342b-f67b-4f54-af83-728aa30404f7" xmlns="http://www.w3.org/2000/svg" viewBox="0 0 200 200"><path d="M158.06,127.52c-2.77-1.46-4.55-4.88-4.55-8.7v-49.28c0-27.68-21.12-50.51-48.09-53.23V5.41c0-2.99-2.42-5.41-5.41-5.41s-5.41,2.42-5.41,5.41v10.89c-26.97,2.72-48.1,25.56-48.1,53.23v49.28c0,3.82-1.79,7.24-4.55,8.7-7.08,3.74-11.48,11.01-11.48,18.98,0,11.82,9.62,21.44,21.44,21.44h96.19c11.82,0,21.44-9.62,21.44-21.44,0-7.97-4.4-15.24-11.48-18.97Zm-9.97,29.59H51.9c-5.86,0-10.62-4.77-10.62-10.62,0-3.94,2.19-7.54,5.71-9.4,6.37-3.36,10.32-10.36,10.32-18.27v-49.28c0-23.53,19.15-42.68,42.68-42.68s42.68,19.15,42.68,42.68v49.28c0,7.91,3.96,14.91,10.32,18.27,3.52,1.86,5.71,5.46,5.71,9.4,0,5.86-4.77,10.62-10.62,10.62Z"/><path d="M116.03,189.18h-32.06c-2.99,0-5.41,2.42-5.41,5.41s2.42,5.41,5.41,5.41h32.06c2.99,0,5.41-2.42,5.41-5.41s-2.42-5.41-5.41-5.41Z"/></svg>