<svg
   id="e7ff7dbd-f614-4439-87ee-94f8f03c656d"
   data-name="Layer 1"
   viewBox="0 0 100 99.51"
   version="1.1"
   xmlns="http://www.w3.org/2000/svg">

  <path
     d="M92.37,23.67l4.81-4.84a2.91,2.91,0,0,0-1.83-5l-8.95-.73-.79-8.95a2.91,2.91,0,0,0-5-1.8L75.83,7.23A49.76,49.76,0,0,0,14.92,85,49.76,49.76,0,0,0,92.37,23.67ZM80.8,16.1a2.91,2.91,0,0,0,2.67,2.65l5.15.42-7,7-7.61-.61-.66-7.61,6.95-7ZM59.91,49.72A9.92,9.92,0,1,1,54.61,41L47.93,47.7a2.92,2.92,0,0,0,4.14,4.11l6.67-6.72A9.79,9.79,0,0,1,59.91,49.72Zm-1.08-13A15.73,15.73,0,1,0,63,40.84l8.3-8.35a27.47,27.47,0,1,1-4.14-4.11Zm22.32,44a43.92,43.92,0,0,1-62.3-61.93,43.95,43.95,0,0,1,52.74-7.3l-3.28,3.3a3,3,0,0,0-.85,2c0,.11,0,.21,0,.32l.41,4.65a33.23,33.23,0,1,0,10,10l4.65.38H83l.19,0,.12,0,.18,0,.11,0,.18-.06.11,0,.17-.07.11-.05.16-.09.1-.06.17-.12.07-.06a1.51,1.51,0,0,0,.23-.21l3.28-3.29a44,44,0,0,1-7,52.78Z"
fill="current"     id="path396" />
</svg>
