<?xml version="1.0" encoding="UTF-8" standalone="no"?>
<svg
   id="a6d050b0-df54-4cd2-9f93-88f6d8889396"
   data-name="Layer 1"
   width="134.01"
   height="118.29"
   viewBox="0 0 134.01 118.29"
   version="1.1"
   xmlns="http://www.w3.org/2000/svg">

  <path
     d="M134,56.68c0,31.84-25.26,61.61-63.24,61.61C48.11,118.29,0,109.76,0,77.91,0,40.78,26.72,52.57,79.34,6.67,105.66-16.28,134,24.83,134,56.68Z"
     style="fill:#5ec2c1;opacity:0.2"
	 class="primary"
     id="path45" />
  <ellipse
     cx="49.25"
     cy="59.14"
     rx="36.01"
     ry="44.76"
     transform="translate(-17.04 20.04) rotate(-19.68)"
     style="fill:#5ec2c1"
	 class="primary"
     id="ellipse47" />
  <ellipse
     cx="51.89"
     cy="58.2"
     rx="29.07"
     ry="36.13"
     transform="translate(-16.57 20.88) rotate(-19.68)"
     style="fill:#fff"
     id="ellipse49" />
  <ellipse
     cx="54.2"
     cy="57.35"
     rx="23.29"
     ry="28.93"
     transform="translate(-16.15 21.6) rotate(-19.68)"
     style="fill:#5ec2c1"
	 class="primary"
     id="ellipse51" />
  <path
     d="M72,51c4.13,11.56.24,23.52-8.72,26.71S43.77,74.21,39.64,62.57s-.24-23.52,8.72-26.71S67.88,39.44,72,51Z"
     style="fill:#fff"
     id="path53" />
  <path
     d="M68.91,52.88c2.94,8.24.4,16.68-5.69,18.86S49.8,69,46.86,60.77s-.4-16.7,5.7-18.87S66,44.56,68.91,52.88Z"
     style="fill:#5ec2c1"
	 class="primary"
     id="path55" />
  <path
     d="M66.83,53.56c2.13,5.94.51,12-3.61,13.44S54,64.85,51.89,58.89s-.5-12,3.61-13.44S64.71,47.65,66.83,53.56Z"
     style="fill:#fff"
     id="path57" />
  <polygon
     points="115.97 26.66 104.88 30.64 102.76 40.71 110.79 47.14 121.88 43.19 113.65 36.81 115.97 26.66"
     style="fill:#5ec2c1"
	 class="primary"
     id="polygon59" />
  <path
     d="M61.1,57.36A1.75,1.75,0,0,1,60.42,54l54.26-19.41a1.75,1.75,0,1,1,1.17,3.29h0L61.59,57.25A1.73,1.73,0,0,1,61.1,57.36Z"
     style="fill:#163345"
     id="path61" />
</svg>
