<svg
   id="b8a4dacc-80ad-486d-9c11-645c3c99ddea"
   data-name="Layer 1"
   viewBox="0 0 100 99.51"
   version="1.1"
   xmlns="http://www.w3.org/2000/svg">

  <path
     d="M79.57,53.58A23.4,23.4,0,0,1,63.34,13.3,42.18,42.18,0,1,0,84.17,53.12,22.64,22.64,0,0,1,79.57,53.58Zm-35.22,2.8L34.07,66.65a2.1,2.1,0,0,1-1.52.63A2.17,2.17,0,0,1,31,66.65a2.14,2.14,0,0,1,0-3.08l9-9V34.41a2.19,2.19,0,0,1,4.38,0ZM81.1,48.56a18.93,18.93,0,0,1-18.91-18.9A18.94,18.94,0,0,1,81.1,10.76a18.9,18.9,0,0,1,3.71,37.43A18.24,18.24,0,0,1,81.1,48.56Zm0-34.11A15.27,15.27,0,0,0,65.88,29.66,15.23,15.23,0,0,0,81.1,44.87a14.77,14.77,0,0,0,3-.3,15.21,15.21,0,0,0-3-30.12Zm0,19.46a1.74,1.74,0,0,1-1.74-1.73V22a1.74,1.74,0,0,1,3.47,0V32.18A1.74,1.74,0,0,1,81.1,33.91Zm1.55,3.36a1.56,1.56,0,1,1-1.55-1.55A1.56,1.56,0,0,1,82.65,37.27Z"
     fill="current"
     id="path295" />
</svg>
