<svg xmlns="http://www.w3.org/2000/svg" viewBox="0 0 258.7 142.26"><defs></defs><g id="e6d09e8b-ce58-4f00-a04c-1c0bb82dba2e" data-name="badges"><circle fill="current" cx="52.94" cy="9.31" r="1.25"/><circle fill="current" cx="139.02" cy="29.31" r="1.25"/><circle fill="current" cx="51.69" cy="73.44" r="1.25"/><circle fill="current" cx="12.58" cy="111.08" r="1.25"/><circle fill="current" cx="5.37" cy="28.06" r="1.25"/><circle fill="current" cx="99.73" cy="137.6" r="1.25"/><circle fill="current" cx="101.08" cy="70.01" r="1.25"/><circle fill="current" cx="143.15" cy="115" r="0.89"/><circle fill="current" cx="140.19" cy="135.9" r="0.89"/><circle fill="current" cx="52.94" cy="130.19" r="1.25"/><path fill="current" d="M46.43,61.68a2.18,2.18,0,1,1,2.17-2.17A2.18,2.18,0,0,1,46.43,61.68Zm0-3.54a1.37,1.37,0,1,0,1.36,1.37A1.37,1.37,0,0,0,46.43,58.14Z"/><path fill="current" d="M102.33,109.57a2.18,2.18,0,1,1,2.18-2.18A2.19,2.19,0,0,1,102.33,109.57Zm0-3.54a1.37,1.37,0,1,0,1.37,1.36A1.37,1.37,0,0,0,102.33,106Z"/><path fill="current" d="M144.92,41.79a2.18,2.18,0,1,1,2.17-2.18A2.19,2.19,0,0,1,144.92,41.79Zm0-3.55a1.37,1.37,0,1,0,1.36,1.37A1.37,1.37,0,0,0,144.92,38.24Z"/><path fill="current" d="M6.62,79.76A2.18,2.18,0,1,1,8.8,77.59,2.18,2.18,0,0,1,6.62,79.76Zm0-3.54A1.37,1.37,0,1,0,8,77.59,1.37,1.37,0,0,0,6.62,76.22Z"/><rect fill="current" x="101.78" y="13.37" width="4.97" height="1.13" rx="0.57" transform="translate(32.02 -62.52) rotate(39.01)"/><rect fill="current" x="91.73" y="76.91" width="4.97" height="1.13" rx="0.57" transform="translate(69.77 -42.03) rotate(39.01)"/><rect fill="current" x="98.59" y="118.13" width="4.97" height="1.13" rx="0.57" transform="translate(256.94 114.88) rotate(129.01)"/><rect fill="current" x="-0.43" y="123.76" width="4.97" height="1.13" rx="0.57" transform="translate(78.72 26.43) rotate(39.01)"/><rect fill="current" x="50.67" y="27.54" width="4.54" height="1.04" rx="0.52" transform="translate(-4.34 45.65) rotate(-45)"/><rect fill="current" x="50.67" y="27.54" width="4.54" height="1.04" rx="0.52" transform="translate(35.35 -29.22) rotate(45)"/><rect fill="current" x="1.84" y="63.64" width="4.54" height="1.04" rx="0.52" transform="translate(-44.16 21.7) rotate(-45)"/><rect fill="current" x="1.84" y="63.64" width="4.54" height="1.04" rx="0.52" transform="translate(46.57 15.88) rotate(45)"/><rect fill="current" x="106.98" y="3.43" width="4.54" height="1.04" rx="0.52" transform="translate(29.21 78.41) rotate(-45)"/><rect fill="current" x="106.98" y="3.43" width="4.54" height="1.04" rx="0.52" transform="translate(34.79 -76.1) rotate(45)"/><rect fill="current" x="91.94" y="41.37" width="4.54" height="1.04" rx="0.52"/><rect fill="current" x="91.94" y="41.37" width="4.54" height="1.04" rx="0.52" transform="matrix(0, 1, -1, 0, 136.1, -52.33)"/><rect fill="current" x="138" y="78.84" width="4.54" height="1.04" rx="0.52" transform="translate(81.23 -70.6) rotate(39.01)"/><rect fill="current" x="138" y="78.84" width="4.54" height="1.04" rx="0.52" transform="translate(290.24 20.31) rotate(129.01)"/><rect fill="current" x="41.51" y="109.15" width="4.54" height="1.04" rx="0.52"/><rect fill="current" x="41.51" y="109.15" width="4.54" height="1.04" rx="0.52" transform="translate(153.44 65.89) rotate(90)"/><path fill="current" d="M23.3,43.78a1.3,1.3,0,1,0-1.58-.92A1.29,1.29,0,0,0,23.3,43.78Zm-.52-2a.73.73,0,0,1,.89.52.72.72,0,0,1-.52.89.74.74,0,0,1-.89-.52A.73.73,0,0,1,22.78,41.82ZM17.55,51a1.29,1.29,0,1,0,1.59.92A1.31,1.31,0,0,0,17.55,51Zm.52,2a.73.73,0,0,1-.37-1.42.73.73,0,0,1,.89.52A.74.74,0,0,1,18.07,53Zm8.61-6a2.32,2.32,0,0,0-2.44-.86l-3.12.83a.87.87,0,0,0-.94-.36.86.86,0,0,0-.64.77l-3.13.83a1.76,1.76,0,0,1-1.78-.57.85.85,0,0,0,.22-.82.86.86,0,0,0-.59-.61,1.75,1.75,0,0,1,1.27-1.37l5.3-1.4a2.28,2.28,0,1,0-.15-.54l-5.3,1.39a2.34,2.34,0,0,0-1.7,2,.86.86,0,0,0-.5,1,.87.87,0,0,0,.94.64,2.33,2.33,0,0,0,2.44.85l3.12-.82a.88.88,0,0,0,.94.36.86.86,0,0,0,.64-.78l3.13-.82a1.76,1.76,0,0,1,1.78.57A.85.85,0,0,0,26,48a.86.86,0,0,0,.59.61A1.75,1.75,0,0,1,25.28,50L20,51.38a2.33,2.33,0,1,0,.14.55l5.25-1.38a2.34,2.34,0,0,0,1.7-1.95.87.87,0,0,0-.44-1.66Zm-4.16-6.1A1.74,1.74,0,1,1,21.28,43,1.75,1.75,0,0,1,22.52,40.84Zm-8.39,6.41h0a.3.3,0,0,1-.37-.21.31.31,0,0,1,.22-.37h0a.31.31,0,0,1,.32.22A.28.28,0,0,1,14.13,47.25Zm6.35.43a.3.3,0,1,1,.21-.37A.3.3,0,0,1,20.48,47.68Zm-2.15,6.24a1.74,1.74,0,1,1,1.24-2.12A1.74,1.74,0,0,1,18.33,53.92Zm8.54-5.83h-.05a.31.31,0,0,1-.32-.22.3.3,0,0,1,.17-.36h0a.3.3,0,1,1,.16.58Z"/><path fill="current" d="M124.37,43.82a1.29,1.29,0,1,0-1.58.92A1.29,1.29,0,0,0,124.37,43.82Zm-.54-.14a.74.74,0,0,1-.89.52.73.73,0,1,1,.37-1.41A.73.73,0,0,1,123.83,43.68Zm3.12,9.2a1.3,1.3,0,1,0,1.59-.92A1.3,1.3,0,0,0,127,52.88Zm.55.14a.73.73,0,0,1,1.41.37.72.72,0,0,1-.89.52A.73.73,0,0,1,127.5,53Zm-9-4.47a.88.88,0,0,0,.51,1,2.32,2.32,0,0,0,1.7,1.94l5.25,1.39a2.29,2.29,0,1,0,.14-.55L120.81,51a1.76,1.76,0,0,1-1.26-1.37.88.88,0,0,0,.59-.61.84.84,0,0,0-.22-.82,1.76,1.76,0,0,1,1.78-.57l3.13.82a.84.84,0,0,0,.64.77.86.86,0,0,0,.94-.35l3.12.82a2.33,2.33,0,0,0,2.44-.85.87.87,0,0,0,.94-.64.85.85,0,0,0-.5-1,2.32,2.32,0,0,0-1.7-1.95l-5.3-1.4a2.33,2.33,0,1,0-.15.55l5.3,1.4a1.73,1.73,0,0,1,1.27,1.37.86.86,0,0,0-.37,1.43,1.76,1.76,0,0,1-1.78.57l-3.13-.83a.85.85,0,0,0-.64-.77.87.87,0,0,0-.94.35l-3.12-.82a2.32,2.32,0,0,0-2.44.86A.86.86,0,0,0,118.46,48.55Zm6.35-4.61a1.74,1.74,0,1,1-1.24-2.13A1.75,1.75,0,0,1,124.81,43.94Zm7,3.93a.3.3,0,0,1,.32-.22h0a.3.3,0,0,1,.22.36.31.31,0,0,1-.37.22l0,0h0A.29.29,0,0,1,131.79,47.87Zm-6.39.41a.3.3,0,0,1,.58.15.3.3,0,1,1-.58-.15Zm1.12,4.48a1.74,1.74,0,1,1,1.24,2.13A1.75,1.75,0,0,1,126.52,52.76ZM119,48.69a.29.29,0,0,1,.37-.21h0a.3.3,0,0,1-.15.58h0A.31.31,0,0,1,119,48.69Z"/><path fill="current" d="M123.89,130.41a1.29,1.29,0,1,0-1.58.92A1.29,1.29,0,0,0,123.89,130.41Zm-.55-.15a.72.72,0,0,1-.89.52.73.73,0,1,1,.37-1.41A.72.72,0,0,1,123.34,130.26Zm3.13,9.2a1.29,1.29,0,1,0,1.58-.92A1.29,1.29,0,0,0,126.47,139.46Zm.55.15a.72.72,0,0,1,.89-.52.73.73,0,1,1-.89.52Zm-9-4.48a.86.86,0,0,0,.51,1,2.32,2.32,0,0,0,1.7,1.95l5.25,1.38a2.3,2.3,0,1,0,.14-.54l-5.25-1.39a1.76,1.76,0,0,1-1.27-1.37.87.87,0,0,0,.38-1.43,1.76,1.76,0,0,1,1.78-.57l3.12.83a.89.89,0,0,0,.64.77.87.87,0,0,0,.94-.36l3.13.83a2.32,2.32,0,0,0,2.44-.86.87.87,0,0,0,.43-1.66,2.3,2.3,0,0,0-1.7-1.94l-5.3-1.4a2.3,2.3,0,1,0-.14.54l5.3,1.4a1.76,1.76,0,0,1,1.27,1.37.88.88,0,0,0-.59.61.87.87,0,0,0,.21.82,1.76,1.76,0,0,1-1.78.57l-3.12-.82a.89.89,0,0,0-.64-.78.87.87,0,0,0-.94.36l-3.13-.82a2.33,2.33,0,0,0-2.44.85A.87.87,0,0,0,118,135.13Zm6.34-4.61a1.74,1.74,0,1,1-1.24-2.13A1.74,1.74,0,0,1,124.32,130.52Zm7,3.94a.31.31,0,0,1,.32-.23h0a.3.3,0,0,1-.15.58h-.05A.32.32,0,0,1,131.3,134.46Zm-6.39.4a.31.31,0,1,1,.22.37A.3.3,0,0,1,124.91,134.86Zm1.13,4.49a1.74,1.74,0,0,1,3.37.89,1.74,1.74,0,0,1-3.37-.89Zm-7.51-4.08a.29.29,0,0,1,.36-.21h0a.29.29,0,0,1,.17.35.31.31,0,0,1-.32.22h-.05A.29.29,0,0,1,118.53,135.27Z"/><path fill="current" d="M77.41,5.29a1.3,1.3,0,1,0-.78-1.66A1.31,1.31,0,0,0,77.41,5.29Zm.69-1.91a.73.73,0,1,1-.94.44A.74.74,0,0,1,78.1,3.38ZM68.57,7.92a1.3,1.3,0,1,0,.77,1.66A1.29,1.29,0,0,0,68.57,7.92Zm-.69,1.91a.73.73,0,0,1-.44-.94.74.74,0,0,1,.94-.44.73.73,0,0,1-.5,1.38Zm10.5,0a2.31,2.31,0,0,0-1.52-2.09l-3-1.11a.86.86,0,0,0-.57-.83.87.87,0,0,0-1,.27l-3-1.11a1.75,1.75,0,0,1-1.14-1.48.88.88,0,0,0,.65-.55.89.89,0,0,0-.14-.84,1.75,1.75,0,0,1,1.82-.4L75.6,3.55A2.33,2.33,0,1,0,75.8,3L70.65,1.14a2.31,2.31,0,0,0-2.51.63.85.85,0,0,0-1,.54.87.87,0,0,0,.41,1.07,2.31,2.31,0,0,0,1.51,2.09l3,1.11a.86.86,0,0,0,.57.83.87.87,0,0,0,1-.27l3,1.11a1.76,1.76,0,0,1,1.14,1.48.88.88,0,0,0-.65.55.87.87,0,0,0,.14.84,1.75,1.75,0,0,1-1.82.4l-5.1-1.86a2.33,2.33,0,1,0-.2.53l5.1,1.86a2.31,2.31,0,0,0,2.51-.62.87.87,0,0,0,.59-1.62Zm.07-7.38a1.75,1.75,0,1,1-2.24,1A1.75,1.75,0,0,1,78.45,2.43ZM67.9,2.91h-.05a.3.3,0,1,1,.21-.56h0a.29.29,0,0,1,.14.36A.32.32,0,0,1,67.9,2.91Zm5,4a.3.3,0,1,1,.39-.18A.31.31,0,0,1,72.86,6.88Zm-5.33,3.9a1.75,1.75,0,1,1,2.23-1A1.75,1.75,0,0,1,67.53,10.78Zm10.34.08h0a.29.29,0,0,1-.14-.36.3.3,0,0,1,.34-.19h0a.31.31,0,0,1,.18.38A.3.3,0,0,1,77.87,10.86Z"/><path fill="current" d="M75.57,88.71a1.3,1.3,0,1,0-1.65-.8A1.31,1.31,0,0,0,75.57,88.71ZM74.9,86.8a.73.73,0,1,1-.44.93A.72.72,0,0,1,74.9,86.8Zm-4.49,9.55a1.29,1.29,0,1,0,.85,2.44,1.29,1.29,0,1,0-.85-2.44Zm.66,1.91a.73.73,0,1,1,.45-.93A.73.73,0,0,1,71.07,98.26Zm8.12-6.66a2.33,2.33,0,0,0-2.5-.67l-3,1.07a.86.86,0,0,0-1.54.54l-3,1.06a1.75,1.75,0,0,1-1.82-.42.87.87,0,0,0-.49-1.4,1.77,1.77,0,0,1,1.16-1.47l5.18-1.8a2.3,2.3,0,1,0-.19-.54l-5.18,1.81a2.35,2.35,0,0,0-1.54,2.07.87.87,0,0,0-.42,1.06.85.85,0,0,0,1,.56,2.32,2.32,0,0,0,2.49.67l3-1.07a.87.87,0,0,0,1,.28.86.86,0,0,0,.58-.82l3-1.06a1.77,1.77,0,0,1,1.82.42.87.87,0,0,0,.49,1.4A1.79,1.79,0,0,1,78,94.76L72.9,96.55a2.29,2.29,0,1,0,.19.53l5.12-1.79a2.33,2.33,0,0,0,1.55-2.07.87.87,0,0,0-.57-1.62Zm-4.62-5.76a1.74,1.74,0,1,1-1.07,2.22A1.76,1.76,0,0,1,74.57,85.84Zm-7.86,7h0a.05.05,0,0,1,0,0,.3.3,0,0,1-.2-.57h.05a.3.3,0,0,1,.2.56Zm6.35-.07a.3.3,0,1,1,.19-.38A.31.31,0,0,1,73.06,92.82Zm-1.65,6.39A1.74,1.74,0,1,1,72.48,97,1.74,1.74,0,0,1,71.41,99.21Zm8-6.48h0a.3.3,0,0,1-.2-.56h0l0,0a.3.3,0,0,1,.19.57Z"/><path fill="current" d="M24.75,131.49a1.29,1.29,0,1,0-1.58-.92A1.29,1.29,0,0,0,24.75,131.49Zm-.52-2a.73.73,0,1,1,.38,1.41.73.73,0,1,1-.38-1.41ZM19,138.7a1.29,1.29,0,1,0,1.59.92A1.29,1.29,0,0,0,19,138.7Zm.52,2a.73.73,0,0,1-.37-1.41.72.72,0,0,1,.89.52A.73.73,0,0,1,19.52,140.66Zm8.61-6a2.33,2.33,0,0,0-2.44-.85l-3.12.82a.85.85,0,0,0-.94-.35A.86.86,0,0,0,21,135l-3.13.82a1.74,1.74,0,0,1-1.77-.57.86.86,0,0,0,.21-.82.88.88,0,0,0-.59-.61A1.75,1.75,0,0,1,17,132.49l5.3-1.39a2.29,2.29,0,1,0-.15-.55l-5.3,1.4a2.32,2.32,0,0,0-1.7,1.94.87.87,0,0,0,.44,1.66,2.32,2.32,0,0,0,2.44.86l3.12-.83a.86.86,0,0,0,1.58-.41l3.13-.83a1.76,1.76,0,0,1,1.78.57.87.87,0,0,0-.22.82.85.85,0,0,0,.59.61,1.74,1.74,0,0,1-1.26,1.37l-5.25,1.39a2.31,2.31,0,1,0,.14.54l5.25-1.38a2.32,2.32,0,0,0,1.7-1.95.86.86,0,0,0,.51-1A.88.88,0,0,0,28.13,134.65ZM24,128.55a1.74,1.74,0,1,1-1.25,2.13A1.75,1.75,0,0,1,24,128.55ZM15.58,135h0a.29.29,0,0,1-.37-.21.31.31,0,0,1,.22-.37h0a.3.3,0,0,1,.32.23A.29.29,0,0,1,15.58,135Zm6.35.42a.29.29,0,0,1-.37-.21.3.3,0,1,1,.58-.15A.29.29,0,0,1,21.93,135.39Zm-2.15,6.25A1.74,1.74,0,1,1,21,139.51,1.75,1.75,0,0,1,19.78,141.64Zm8.54-5.84h-.05a.3.3,0,0,1-.32-.22.3.3,0,0,1,.17-.35h0a.31.31,0,0,1,.37.22A.29.29,0,0,1,28.32,135.8Z"/><path fill="current" d="M25.14,6.43,17.47,0,7.82,2.61l3.62,3.06-.76,3.42,9.15,2,.76-3.43,2.26-.62L22,10.93l-1.51,2L21.63,15l1.91-1.38L23,11.16l1-4.41Zm-3.17,7L21.72,13l.49-.65.17.8Zm-2.92-3.6L11.92,8.3,12.65,5a8.76,8.76,0,0,1,3.71,0,9,9,0,0,1,3.41,1.55Zm1.79-3.33.08-.37A10.06,10.06,0,0,0,16.58,4a9.84,9.84,0,0,0-4.81.13l-.08.37L10,3.1l7.22-2L23,6Z"/><path fill="current" d="M123.94,6.75l1,4.41-.53,2.45L126.29,15l1.15-2.05-1.52-2-.85-3.87,2.26.62.76,3.43,9.15-2-.76-3.42,3.63-3.06L130.45,0l-7.67,6.43Zm1.6,6.42.17-.8.49.65-.25.45Zm2.61-6.59A9,9,0,0,1,131.56,5a8.8,8.8,0,0,1,3.72,0L136,8.3l-7.12,1.57ZM125,6l5.75-4.82,7.21,2-1.69,1.42-.08-.37A9.84,9.84,0,0,0,131.34,4,10.06,10.06,0,0,0,127,6.17l.08.37Z"/><path fill="current" d="M116.52,92.53l1,4.41L117,99.39l1.9,1.38L120,98.71l-1.51-2-.86-3.87,2.27.62.75,3.42,9.15-2-.75-3.42,3.62-3.06L123,85.78l-7.68,6.43Zm1.6,6.42.17-.8.49.65-.25.45Zm2.61-6.59a8.94,8.94,0,0,1,3.42-1.55,8.6,8.6,0,0,1,3.71,0l.72,3.29-7.12,1.57Zm-3.19-.63,5.75-4.81,7.22,2-1.7,1.42-.08-.37a9.89,9.89,0,0,0-4.81-.14A10.09,10.09,0,0,0,119.58,92l.08.37Z"/><path fill="current" d="M30.14,91.24l-7.67-6.43-9.66,2.61,3.63,3.06-.76,3.42,9.15,2,.76-3.43,2.26-.62L27,95.75l-1.52,2,1.15,2,1.91-1.38L28,96l1-4.41Zm-3.17,7-.25-.45.49-.65.17.8ZM24,94.68l-7.12-1.57.72-3.29a8.8,8.8,0,0,1,3.72,0,9,9,0,0,1,3.41,1.55Zm1.8-3.33.08-.37a10.06,10.06,0,0,0-4.34-2.15,9.64,9.64,0,0,0-4.81.14l-.08.36L15,87.91l7.21-2L28,90.77Z"/><path fill="current" d="M80.32,128.5l-9.81-2-7.23,6.91,4.65.95,1,3.36,9-2.61-1-3.36,1.68-1.63L79.72,134l-.37,2.48,2,1.26,1-2.13-1.63-1.9-1.26-4.34Zm.59,7.69-.43-.27.12-.8.53.61Zm-4.29-1.75-7,2-.94-3.24a8.8,8.8,0,0,1,3.27-1.76,9.12,9.12,0,0,1,3.74-.27Zm0-3.79-.1-.36a10.2,10.2,0,0,0-4.85.18,9.76,9.76,0,0,0-4.15,2.43l.1.36-2.17-.44,5.4-5.17,7.35,1.48Z"/><path fill="current" d="M80,44.49l-9.81-2L63,49.43l4.64,1,1,3.37,9-2.61-1-3.37,1.69-1.63L79.4,50,79,52.43l2,1.26,1-2.13-1.64-1.9-1.25-4.33Zm.58,7.7-.43-.27.12-.81.53.62Zm-4.29-1.76-7,2-.94-3.23a8.59,8.59,0,0,1,3.27-1.76,8.79,8.79,0,0,1,3.74-.27Zm0-3.78-.11-.36a10,10,0,0,0-9,2.6l.11.37-2.17-.45,5.4-5.17,7.35,1.48Z"/><circle fill="current" cx="164.55" cy="9.39" r="1.25"/><circle fill="current" cx="250.63" cy="29.39" r="1.25"/><circle fill="current" cx="163.29" cy="73.52" r="1.25"/><circle fill="current" cx="211.33" cy="137.68" r="1.25"/><circle fill="current" cx="212.68" cy="70.09" r="1.25"/><circle fill="current" cx="254.75" cy="115.08" r="0.89"/><circle fill="current" cx="164.55" cy="130.27" r="1.25"/><path fill="current" d="M162,59.79a2.18,2.18,0,1,1,2.17-2.17A2.18,2.18,0,0,1,162,59.79Zm0-3.54a1.37,1.37,0,1,0,1.36,1.37A1.37,1.37,0,0,0,162,56.25Z"/><path fill="current" d="M153.5,94.3a2.18,2.18,0,1,1,2.17-2.18A2.19,2.19,0,0,1,153.5,94.3Zm0-3.54a1.37,1.37,0,1,0,1.36,1.36A1.36,1.36,0,0,0,153.5,90.76Z"/><path fill="current" d="M213.94,109.65a2.18,2.18,0,1,1,2.17-2.18A2.19,2.19,0,0,1,213.94,109.65Zm0-3.54a1.37,1.37,0,1,0,1.36,1.36A1.36,1.36,0,0,0,213.94,106.11Z"/><path fill="current" d="M256.52,41.87a2.18,2.18,0,1,1,2.18-2.18A2.18,2.18,0,0,1,256.52,41.87Zm0-3.55a1.37,1.37,0,1,0,1.37,1.37A1.37,1.37,0,0,0,256.52,38.32Z"/><rect fill="current" x="213.39" y="13.45" width="4.97" height="1.13" rx="0.57" transform="translate(56.95 -132.76) rotate(39.01)"/><rect fill="current" x="203.33" y="76.99" width="4.97" height="1.13" rx="0.57" transform="matrix(0.78, 0.63, -0.63, 0.78, 94.71, -112.26)"/><rect fill="current" x="210.2" y="118.22" width="4.97" height="1.13" rx="0.57" transform="translate(438.85 28.28) rotate(129.01)"/><rect fill="current" x="162.27" y="27.62" width="4.54" height="1.04" rx="0.52" transform="translate(28.3 124.59) rotate(-45)"/><rect fill="current" x="162.27" y="27.62" width="4.54" height="1.04" rx="0.52" transform="translate(68.09 -108.11) rotate(45)"/><rect fill="current" x="218.58" y="3.51" width="4.54" height="1.04" rx="0.52" transform="translate(61.84 157.35) rotate(-45)"/><rect fill="current" x="218.58" y="3.51" width="4.54" height="1.04" rx="0.52" transform="translate(67.53 -154.99) rotate(45)"/><rect fill="current" x="203.55" y="41.45" width="4.54" height="1.04" rx="0.52"/><rect fill="current" x="203.55" y="41.45" width="4.54" height="1.04" rx="0.52" transform="translate(247.78 -163.86) rotate(90)"/><rect fill="current" x="249.61" y="78.92" width="4.54" height="1.04" rx="0.52" transform="translate(106.16 -140.83) rotate(39.01)"/><rect fill="current" x="249.61" y="78.92" width="4.54" height="1.04" rx="0.52" transform="translate(472.15 -66.28) rotate(129.01)"/><rect fill="current" x="153.11" y="109.23" width="4.54" height="1.04" rx="0.52"/><rect fill="current" x="153.11" y="109.23" width="4.54" height="1.04" rx="0.52" transform="translate(265.13 -45.64) rotate(90)"/><path fill="current" d="M236,43.9a1.29,1.29,0,1,0-1.58.93A1.29,1.29,0,0,0,236,43.9Zm-.55-.14a.73.73,0,1,1-.52-.89A.72.72,0,0,1,235.43,43.76Zm3.13,9.2a1.29,1.29,0,1,0,1.58-.92A1.29,1.29,0,0,0,238.56,53Zm.55.14a.73.73,0,1,1,.52.89A.72.72,0,0,1,239.11,53.1Zm-9-4.47a.87.87,0,0,0,.51,1,2.31,2.31,0,0,0,1.7,1.94L237.53,53a2.29,2.29,0,1,0,.14-.55l-5.25-1.38a1.76,1.76,0,0,1-1.27-1.37.88.88,0,0,0,.59-.61.86.86,0,0,0-.21-.82,1.76,1.76,0,0,1,1.78-.57l3.12.82a.86.86,0,0,0,.64.77.85.85,0,0,0,.94-.35l3.13.82a2.33,2.33,0,0,0,2.44-.85.87.87,0,0,0,.94-.64.86.86,0,0,0-.51-1,2.31,2.31,0,0,0-1.7-1.95l-5.3-1.4a2.29,2.29,0,1,0-.14.55l5.3,1.4a1.75,1.75,0,0,1,1.27,1.37.85.85,0,0,0-.59.61.87.87,0,0,0,.21.82,1.76,1.76,0,0,1-1.78.57l-3.12-.83a.87.87,0,0,0-.64-.77.86.86,0,0,0-.94.36l-3.13-.83A2.32,2.32,0,0,0,231,48,.86.86,0,0,0,230.07,48.63ZM236.41,44a1.74,1.74,0,1,1-1.24-2.13A1.75,1.75,0,0,1,236.41,44Zm7,3.93a.3.3,0,0,1,.32-.22h0a.28.28,0,0,1,.21.36.3.3,0,0,1-.36.22h-.05A.3.3,0,0,1,243.39,48Zm-6.39.41a.3.3,0,0,1,.59.15.31.31,0,0,1-.37.22A.31.31,0,0,1,237,48.36Zm1.13,4.48A1.74,1.74,0,1,1,239.37,55,1.75,1.75,0,0,1,238.13,52.84Zm-7.51-4.07a.28.28,0,0,1,.36-.21H231a.3.3,0,0,1,.17.35.31.31,0,0,1-.32.23h0A.29.29,0,0,1,230.62,48.77Z"/><path fill="current" d="M235.5,130.49a1.3,1.3,0,0,0-.93-1.58,1.29,1.29,0,1,0-.66,2.5A1.31,1.31,0,0,0,235.5,130.49Zm-.55-.15a.72.72,0,0,1-.89.52.73.73,0,1,1,.37-1.41A.74.74,0,0,1,235,130.34Zm3.13,9.2a1.29,1.29,0,1,0,1.58-.92A1.29,1.29,0,0,0,238.08,139.54Zm.54.15a.73.73,0,1,1,1.41.37.73.73,0,1,1-1.41-.37Zm-9-4.48a.86.86,0,0,0,.5,1,2.34,2.34,0,0,0,1.7,2l5.25,1.38a2.34,2.34,0,1,0,.15-.54l-5.25-1.39a1.73,1.73,0,0,1-1.27-1.37.87.87,0,0,0,.38-1.43,1.74,1.74,0,0,1,1.77-.57l3.13.83a.87.87,0,0,0,.64.77.86.86,0,0,0,.94-.36l3.12.83a2.32,2.32,0,0,0,2.44-.86.87.87,0,0,0,.44-1.66,2.32,2.32,0,0,0-1.7-1.94l-5.3-1.4a2.3,2.3,0,1,0-.14.54l5.3,1.4a1.75,1.75,0,0,1,1.26,1.37.88.88,0,0,0-.59.61.85.85,0,0,0,.22.82,1.76,1.76,0,0,1-1.78.57l-3.13-.82a.84.84,0,0,0-.64-.77.86.86,0,0,0-.94.35l-3.12-.82a2.33,2.33,0,0,0-2.44.85A.87.87,0,0,0,229.59,135.21Zm6.34-4.61a1.74,1.74,0,1,1-1.24-2.13A1.74,1.74,0,0,1,235.93,130.6Zm7,3.94a.31.31,0,0,1,.32-.23h.05a.3.3,0,0,1,.21.37.29.29,0,0,1-.37.21h0A.3.3,0,0,1,242.91,134.54Zm-6.39.41a.31.31,0,0,1,.37-.22.3.3,0,0,1-.16.58A.29.29,0,0,1,236.52,135Zm1.12,4.48a1.74,1.74,0,1,1,1.24,2.13A1.74,1.74,0,0,1,237.64,139.43Zm-7.51-4.07a.3.3,0,0,1,.37-.22h0a.3.3,0,0,1-.15.57h0A.3.3,0,0,1,230.13,135.36Z"/><path fill="current" d="M189,5.37a1.3,1.3,0,1,0-.77-1.66A1.3,1.3,0,0,0,189,5.37Zm.7-1.91a.73.73,0,1,1-.94.44A.74.74,0,0,1,189.71,3.46ZM180.18,8A1.3,1.3,0,1,0,181,9.66,1.3,1.3,0,0,0,180.18,8Zm-.7,1.91a.74.74,0,0,1-.43-.94.73.73,0,0,1,1.37.5A.74.74,0,0,1,179.48,9.91Zm10.5,0a2.33,2.33,0,0,0-1.51-2.1l-3-1.11a.89.89,0,0,0-.57-.83.86.86,0,0,0-1,.27l-3-1.11a1.75,1.75,0,0,1-1.13-1.48.87.87,0,0,0,.64-.55.84.84,0,0,0-.14-.84,1.76,1.76,0,0,1,1.83-.4l5.15,1.88a2.3,2.3,0,1,0,.19-.53l-5.15-1.88a2.34,2.34,0,0,0-2.51.63.85.85,0,0,0-1,.54.87.87,0,0,0,.41,1.07,2.31,2.31,0,0,0,1.51,2.09l3,1.11a.89.89,0,0,0,.57.83.86.86,0,0,0,1-.27l3,1.11a1.75,1.75,0,0,1,1.13,1.48.87.87,0,0,0-.51,1.39,1.74,1.74,0,0,1-1.82.4L182,9.74a2.3,2.3,0,1,0-.19.53l5.1,1.86a2.3,2.3,0,0,0,2.5-.62.87.87,0,0,0,1-.55A.86.86,0,0,0,190,9.9Zm.07-7.39a1.74,1.74,0,1,1-2.23,1A1.75,1.75,0,0,1,190.05,2.51ZM179.5,3h0l0,0a.3.3,0,0,1,.2-.56.05.05,0,0,1,0,0h0a.3.3,0,0,1,.13.36A.31.31,0,0,1,179.5,3Zm5,4a.3.3,0,0,1-.18-.39.31.31,0,0,1,.38-.18.3.3,0,0,1,.18.39A.29.29,0,0,1,184.47,7Zm-5.33,3.9a1.74,1.74,0,1,1,2.23-1A1.74,1.74,0,0,1,179.14,10.86Zm10.34.08h0a.3.3,0,0,1,.21-.55h0a.29.29,0,0,1,.18.38A.29.29,0,0,1,189.48,10.94Z"/><path fill="current" d="M185.2,88.79a1.3,1.3,0,1,0-1.64-.8A1.29,1.29,0,0,0,185.2,88.79Zm-.66-1.91a.73.73,0,1,1-.45.93A.74.74,0,0,1,184.54,86.88ZM180,96.43a1.29,1.29,0,1,0,1.65.79A1.29,1.29,0,0,0,180,96.43Zm.67,1.91a.73.73,0,1,1,.45-.93A.73.73,0,0,1,180.71,98.34Zm8.12-6.66a2.33,2.33,0,0,0-2.5-.66l-3.05,1.06a.87.87,0,0,0-1.55.54l-3,1.06a1.75,1.75,0,0,1-1.82-.42.85.85,0,0,0,.15-.84.87.87,0,0,0-.63-.56,1.75,1.75,0,0,1,1.15-1.46l5.18-1.81a2.3,2.3,0,1,0-.19-.54l-5.17,1.81a2.34,2.34,0,0,0-1.55,2.08.87.87,0,0,0,.57,1.62,2.34,2.34,0,0,0,2.5.66l3-1.07a.86.86,0,0,0,1.54-.54l3-1.06a1.75,1.75,0,0,1,1.82.43.88.88,0,0,0-.15.83.86.86,0,0,0,.64.56,1.76,1.76,0,0,1-1.16,1.47l-5.12,1.79a2.33,2.33,0,1,0,.18.53l5.13-1.79a2.31,2.31,0,0,0,1.54-2.07.88.88,0,0,0,.43-1.06A.87.87,0,0,0,188.83,91.68Zm-4.63-5.76a1.74,1.74,0,1,1-1.07,2.22A1.75,1.75,0,0,1,184.2,85.92Zm-7.86,7h0a.31.31,0,0,1-.39-.18.31.31,0,0,1,.19-.39h0a.31.31,0,0,1,.34.2A.29.29,0,0,1,176.34,93Zm6.36-.07a.32.32,0,0,1-.39-.18.31.31,0,0,1,.19-.39.3.3,0,0,1,.2.57ZM181,99.29a1.74,1.74,0,1,1,1.07-2.22A1.74,1.74,0,0,1,181,99.29Zm8.06-6.48h0a.28.28,0,0,1-.33-.2.29.29,0,0,1,.14-.36h0l0,0a.3.3,0,0,1,.2.57Z"/><path fill="current" d="M235.55,6.83l1,4.41L236,13.69l1.9,1.38L239,13l-1.51-2-.85-3.88,2.26.62.75,3.43,9.15-2-.75-3.42,3.62-3.06L242.06.08l-7.68,6.43Zm1.59,6.42.18-.8.49.65-.25.45Zm2.62-6.59a8.9,8.9,0,0,1,3.41-1.55,8.76,8.76,0,0,1,3.71,0l.73,3.29L240.48,10ZM236.57,6l5.74-4.82,7.22,2L247.84,4.6l-.09-.37a9.8,9.8,0,0,0-4.81-.13,10.14,10.14,0,0,0-4.34,2.15l.09.37Z"/><path fill="current" d="M228.13,92.61l1,4.41-.53,2.45,1.91,1.38,1.14-2.06-1.51-2-.85-3.87,2.26.62.76,3.42,9.15-2-.76-3.42,3.62-3.06-9.65-2.61L227,92.29Zm1.6,6.42.17-.8.49.65-.25.45Zm2.61-6.59a9,9,0,0,1,3.41-1.55,8.6,8.6,0,0,1,3.71,0l.73,3.29-7.13,1.57Zm-3.19-.63L234.89,87l7.22,2-1.69,1.42-.08-.37a9.91,9.91,0,0,0-4.81-.14A10,10,0,0,0,231.19,92l.08.37Z"/><path fill="current" d="M191.93,128.58l-9.82-2-7.22,6.91,4.64.95,1,3.36,9-2.61-1-3.36,1.69-1.63,1.1,3.81-.36,2.48,2,1.26,1-2.13-1.64-1.9-1.26-4.34Zm.58,7.69-.43-.27.12-.8.53.61Zm-4.29-1.75-7,2-.94-3.24a8.72,8.72,0,0,1,3.27-1.76,9.11,9.11,0,0,1,3.74-.27Zm0-3.79-.11-.36a10.09,10.09,0,0,0-4.84.19A9.83,9.83,0,0,0,179.1,133l.11.36L177,132.9l5.4-5.17,7.35,1.48Z"/><path fill="current" d="M191.61,44.57l-9.82-2-7.22,6.91,4.64,1,1,3.37,9-2.61-1-3.37,1.69-1.63L191,50l-.37,2.48,2,1.26,1-2.13L192,49.75l-1.26-4.34Zm.58,7.7-.43-.27.12-.81.53.62Zm-4.29-1.76-7,2L180,49.31a8.59,8.59,0,0,1,3.27-1.76,8.75,8.75,0,0,1,3.73-.27Zm0-3.78-.1-.36a10,10,0,0,0-9,2.6l.1.37-2.16-.45,5.4-5.17,7.34,1.48Z"/></g></svg>
