<svg id="bf3180ab-d458-4d2d-a557-38317b0fd124" data-name="Layer 1" xmlns="http://www.w3.org/2000/svg" xmlns:xlink="http://www.w3.org/1999/xlink" viewBox="0 0 598.01 262"><defs><style>.ab1aae4d-7556-4647-afe5-37e5066fa5e0{fill:none;}.ab87d059-4d9d-4b11-837a-7734cfd3b022{clip-path:url(#a53d9a06-f0b3-4dc9-978d-bdd0e28d7d79);}.a1b5c06b-b000-4e7e-a316-b0b6a7df9f4f,.adcb3357-0106-4523-a14f-993851a9a09b{fill:#5ec2c1;}.a1b5c06b-b000-4e7e-a316-b0b6a7df9f4f{opacity:0.1;}.f02bce61-19b0-4085-9f1e-c5882d14cfa6{fill:#f26d5a;}.a9869ddc-9deb-49f9-95f0-17d9e7296258{fill:#fff;}.b0cd19fc-a1e0-4910-97ab-0b5ac6c07534{fill:#244d5e;}.e7560774-4438-4728-bf34-3c683106d869{fill:#b47b72;}.bff76618-009f-4f4a-95b4-8db7f3c28243{isolation:isolate;opacity:0.2;}.e82458a5-10b1-4877-9ba0-82505cf1cb3a{fill:#163345;}.b13973de-0fd2-4a1c-84e6-abbdaacb5479{fill:#4ea09d;}.a28c2b8b-2934-4572-82dd-e35e2c450a28{fill:#ffc3bd;}.b567ffcd-2790-42a4-b615-9cf8ff524c96{fill:#263238;}.b73dbfa9-2048-4ba2-9c91-ed10efdc3065{fill:#407bff;}</style><clipPath id="a53d9a06-f0b3-4dc9-978d-bdd0e28d7d79"><rect class="ab1aae4d-7556-4647-afe5-37e5066fa5e0" width="598.01" height="262"/></clipPath></defs><g class="ab87d059-4d9d-4b11-837a-7734cfd3b022"><path class="a1b5c06b-b000-4e7e-a316-b0b6a7df9f4f" d="M622.57,295.3,320.92,318.73S-1.33,378-1.33,280.66c0-106.87,115.66-61.72,189.42-161.74,73-99,108.61-120.27,148.67-130.24C389.68-24.5,446.79-16.95,493,9,562.77,48.28,643.46,130,622.57,295.3Z"/><path class="a1b5c06b-b000-4e7e-a316-b0b6a7df9f4f" d="M622.57,354.78,320.92,378.21S-1.33,437.46-1.33,340.15c0-106.88,115.66-61.73,189.42-161.74,73-99,108.61-120.28,148.67-130.25C389.68,35,446.79,42.53,493,68.52,562.77,107.76,643.46,189.49,622.57,354.78Z"/><path class="a1b5c06b-b000-4e7e-a316-b0b6a7df9f4f" d="M622.57,494.83,320.92,518.25S-1.33,577.51-1.33,480.19c0-106.87,115.66-61.73,189.42-161.74,73-99,108.61-120.27,148.67-130.25,52.92-13.18,110-5.63,156.25,20.37C562.77,247.81,643.46,329.53,622.57,494.83Z"/><g id="a4661e79-0ad6-4f4a-a416-3dc36db86439" data-name="freepik--speech-bubble--inject-12"><path class="f02bce61-19b0-4085-9f1e-c5882d14cfa6" d="M375.26,129.64A62.38,62.38,0,0,0,412.89,145a62.46,62.46,0,0,1-26.3-22.3c14.16-10.68,23.05-26,23.05-43,0-32.27-31.87-58.44-71.18-58.44s-71.17,26.17-71.17,58.44c0,17,8.9,32.37,23.06,43.05A62.35,62.35,0,0,1,264,145a62.43,62.43,0,0,0,37.64-15.33A84.63,84.63,0,0,0,375.26,129.64Z"/><ellipse class="adcb3357-0106-4523-a14f-993851a9a09b" cx="327" cy="83.61" rx="27.32" ry="33.95" transform="translate(-9.06 115.01) rotate(-19.68)"/><ellipse class="a9869ddc-9deb-49f9-95f0-17d9e7296258" cx="329.01" cy="82.89" rx="22.05" ry="27.41" transform="matrix(0.94, -0.34, 0.34, 0.94, -8.7, 115.64)"/><ellipse class="adcb3357-0106-4523-a14f-993851a9a09b" cx="330.76" cy="82.25" rx="17.66" ry="21.95" transform="translate(-8.38 116.19) rotate(-19.68)"/><path class="a9869ddc-9deb-49f9-95f0-17d9e7296258" d="M344.27,77.43c3.13,8.76.18,17.83-6.61,20.25s-14.81-2.64-18-11.47-.18-17.84,6.62-20.26S341.13,68.66,344.27,77.43Z"/><path class="adcb3357-0106-4523-a14f-993851a9a09b" d="M341.91,78.85c2.24,6.26.31,12.66-4.31,14.31s-10.18-2.08-12.41-8.32-.31-12.66,4.32-14.32S339.72,72.55,341.91,78.85Z"/><path class="a9869ddc-9deb-49f9-95f0-17d9e7296258" d="M340.34,79.37c1.61,4.51.38,9.08-2.74,10.19s-7-1.62-8.59-6.14-.38-9.07,2.74-10.2S338.73,74.89,340.34,79.37Z"/><polygon class="adcb3357-0106-4523-a14f-993851a9a09b" points="377.62 58.97 369.2 61.98 367.59 69.63 373.69 74.5 382.1 71.5 375.86 66.66 377.62 58.97"/><path class="b0cd19fc-a1e0-4910-97ab-0b5ac6c07534" d="M336,82.25a1.32,1.32,0,0,1-.51-2.56L376.64,65a1.32,1.32,0,0,1,1.69.8,1.34,1.34,0,0,1-.81,1.7h0L336.36,82.17A1.17,1.17,0,0,1,336,82.25Z"/></g><path class="e7560774-4438-4728-bf34-3c683106d869" d="M375.25,200l-2.06-5s1.63-1.58,1.42-2.84-8.74-8.31-10.31-9.51-4.13,3.23-5.12,6.76,7.94,9.71,9.26,9.12l1.43,5Z"/><path class="adcb3357-0106-4523-a14f-993851a9a09b" d="M427.12,199.06c-15.72,1.91-33.24,25-38.35,22.09S374.23,197,374.23,197l-5.41,3.2s4.92,38.95,16.95,40.43,34.3-11,34.3-11Z"/><path class="bff76618-009f-4f4a-95b4-8db7f3c28243" d="M422.46,219.25l-2.39,10.31a124.75,124.75,0,0,1-20.59,9C401.94,225.24,417.1,220.52,422.46,219.25Z"/><path class="adcb3357-0106-4523-a14f-993851a9a09b" d="M401.11,277.06s-8.34-15.12,9.26-41c0,0,5.11-28,9.38-32.38s17.4-10.29,36.14-6.92,26.58,11,26.58,11l-3,59.09s1.67,7.46-2.56,18.67Z"/><path class="e7560774-4438-4728-bf34-3c683106d869" d="M467.68,198.85c-7.12,3.54-23.86,4.6-23.86,4.6l-9.26-5.87c4.62-.43,7.51-1.33,9.26-2.65,2.78-2.07,2.56-5,1.68-7.8V187h0l12.74-5.18,8.78-3.57C464.18,184,460.72,194.64,467.68,198.85Z"/><path class="bff76618-009f-4f4a-95b4-8db7f3c28243" d="M463.41,183.19c-1.48,8.66-12.68,11.69-19.59,11.69,2.78-2.08,2.56-5,1.68-7.8a.21.21,0,0,0,0-.11l12.74-5.18C458.51,182.85,463.56,182.11,463.41,183.19Z"/><path class="e7560774-4438-4728-bf34-3c683106d869" d="M467.83,161.47A13.36,13.36,0,0,0,450.91,153h0a12.57,12.57,0,0,0-5.18,3.3h0c-3.5,1.83-5.66,7.63-5.29,11.53h0q-.23,1.23-.36,2.46c-.83,2.22-4.17,4.48-2.38,11.27,2.24,8.45,11.3,10.65,17.05,9.26h0a12.49,12.49,0,0,0,6.85-3.12,16,16,0,0,0,1.62-1.67c3.74-4.36,4.09-9.85,5.2-18.44A13.41,13.41,0,0,0,467.83,161.47Z"/><path class="e82458a5-10b1-4877-9ba0-82505cf1cb3a" d="M445.21,156.46c4.27-1.94,4.56,1.32,4.56,1.32s2.76-3.23,5.74-2.73,7.26,6.2,7.51,6.95-1.18,2.19-1.18,2.19.33,9,.44,11.48l3.67,6.71a40.47,40.47,0,0,0,6.39-21.5c.12-12.81-25.12-12.19-25.12-12.19Z"/><path class="e7560774-4438-4728-bf34-3c683106d869" d="M472,178.75a9.24,9.24,0,0,1-6.08,3.69c-3.22.47-4.43-2.52-3.2-5.36,1.13-2.51,4.15-5.87,7.24-5S473.79,176.29,472,178.75Z"/><path class="e82458a5-10b1-4877-9ba0-82505cf1cb3a" d="M447.22,148.75c-6.8,1.11-7.94,10.43-2.82,11.3s.86-2.35.86-2.35,8.92,3,10.46,2.51-.52-2.51-.52-2.51,5.87,4.22,10.73,2.55S467,145.53,447.22,148.75Z"/><polygon class="e82458a5-10b1-4877-9ba0-82505cf1cb3a" points="439.12 201.35 441.05 210.18 426.86 240.75 430.66 252.28 438.44 246.25 443.09 211.43 454.68 205.05 452.1 201.35 443.64 199.67 439.12 201.35"/><polygon class="b13973de-0fd2-4a1c-84e6-abbdaacb5479" points="441.41 193.25 446.05 199.04 465.38 192.86 469.68 200.51 448.15 210.77 444.64 201.89 434.48 207.73 433.64 196.98 441.41 193.25"/><path class="bff76618-009f-4f4a-95b4-8db7f3c28243" d="M481.46,215.57c-.62,5.74-1.44,14.55-2,26.2a33.81,33.81,0,0,1-1.5-21.16A16.71,16.71,0,0,1,481.46,215.57Z"/><path class="e7560774-4438-4728-bf34-3c683106d869" d="M464.14,259.85,459,261s-1.21-1.94-2.45-2-9.47,7.41-10.88,8.79,2.31,4.77,5.5,6.43,10.66-6.36,10.33-7.78l5-.55Z"/><path class="adcb3357-0106-4523-a14f-993851a9a09b" d="M482.51,207.72c8.86,5.17,24,37.22,19.83,49.32-3,8.7-32.42,13-39.44,9.77l-2.14-6.51S483.7,253,484.9,248.6c1-3.53-8-11.9-8-11.9s-1.68-6.08,1.32-20.43C479.57,210.26,482.51,207.72,482.51,207.72Z"/><path class="a28c2b8b-2934-4572-82dd-e35e2c450a28" d="M281.09,186.84c-.67-1.51,0-5.5,0-5.5s11.23-5.9,13-7.33,3.82,5.06,2.64,6.42-4.49,6.41-10.1,6.41l-1.6,4.4Z"/><path class="adcb3357-0106-4523-a14f-993851a9a09b" d="M250.68,191.77c4.25,1,16.48,17.19,20.64,16.74s9.16-22.15,9.16-22.15l6.11,1.84s-3,27.28-10.83,30.94-26.44-11.9-26.44-11.9Z"/><path class="bff76618-009f-4f4a-95b4-8db7f3c28243" d="M250.68,208.43a92,92,0,0,0,11,7.43,19,19,0,0,0-9.54-12.77Z"/><rect class="b567ffcd-2790-42a4-b615-9cf8ff524c96" x="220.46" y="261.14" width="1.9" height="11.24"/><rect class="b567ffcd-2790-42a4-b615-9cf8ff524c96" x="247.35" y="261.14" width="1.9" height="11.24"/><path class="adcb3357-0106-4523-a14f-993851a9a09b" d="M197.92,197.67c-4.9-.91-21.59,40.9-18.26,49.5s22.1,29.09,22.1,29.09l5.79-5.42s-15.4-20.53-17.63-27.29S200,215.36,200,215.36a31.24,31.24,0,0,0,1-10.23A13.77,13.77,0,0,0,197.92,197.67Z"/><path class="adcb3357-0106-4523-a14f-993851a9a09b" d="M257.36,244.13v2.57c0,1.82-.07,3.54-.11,5.11-.09,2.21-.18,4.17-.28,5.85-.25,4-.51,6.33-.51,6.33H202.68c-.13-1.94-.26-3.89-.38-5.82s-.24-3.57-.36-5.28-.21-3.14-.31-4.69c-.07-.78-.11-1.57-.18-2.35-.14-2.18-.3-4.34-.44-6.45a6,6,0,0,0-.1-1.32c-.2-2.93-.39-5.8-.61-8.59-.08-1.15-.17-2.27-.25-3.39-.31-4.29-.61-8.36-.9-12.17-.18-2.42-.35-4.74-.52-6.93-.26-3.46-.49-6.61-.71-9.36l52.76-5.87c4.51,14.55,6.15,30.56,6.61,43.86V237C257.29,239.5,257.37,241.87,257.36,244.13Z"/><path class="a28c2b8b-2934-4572-82dd-e35e2c450a28" d="M214.48,196.17c4.75,4,11.9,5.21,11.9,5.21s8.14-6.1,6.61-8.22c-4.14-.49-3.56-1.73-4.48-4.15a11.64,11.64,0,0,1-.62-4.68,21.36,21.36,0,0,1,.22-2.65l-14.28-9.62C216,178.75,218.72,191.08,214.48,196.17Z"/><path class="bff76618-009f-4f4a-95b4-8db7f3c28243" d="M217.33,178.44c.92,8.27,7.83,10.25,11.19,10.58a11.79,11.79,0,0,1-.62-4.68Z"/><path class="e82458a5-10b1-4877-9ba0-82505cf1cb3a" d="M231.44,147.9S237.29,160,232,167s-12.53-16.77-12.53-16.77Z"/><path class="a28c2b8b-2934-4572-82dd-e35e2c450a28" d="M215.5,183.16a12.08,12.08,0,0,0,14.65.41,13.43,13.43,0,0,0,5.51-8.23,11.38,11.38,0,0,0,.24-1.42c.94-8.8-2.18-22.74-12-25.32a13.13,13.13,0,0,0-16.07,9.3,13,13,0,0,0-.18,6C209.45,173.33,210.06,179,215.5,183.16Z"/><path class="e82458a5-10b1-4877-9ba0-82505cf1cb3a" d="M213.12,151.17l1.13,1.64c-2.93,1.57-1.68,5.07-.75,6.61,2,3.26.94,9-1.32,11.67,0,0-.36-1.49-1.58-.91s.55,8.41,3.71,11.73c0,0-4.38-2.73-7.94-10.58-3.33-7.31-4.72-13.65-3.67-16.88Z"/><path class="a28c2b8b-2934-4572-82dd-e35e2c450a28" d="M204.54,172.24a9.08,9.08,0,0,0,5.76,4c3.13.62,4.46-2.25,3.39-5.09-1-2.51-3.77-5.94-6.83-5.29S202.92,169.74,204.54,172.24Z"/><path class="e82458a5-10b1-4877-9ba0-82505cf1cb3a" d="M202.3,160.3s-4.79-7.45,4.1-15.41,20.59-4.63,23.06-1.33c0,0,7.09,1.56,3.57,8.6l-4.67-3.68S220.94,160.54,202.3,160.3Z"/><polygon class="adcb3357-0106-4523-a14f-993851a9a09b" points="235.57 193.75 230.93 229.51 211.9 196.37 226.14 198.91 235.57 193.75"/><polygon class="b73dbfa9-2048-4ba2-9c91-ed10efdc3065" points="216.15 192.24 226.17 197.69 229.46 190.95 235.57 193.75 233.32 204.36 226.81 200.35 221.96 206.55 211.9 196.37 216.15 192.24"/><polygon class="b13973de-0fd2-4a1c-84e6-abbdaacb5479" points="216.15 192.24 226.17 197.69 229.46 190.95 235.57 193.75 233.32 204.36 226.81 200.35 221.96 206.55 211.9 196.37 216.15 192.24"/></g></svg>