<svg viewBox="0 0 495.97 262" opacity="0.05">
    <g class="colored">
        <path d="M136.23,77.14,146.58,66.8a6.25,6.25,0,0,0-3.9-10.65l-19.19-1.62-1.62-19.19a6.25,6.25,0,0,0-10.64-3.89L100.88,41.79A106.67,106.67,0,0,0-30.18,57.37,106.66,106.66,0,0,0,45.23,239.45a106.67,106.67,0,0,0,91-162.31Zm-24.75-16.3a6.26,6.26,0,0,0,5.7,5.71l11,.93L113.28,82.42,97,81.05,95.6,64.75l15-15Zm-45,71.95A21.28,21.28,0,1,1,55.17,114L40.82,128.37a6.25,6.25,0,1,0,8.83,8.84L64,122.86A21,21,0,0,1,66.48,132.79Zm-2.23-27.86a33.79,33.79,0,1,0,8.84,8.84L90.94,95.93a58.81,58.81,0,1,1-8.84-8.84Zm47.56,94.44A93.5,93.5,0,0,1,45.23,227a94.16,94.16,0,1,1,46.53-176L84.71,58a6.25,6.25,0,0,0-1.83,4.26c0,.23,0,.46,0,.69l.84,10a71.27,71.27,0,1,0,21.41,21.4l10,.84a4.7,4.7,0,0,0,.53,0H116l.41,0,.25,0L117,95l.24-.06.38-.11.24-.09.37-.16.23-.1.35-.2.21-.13.36-.25.16-.13a5.12,5.12,0,0,0,.49-.44l7-7a94.19,94.19,0,0,1-15.3,113.1Z" />
        <path d="M307.94,64.66l2.76-5.17A2.5,2.5,0,0,0,308,55.86l-7.55,1.62-2.85-7.17a2.5,2.5,0,0,0-4.53-.25l-2.76,5.17a42.72,42.72,0,1,0,17.66,9.43Zm-11.38-3.37a2.49,2.49,0,0,0,2.85,1.52l4.33-.93-4,7.47-6.41,1.37-2.42-6.08,4-7.47Zm-8.86,32.8a8.51,8.51,0,1,1-10.62-5.66,8.43,8.43,0,0,1,4.1-.21l-3.83,7.17a2.5,2.5,0,0,0,1,3.38,2.5,2.5,0,0,0,3.38-1l3.83-7.17A8.46,8.46,0,0,1,287.7,94.09Zm-4.1-10.41A13.55,13.55,0,1,0,288,86l4.76-8.92a23.6,23.6,0,1,1-4.41-2.35Zm29.21,30.64a37.68,37.68,0,1,1-25-54.54L286,63.31a2.45,2.45,0,0,0-.21,1.84l.09.26,1.48,3.72A28.54,28.54,0,1,0,298,74.84l3.91-.84.21,0h0l.09,0,.16-.06.09,0,.14-.07.09-.06.13-.09.08-.06.12-.1a.46.46,0,0,0,.07-.07l.12-.11.06-.08a.76.76,0,0,0,.11-.14l.05-.06.14-.23,1.88-3.52a37.72,37.72,0,0,1,7.3,45.11Z" />
        <path d="M293.29,210.06l3.61-3.62a2.18,2.18,0,0,0-1.36-3.72l-6.7-.56-.57-6.71a2.18,2.18,0,0,0-3.72-1.36l-3.61,3.62a37.25,37.25,0,1,0,12.35,12.35Zm-8.65-5.7a2.19,2.19,0,0,0,2,2l3.86.32-5.22,5.22-5.7-.48-.48-5.69,5.22-5.23ZM268.92,229.5a7.43,7.43,0,1,1-7.43-7.42,7.34,7.34,0,0,1,3.47.86l-5,5a2.19,2.19,0,0,0,1.54,3.73,2.22,2.22,0,0,0,1.55-.64l5-5A7.41,7.41,0,0,1,268.92,229.5Zm-.78-9.73a11.78,11.78,0,1,0,3.09,3.09l6.23-6.24a20.53,20.53,0,1,1-3.09-3.09Zm16.62,33a32.9,32.9,0,1,1-7-51.88l-2.46,2.47a2.14,2.14,0,0,0-.64,1.48,1.92,1.92,0,0,0,0,.24l.3,3.49a24.92,24.92,0,1,0,7.48,7.48l3.48.29h.53l.14,0,.08,0,.14,0,.08,0,.13-.06.08,0,.12-.07.07,0a.38.38,0,0,0,.13-.09l.06,0,.17-.15,2.46-2.46a32.93,32.93,0,0,1-5.34,39.52Z" />
        <path d="M416.8,175.9l1.75.19a.74.74,0,0,0,.73-.35.76.76,0,0,0,0-.82L418,173l1.69-1.6a.77.77,0,0,0,.2-.79.79.79,0,0,0-.64-.51l-1.75-.19a12.91,12.91,0,0,0-11.35-11.2,12.88,12.88,0,1,0,10.68,17.2Zm-.33-3.57a.76.76,0,0,0-.11,1l.74,1.11-2.53-.28-1.1-1.64,1.43-1.36,2.54.28Zm-10.18,1.18a2.57,2.57,0,1,1,.4-3.61,2.66,2.66,0,0,1,.52,1.12l-2.44-.27a.75.75,0,0,0-.83.67.72.72,0,0,0,.16.55.75.75,0,0,0,.5.28l2.44.27A2.49,2.49,0,0,1,406.29,173.51Zm2.46-2.31a4.07,4.07,0,1,0-1.52,3.49,4,4,0,0,0,1.35-2l3,.34a7.07,7.07,0,1,1,.17-1.5Zm-5.33,11.6a11.36,11.36,0,1,1,12.5-13.08l-1.2-.13a.76.76,0,0,0-.54.15l-.06,0-.88.83a8.6,8.6,0,1,0-.4,3.63l.67,1,0,.05h0l0,0s0,0,0,0l0,0,0,0,0,0,0,0,0,0,0,0,0,0,.05,0h.18l1.2.13a11.37,11.37,0,0,1-11.83,7.08Z" />
        <path d="M490.85,265.72l2.9.32a1.26,1.26,0,0,0,1.21-.59,1.25,1.25,0,0,0,0-1.34l-2.14-3.2,2.79-2.65a1.24,1.24,0,0,0-.72-2.14l-2.9-.33a21.28,21.28,0,1,0-1.11,9.93Zm-.54-5.9a1.24,1.24,0,0,0-.18,1.6l1.23,1.84-4.2-.47-1.82-2.72,2.38-2.24,4.19.47Zm-16.84,1.94a4.23,4.23,0,1,1,1.52-4.1l-4-.46a1.25,1.25,0,0,0-1.38,1.1,1.24,1.24,0,0,0,1.1,1.38l4,.46A4.3,4.3,0,0,1,473.47,261.76Zm4.07-3.82a6.74,6.74,0,1,0-2.52,5.77,6.68,6.68,0,0,0,2.24-3.29l5,.56a11.72,11.72,0,1,1,.28-2.48Zm-8.82,19.2A18.81,18.81,0,1,1,489.4,255.5l-2-.22a1.23,1.23,0,0,0-.89.25l-.11.08L485,257a14.23,14.23,0,1,0-.67,6l1.11,1.66.06.08v0l0,0,.06.05,0,0,.06.05,0,0,.06,0,.05,0,.07,0,0,0,.08,0,0,0,.09,0h0l.13,0,2,.22a18.86,18.86,0,0,1-19.57,11.71Z" />
    </g>
</svg>