<?xml version="1.0" encoding="UTF-8"?><svg id="uuid-08acd3c7-0252-4f99-8e4b-dbc725c8c776" xmlns="http://www.w3.org/2000/svg" viewBox="0 0 200 200"><path d="M199.89,80.5c-.03-.16-.09-.3-.13-.45-.05-.18-.1-.37-.17-.55-.07-.18-.17-.34-.27-.5-.08-.14-.14-.29-.23-.42-.39-.59-.9-1.09-1.49-1.49-.13-.09-.28-.15-.42-.23-.17-.09-.33-.19-.5-.26-.18-.07-.36-.12-.55-.17-.15-.04-.3-.1-.45-.13-.35-.07-.7-.11-1.05-.11h-23.5c-2.96,0-5.36,2.4-5.36,5.36s2.4,5.36,5.36,5.36h10.55l-47.79,47.79c-14.73-13.91-34.43-21.82-54.76-21.82C38.95,112.89,4.95,142.91,.04,182.73c-.36,2.94,1.73,5.62,4.67,5.98,.22,.03,.44,.04,.66,.04,.08,0,.16-.02,.25-.02,.08,0,.15,.02,.23,.02H53.63c1.42,0,2.79-.57,3.79-1.57l33.37-33.37,15.79,15.79c2.1,2.1,5.49,2.1,7.59,0l75.11-75.11v10.55c0,2.96,2.4,5.36,5.36,5.36s5.36-2.4,5.36-5.36v-23.5c0-.35-.04-.7-.11-1.05Zm-89.52,77.73l-15.79-15.79c-2.1-2.1-5.49-2.1-7.59,0l-35.59,35.59H11.71c6.74-31.41,34.71-54.4,67.42-54.4,17.77,0,34.36,6.61,47.18,18.67l-15.93,15.93Z"/><path d="M79.13,98.13c23.95,0,43.44-19.49,43.44-43.44S103.08,11.25,79.13,11.25,35.69,30.74,35.69,54.69s19.49,43.44,43.44,43.44Zm0-76.15c18.04,0,32.71,14.67,32.71,32.71s-14.67,32.71-32.71,32.71-32.71-14.67-32.71-32.71,14.67-32.71,32.71-32.71Z"/></svg>