<?xml version="1.0" encoding="UTF-8"?><svg id="uuid-dbcf52ca-a843-44c7-9aaf-9eed248d79a7" xmlns="http://www.w3.org/2000/svg" viewBox="0 0 200 200"><path d="M8.27,167.3H45.23c.89,0,1.75-.36,2.38-.99l40.55-40.55c1.32-1.32,3.45-1.32,4.77,0l14.82,14.82c1.32,1.32,3.45,1.32,4.77,0l9.85-9.85c1.51-1.51,1.26-4.05-.53-5.21-12.39-8-27.14-12.64-42.96-12.64-33.33,0-61.95,20.61-73.75,49.77-.9,2.22,.73,4.65,3.13,4.65Z"/><path d="M199.79,81.5c0-.34-.04-.68-.1-1.01-.03-.16-.09-.31-.14-.47-.05-.18-.09-.36-.17-.54-.07-.18-.18-.34-.27-.51-.08-.14-.14-.28-.22-.41-.39-.59-.9-1.09-1.49-1.49-.14-.09-.29-.16-.43-.23-.16-.09-.32-.19-.49-.26-.19-.08-.38-.12-.58-.18-.14-.04-.28-.1-.43-.13-.35-.07-.7-.11-1.06-.11h-23.5c-2.97,0-5.38,2.41-5.38,5.38s2.41,5.38,5.38,5.38h10.53l-71.3,71.3-15.79-15.79c-2.1-2.1-5.5-2.1-7.6,0l-35.59,35.59H5.58c-2.97,0-5.38,2.41-5.38,5.38s2.41,5.38,5.38,5.38H53.38c1.43,0,2.79-.57,3.8-1.57l33.37-33.37,15.79,15.79c2.1,2.1,5.5,2.1,7.6,0l75.1-75.1v10.53c0,2.97,2.41,5.38,5.38,5.38s5.38-2.41,5.38-5.38v-23.51s0-.03,0-.04Z"/><circle cx="78.88" cy="54.68" r="43.46"/></svg>