<svg xmlns="http://www.w3.org/2000/svg" viewBox="0 0 250.42 143.15"><defs></defs><g id="be528c97-e932-4f96-879e-61bacf9f0d5f" data-name="badges"><circle fill="current" cx="139.02" cy="29.55" r="1.25"/><circle fill="current" cx="12.58" cy="111.31" r="1.25"/><circle fill="current" cx="5.37" cy="28.3" r="1.25"/><circle fill="current" cx="99.73" cy="137.83" r="1.25"/><circle fill="current" cx="101.08" cy="70.25" r="1.25"/><path fill="current" d="M46.43,61.92a2.18,2.18,0,1,1,2.17-2.18A2.19,2.19,0,0,1,46.43,61.92Zm0-3.54a1.37,1.37,0,1,0,1.36,1.36A1.36,1.36,0,0,0,46.43,58.38Z"/><path fill="current" d="M102.33,109.81a2.18,2.18,0,1,1,2.18-2.18A2.19,2.19,0,0,1,102.33,109.81Zm0-3.55a1.37,1.37,0,1,0,1.37,1.37A1.38,1.38,0,0,0,102.33,106.26Z"/><path fill="current" d="M6.62,80a2.18,2.18,0,1,1,2.17-2.17A2.18,2.18,0,0,1,6.62,80Zm0-3.54A1.37,1.37,0,1,0,8,77.83,1.37,1.37,0,0,0,6.62,76.46Z"/><rect fill="current" x="101.78" y="13.61" width="4.97" height="1.13" rx="0.57" transform="translate(32.17 -62.47) rotate(39.01)"/><rect fill="current" x="91.73" y="77.15" width="4.97" height="1.13" rx="0.57" transform="translate(69.92 -41.98) rotate(39.01)"/><rect fill="current" x="98.59" y="118.37" width="4.97" height="1.13" rx="0.57" transform="translate(257.12 115.26) rotate(129.01)"/><rect fill="current" x="-0.43" y="124" width="4.97" height="1.13" rx="0.57" transform="translate(78.87 26.48) rotate(39.01)"/><rect fill="current" x="50.67" y="27.78" width="4.54" height="1.04" rx="0.52" transform="translate(-4.5 45.72) rotate(-45)"/><rect fill="current" x="50.67" y="27.78" width="4.54" height="1.04" rx="0.52" transform="translate(35.52 -29.15) rotate(45)"/><rect fill="current" x="106.98" y="3.66" width="4.54" height="1.04" rx="0.52" transform="translate(29.04 78.48) rotate(-45)"/><rect fill="current" x="106.98" y="3.66" width="4.54" height="1.04" rx="0.52" transform="translate(34.96 -76.03) rotate(45)"/><rect fill="current" x="138" y="79.08" width="4.54" height="1.04" rx="0.52" transform="translate(81.38 -70.55) rotate(39.01)"/><rect fill="current" x="138" y="79.08" width="4.54" height="1.04" rx="0.52" transform="translate(290.42 20.7) rotate(129.01)"/><rect fill="current" x="41.51" y="109.38" width="4.54" height="1.04" rx="0.52"/><rect fill="current" x="41.51" y="109.38" width="4.54" height="1.04" rx="0.52" transform="matrix(0, 1, -1, 0, 153.68, 66.12)"/><path fill="current" d="M50.88,10a.43.43,0,0,1,0-.74L52,8.61,53.13,8a.42.42,0,0,1,.63.37v2.59a.42.42,0,0,1-.63.37L52,10.64Z"/><path fill="current" d="M93.46,38.37a.43.43,0,0,1,0-.74L94.58,37l1.13-.64a.42.42,0,0,1,.63.36v2.6a.42.42,0,0,1-.63.36L94.58,39Z"/><path fill="current" d="M50.42,74.68a.42.42,0,0,1-.52-.52l.33-1.26.34-1.25a.43.43,0,0,1,.71-.19l.91.92.92.92a.42.42,0,0,1-.19.71l-1.25.33Z"/><path fill="current" d="M3,66.13a.42.42,0,0,1-.52-.52l.34-1.25.33-1.25a.42.42,0,0,1,.71-.19l.92.91.92.92a.43.43,0,0,1-.19.71l-1.25.34Z"/><path fill="current" d="M141.27,116.92a.34.34,0,0,1-.41-.41l.27-1,.26-1a.33.33,0,0,1,.56-.15l.73.72.72.72a.33.33,0,0,1-.15.56l-1,.27Z"/><path fill="current" d="M51.21,131.07a.35.35,0,0,1,0-.6l.91-.53.91-.52a.35.35,0,0,1,.52.3v2.1a.35.35,0,0,1-.52.3l-.91-.53Z"/><path fill="current" d="M79.91,16.19a2.14,2.14,0,0,1-1.61.07,2.16,2.16,0,0,1-1.2-1.1,2.45,2.45,0,0,1-.18-.64L74,15.86a.49.49,0,0,1-.66-.24L72,12.72a1.93,1.93,0,0,1-.65.41,2.11,2.11,0,0,1-2.71-1.06,2.12,2.12,0,0,1,1-2.81,1.92,1.92,0,0,1,.65-.18L69,6.18a.5.5,0,0,1,.24-.67l2.9-1.34a2.41,2.41,0,0,1-.41-.64,2.08,2.08,0,0,1,0-1.57A2.12,2.12,0,0,1,72.76.81h0a2.14,2.14,0,0,1,3,1.67l2.9-1.34a.49.49,0,0,1,.66.24l1.46,3.14a.8.8,0,0,1-.06.79.78.78,0,0,1-.7.37,1,1,0,0,0-.48.11A1.11,1.11,0,0,0,79,7.26a1.11,1.11,0,0,0,1.43.56,1,1,0,0,0,.44-.32.83.83,0,0,1,1.38.17l1.46,3.14a.51.51,0,0,1-.24.67l-2.91,1.34a2,2,0,0,1,.41.64A2.08,2.08,0,0,1,81,15a2.12,2.12,0,0,1-1.07,1.15Zm-5.86-1.44,2.69-1.25a.8.8,0,0,1,.79.06.78.78,0,0,1,.37.7,1.16,1.16,0,0,0,.11.48,1.11,1.11,0,0,0,1.48.54h0a1.13,1.13,0,0,0,.55-1.44,1.06,1.06,0,0,0-.32-.43A.83.83,0,0,1,79.9,12l2.69-1.25L81.46,8.33a1.93,1.93,0,0,1-.65.41A2.09,2.09,0,0,1,78.1,7.68,2,2,0,0,1,78,6.07a2.08,2.08,0,0,1,1.09-1.2,2.45,2.45,0,0,1,.64-.18L78.63,2.24,75.94,3.49a.8.8,0,0,1-.79-.06.81.81,0,0,1-.38-.7,1,1,0,0,0-.1-.48,1.11,1.11,0,0,0-1.49-.54,1.14,1.14,0,0,0-.56,1.44,1,1,0,0,0,.33.43.81.81,0,0,1,.29.74.82.82,0,0,1-.47.64L70.08,6.21,71.33,8.9a.82.82,0,0,1,0,.79.85.85,0,0,1-.7.37,1.19,1.19,0,0,0-.49.1,1.12,1.12,0,0,0,.9,2.05,1.16,1.16,0,0,0,.44-.32.81.81,0,0,1,1.37.17Z"/><path fill="current" d="M130.06,54.54a1.8,1.8,0,0,1-1.38.22,1.83,1.83,0,0,1-1.13-.83,1.81,1.81,0,0,1-.22-.54L125,54.83a.42.42,0,0,1-.59-.14l-1.44-2.37a1.92,1.92,0,0,1-.52.42,1.81,1.81,0,0,1-1.35.16,1.88,1.88,0,0,1-1.09-.82,1.83,1.83,0,0,1,.61-2.51,1.81,1.81,0,0,1,.54-.22L119.68,47a.43.43,0,0,1,.15-.59L122.19,45a2,2,0,0,1-.41-.51,1.76,1.76,0,0,1-.16-1.35,1.79,1.79,0,0,1,.81-1.09h0a1.84,1.84,0,0,1,2.52.62,1.91,1.91,0,0,1,.22.53l2.36-1.44a.44.44,0,0,1,.6.15l1.56,2.56a.71.71,0,0,1,0,.68.7.7,0,0,1-.56.39,1,1,0,0,0-.41.14,1,1,0,0,0-.44.6.94.94,0,0,0,.12.73,1,1,0,0,0,1.29.35,1,1,0,0,0,.34-.32.73.73,0,0,1,.61-.33.69.69,0,0,1,.59.34l1.56,2.57a.43.43,0,0,1-.14.59l-2.37,1.44a1.57,1.57,0,0,1,.41.51,1.81,1.81,0,0,1,.17,1.35,1.85,1.85,0,0,1-.81,1.09Zm-5.18-.67,2.2-1.33a.69.69,0,0,1,.68,0,.7.7,0,0,1,.39.57.84.84,0,0,0,.14.4.94.94,0,0,0,.59.44,1,1,0,0,0,.73-.11h0a1,1,0,0,0,.34-1.29,1,1,0,0,0-.32-.34.68.68,0,0,1-.32-.61.7.7,0,0,1,.34-.59l2.19-1.34-1.21-2a2.09,2.09,0,0,1-.52.41,1.76,1.76,0,0,1-1.35.16,1.83,1.83,0,0,1-.48-3.33,2.11,2.11,0,0,1,.54-.22l-1.22-2L125.42,44a.69.69,0,0,1-.68,0,.7.7,0,0,1-.39-.57,1.05,1.05,0,0,0-.14-.41,1,1,0,0,0-.6-.43,1,1,0,0,0-1.08,1.4,1.07,1.07,0,0,0,.32.35.7.7,0,0,1,.33.6.72.72,0,0,1-.34.6l-2.2,1.33L122,49.1a.71.71,0,0,1-.54,1.07.87.87,0,0,0-.41.14,1,1,0,1,0,1.32,1.35.67.67,0,0,1,.6-.32.7.7,0,0,1,.6.34Z"/><path fill="current" d="M130.06,139.84a1.83,1.83,0,0,1-2.73-1.15L125,140.13a.43.43,0,0,1-.59-.15l-1.44-2.36a1.89,1.89,0,0,1-.52.41,1.76,1.76,0,0,1-1.35.16,1.82,1.82,0,0,1-1.09-.81,1.85,1.85,0,0,1,.61-2.52,2.11,2.11,0,0,1,.54-.22l-1.44-2.36a.44.44,0,0,1,.15-.6l2.36-1.44a1.88,1.88,0,0,1-.41-.51,1.76,1.76,0,0,1-.16-1.35,1.82,1.82,0,0,1,.81-1.09h0a1.81,1.81,0,0,1,1.38-.22,1.85,1.85,0,0,1,1.14.83,2.11,2.11,0,0,1,.22.54l2.36-1.44a.44.44,0,0,1,.6.14l1.56,2.57a.72.72,0,0,1-.54,1.07.95.95,0,0,0-.85.73,1,1,0,0,0,1.41,1.08,1,1,0,0,0,.34-.32.7.7,0,0,1,.61-.32.67.67,0,0,1,.59.34l1.56,2.56a.42.42,0,0,1-.14.59l-2.37,1.44a1.83,1.83,0,0,1-.23,3Zm-5.18-.67,2.2-1.34a.71.71,0,0,1,1.07.54.87.87,0,0,0,.14.41,1,1,0,0,0,.59.44.93.93,0,0,0,.73-.12h0a1,1,0,0,0,.34-1.29,1.07,1.07,0,0,0-.32-.35.67.67,0,0,1-.32-.6.7.7,0,0,1,.34-.6l2.19-1.33-1.21-2a1.92,1.92,0,0,1-.52.42,1.86,1.86,0,0,1-1.35.16,1.81,1.81,0,0,1-1.3-2.2,1.76,1.76,0,0,1,.82-1.13,1.58,1.58,0,0,1,.54-.22l-1.22-2-2.19,1.33a.71.71,0,0,1-1.07-.53,1,1,0,0,0-.74-.85.94.94,0,0,0-.73.12,1,1,0,0,0-.35,1.29,1,1,0,0,0,.32.34.72.72,0,0,1,.33.61.71.71,0,0,1-.34.59l-2.2,1.34,1.34,2.19a.73.73,0,0,1,0,.69.72.72,0,0,1-.57.38,1,1,0,0,0-.41.14,1,1,0,0,0,1,1.68,1.07,1.07,0,0,0,.35-.32.7.7,0,0,1,.6-.33.72.72,0,0,1,.6.34Z"/><path fill="current" d="M21.46,58a2.08,2.08,0,0,1-1.37-.86,2.11,2.11,0,0,1-.35-1.58A2,2,0,0,1,20,54.9l-3.16-.55a.48.48,0,0,1-.4-.57L17,50.62a2.22,2.22,0,0,1-.77,0,2.14,2.14,0,0,1-1.62-2.43A2.12,2.12,0,0,1,17,46.45a2.06,2.06,0,0,1,.63.22l.55-3.15a.51.51,0,0,1,.58-.41l3.15.55a2,2,0,0,1,0-.76,2.1,2.1,0,0,1,.88-1.3,2.15,2.15,0,0,1,1.54-.33h0a2.14,2.14,0,0,1,1.37.87,2.1,2.1,0,0,1,.35,1.58,2.23,2.23,0,0,1-.21.63L29,44.9a.5.5,0,0,1,.4.58l-.59,3.41a.82.82,0,0,1-1.29.52,1.2,1.2,0,0,0-.45-.19,1.14,1.14,0,0,0-.84.19,1.12,1.12,0,0,0,.95,2,.81.81,0,0,1,.77.18.81.81,0,0,1,.26.75l-.6,3.41a.49.49,0,0,1-.57.4l-3.16-.55a2.16,2.16,0,0,1,0,.76,2.12,2.12,0,0,1-.89,1.3,2.08,2.08,0,0,1-1.53.33Zm-4-4.52,2.92.51a.79.79,0,0,1,.61.49.8.8,0,0,1-.09.79,1.1,1.1,0,0,0-.19.46,1.11,1.11,0,0,0,.19.83,1.09,1.09,0,0,0,.72.46h0a1.13,1.13,0,0,0,1.28-.86,1.1,1.1,0,0,0,0-.54.82.82,0,0,1,.18-.78.8.8,0,0,1,.74-.25l2.93.51.46-2.66a2.43,2.43,0,0,1-.76,0,2.12,2.12,0,0,1-1.3-.89A2.14,2.14,0,0,1,24.82,50a2.11,2.11,0,0,1,.87-1.36,2.08,2.08,0,0,1,2.21-.14l.47-2.66-2.93-.51a.8.8,0,0,1-.61-.5.83.83,0,0,1,.09-.79,1.06,1.06,0,0,0,.19-.45,1.09,1.09,0,0,0-.19-.84,1.17,1.17,0,0,0-.72-.46,1.14,1.14,0,0,0-1.28.87,1.1,1.1,0,0,0,0,.54.81.81,0,0,1-.19.77.79.79,0,0,1-.74.26l-2.92-.51-.51,2.92a.82.82,0,0,1-1.29.52,1.2,1.2,0,0,0-.45-.19A1.12,1.12,0,1,0,17,49.61a.82.82,0,0,1,1,.92Z"/><path fill="current" d="M21.46,143.12a2.14,2.14,0,0,1-1.37-.87,2.1,2.1,0,0,1-.35-1.58A2,2,0,0,1,20,140l-3.16-.55a.5.5,0,0,1-.4-.58l.55-3.15a2.23,2.23,0,0,1-.77,0,2.07,2.07,0,0,1-1.29-.89A2.11,2.11,0,0,1,17,131.58a2.36,2.36,0,0,1,.63.22l.55-3.15a.51.51,0,0,1,.58-.41l3.15.56a1.94,1.94,0,0,1,0-.76,2.11,2.11,0,0,1,2.42-1.63h0a2.08,2.08,0,0,1,1.37.86,2.11,2.11,0,0,1,.35,1.58,2.29,2.29,0,0,1-.21.64L29,130a.48.48,0,0,1,.4.57L28.84,134a.83.83,0,0,1-1.29.52,1.06,1.06,0,0,0-.45-.19,1.13,1.13,0,0,0-.84.18,1.15,1.15,0,0,0-.46.73,1.11,1.11,0,0,0,1.41,1.26.83.83,0,0,1,.77.18.81.81,0,0,1,.26.75l-.6,3.41a.5.5,0,0,1-.57.41l-3.16-.55a2.1,2.1,0,0,1,0,.75,2.14,2.14,0,0,1-2.42,1.64Zm-4-4.53,2.92.51a.82.82,0,0,1,.52,1.28,1.1,1.1,0,0,0-.19.46,1.14,1.14,0,0,0,.19.84,1.11,1.11,0,0,0,.72.45h0a1.13,1.13,0,0,0,1.28-.87,1.1,1.1,0,0,0,0-.54.82.82,0,0,1,.92-1l2.93.51.46-2.66a2,2,0,0,1-.76,0,2.11,2.11,0,0,1-.76-3.79,2.06,2.06,0,0,1,1.58-.35,2,2,0,0,1,.63.21l.47-2.66-2.93-.51a.79.79,0,0,1-.61-.49.82.82,0,0,1,.09-.79,1.1,1.1,0,0,0,.19-.46,1.07,1.07,0,0,0-.19-.83,1.09,1.09,0,0,0-.72-.46,1.13,1.13,0,0,0-1.28.86,1.1,1.1,0,0,0,0,.54.83.83,0,0,1-.19.78.81.81,0,0,1-.74.25l-2.92-.51-.51,2.92a.83.83,0,0,1-1.29.53,1,1,0,0,0-.45-.19,1.12,1.12,0,0,0-1.3.9A1.11,1.11,0,0,0,17,134.74a.81.81,0,0,1,.77.18.81.81,0,0,1,.26.75Z"/><path fill="current" d="M73.42,101.51a2,2,0,0,1-1.14-1.05,2,2,0,0,1-.07-1.55,2.24,2.24,0,0,1,.31-.57l-2.88-1a.48.48,0,0,1-.29-.61l1.06-2.89a2,2,0,0,1-.72-.15,2,2,0,0,1,1.48-3.78,2.18,2.18,0,0,1,.56.31l1.06-2.88A.47.47,0,0,1,73.4,87l2.88,1a2,2,0,0,1,.16-.71,2.05,2.05,0,0,1,1-1.08,2,2,0,0,1,1.51,0h0a2.06,2.06,0,0,1,1.14,1,2,2,0,0,1,.07,1.55,1.82,1.82,0,0,1-.32.56l2.89,1.06a.48.48,0,0,1,.28.61l-1.14,3.12a.78.78,0,0,1-.57.5.79.79,0,0,1-.73-.22,1.08,1.08,0,0,0-1.78.38,1.1,1.1,0,0,0,.6,1.36,1.12,1.12,0,0,0,.51.08.75.75,0,0,1,.7.3.78.78,0,0,1,.12.75l-1.14,3.12a.47.47,0,0,1-.61.28l-2.89-1a2.2,2.2,0,0,1-.15.71,2,2,0,0,1-1.06,1.07,2,2,0,0,1-1.5.06Zm-3-5,2.67,1a.79.79,0,0,1,.5.58.83.83,0,0,1-.22.73.93.93,0,0,0-.26.39,1.09,1.09,0,0,0,0,.83,1.1,1.1,0,0,0,.61.55h0a1.1,1.1,0,0,0,1.36-.6,1.11,1.11,0,0,0,.07-.51.82.82,0,0,1,.3-.7.78.78,0,0,1,.75-.12l2.68,1,.89-2.43a2.22,2.22,0,0,1-.72-.16A2,2,0,0,1,78,94.51,2,2,0,0,1,79,93.36a2,2,0,0,1,1.55-.07,2.08,2.08,0,0,1,.56.32L82,91.17l-2.67-1a.74.74,0,0,1-.5-.57.77.77,0,0,1,.22-.73,1.11,1.11,0,0,0,.26-.4,1.06,1.06,0,0,0,0-.82,1.07,1.07,0,0,0-2,0,1.16,1.16,0,0,0-.08.52.79.79,0,0,1-1,.82l-2.67-1-1,2.67a.76.76,0,0,1-.57.5.79.79,0,0,1-.73-.22,1,1,0,0,0-.4-.26,1.07,1.07,0,0,0-.78,2,1,1,0,0,0,.52.08.8.8,0,0,1,.7.31.76.76,0,0,1,.11.74Z"/><circle fill="current" cx="15.07" cy="11.38" r="0.68"/><path fill="current" d="M18.54,1.7a7,7,0,1,0,4.2,8.89A6.94,6.94,0,0,0,18.54,1.7ZM14.22,13.77a5.87,5.87,0,1,1,7.5-3.55A5.87,5.87,0,0,1,14.22,13.77Z"/><path fill="current" d="M17.36,5A2.17,2.17,0,0,0,14.58,6.3a.55.55,0,0,0,1,.36,1.09,1.09,0,1,1,.65,1.39.54.54,0,0,0-.69.33l-.46,1.28a.54.54,0,0,0,.33.69.53.53,0,0,0,.69-.32l.3-.84A2.17,2.17,0,0,0,17.36,5Z"/><circle fill="current" cx="132.58" cy="9.96" r="0.68"/><path fill="current" d="M128.19.67A7,7,0,1,0,137.44,4,6.95,6.95,0,0,0,128.19.67Zm5.47,11.59a5.87,5.87,0,1,1,2.8-7.81A5.87,5.87,0,0,1,133.66,12.26Z"/><path fill="current" d="M129.68,3.82a2.18,2.18,0,0,0-1,2.9.55.55,0,0,0,.72.26.54.54,0,0,0,.26-.73,1.09,1.09,0,1,1,1.45.52.54.54,0,0,0-.26.72l.58,1.23a.54.54,0,0,0,.72.26.53.53,0,0,0,.26-.72l-.37-.8a2.18,2.18,0,0,0-2.32-3.64Z"/><circle fill="current" cx="125.81" cy="94.77" r="0.68"/><path fill="current" d="M121.42,85.48a6.95,6.95,0,1,0,9.25,3.32A6.95,6.95,0,0,0,121.42,85.48Zm5.47,11.59a5.87,5.87,0,1,1,2.8-7.81A5.86,5.86,0,0,1,126.89,97.07Z"/><path fill="current" d="M122.91,88.64a2.17,2.17,0,0,0-1,2.89.54.54,0,0,0,.72.26.55.55,0,0,0,.26-.73,1.09,1.09,0,1,1,1.45.52.55.55,0,0,0-.26.73l.58,1.22a.54.54,0,0,0,1-.46l-.38-.8a2.17,2.17,0,0,0-2.31-3.63Z"/><circle fill="current" cx="71.83" cy="52.82" r="0.68"/><path fill="current" d="M75.3,43.14A7,7,0,1,0,79.5,52,7,7,0,0,0,75.3,43.14ZM71,55.21a5.87,5.87,0,1,1,7.5-3.55A5.87,5.87,0,0,1,71,55.21Z"/><path fill="current" d="M74.12,46.42a2.18,2.18,0,0,0-2.78,1.32.54.54,0,0,0,1,.36A1.09,1.09,0,1,1,73,49.49a.56.56,0,0,0-.7.33l-.45,1.28a.53.53,0,0,0,.32.69.54.54,0,0,0,.7-.33l.3-.83a2.17,2.17,0,0,0,.93-4.21Z"/><circle fill="current" cx="74.37" cy="136.54" r="0.68"/><path fill="current" d="M70,127.24a7,7,0,1,0,9.26,3.32A7,7,0,0,0,70,127.24Zm5.48,11.59A5.87,5.87,0,1,1,78.25,131,5.86,5.86,0,0,1,75.46,138.83Z"/><path fill="current" d="M71.47,130.4a2.18,2.18,0,0,0-1,2.89.55.55,0,0,0,.73.26.56.56,0,0,0,.26-.73,1.08,1.08,0,1,1,1.44.52.56.56,0,0,0-.26.73l.58,1.22a.55.55,0,0,0,1-.46l-.38-.8a2.17,2.17,0,0,0-2.32-3.63Z"/><circle fill="current" cx="20.39" cy="95.22" r="0.68"/><path fill="current" d="M23.86,85.54a7,7,0,1,0,4.2,8.89A7,7,0,0,0,23.86,85.54ZM19.54,97.61A5.86,5.86,0,1,1,27,94.07,5.86,5.86,0,0,1,19.54,97.61Z"/><path fill="current" d="M22.68,88.83a2.18,2.18,0,0,0-2.78,1.31.55.55,0,0,0,1,.37,1.08,1.08,0,1,1,.65,1.39.53.53,0,0,0-.69.33l-.46,1.27a.55.55,0,0,0,.33.7.54.54,0,0,0,.69-.33l.3-.83a2.17,2.17,0,0,0,.93-4.21Z"/><circle fill="current" cx="242.35" cy="30.88" r="1.25"/><circle fill="current" cx="203.05" cy="139.17" r="1.25"/><circle fill="current" cx="204.4" cy="71.58" r="1.25"/><path fill="current" d="M205.65,111.14a2.18,2.18,0,1,1,2.18-2.18A2.18,2.18,0,0,1,205.65,111.14Zm0-3.54A1.37,1.37,0,1,0,207,109,1.36,1.36,0,0,0,205.65,107.6Z"/><path fill="current" d="M248.24,43.36a2.18,2.18,0,1,1,2.18-2.18A2.19,2.19,0,0,1,248.24,43.36Zm0-3.55a1.37,1.37,0,1,0,1.37,1.37A1.38,1.38,0,0,0,248.24,39.81Z"/><rect fill="current" x="205.1" y="14.94" width="4.97" height="1.13" rx="0.57" transform="translate(56.04 -127.21) rotate(39.01)"/><rect fill="current" x="195.05" y="78.48" width="4.97" height="1.13" rx="0.57" transform="translate(93.8 -106.72) rotate(39.01)"/><rect fill="current" x="201.92" y="119.7" width="4.97" height="1.13" rx="0.57" transform="translate(426.52 37.15) rotate(129.01)"/><rect fill="current" x="149.66" y="37" width="4.54" height="1.04" rx="0.52" transform="translate(17.97 118.42) rotate(-45)"/><rect fill="current" x="149.66" y="37" width="4.54" height="1.04" rx="0.52" transform="translate(71.03 -96.44) rotate(45)"/><rect fill="current" x="210.3" y="5" width="4.54" height="1.04" rx="0.52" transform="translate(58.36 151.93) rotate(-45)"/><rect fill="current" x="210.3" y="5" width="4.54" height="1.04" rx="0.52" transform="translate(66.16 -148.7) rotate(45)"/><rect fill="current" x="241.33" y="80.41" width="4.54" height="1.04" rx="0.52" transform="translate(105.25 -135.29) rotate(39.01)"/><rect fill="current" x="241.33" y="80.41" width="4.54" height="1.04" rx="0.52" transform="translate(459.82 -57.42) rotate(129.01)"/><rect fill="current" x="149.56" y="101.45" width="4.54" height="1.04" rx="0.52"/><rect fill="current" x="149.56" y="101.45" width="4.54" height="1.04" rx="0.52" transform="translate(253.8 -49.87) rotate(90)"/><path fill="current" d="M154.21,11.32a.42.42,0,0,1,0-.73l1.12-.65,1.12-.65a.43.43,0,0,1,.64.37v2.59a.43.43,0,0,1-.64.37L155.33,12Z"/><path fill="current" d="M196.79,39.7a.42.42,0,0,1,0-.74l1.12-.64,1.12-.65a.43.43,0,0,1,.64.37v2.59A.43.43,0,0,1,199,41l-1.12-.65Z"/><path fill="current" d="M151.18,67.53a.42.42,0,0,1-.52-.52l.33-1.25.34-1.25a.42.42,0,0,1,.71-.19l.92.91.91.92a.42.42,0,0,1-.19.71l-1.25.33Z"/><path fill="current" d="M244.6,118.26a.34.34,0,0,1-.41-.41l.26-1,.27-1a.33.33,0,0,1,.56-.15l.72.72.72.73a.34.34,0,0,1-.15.56l-1,.26Z"/><path fill="current" d="M154.53,132.4a.35.35,0,0,1,0-.6l.91-.52.91-.53a.35.35,0,0,1,.52.3v2.1a.35.35,0,0,1-.52.3l-.91-.52Z"/><path fill="current" d="M183.24,17.52a2.12,2.12,0,0,1-1.62.07,2.08,2.08,0,0,1-1.19-1.1,1.8,1.8,0,0,1-.18-.64l-2.91,1.35a.51.51,0,0,1-.66-.25l-1.35-2.9a2,2,0,0,1-.64.42,2.08,2.08,0,0,1-1.57,0,2.11,2.11,0,0,1-.12-3.88,2.34,2.34,0,0,1,.64-.18l-1.35-2.9a.5.5,0,0,1,.25-.66l2.9-1.35a1.89,1.89,0,0,1-.41-.64,2.08,2.08,0,0,1,0-1.57,2.12,2.12,0,0,1,1.07-1.15h0a2,2,0,0,1,1.61-.07,2.11,2.11,0,0,1,1.2,1.09,2.41,2.41,0,0,1,.18.65L182,2.46a.49.49,0,0,1,.66.24l1.46,3.14a.82.82,0,0,1,0,.79.81.81,0,0,1-.7.37,1.21,1.21,0,0,0-.49.11,1.07,1.07,0,0,0-.57.63,1.09,1.09,0,0,0,0,.85,1.12,1.12,0,0,0,1.44.56,1.16,1.16,0,0,0,.44-.32.82.82,0,0,1,1.37.17L187,12.15a.49.49,0,0,1-.24.66l-2.9,1.35a2.21,2.21,0,0,1,.41.63,2.14,2.14,0,0,1-1.05,2.72Zm-5.86-1.44,2.69-1.25a.78.78,0,0,1,.78.06.81.81,0,0,1,.38.7,1.11,1.11,0,0,0,1.59,1h0a1.11,1.11,0,0,0,.24-1.87.84.84,0,0,1-.3-.74.82.82,0,0,1,.47-.64l2.69-1.25-1.14-2.45a2.09,2.09,0,0,1-.64.42,2.12,2.12,0,0,1-1.7-3.88,2.52,2.52,0,0,1,.65-.18L182,3.57l-2.69,1.25a.82.82,0,0,1-.79-.05.81.81,0,0,1-.37-.7,1.21,1.21,0,0,0-.11-.49,1.12,1.12,0,0,0-.63-.58,1.14,1.14,0,0,0-.85,0A1.12,1.12,0,0,0,176,4.48a1.06,1.06,0,0,0,.32.43.83.83,0,0,1-.17,1.38l-2.69,1.25,1.25,2.69a.8.8,0,0,1-.06.79.78.78,0,0,1-.7.37,1.12,1.12,0,1,0,.41,2.15,1.16,1.16,0,0,0,.44-.32.83.83,0,0,1,1.38.17Z"/><path fill="current" d="M233.39,55.88a1.84,1.84,0,0,1-2.52-.62,2,2,0,0,1-.22-.53l-2.37,1.44a.43.43,0,0,1-.59-.15l-1.44-2.37a1.88,1.88,0,0,1-.51.42,1.84,1.84,0,0,1-1.36.16,1.8,1.8,0,0,1-1.08-.81,1.83,1.83,0,0,1,.61-2.52,1.86,1.86,0,0,1,.53-.22L223,48.31a.42.42,0,0,1,.14-.59l2.37-1.44a1.88,1.88,0,0,1-.42-.51,1.86,1.86,0,0,1-.16-1.35,1.79,1.79,0,0,1,.81-1.09h0a1.83,1.83,0,0,1,2.51.62,1.86,1.86,0,0,1,.22.53L230.86,43a.44.44,0,0,1,.59.15L233,45.74a.71.71,0,0,1,0,.69.72.72,0,0,1-.57.39,1,1,0,0,0-.84.73,1,1,0,0,0,1.4,1.08,1.07,1.07,0,0,0,.35-.32A.71.71,0,0,1,234,48a.72.72,0,0,1,.59.34l1.56,2.57a.43.43,0,0,1-.15.59l-2.37,1.44a1.74,1.74,0,0,1,.42.51,1.81,1.81,0,0,1,.16,1.35,1.76,1.76,0,0,1-.81,1.09Zm-5.19-.68,2.2-1.33a.69.69,0,0,1,.68,0,.7.7,0,0,1,.39.57,1.05,1.05,0,0,0,.14.41,1,1,0,0,0,.6.43,1,1,0,0,0,.73-.11h0a1,1,0,0,0,.34-1.29.88.88,0,0,0-.31-.35.71.71,0,0,1-.33-.61.7.7,0,0,1,.34-.59l2.2-1.33L234,49a1.84,1.84,0,0,1-.51.41,1.81,1.81,0,0,1-1.35.17,1.85,1.85,0,0,1-1.09-.82,1.77,1.77,0,0,1-.22-1.38A1.79,1.79,0,0,1,232.15,46l-1.21-2-2.2,1.33a.69.69,0,0,1-.68,0,.7.7,0,0,1-.39-.57.84.84,0,0,0-.14-.4.9.9,0,0,0-.6-.44,1,1,0,0,0-1.07,1.4.9.9,0,0,0,.32.35.71.71,0,0,1,0,1.2L224,48.23l1.33,2.2a.69.69,0,0,1,0,.68.7.7,0,0,1-.57.39,1,1,0,0,0-.4.14,1,1,0,0,0,1,1.67.83.83,0,0,0,.35-.32.72.72,0,0,1,.61-.32.7.7,0,0,1,.59.34Z"/><path fill="current" d="M233.39,141.17a1.83,1.83,0,0,1-2.52-.61,2.11,2.11,0,0,1-.22-.54l-2.37,1.44a.43.43,0,0,1-.59-.14L226.25,139a1.81,1.81,0,0,1-1.87.58,1.86,1.86,0,0,1-1.08-.82,1.82,1.82,0,0,1,.61-2.51,1.61,1.61,0,0,1,.53-.22L223,133.61a.42.42,0,0,1,.14-.59l2.37-1.44a2,2,0,0,1-.42-.51,1.89,1.89,0,0,1-.16-1.36,1.85,1.85,0,0,1,.81-1.09h0a1.82,1.82,0,0,1,2.51.61,1.81,1.81,0,0,1,.22.54l2.37-1.44a.43.43,0,0,1,.59.14L233,131a.69.69,0,0,1,0,.68.7.7,0,0,1-.57.39.84.84,0,0,0-.4.14.9.9,0,0,0-.44.6,1,1,0,0,0,1.75.75.71.71,0,0,1,1.2,0l1.56,2.56a.44.44,0,0,1-.15.6l-2.37,1.43a2,2,0,0,1,.42.51,1.85,1.85,0,0,1-.65,2.45Zm-5.19-.67,2.2-1.33a.69.69,0,0,1,.68,0,.7.7,0,0,1,.39.56,1,1,0,0,0,.14.41,1,1,0,0,0,.6.44.94.94,0,0,0,.73-.12h0a1,1,0,0,0,.34-1.29.85.85,0,0,0-.31-.34.72.72,0,0,1-.33-.61.68.68,0,0,1,.34-.59l2.2-1.34-1.22-2a1.88,1.88,0,0,1-.51.42A1.84,1.84,0,0,1,231,134a1.82,1.82,0,0,1,.61-2.52,1.86,1.86,0,0,1,.53-.22l-1.21-2-2.2,1.34a.71.71,0,0,1-.68,0,.7.7,0,0,1-.39-.56.87.87,0,0,0-.14-.41,1,1,0,0,0-1.33-.32,1,1,0,0,0-.34,1.29.87.87,0,0,0,.32.34.72.72,0,0,1,.32.61.67.67,0,0,1-.34.59L224,133.53l1.33,2.19a.71.71,0,0,1,0,.69.72.72,0,0,1-.57.39.94.94,0,0,0-.4.13,1,1,0,1,0,1.31,1.36.71.71,0,0,1,.61-.33.75.75,0,0,1,.59.34Z"/><path fill="current" d="M176.74,102.84a2.06,2.06,0,0,1-1.14-1,2,2,0,0,1-.07-1.55,1.94,1.94,0,0,1,.32-.56L173,98.62a.48.48,0,0,1-.28-.61l1-2.88A2.27,2.27,0,0,1,173,95a2,2,0,0,1-1.07-1.06,2.07,2.07,0,0,1-.05-1.51,2,2,0,0,1,2.61-1.21,2.08,2.08,0,0,1,.56.32l1.05-2.89a.48.48,0,0,1,.61-.28l2.89,1a2.2,2.2,0,0,1,.15-.71,2.05,2.05,0,0,1,2.56-1.13h0a2,2,0,0,1,1.21,2.61,2.35,2.35,0,0,1-.31.56l2.88,1a.47.47,0,0,1,.28.61l-1.14,3.13a.75.75,0,0,1-.57.49.77.77,0,0,1-.73-.22,1.06,1.06,0,0,0-1.22-.22,1,1,0,0,0-.55.6,1.09,1.09,0,0,0,.59,1.36,1.16,1.16,0,0,0,.52.08.78.78,0,0,1,.81,1.05L183,101.77a.46.46,0,0,1-.61.28l-2.88-1a2,2,0,0,1-.16.71,2.05,2.05,0,0,1-1.05,1.08,2,2,0,0,1-1.51,0Zm-3-5,2.67,1a.76.76,0,0,1,.5.57.77.77,0,0,1-.22.73,1,1,0,0,0-.26.4,1.06,1.06,0,0,0,0,.82,1,1,0,0,0,.6.55h0a1.08,1.08,0,0,0,1.35-.59,1.16,1.16,0,0,0,.08-.52.78.78,0,0,1,1.05-.81l2.67,1,.89-2.43a2,2,0,0,1-.72-.16,2,2,0,0,1-1.12-2.56,2,2,0,0,1,1.05-1.15,2,2,0,0,1,1.55-.06,1.91,1.91,0,0,1,.56.31l.89-2.44-2.67-1a.8.8,0,0,1-.5-.57.81.81,0,0,1,.22-.73,1,1,0,0,0,.26-.4,1.06,1.06,0,0,0,0-.82,1.12,1.12,0,0,0-.61-.56,1.1,1.1,0,0,0-1.36.6,1.11,1.11,0,0,0-.07.51.81.81,0,0,1-.3.7.78.78,0,0,1-.75.12l-2.68-1-1,2.67a.8.8,0,0,1-.57.5.76.76,0,0,1-.73-.22,1.15,1.15,0,0,0-.4-.26,1.08,1.08,0,0,0-.79,2,1.16,1.16,0,0,0,.52.08.76.76,0,0,1,.7.3.78.78,0,0,1,.12.75Z"/><circle fill="current" cx="235.9" cy="11.3" r="0.68"/><path fill="current" d="M231.51,2a7,7,0,1,0,9.26,3.32A7,7,0,0,0,231.51,2ZM237,13.59a5.87,5.87,0,1,1,2.8-7.81A5.85,5.85,0,0,1,237,13.59Z"/><path fill="current" d="M233,5.16a2.17,2.17,0,0,0-1,2.89.54.54,0,1,0,1-.46,1.08,1.08,0,1,1,1.44.51.56.56,0,0,0-.26.73l.58,1.22a.54.54,0,0,0,.73.26.54.54,0,0,0,.26-.72l-.38-.8A2.17,2.17,0,0,0,233,5.16Z"/><circle fill="current" cx="229.13" cy="96.11" r="0.68"/><path fill="current" d="M224.74,86.81A7,7,0,1,0,234,90.13,6.95,6.95,0,0,0,224.74,86.81Zm5.47,11.59a5.87,5.87,0,1,1,2.8-7.81A5.85,5.85,0,0,1,230.21,98.4Z"/><path fill="current" d="M226.23,90a2.18,2.18,0,0,0-1,2.89.55.55,0,0,0,1-.46,1.08,1.08,0,1,1,1.44.51.55.55,0,0,0-.26.73l.58,1.23a.55.55,0,0,0,1-.47l-.38-.8A2.17,2.17,0,0,0,226.23,90Z"/><circle fill="current" cx="175.15" cy="54.15" r="0.68"/><path fill="current" d="M178.62,44.47a7,7,0,1,0,4.2,8.89A6.94,6.94,0,0,0,178.62,44.47ZM174.3,56.54A5.87,5.87,0,1,1,181.8,53,5.87,5.87,0,0,1,174.3,56.54Z"/><path fill="current" d="M177.44,47.76a2.17,2.17,0,0,0-2.78,1.31.55.55,0,0,0,1,.36,1.09,1.09,0,1,1,.65,1.39.54.54,0,0,0-.69.33l-.46,1.28a.54.54,0,0,0,.33.69.53.53,0,0,0,.69-.32l.3-.83a2.17,2.17,0,0,0,.93-4.21Z"/><circle fill="current" cx="177.7" cy="137.87" r="0.68"/><path fill="current" d="M173.3,128.57a7,7,0,1,0,9.26,3.32A7,7,0,0,0,173.3,128.57Zm5.48,11.59a5.86,5.86,0,1,1,2.8-7.81A5.86,5.86,0,0,1,178.78,140.16Z"/><path fill="current" d="M174.8,131.73a2.17,2.17,0,0,0-1,2.89.54.54,0,1,0,1-.46,1.09,1.09,0,1,1,1.45.52.54.54,0,0,0-.26.72l.58,1.23a.54.54,0,1,0,1-.47l-.38-.8a2.17,2.17,0,0,0-2.31-3.63Z"/></g></svg>
