<svg xmlns="http://www.w3.org/2000/svg" viewBox="0 0 100 99.51"><defs></defs><g id="b3eff900-2085-4773-aad8-2fd363a5726e" data-name="badges"><path fill="current" d="M98.37,33.8l-5.89,5.89-5.89,5.9a5.56,5.56,0,1,1-7.86-7.86l1.15-1.15L81,35.43H73.2A26.44,26.44,0,0,0,62,37.74a35.37,35.37,0,0,0-10.22,7.45L46.5,50.46l-5.26,5.26a46.13,46.13,0,0,1-13.8,9.89A37.37,37.37,0,0,1,12,68.74H5.56a5.56,5.56,0,1,1,0-11.11H12a26.38,26.38,0,0,0,11.22-2.32,35,35,0,0,0,10.21-7.45l5.27-5.26,5.26-5.27a46.25,46.25,0,0,1,13.81-9.88A37.33,37.33,0,0,1,73.2,24.31H81l-1.15-1.15L78.73,22a5.55,5.55,0,0,1,1.84-9.07,5.53,5.53,0,0,1,4.18,0,5.48,5.48,0,0,1,1.84,1.22l5.89,5.89,5.89,5.89a5.55,5.55,0,0,1,0,7.86Z"/><path fill="current" d="M41.27,59.53l2.64,2.65a46.25,46.25,0,0,0,13.81,9.88A37.33,37.33,0,0,0,73.2,75.19H81l-1.15,1.15-1.15,1.15a5.56,5.56,0,0,0,1.84,9.08,5.56,5.56,0,0,0,6-1.22l5.89-5.9,5.89-5.89a5.54,5.54,0,0,0,0-7.85l-5.89-5.9-5.89-5.89a5.56,5.56,0,1,0-7.86,7.86l1.15,1.15L81,64.08H73.2A26.3,26.3,0,0,1,62,61.76a35.13,35.13,0,0,1-10.22-7.44l-2.6-2.6-6,6C42.56,58.33,41.92,58.94,41.27,59.53Z"/><path fill="current" d="M37.21,40.11a42,42,0,0,0-9.77-6.21A37.4,37.4,0,0,0,12,30.77H5.56a5.56,5.56,0,0,0,0,11.11H12A26.3,26.3,0,0,1,23.16,44.2,29.71,29.71,0,0,1,29.23,48c.72-.64,1.45-1.31,2.19-2.05Z"/></g></svg>
