<svg viewBox="0 0 153.13 262" opacity="0.05">
   <g class="colored">
      <path d="M75.69,136.22a6.71,6.71,0,0,0,0-11.38L22,91.29A6.71,6.71,0,0,0,11.74,97v67.1A6.71,6.71,0,0,0,22,169.77l53.68-33.55Zm-16.22-5.69L25.16,152V109.09Z" />
      <path d="M153.1,184.21V76.85A33.59,33.59,0,0,0,119.55,43.3H-42.39A33.59,33.59,0,0,0-75.94,76.85V184.21a33.59,33.59,0,0,0,33.55,33.55H119.55A33.59,33.59,0,0,0,153.1,184.21Zm-13.42,0a20.15,20.15,0,0,1-20.13,20.13H-42.39a20.15,20.15,0,0,1-20.13-20.13V76.85A20.15,20.15,0,0,1-42.39,56.72H119.55a20.15,20.15,0,0,1,20.13,20.13Z" />
   </g>
</svg>