<svg xmlns="http://www.w3.org/2000/svg" id="bc2093ec-177d-4128-a566-4c683ba11f29" data-name="Layer 1" version="1.1" viewBox="0 0 549.72 262"><defs id="defs19"><clipPath id="afbddea7-e7df-4760-a50b-9f4bfe61948f"><path id="rect4" d="M-442.96-394.31h599.34v262h-599.34z" class="acfc5a9c-59fb-4f50-8a1b-ef125c441cf2"/></clipPath><clipPath id="ad05de9d-b775-41ef-a938-c758701d28d0"><path id="rect7" d="M0 0h549.72v262H0z" class="acfc5a9c-59fb-4f50-8a1b-ef125c441cf2"/></clipPath><clipPath id="b581dade-b7d1-4980-af00-bd8c90feb891"><path id="path10" d="M635.28 165.56c0 105.24-85.32 190.56-190.56 190.56-48.12 0-417.86-1.88-439.27-41-29.32-53.6.24-118.31 111.44-133.1C327.47 154 234.3 3.16 434.35-25c104.22-14.67 200.93 85.32 200.93 190.56Z" class="acfc5a9c-59fb-4f50-8a1b-ef125c441cf2"/></clipPath><clipPath id="a1526b65-2f5b-4c17-b606-2779a3b250b8"><path id="rect13" d="M-1013.65 0h153.13v262h-153.13z" class="acfc5a9c-59fb-4f50-8a1b-ef125c441cf2"/></clipPath><clipPath id="a8c65163-2c5c-4c8b-af68-9c054af7d6a7"><path id="path16" d="M740.18 165.56c0 105.24-85.32 190.56-190.56 190.56-48.12 0-417.86-1.88-439.27-41C81 261.5 110.59 196.79 221.78 182 432.37 154 339.2 3.16 539.25-25c104.22-14.67 200.93 85.32 200.93 190.56Z" class="acfc5a9c-59fb-4f50-8a1b-ef125c441cf2"/></clipPath><style id="style2">.acfc5a9c-59fb-4f50-8a1b-ef125c441cf2{fill:none}.b77434fc-2938-4ab1-9cdd-724f3419f2ca{opacity:.5}</style></defs><g id="g206" clip-path="url(#ad05de9d-b775-41ef-a938-c758701d28d0)" style="clip-path:url(#ad05de9d-b775-41ef-a938-c758701d28d0)"><path id="path34" d="M639.49 164c0 105.24-85.31 190.56-190.56 190.56-48.12 0-417.86-1.88-439.27-41-29.31-53.59.24-118.31 111.44-133.09 210.59-28 117.41-178.85 317.46-207C542.78-41.23 639.49 58.75 639.49 164Z" class="colored" style="opacity:.1"/><g id="g204" clip-path="url(#b581dade-b7d1-4980-af00-bd8c90feb891)" style="clip-path:url(#b581dade-b7d1-4980-af00-bd8c90feb891)"><g id="g128" class="b77434fc-2938-4ab1-9cdd-724f3419f2ca"><circle id="circle36" cx="287.84" cy="235.47" r="2.79" class="colored"/><circle id="circle38" cx="271.78" cy="50.78" r="2.79" class="colored"/><circle id="circle40" cx="484.71" cy="144.11" r="2.79" class="colored"/><path id="path42" d="M363.13 125.58a4.84 4.84 0 1 1 4.84-4.84 4.84 4.84 0 0 1-4.84 4.84Zm0-7.88a3 3 0 1 0 3 3 3 3 0 0 0-3-3Z" class="colored"/><path id="path44" d="M487.49 232.11a4.84 4.84 0 1 1 4.85-4.84 4.85 4.85 0 0 1-4.85 4.84Zm0-7.88a3 3 0 1 0 3.05 3 3 3 0 0 0-3.05-3Z" class="colored"/><path id="path46" d="M274.57 165.81a4.84 4.84 0 1 1 4.84-4.84 4.85 4.85 0 0 1-4.84 4.84Zm0-7.88a3 3 0 1 0 3 3 3 3 0 0 0-3-3Z" class="colored"/><rect id="rect48" width="11.06" height="2.52" x="486.27" y="18.1" class="colored" rx=".88" transform="rotate(39.01 491.8 19.36)"/><rect id="rect50" width="11.06" height="2.52" x="463.91" y="159.45" class="colored" rx=".88" transform="rotate(39.01 469.442 160.712)"/><rect id="rect52" width="11.06" height="2.52" x="479.18" y="251.17" class="colored" rx=".88" transform="rotate(129.01 484.711 252.427)"/><rect id="rect54" width="11.06" height="2.52" x="258.89" y="263.69" class="colored" rx=".88" transform="rotate(39.01 264.425 264.948)"/><rect id="rect56" width="10.11" height="2.3" x="372.57" y="49.63" class="colored" rx=".8" transform="rotate(-45 377.621 50.774)"/><rect id="rect58" width="10.11" height="2.3" x="372.57" y="49.63" class="colored" rx=".8" transform="rotate(45 377.627 50.778)"/><rect id="rect60" width="10.11" height="2.3" x="497.83" y="-4.02" class="colored" rx=".8" transform="rotate(-45 502.893 -2.865)"/><rect id="rect62" width="10.11" height="2.3" x="497.83" y="-4.02" class="colored" rx=".8" transform="rotate(45 502.891 -2.876)"/><rect id="rect64" width="10.11" height="2.3" x="352.18" y="231.17" class="colored" rx=".8"/><rect id="rect66" width="10.11" height="2.3" x="352.18" y="231.17" class="colored" rx=".8" transform="rotate(90 357.235 232.325)"/><path id="path68" d="m290.92 5.36 5.63 6.44a.91.91 0 0 0 .88.29.9.9 0 0 0 .67-.62l2.62-8.68a.88.88 0 0 0-.21-.89.85.85 0 0 0-.39-.24.94.94 0 0 0-.5 0l-8.25 2.24a.91.91 0 0 0-.45 1.47Zm7.6-1.53-1.68 5.55-3.6-4.12Z" class="colored"/><path id="path70" d="M282.06 14.19 303 20.52a4.54 4.54 0 0 0 5.65-3l4.2-13.88a4.55 4.55 0 0 0-3-5.65l-20.97-6.35a4.53 4.53 0 0 0-5.65 3L279 8.54a4.53 4.53 0 0 0 3.06 5.65Zm2.91-19a2.72 2.72 0 0 1 3.39-1.82L309.3-.3a2.71 2.71 0 0 1 1.81 3.39L306.92 17a2.73 2.73 0 0 1-3.39 1.82l-20.94-6.33a2.73 2.73 0 0 1-1.82-3.39Z" class="colored"/><path id="path72" d="m416.73 95.92 5.6 7.64a1 1 0 0 0 .94.4 1 1 0 0 0 .81-.62l3.71-9.34a1 1 0 0 0-.15-1 1 1 0 0 0-1-.35l-9.31 1.68a1 1 0 0 0-.76.62 1 1 0 0 0 .12 1Zm8.53-1-2.38 6L419.3 96Z" class="colored"/><path id="path74" d="m406.12 104.82 22.5 9a5 5 0 0 0 6.52-2.81l5.95-14.91a5 5 0 0 0-2.8-6.52l-22.5-9a5 5 0 0 0-6.52 2.8l-5.95 14.92a5 5 0 0 0 2.8 6.52Zm5-20.69a3 3 0 0 1 3.91-1.68l22.5 9a3 3 0 0 1 1.68 3.91l-6 14.92a3 3 0 0 1-3.92 1.68l-22.49-9a3 3 0 0 1-1.62-3.96Z" class="colored"/><path id="path76" d="m302.22 191.81 6.23 7.13a1 1 0 0 0 1 .32 1 1 0 0 0 .75-.69l2.9-9.61a1 1 0 0 0-.24-1 1.06 1.06 0 0 0-.43-.26 1 1 0 0 0-.55 0l-9.13 2.47a1 1 0 0 0-.5 1.63Zm8.41-1.69-1.86 6.13-4-4.55Z" class="colored"/><path id="path78" d="m292.42 201.59 23.17 7a5 5 0 0 0 6.26-3.35l4.64-15.37a5 5 0 0 0-3.35-6.25l-23.18-7a5 5 0 0 0-6.25 3.35l-4.64 15.36a5 5 0 0 0 3.35 6.26Zm3.21-21a3 3 0 0 1 3.75-2l23.18 7a3 3 0 0 1 2 3.75l-4.64 15.37a3 3 0 0 1-3.76 2l-23.17-7a3 3 0 0 1-2-3.76Z" class="colored"/><path id="path80" d="m547.28 6.61 8.54.57a.91.91 0 0 0 .82-.41.89.89 0 0 0 0-.92l-4.28-8a.9.9 0 0 0-.78-.48.93.93 0 0 0-.44.11.87.87 0 0 0-.36.35l-4.25 7.42a.9.9 0 0 0 .72 1.35Zm4.29-6.45 2.73 5.1-5.45-.36Z" class="colored"/><path id="path82" d="m547.26 19.12 19.28-10.33a4.54 4.54 0 0 0 1.86-6.14l-6.85-12.78a4.54 4.54 0 0 0-6.14-1.87L536.13-1.65a4.53 4.53 0 0 0-1.85 6.13l6.85 12.78a4.53 4.53 0 0 0 6.13 1.86ZM535.88 3.63A2.72 2.72 0 0 1 537 0l19.28-10.34A2.73 2.73 0 0 1 560-9.27l6.8 12.78a2.72 2.72 0 0 1-1.11 3.68l-19.28 10.33a2.72 2.72 0 0 1-3.68-1.11Z" class="colored"/><path id="path84" d="m531.19 195.44 9.94.66a1 1 0 0 0 1-.48 1 1 0 0 0 0-1.07l-5-9.32a1.07 1.07 0 0 0-1.43-.43 1 1 0 0 0-.41.41l-5 8.65a1.06 1.06 0 0 0 .85 1.58Zm5-7.53 3.19 6-6.35-.42Z" class="colored"/><path id="path86" d="m531.16 210 22.48-12a5.28 5.28 0 0 0 2.16-7.15l-8-14.9a5.29 5.29 0 0 0-7.16-2.16l-22.47 12A5.28 5.28 0 0 0 516 193l8 14.9a5.28 5.28 0 0 0 7.16 2.1Zm-13.27-18a3.19 3.19 0 0 1 1.3-4.3l22.47-12a3.18 3.18 0 0 1 4.29 1.3l8 14.9a3.18 3.18 0 0 1-1.3 4.29l-22.47 12a3.16 3.16 0 0 1-4.29-1.3Z" class="colored"/><path id="path88" d="M439.1 7.8a1.23 1.23 0 1 0-2.18 1.14l1.78 3.43-4.46-1.48a1.24 1.24 0 0 0-1 .09 12 12 0 0 1-4.57 1.39c-6.56.63-11.45-4.08-11.92-8.88-.52-5.47 4-10.4 10-11s11.39 3.4 11.92 8.88a9.38 9.38 0 0 1 0 1.41 1.23 1.23 0 0 0 2.46.13 11.61 11.61 0 0 0 0-1.78 11.87 11.87 0 0 0-4.81-8.41 14.27 14.27 0 0 0-18.88 1.82 12 12 0 0 0-3.18 8.11 9.94 9.94 0 0 0-3.78 8.68 9.5 9.5 0 0 0 2.42 5.5l-1.36 4.6a1.22 1.22 0 0 0 1.3 1.57 1.08 1.08 0 0 0 .49-.15l4.94-2.77a11.56 11.56 0 0 0 4.15.33h.09a11.6 11.6 0 0 0 5.61-2.11 10.66 10.66 0 0 0 3.36-4 14.58 14.58 0 0 0 2.48-.95l6.85 2.26a1.06 1.06 0 0 0 .5.06 1.23 1.23 0 0 0 1-1.79ZM422.19 18h-.05a9.34 9.34 0 0 1-3.65-.39 1.29 1.29 0 0 0-1 .1l-2.74 1.54.7-2.38a1.22 1.22 0 0 0-.32-1.23 7.16 7.16 0 0 1-2.21-4.51 7.31 7.31 0 0 1 1.76-5.44A12.36 12.36 0 0 0 419 12a13.76 13.76 0 0 0 9.27 2.92 9 9 0 0 1-6.08 3.08Z" class="colored"/><circle id="circle90" cx="427.68" cy="2.5" r="1.23" class="colored"/><circle id="circle92" cx="432.58" cy="2.03" r="1.23" class="colored"/><circle id="circle94" cx="422.78" cy="2.97" r="1.23" class="colored"/><path id="path96" d="M439.1 195a1.23 1.23 0 1 0-2.18 1.14l1.78 3.43-4.46-1.48a1.28 1.28 0 0 0-1 .09 11.81 11.81 0 0 1-4.57 1.39c-6.56.63-11.45-4.08-11.92-8.87-.52-5.48 4-10.4 10-11s11.39 3.39 11.92 8.87a9.4 9.4 0 0 1 0 1.41 1.23 1.23 0 1 0 2.46.13 11.61 11.61 0 0 0 0-1.78 11.85 11.85 0 0 0-4.81-8.4 14.28 14.28 0 0 0-18.88 1.81 12 12 0 0 0-3.18 8.11 10 10 0 0 0-3.78 8.69 9.48 9.48 0 0 0 2.42 5.49l-1.36 4.6a1.22 1.22 0 0 0 1.29 1.57 1.08 1.08 0 0 0 .49-.15l4.94-2.77a11.79 11.79 0 0 0 4.15.34h.09a11.6 11.6 0 0 0 5.61-2.11 10.59 10.59 0 0 0 3.36-4 13.79 13.79 0 0 0 2.48-1l6.85 2.27a1.2 1.2 0 0 0 .5 0 1.22 1.22 0 0 0 1-1.79Zm-16.91 10.19h-.05a9.15 9.15 0 0 1-3.65-.38 1.24 1.24 0 0 0-1 .09l-2.74 1.54.7-2.37a1.24 1.24 0 0 0-.32-1.24 7.16 7.16 0 0 1-2.21-4.51 7.27 7.27 0 0 1 1.76-5.43 12.4 12.4 0 0 0 4.32 6.31 13.7 13.7 0 0 0 9.27 2.91 9.08 9.08 0 0 1-6.08 3.12Z" class="colored"/><circle id="circle98" cx="427.68" cy="189.74" r="1.23" class="colored"/><circle id="circle100" cx="432.58" cy="189.27" r="1.23" class="colored"/><circle id="circle102" cx="422.78" cy="190.21" r="1.23" class="colored"/><path id="path104" d="M551.1 103.12a1.23 1.23 0 1 0-2.45.22l.35 3.85-3.57-3.06a1.18 1.18 0 0 0-.93-.29 11.87 11.87 0 0 1-4.76-.46c-6.3-1.91-9-8.13-7.64-12.74 1.59-5.26 7.62-8.11 13.43-6.35s9.24 7.48 7.64 12.74a9.91 9.91 0 0 1-.51 1.32 1.23 1.23 0 1 0 2.22 1.05 11.74 11.74 0 0 0 .65-1.65 11.89 11.89 0 0 0-1.26-9.61 14.27 14.27 0 0 0-18.15-5.5 11.88 11.88 0 0 0-6 6.29 10 10 0 0 0-6.81 6.59 9.58 9.58 0 0 0 .15 6l-3 3.73a1.24 1.24 0 0 0 .61 1.95 1.2 1.2 0 0 0 .5 0l5.62-.68a11.78 11.78 0 0 0 3.72 1.89h.08a11.65 11.65 0 0 0 6 .18 10.56 10.56 0 0 0 4.61-2.39 14.67 14.67 0 0 0 2.65.06l5.48 4.7a1.12 1.12 0 0 0 .44.24 1.18 1.18 0 0 0 .92-.08 1.21 1.21 0 0 0 .66-1.2Zm-19.51 3h-.05a9.17 9.17 0 0 1-3.22-1.75 1.2 1.2 0 0 0-.94-.27l-3.13.38 1.56-1.94a1.22 1.22 0 0 0 .17-1.26 7.13 7.13 0 0 1-.33-5 7.3 7.3 0 0 1 3.69-4.36 12.43 12.43 0 0 0 1.56 7.42 13.72 13.72 0 0 0 7.46 6.22 9.06 9.06 0 0 1-6.77.54Z" class="colored"/><circle id="circle106" cx="542.56" cy="93.87" r="1.23" class="colored"/><circle id="circle108" cx="547.27" cy="95.3" r="1.23" class="colored"/><circle id="circle110" cx="537.85" cy="92.44" r="1.23" class="colored"/><path id="path112" d="M322.29 96.08a1.24 1.24 0 0 0-1.73-.26 1.23 1.23 0 0 0-.25 1.72l2.3 3.11-4.61-.76a1.28 1.28 0 0 0-1 .24 11.8 11.8 0 0 1-4.3 2.09c-6.37 1.66-12-2.22-13.16-6.89-1.38-5.32 2.28-10.89 8.16-12.41s11.78 1.56 13.16 6.89a9.55 9.55 0 0 1 .25 1.39 1.23 1.23 0 1 0 2.44-.26 11.72 11.72 0 0 0-6.38-9.3 14.29 14.29 0 0 0-18.37 4.76 12 12 0 0 0-1.8 8.52 9.94 9.94 0 0 0-2.37 9.16 9.56 9.56 0 0 0 3.26 5l-.63 4.76a1.23 1.23 0 0 0 1.53 1.35 1.28 1.28 0 0 0 .45-.23l4.45-3.51a11.91 11.91 0 0 0 4.15-.32h.09a11.65 11.65 0 0 0 5.21-3 10.72 10.72 0 0 0 2.69-4.44 15.45 15.45 0 0 0 2.3-1.33l7.12 1.16a1.39 1.39 0 0 0 .5 0 1.21 1.21 0 0 0 .74-.55 1.22 1.22 0 0 0-.06-1.37Zm-15.11 12.71a9.29 9.29 0 0 1-3.67.19 1.22 1.22 0 0 0-.94.25l-2.47 2 .32-2.46a1.21 1.21 0 0 0-.52-1.16 7.21 7.21 0 0 1-2.89-4.11 7.37 7.37 0 0 1 .88-5.65 12.48 12.48 0 0 0 5.2 5.53 13.76 13.76 0 0 0 9.61 1.42 9 9 0 0 1-5.52 3.99Z" class="colored"/><circle id="circle114" cx="310.18" cy="92.64" r="1.23" class="colored"/><circle id="circle116" cx="314.94" cy="91.4" r="1.23" class="colored"/><circle id="circle118" cx="305.41" cy="93.87" r="1.23" class="colored"/><path id="path120" d="M373 10.05a.94.94 0 0 1 0-1.63L375.54 7 378 5.53a1 1 0 0 1 1.42.82v5.77a1 1 0 0 1-1.42.82l-2.49-1.45Z" class="colored"/><path id="path122" d="M467.77 73.18a.94.94 0 0 1 0-1.63l2.49-1.44 2.5-1.44a.94.94 0 0 1 1.42.81v5.77a1 1 0 0 1-1.42.82l-2.5-1.44Z" class="colored"/><path id="path124" d="M372 154a1 1 0 0 1-1.16-1.16l.75-2.78.74-2.79a1 1 0 0 1 1.58-.42l2 2 2 2a1 1 0 0 1-.43 1.58l-2.78.74Z" class="colored"/><path id="path126" d="M266.55 135a1 1 0 0 1-1.16-1.16l.75-2.78.74-2.79a1 1 0 0 1 1.58-.42l2 2 2 2a1 1 0 0 1-.42 1.58l-2.79.74Z" class="colored"/></g><g id="g202" class="b77434fc-2938-4ab1-9cdd-724f3419f2ca"><circle id="circle130" cx="232.3" cy="23.57" r="2.79" class="colored"/><circle id="circle132" cx="144.88" cy="264.47" r="2.79" class="colored"/><circle id="circle134" cx="147.89" cy="114.11" r="2.79" class="colored"/><path id="path136" d="M26.31 95.58a4.84 4.84 0 1 1 4.84-4.84 4.84 4.84 0 0 1-4.84 4.84Zm0-7.88a3 3 0 1 0 3 3 3 3 0 0 0-3-3Z" class="colored"/><path id="path138" d="M150.68 202.11a4.84 4.84 0 1 1 4.84-4.84 4.84 4.84 0 0 1-4.84 4.84Zm0-7.88a3 3 0 1 0 3 3 3 3 0 0 0-3-3Z" class="colored"/><path id="path140" d="M245.42 51.32a4.84 4.84 0 1 1 4.84-4.84 4.84 4.84 0 0 1-4.84 4.84Zm0-7.88a3 3 0 1 0 3 3 3 3 0 0 0-3-3Z" class="colored"/><rect id="rect142" width="11.06" height="2.52" x="127.09" y="129.45" class="colored" rx=".88" transform="rotate(39.01 132.615 130.719)"/><rect id="rect144" width="11.06" height="2.52" x="142.36" y="221.17" class="colored" rx=".88" transform="rotate(129.01 147.893 222.429)"/><rect id="rect146" width="10.11" height="2.3" x="35.75" y="19.63" class="colored" rx=".8" transform="rotate(-45 40.806 20.777)"/><rect id="rect148" width="10.11" height="2.3" x="35.75" y="19.63" class="colored" rx=".8" transform="rotate(45 40.81 20.784)"/><rect id="rect150" width="10.11" height="2.3" x="230.03" y="133.75" class="colored" rx=".8" transform="rotate(39.01 235.089 134.9)"/><rect id="rect152" width="10.11" height="2.3" x="230.03" y="133.75" class="colored" rx=".8" transform="rotate(129.01 235.087 134.905)"/><rect id="rect154" width="10.11" height="2.3" x="15.36" y="201.17" class="colored" rx=".8"/><rect id="rect156" width="10.11" height="2.3" x="15.36" y="201.17" class="colored" rx=".8" transform="rotate(90 20.415 202.325)"/><path id="path158" d="m79.92 65.92 5.59 7.64a1 1 0 0 0 .94.4 1 1 0 0 0 .81-.62L91 64a1 1 0 0 0-.16-1 1 1 0 0 0-.4-.3 1 1 0 0 0-.56-.05l-9.31 1.68a1 1 0 0 0-.76.62 1 1 0 0 0 .13 1Zm8.52-1-2.38 6L82.48 66Z" class="colored"/><path id="path160" d="m69.3 74.82 22.5 9A5 5 0 0 0 98.32 81l6-14.91a5 5 0 0 0-2.8-6.52l-22.5-9a5 5 0 0 0-6.52 2.8l-6 14.92a5 5 0 0 0 2.8 6.53Zm5-20.69a3 3 0 0 1 3.91-1.68l22.5 9a3 3 0 0 1 1.68 3.91l-6 14.92a3 3 0 0 1-3.91 1.68l-22.5-9A3 3 0 0 1 68.37 69Z" class="colored"/><path id="path162" d="m79.74 256 9.75 3.27a1.11 1.11 0 0 0 1.08-.23 1.09 1.09 0 0 0 .33-1.04l-2.54-10.6a1.11 1.11 0 0 0-.77-.8 1.14 1.14 0 0 0-.55 0 1.1 1.1 0 0 0-.52.3l-7.21 7.33a1.09 1.09 0 0 0-.28 1 1.06 1.06 0 0 0 .71.78Zm7-6.2 1.63 6.77-6.23-2.08Z" class="colored"/><path id="path164" d="m75.9 270.56 25.58-6.13a5.45 5.45 0 0 0 4-6.57l-4.07-17a5.45 5.45 0 0 0-6.57-4L69.29 243a5.46 5.46 0 0 0-4 6.57l4.07 17a5.45 5.45 0 0 0 6.54 3.99Zm-8.52-21.49a3.28 3.28 0 0 1 2.42-3.95L95.38 239a3.27 3.27 0 0 1 3.94 2.41l4.07 17a3.28 3.28 0 0 1-2.42 3.95l-25.58 6.13a3.27 3.27 0 0 1-3.94-2.49Z" class="colored"/><path id="path166" d="m194.37 165.44 9.94.66a1.06 1.06 0 0 0 1-1.55l-5-9.32a1.08 1.08 0 0 0-.92-.55 1 1 0 0 0-.93.53l-5 8.65a1.06 1.06 0 0 0 0 1 1.08 1.08 0 0 0 .86.56Zm5-7.53 3.19 6-6.35-.42Z" class="colored"/><path id="path168" d="m194.35 180 22.47-12a5.28 5.28 0 0 0 2.16-7.15l-8-14.9a5.28 5.28 0 0 0-7.15-2.16l-22.48 12a5.29 5.29 0 0 0-2.16 7.15l8 14.9a5.29 5.29 0 0 0 7.16 2.16Zm-13.28-18a3.19 3.19 0 0 1 1.3-4.3l22.47-12a3.18 3.18 0 0 1 4.29 1.3l8 14.9a3.18 3.18 0 0 1-1.3 4.29l-22.47 12a3.16 3.16 0 0 1-4.29-1.3Z" class="colored"/><path id="path170" d="M102.28 165a1.23 1.23 0 1 0-2.18 1.14l1.78 3.43-4.46-1.48a1.28 1.28 0 0 0-1 .09 11.81 11.81 0 0 1-4.57 1.39c-6.55.63-11.45-4.08-11.91-8.87-.53-5.48 4-10.4 10-11s11.39 3.39 11.92 8.87a9.4 9.4 0 0 1 0 1.41 1.23 1.23 0 1 0 2.46.13 13.08 13.08 0 0 0 0-1.78 11.86 11.86 0 0 0-4.82-8.4 14.29 14.29 0 0 0-18.88 1.81 12 12 0 0 0-3.18 8.11 10 10 0 0 0-3.78 8.69 9.54 9.54 0 0 0 2.42 5.49l-1.36 4.6a1.23 1.23 0 0 0 .41 1.31 1.25 1.25 0 0 0 .89.26 1.08 1.08 0 0 0 .48-.15l4.94-2.77a11.79 11.79 0 0 0 4.15.34h.09a11.6 11.6 0 0 0 5.61-2.11 10.59 10.59 0 0 0 3.36-4 13.79 13.79 0 0 0 2.48-1l6.87 2.39a1.2 1.2 0 0 0 .5 0 1.26 1.26 0 0 0 .82-.42 1.23 1.23 0 0 0 .15-1.37Zm-16.91 10.23h-.05a9.15 9.15 0 0 1-3.65-.38 1.21 1.21 0 0 0-1 .09L78 176.48l.7-2.37a1.24 1.24 0 0 0-.32-1.24 7.16 7.16 0 0 1-2.21-4.51 7.27 7.27 0 0 1 1.76-5.43 12.4 12.4 0 0 0 4.26 6.27 13.7 13.7 0 0 0 9.27 2.91 9.08 9.08 0 0 1-6.09 3.12Z" class="colored"/><circle id="circle172" cx="90.86" cy="159.74" r="1.23" class="colored"/><circle id="circle174" cx="95.76" cy="159.27" r="1.23" class="colored"/><circle id="circle176" cx="85.96" cy="160.21" r="1.23" class="colored"/><path id="path178" d="M214.29 73.12A1.23 1.23 0 0 0 213 72a1.22 1.22 0 0 0-1.11 1.34l.34 3.85-3.57-3.06a1.17 1.17 0 0 0-.93-.29 11.87 11.87 0 0 1-4.76-.46c-6.3-1.91-9-8.13-7.64-12.74 1.59-5.26 7.62-8.11 13.43-6.35S218 61.77 216.35 67a9.91 9.91 0 0 1-.51 1.32 1.23 1.23 0 1 0 2.22 1.05 11.74 11.74 0 0 0 .65-1.65 11.93 11.93 0 0 0-1.25-9.61 14.29 14.29 0 0 0-18.16-5.5 11.92 11.92 0 0 0-6 6.29 10 10 0 0 0-6.81 6.59 9.65 9.65 0 0 0 .15 6l-3 3.73a1.21 1.21 0 0 0-.12 1.37 1.25 1.25 0 0 0 .72.58 1.2 1.2 0 0 0 .5 0l5.62-.68a11.78 11.78 0 0 0 3.72 1.89h.09a11.61 11.61 0 0 0 6 .18 10.56 10.56 0 0 0 4.61-2.39 14.78 14.78 0 0 0 2.66.06l5.47 4.7a1.12 1.12 0 0 0 .44.24 1.18 1.18 0 0 0 .92-.08 1.23 1.23 0 0 0 .67-1.2Zm-19.52 3h-.05a9.17 9.17 0 0 1-3.22-1.75 1.19 1.19 0 0 0-.94-.27l-3.13.38 1.57-1.97a1.22 1.22 0 0 0 .17-1.26 7.13 7.13 0 0 1-.33-5 7.3 7.3 0 0 1 3.69-4.36 12.43 12.43 0 0 0 1.56 7.42 13.74 13.74 0 0 0 7.47 6.22 9.09 9.09 0 0 1-6.79.57Z" class="colored"/><circle id="circle180" cx="205.74" cy="63.87" r="1.23" class="colored"/><circle id="circle182" cx="210.45" cy="65.3" r="1.23" class="colored"/><circle id="circle184" cx="201.03" cy="62.44" r="1.23" class="colored"/><path id="path186" d="M214.29 263.23a1.23 1.23 0 0 0-2.45.22l.34 3.85-3.57-3.06a1.2 1.2 0 0 0-.93-.29 12 12 0 0 1-4.76-.45c-6.3-1.91-9-8.13-7.64-12.74 1.59-5.27 7.62-8.11 13.43-6.35s9.24 7.47 7.64 12.73a9 9 0 0 1-.51 1.32 1.23 1.23 0 0 0 2.22 1.06 11.72 11.72 0 0 0-.6-11.27 14.29 14.29 0 0 0-18.16-5.5 12 12 0 0 0-6 6.29 10 10 0 0 0-6.81 6.59 9.65 9.65 0 0 0 .15 6l-3 3.73a1.24 1.24 0 0 0 1.1 2l5.62-.69a11.57 11.57 0 0 0 3.72 1.89h.09a11.5 11.5 0 0 0 6 .18 10.56 10.56 0 0 0 4.61-2.39 13.15 13.15 0 0 0 2.66.06l5.47 4.7a1.14 1.14 0 0 0 .44.25 1.25 1.25 0 0 0 1.59-1.29Zm-19.52 3h-.05a9.31 9.31 0 0 1-3.22-1.74 1.23 1.23 0 0 0-.94-.28l-3.13.38 1.56-1.93a1.24 1.24 0 0 0 .17-1.27 7.13 7.13 0 0 1-.33-5 7.33 7.33 0 0 1 3.69-4.36 12.43 12.43 0 0 0 1.56 7.42 13.74 13.74 0 0 0 7.47 6.22 9 9 0 0 1-6.78.54Z" class="colored"/><circle id="circle188" cx="205.74" cy="253.98" r="1.23" class="colored"/><circle id="circle190" cx="210.45" cy="255.41" r="1.23" class="colored"/><circle id="circle192" cx="201.03" cy="252.56" r="1.23" class="colored"/><path id="path194" d="M131 43.18a.94.94 0 0 1 0-1.63l2.5-1.44 2.49-1.44a.94.94 0 0 1 1.42.81v5.77a1 1 0 0 1-1.42.82l-2.49-1.44Z" class="colored"/><path id="path196" d="M35.19 124a1 1 0 0 1-1.19-1.2l.75-2.78.74-2.79a1 1 0 0 1 1.58-.42l2 2 2 2a1 1 0 0 1-.42 1.58l-2.79.74Z" class="colored"/><path id="path198" d="M237.31 218a.75.75 0 0 1-.91-.92l.59-2.2.59-2.19a.74.74 0 0 1 1.24-.34l1.61 1.61 1.61 1.61a.75.75 0 0 1-.33 1.25l-2.2.59Z" class="colored"/><path id="path200" d="M37 249.41a.76.76 0 0 1 0-1.33l2-1.17 2-1.17a.77.77 0 0 1 1.15.67v4.68a.76.76 0 0 1-1.15.66l-2-1.17Z" class="colored"/></g></g></g></svg>