<svg xmlns="http://www.w3.org/2000/svg" viewBox="0 0 252.59 142.74"><defs></defs><g id="f3eb0d65-888b-438a-8471-9d0bf2c28cf4" data-name="badges"><circle fill="current" cx="139.02" cy="29.71" r="1.25"/><circle fill="current" cx="12.58" cy="111.47" r="1.25"/><circle fill="current" cx="5.37" cy="28.45" r="1.25"/><circle fill="current" cx="99.73" cy="137.99" r="1.25"/><circle fill="current" cx="101.08" cy="70.41" r="1.25"/><path fill="current" d="M46.43,62.08A2.18,2.18,0,1,1,48.6,59.9,2.19,2.19,0,0,1,46.43,62.08Zm0-3.55a1.37,1.37,0,1,0,1.36,1.37A1.37,1.37,0,0,0,46.43,58.53Z"/><path fill="current" d="M102.33,110a2.18,2.18,0,1,1,2.18-2.17A2.18,2.18,0,0,1,102.33,110Zm0-3.54a1.37,1.37,0,1,0,1.37,1.37A1.37,1.37,0,0,0,102.33,106.42Z"/><path fill="current" d="M154.18,38.63a2.18,2.18,0,1,1,2.18-2.17A2.17,2.17,0,0,1,154.18,38.63Zm0-3.54a1.37,1.37,0,1,0,1.37,1.37A1.36,1.36,0,0,0,154.18,35.09Z"/><path fill="current" d="M6.62,80.16A2.18,2.18,0,1,1,8.79,78,2.19,2.19,0,0,1,6.62,80.16Zm0-3.54A1.37,1.37,0,1,0,8,78,1.37,1.37,0,0,0,6.62,76.62Z"/><rect fill="current" x="101.78" y="13.76" width="4.97" height="1.13" rx="0.57" transform="translate(32.27 -62.44) rotate(39.01)"/><rect fill="current" x="91.73" y="77.3" width="4.97" height="1.13" rx="0.57" transform="translate(70.02 -41.94) rotate(39.01)"/><rect fill="current" x="98.59" y="118.53" width="4.97" height="1.13" rx="0.57" transform="translate(257.24 115.52) rotate(129.01)"/><rect fill="current" x="-0.43" y="124.16" width="4.97" height="1.13" rx="0.57" transform="translate(78.97 26.51) rotate(39.01)"/><rect fill="current" x="50.67" y="27.94" width="4.54" height="1.04" rx="0.52" transform="translate(-4.61 45.77) rotate(-45)"/><rect fill="current" x="50.67" y="27.94" width="4.54" height="1.04" rx="0.52" transform="translate(35.63 -29.1) rotate(45)"/><rect fill="current" x="106.98" y="3.82" width="4.54" height="1.04" rx="0.52" transform="translate(28.93 78.52) rotate(-45)"/><rect fill="current" x="106.98" y="3.82" width="4.54" height="1.04" rx="0.52" transform="translate(35.07 -75.98) rotate(45)"/><rect fill="current" x="138" y="79.24" width="4.54" height="1.04" rx="0.52" transform="translate(81.48 -70.51) rotate(39.01)"/><rect fill="current" x="138" y="79.24" width="4.54" height="1.04" rx="0.52" transform="translate(290.54 20.96) rotate(129.01)"/><rect fill="current" x="41.51" y="109.54" width="4.54" height="1.04" rx="0.52"/><rect fill="current" x="41.51" y="109.54" width="4.54" height="1.04" rx="0.52" transform="translate(153.84 66.28) rotate(90)"/><path fill="current" d="M14,8l2.53,2.89a.41.41,0,0,0,.39.13.42.42,0,0,0,.31-.28l1.18-3.9a.42.42,0,0,0-.1-.4.42.42,0,0,0-.18-.11.41.41,0,0,0-.22,0l-3.71,1a.38.38,0,0,0-.28.27A.42.42,0,0,0,14,8Zm3.41-.69-.75,2.49L15,8Z"/><path fill="current" d="M10,12l9.41,2.84a2,2,0,0,0,2.54-1.36l1.89-6.24a2.05,2.05,0,0,0-1.37-2.54L13.05,1.87a2,2,0,0,0-2.54,1.36L8.63,9.47A2,2,0,0,0,10,12Zm1.3-8.55a1.23,1.23,0,0,1,1.53-.81l9.41,2.84A1.24,1.24,0,0,1,23.05,7l-1.89,6.24a1.22,1.22,0,0,1-1.52.81l-9.42-2.84A1.23,1.23,0,0,1,9.41,9.7Z"/><path fill="current" d="M70.52,48.75,73,52.18a.46.46,0,0,0,.42.18.45.45,0,0,0,.36-.28l1.67-4.19a.41.41,0,0,0-.07-.45.42.42,0,0,0-.18-.14.39.39,0,0,0-.24,0L70.81,48a.46.46,0,0,0-.29.72Zm3.83-.44L73.29,51l-1.61-2.2Z"/><path fill="current" d="M65.75,52.75l10.12,4a2.26,2.26,0,0,0,2.93-1.26l2.67-6.7a2.27,2.27,0,0,0-1.26-2.94l-10.11-4a2.25,2.25,0,0,0-2.93,1.26l-2.68,6.7A2.28,2.28,0,0,0,65.75,52.75ZM68,43.44a1.34,1.34,0,0,1,1.75-.75l10.12,4a1.36,1.36,0,0,1,.75,1.76L78,55.19a1.36,1.36,0,0,1-1.76.75l-10.11-4a1.35,1.35,0,0,1-.76-1.76Z"/><path fill="current" d="M70.44,134.19l4.39,1.47a.47.47,0,0,0,.48-.1.48.48,0,0,0,.15-.48l-1.14-4.76A.51.51,0,0,0,74,130a.49.49,0,0,0-.24,0,.47.47,0,0,0-.24.13l-3.24,3.3a.48.48,0,0,0,.19.8Zm3.13-2.78.73,3-2.8-.94Z"/><path fill="current" d="M68.72,140.73,80.22,138A2.45,2.45,0,0,0,82,135L80.2,127.4a2.44,2.44,0,0,0-3-1.81l-11.5,2.75a2.45,2.45,0,0,0-1.81,3l1.82,7.62A2.46,2.46,0,0,0,68.72,140.73Zm-3.83-9.66A1.47,1.47,0,0,1,66,129.3l11.49-2.76a1.48,1.48,0,0,1,1.78,1.08l1.83,7.63A1.48,1.48,0,0,1,80,137l-11.5,2.76a1.47,1.47,0,0,1-1.77-1.09Z"/><path fill="current" d="M19.05,91.85l2.8,3.2a.45.45,0,0,0,.44.14.43.43,0,0,0,.33-.31l1.31-4.31a.49.49,0,0,0-.11-.45.52.52,0,0,0-.19-.11.43.43,0,0,0-.25,0l-4.11,1.12a.43.43,0,0,0-.31.3.45.45,0,0,0,.09.43Zm3.78-.76L22,93.84l-1.79-2Z"/><path fill="current" d="M14.64,96.24l10.42,3.15a2.26,2.26,0,0,0,2.81-1.51L30,91a2.26,2.26,0,0,0-1.51-2.81L18,85a2.25,2.25,0,0,0-2.81,1.5l-2.08,6.91A2.25,2.25,0,0,0,14.64,96.24Zm1.45-9.45a1.35,1.35,0,0,1,1.68-.91L28.19,89a1.35,1.35,0,0,1,.9,1.69L27,97.62a1.36,1.36,0,0,1-1.69.91L14.9,95.38a1.36,1.36,0,0,1-.9-1.69Z"/><path fill="current" d="M129.21,8.6l3.83.26a.4.4,0,0,0,.37-.19.4.4,0,0,0,0-.41L131.5,4.67a.4.4,0,0,0-.35-.22.46.46,0,0,0-.2,0,.41.41,0,0,0-.16.16L128.88,8a.4.4,0,0,0,.33.61Zm1.92-2.9L132.36,8l-2.45-.16Z"/><path fill="current" d="M129.2,14.22l8.66-4.64a2,2,0,0,0,.84-2.76l-3.08-5.75a2,2,0,0,0-2.76-.83l-8.67,4.65a2,2,0,0,0-.83,2.75l3.08,5.75A2,2,0,0,0,129.2,14.22Zm-5.12-7a1.22,1.22,0,0,1,.5-1.66L133.24,1a1.23,1.23,0,0,1,1.66.5L138,7.21a1.22,1.22,0,0,1-.5,1.65l-8.67,4.64a1.21,1.21,0,0,1-1.65-.5Z"/><path fill="current" d="M122,93.48l4.47.3a.48.48,0,0,0,.45-.7l-2.24-4.19a.48.48,0,0,0-.65-.19.45.45,0,0,0-.18.18l-2.23,3.89a.47.47,0,0,0,.38.71Zm2.25-3.38,1.43,2.67-2.86-.19Z"/><path fill="current" d="M122,100l10.1-5.41a2.38,2.38,0,0,0,1-3.22l-3.59-6.7a2.38,2.38,0,0,0-3.21-1l-10.1,5.42a2.36,2.36,0,0,0-1,3.21l3.59,6.7A2.37,2.37,0,0,0,122,100Zm-6-8.12a1.43,1.43,0,0,1,.59-1.93l10.1-5.41a1.43,1.43,0,0,1,1.93.58l3.59,6.7a1.43,1.43,0,0,1-.59,1.93l-10.1,5.41a1.43,1.43,0,0,1-1.93-.58Z"/><path fill="current" d="M80.58,9.13a.56.56,0,0,0-1,.52l.81,1.54-2-.67a.61.61,0,0,0-.44,0,5.22,5.22,0,0,1-2,.63,4.8,4.8,0,0,1-5.36-4,5,5,0,0,1,9.85-1,4.42,4.42,0,0,1,0,.64.55.55,0,0,0,.52.58.56.56,0,0,0,.58-.53,7.09,7.09,0,0,0,0-.8,5.37,5.37,0,0,0-2.17-3.77,6.26,6.26,0,0,0-4.4-1.21,6.32,6.32,0,0,0-4.09,2,5.39,5.39,0,0,0-1.42,3.65,4.47,4.47,0,0,0-1.71,3.9A4.34,4.34,0,0,0,68.8,13.2l-.61,2.07a.56.56,0,0,0,.19.59.55.55,0,0,0,.39.12.57.57,0,0,0,.22-.07l2.22-1.25a5.33,5.33,0,0,0,1.87.15h0a5.34,5.34,0,0,0,2.52-1,4.8,4.8,0,0,0,1.51-1.79,5.91,5.91,0,0,0,1.11-.42l3.08,1a.46.46,0,0,0,.23,0,.56.56,0,0,0,.37-.19.58.58,0,0,0,.07-.62ZM73,13.71h0a4,4,0,0,1-1.64-.17.57.57,0,0,0-.44,0l-1.23.7L70,13.21a.58.58,0,0,0-.15-.56,3.17,3.17,0,0,1-1-2,3.28,3.28,0,0,1,.79-2.45A5.5,5.5,0,0,0,71.52,11a6.14,6.14,0,0,0,4.17,1.31A4.06,4.06,0,0,1,73,13.71Z"/><circle fill="current" cx="75.44" cy="6.75" r="0.55"/><circle fill="current" cx="77.64" cy="6.54" r="0.55"/><circle fill="current" cx="73.24" cy="6.96" r="0.55"/><path fill="current" d="M80.58,93.3a.56.56,0,0,0-1,.51l.81,1.54-2-.66a.56.56,0,0,0-.44,0,5.37,5.37,0,0,1-2,.62,4.79,4.79,0,0,1-5.36-4,5,5,0,0,1,9.85-.94,4.33,4.33,0,0,1,0,.63.54.54,0,0,0,.52.58.55.55,0,0,0,.58-.52,7.06,7.06,0,0,0,0-.8,5.39,5.39,0,0,0-2.17-3.78,6.43,6.43,0,0,0-8.49.82A5.39,5.39,0,0,0,69.42,91a4.47,4.47,0,0,0-1.71,3.9,4.34,4.34,0,0,0,1.09,2.47l-.61,2.06a.55.55,0,0,0,.19.59.47.47,0,0,0,.39.12.44.44,0,0,0,.22-.07l2.22-1.24a5.33,5.33,0,0,0,1.87.15h0a5.14,5.14,0,0,0,2.52-1,4.7,4.7,0,0,0,1.51-1.78,5.94,5.94,0,0,0,1.11-.43l3.08,1a.61.61,0,0,0,.23,0,.57.57,0,0,0,.37-.2.56.56,0,0,0,.07-.61ZM73,97.88h0a4.31,4.31,0,0,1-1.64-.17.57.57,0,0,0-.44,0l-1.23.69L70,97.37a.56.56,0,0,0-.15-.55,3.19,3.19,0,0,1-1-2,3.24,3.24,0,0,1,.79-2.44,5.54,5.54,0,0,0,1.91,2.82,6.25,6.25,0,0,0,4.17,1.31A4.1,4.1,0,0,1,73,97.88Z"/><circle fill="current" cx="75.44" cy="90.92" r="0.55"/><circle fill="current" cx="77.64" cy="90.71" r="0.55"/><circle fill="current" cx="73.24" cy="91.13" r="0.55"/><path fill="current" d="M130.92,52a.55.55,0,0,0-.6-.5.56.56,0,0,0-.5.6l.16,1.73-1.61-1.38a.56.56,0,0,0-.42-.13,5.32,5.32,0,0,1-2.13-.2,4.79,4.79,0,0,1-3.44-5.73,5,5,0,0,1,9.47,2.87,4.08,4.08,0,0,1-.23.6.55.55,0,0,0,1,.47,4.63,4.63,0,0,0,.29-.75,5.3,5.3,0,0,0-.56-4.31,6.42,6.42,0,0,0-8.16-2.48,5.38,5.38,0,0,0-2.71,2.83,4.47,4.47,0,0,0-3.06,3,4.27,4.27,0,0,0,.07,2.69l-1.35,1.68a.56.56,0,0,0-.06.62.54.54,0,0,0,.33.26.55.55,0,0,0,.22,0l2.53-.31a5.17,5.17,0,0,0,1.67.85h0a5.23,5.23,0,0,0,2.69.08,4.86,4.86,0,0,0,2.08-1.07,6.74,6.74,0,0,0,1.19,0l2.46,2.12a.78.78,0,0,0,.2.11.54.54,0,0,0,.41,0,.55.55,0,0,0,.3-.54Zm-8.77,1.34h0a4.09,4.09,0,0,1-1.45-.79.54.54,0,0,0-.42-.12l-1.41.17.7-.87a.56.56,0,0,0,.08-.57,3.25,3.25,0,0,1-.15-2.25,3.28,3.28,0,0,1,1.66-2,5.57,5.57,0,0,0,.7,3.33,6.17,6.17,0,0,0,3.36,2.8A4.06,4.06,0,0,1,122.15,53.32Z"/><circle fill="current" cx="127.08" cy="47.82" r="0.55"/><circle fill="current" cx="129.2" cy="48.47" r="0.55"/><circle fill="current" cx="124.97" cy="47.18" r="0.55"/><path fill="current" d="M130.92,137.44a.54.54,0,0,0-.6-.5.55.55,0,0,0-.5.6l.16,1.73-1.61-1.38a.52.52,0,0,0-.42-.13,5.32,5.32,0,0,1-2.13-.2,4.79,4.79,0,0,1-3.44-5.73,5,5,0,0,1,9.47,2.87,4,4,0,0,1-.23.59.55.55,0,1,0,1,.48,5,5,0,0,0,.29-.75,5.33,5.33,0,0,0-.56-4.32,6.43,6.43,0,0,0-8.16-2.47,5.34,5.34,0,0,0-2.71,2.83,4.48,4.48,0,0,0-3.06,3,4.3,4.3,0,0,0,.07,2.7l-1.35,1.68a.55.55,0,0,0-.06.61.54.54,0,0,0,.33.26.42.42,0,0,0,.22,0l2.53-.3a5.38,5.38,0,0,0,1.67.85h0a5.23,5.23,0,0,0,2.69.08,4.77,4.77,0,0,0,2.08-1.08,5.9,5.9,0,0,0,1.19,0l2.46,2.11a.56.56,0,0,0,.2.11.54.54,0,0,0,.41,0,.55.55,0,0,0,.3-.54Zm-8.77,1.34h0a4.07,4.07,0,0,1-1.45-.78.54.54,0,0,0-.42-.13l-1.41.17.7-.87a.54.54,0,0,0,.08-.56,3.27,3.27,0,0,1-.15-2.26,3.31,3.31,0,0,1,1.66-2,5.59,5.59,0,0,0,.7,3.34,6.21,6.21,0,0,0,3.36,2.8A4.15,4.15,0,0,1,122.15,138.78Z"/><circle fill="current" cx="127.08" cy="133.28" r="0.55"/><circle fill="current" cx="129.2" cy="133.92" r="0.55"/><circle fill="current" cx="124.97" cy="132.64" r="0.55"/><path fill="current" d="M28.07,48.82a.55.55,0,1,0-.89.65l1,1.4-2.08-.34a.6.6,0,0,0-.43.11,5.42,5.42,0,0,1-1.93.94,4.8,4.8,0,0,1-5.92-3.1,4.74,4.74,0,0,1,3.67-5.58A4.74,4.74,0,0,1,27.44,46c0,.18.08.41.11.62a.54.54,0,0,0,.61.49.55.55,0,0,0,.49-.6,6.17,6.17,0,0,0-.14-.79,5.34,5.34,0,0,0-2.73-3.39,6.42,6.42,0,0,0-8.26,2.14,5.34,5.34,0,0,0-.83,3.82,4.43,4.43,0,0,0-1.07,4.12,4.24,4.24,0,0,0,1.46,2.27l-.28,2.14a.55.55,0,0,0,.28.55.53.53,0,0,0,.41.06.75.75,0,0,0,.2-.1l2-1.58a5.39,5.39,0,0,0,1.87-.15h0a5.23,5.23,0,0,0,2.34-1.34,4.74,4.74,0,0,0,1.21-2,6.59,6.59,0,0,0,1-.6l3.2.52a.59.59,0,0,0,.23,0,.51.51,0,0,0,.33-.25.53.53,0,0,0,0-.61Zm-6.79,5.71h0a4.18,4.18,0,0,1-1.65.08.54.54,0,0,0-.42.12l-1.11.87.14-1.1A.55.55,0,0,0,18,54a3.2,3.2,0,0,1-1.3-1.84,3.31,3.31,0,0,1,.4-2.54,5.52,5.52,0,0,0,2.33,2.48,6.15,6.15,0,0,0,4.32.64A4,4,0,0,1,21.28,54.53Z"/><circle fill="current" cx="22.62" cy="47.27" r="0.55"/><circle fill="current" cx="24.77" cy="46.71" r="0.55"/><circle fill="current" cx="20.48" cy="47.82" r="0.55"/><path fill="current" d="M28.07,134.11a.55.55,0,0,0-.89.66l1,1.4-2.08-.34a.55.55,0,0,0-.43.1,5.26,5.26,0,0,1-1.93.94,4.51,4.51,0,1,1-2.25-8.68,4.75,4.75,0,0,1,5.92,3.1c0,.19.08.42.11.63a.55.55,0,0,0,.61.49.56.56,0,0,0,.49-.61,6.17,6.17,0,0,0-.14-.79,5.36,5.36,0,0,0-2.73-3.39,6.42,6.42,0,0,0-8.26,2.14,5.38,5.38,0,0,0-.83,3.83,4.42,4.42,0,0,0-1.07,4.12A4.28,4.28,0,0,0,17.08,140l-.28,2.13a.55.55,0,0,0,.28.56.53.53,0,0,0,.41.05.54.54,0,0,0,.2-.1l2-1.58a5.15,5.15,0,0,0,1.87-.14l0,0a5.12,5.12,0,0,0,2.34-1.33,4.77,4.77,0,0,0,1.21-2,5.32,5.32,0,0,0,1-.6l3.2.53a.87.87,0,0,0,.23,0,.59.59,0,0,0,.33-.25.54.54,0,0,0,0-.62Zm-6.79,5.72h0a4.18,4.18,0,0,1-1.65.09.53.53,0,0,0-.42.11l-1.11.88.14-1.11a.54.54,0,0,0-.23-.52,3.19,3.19,0,0,1-1.3-1.85,3.31,3.31,0,0,1,.4-2.54,5.59,5.59,0,0,0,2.33,2.49,6.21,6.21,0,0,0,4.32.64A4.12,4.12,0,0,1,21.28,139.83Z"/><circle fill="current" cx="22.62" cy="132.56" r="0.55"/><circle fill="current" cx="24.77" cy="132.01" r="0.55"/><circle fill="current" cx="20.48" cy="133.12" r="0.55"/><path fill="current" d="M50.88,10.15a.43.43,0,0,1,0-.74L52,8.76l1.13-.64a.42.42,0,0,1,.63.36v2.59a.42.42,0,0,1-.63.37L52,10.79Z"/><path fill="current" d="M93.46,38.52a.42.42,0,0,1,0-.73l1.12-.65,1.13-.65a.42.42,0,0,1,.63.37v2.59a.42.42,0,0,1-.63.37l-1.13-.65Z"/><path fill="current" d="M50.42,74.83a.42.42,0,0,1-.52-.52l.33-1.25.34-1.25a.42.42,0,0,1,.71-.19l.91.92.92.91a.42.42,0,0,1-.19.71l-1.25.34Z"/><path fill="current" d="M3,66.29a.43.43,0,0,1-.52-.52l.34-1.25.33-1.26a.43.43,0,0,1,.71-.19l.92.92.92.92a.43.43,0,0,1-.19.71L4.27,66Z"/><path fill="current" d="M141.27,117.08a.34.34,0,0,1-.41-.41l.27-1,.26-1a.34.34,0,0,1,.56-.15l.73.73.72.72a.34.34,0,0,1-.15.56l-1,.27Z"/><path fill="current" d="M51.21,131.22a.34.34,0,0,1,0-.59l.91-.53.91-.52a.34.34,0,0,1,.52.29V132a.35.35,0,0,1-.52.3l-.91-.53Z"/><circle fill="current" cx="244.51" cy="29.71" r="1.25"/><circle fill="current" cx="205.22" cy="137.99" r="1.25"/><circle fill="current" cx="206.57" cy="70.41" r="1.25"/><path fill="current" d="M207.82,110a2.18,2.18,0,1,1,2.18-2.17A2.17,2.17,0,0,1,207.82,110Zm0-3.54a1.37,1.37,0,1,0,1.37,1.37A1.36,1.36,0,0,0,207.82,106.42Z"/><path fill="current" d="M250.41,42.18A2.18,2.18,0,1,1,252.59,40,2.19,2.19,0,0,1,250.41,42.18Zm0-3.54A1.37,1.37,0,1,0,251.78,40,1.37,1.37,0,0,0,250.41,38.64Z"/><rect fill="current" x="207.27" y="13.76" width="4.97" height="1.13" rx="0.57" transform="translate(55.79 -128.84) rotate(39.01)"/><rect fill="current" x="197.22" y="77.3" width="4.97" height="1.13" rx="0.57" transform="translate(93.54 -108.34) rotate(39.01)"/><rect fill="current" x="204.08" y="118.53" width="4.97" height="1.13" rx="0.57" transform="translate(429.14 33.55) rotate(129.01)"/><rect fill="current" x="212.47" y="3.82" width="4.54" height="1.04" rx="0.52" transform="translate(59.83 153.12) rotate(-45)"/><rect fill="current" x="212.47" y="3.82" width="4.54" height="1.04" rx="0.52" transform="translate(65.96 -150.58) rotate(45)"/><rect fill="current" x="243.49" y="79.24" width="4.54" height="1.04" rx="0.52" transform="translate(105 -136.92) rotate(39.01)"/><rect fill="current" x="243.49" y="79.24" width="4.54" height="1.04" rx="0.52" transform="translate(462.44 -61.02) rotate(129.01)"/><rect fill="current" x="153.31" y="98.89" width="4.54" height="1.04" rx="0.52"/><rect fill="current" x="153.31" y="98.89" width="4.54" height="1.04" rx="0.52" transform="translate(254.99 -56.17) rotate(90)"/><path fill="current" d="M176,48.75l2.51,3.43a.46.46,0,0,0,.42.18.47.47,0,0,0,.37-.28L181,47.89a.46.46,0,0,0-.07-.45.49.49,0,0,0-.18-.14.43.43,0,0,0-.25,0L176.3,48a.48.48,0,0,0-.34.28.44.44,0,0,0,.06.44Zm3.83-.44L178.78,51l-1.61-2.2Z"/><path fill="current" d="M171.25,52.75l10.11,4a2.26,2.26,0,0,0,2.93-1.26l2.67-6.7a2.26,2.26,0,0,0-1.25-2.94l-10.12-4a2.26,2.26,0,0,0-2.93,1.26L170,49.81A2.27,2.27,0,0,0,171.25,52.75Zm2.25-9.31a1.35,1.35,0,0,1,1.76-.75l10.11,4a1.37,1.37,0,0,1,.76,1.76l-2.68,6.71a1.35,1.35,0,0,1-1.76.75l-10.11-4a1.37,1.37,0,0,1-.76-1.76Z"/><path fill="current" d="M175.94,134.19l4.38,1.47a.49.49,0,0,0,.49-.1.5.5,0,0,0,.14-.48l-1.14-4.76a.48.48,0,0,0-.59-.36.47.47,0,0,0-.24.13l-3.24,3.3a.49.49,0,0,0-.12.45.47.47,0,0,0,.32.35Zm3.12-2.78.73,3-2.8-.94Z"/><path fill="current" d="M174.21,140.73l11.5-2.76a2.45,2.45,0,0,0,1.81-2.95l-1.83-7.62a2.44,2.44,0,0,0-2.95-1.81l-11.5,2.75a2.46,2.46,0,0,0-1.81,3l1.83,7.62A2.45,2.45,0,0,0,174.21,140.73Zm-3.83-9.66a1.47,1.47,0,0,1,1.09-1.77l11.5-2.76a1.47,1.47,0,0,1,1.77,1.08l1.83,7.63a1.47,1.47,0,0,1-1.09,1.77L174,139.78a1.47,1.47,0,0,1-1.77-1.09Z"/><path fill="current" d="M234.7,8.6l3.83.26a.4.4,0,0,0,.37-.19.4.4,0,0,0,0-.41L237,4.67a.42.42,0,0,0-.36-.22.46.46,0,0,0-.2,0,.49.49,0,0,0-.16.16L234.37,8a.41.41,0,0,0,0,.4.4.4,0,0,0,.33.21Zm1.92-2.9L237.85,8l-2.45-.16Z"/><path fill="current" d="M234.69,14.22l8.67-4.64a2,2,0,0,0,.83-2.76l-3.08-5.75a2,2,0,0,0-2.76-.83l-8.66,4.65a2,2,0,0,0-.84,2.75l3.08,5.75A2,2,0,0,0,234.69,14.22Zm-5.12-7a1.23,1.23,0,0,1,.5-1.66L238.74,1a1.22,1.22,0,0,1,1.65.5l3.08,5.75a1.22,1.22,0,0,1-.5,1.65L234.3,13.5a1.21,1.21,0,0,1-1.65-.5Z"/><path fill="current" d="M227.46,93.48l4.47.3a.48.48,0,0,0,.43-.22.44.44,0,0,0,0-.48l-2.24-4.19a.47.47,0,0,0-.41-.25.5.5,0,0,0-.42.24l-2.23,3.89a.47.47,0,0,0,0,.46.47.47,0,0,0,.38.25Zm2.25-3.38,1.43,2.67-2.86-.19Z"/><path fill="current" d="M227.45,100l10.1-5.41a2.39,2.39,0,0,0,1-3.22l-3.59-6.7a2.39,2.39,0,0,0-3.22-1l-10.1,5.42a2.37,2.37,0,0,0-1,3.21l3.59,6.7A2.38,2.38,0,0,0,227.45,100Zm-6-8.12a1.43,1.43,0,0,1,.58-1.93l10.1-5.41a1.43,1.43,0,0,1,1.93.58l3.59,6.7a1.43,1.43,0,0,1-.58,1.93L227,99.19a1.42,1.42,0,0,1-1.92-.58Z"/><path fill="current" d="M186.07,9.13a.55.55,0,0,0-1,.52l.8,1.54-2-.67a.61.61,0,0,0-.44,0,5.22,5.22,0,0,1-2.05.63,4.8,4.8,0,0,1-5.36-4,5,5,0,0,1,9.86-1,4.48,4.48,0,0,1,0,.64.55.55,0,1,0,1.1.05,5.33,5.33,0,0,0,0-.8,5.35,5.35,0,0,0-2.16-3.77,6.42,6.42,0,0,0-8.49.81,5.36,5.36,0,0,0-1.43,3.65,4.47,4.47,0,0,0-1.7,3.9,4.28,4.28,0,0,0,1.09,2.47l-.62,2.07a.56.56,0,0,0,.19.59.58.58,0,0,0,.4.12.52.52,0,0,0,.21-.07l2.22-1.25a5.35,5.35,0,0,0,1.87.15h0a5.42,5.42,0,0,0,2.53-1,4.77,4.77,0,0,0,1.5-1.79,6.28,6.28,0,0,0,1.12-.42l3.08,1a.42.42,0,0,0,.22,0,.54.54,0,0,0,.37-.19.56.56,0,0,0,.07-.62Zm-7.6,4.58h0a4,4,0,0,1-1.64-.17.54.54,0,0,0-.43,0l-1.24.7.32-1.07a.56.56,0,0,0-.15-.56,3.22,3.22,0,0,1-1-2,3.28,3.28,0,0,1,.79-2.45A5.62,5.62,0,0,0,177,11a6.14,6.14,0,0,0,4.17,1.31A4.06,4.06,0,0,1,178.47,13.71Z"/><circle fill="current" cx="180.94" cy="6.75" r="0.55"/><circle fill="current" cx="183.14" cy="6.54" r="0.55"/><circle fill="current" cx="178.73" cy="6.96" r="0.55"/><path fill="current" d="M186.07,93.3a.55.55,0,0,0-1,.51l.8,1.54-2-.66a.57.57,0,0,0-.44,0,5.37,5.37,0,0,1-2.05.62,4.79,4.79,0,0,1-5.36-4,5,5,0,0,1,9.86-.94,4.37,4.37,0,0,1,0,.63.54.54,0,0,0,.52.58.54.54,0,0,0,.58-.52,5.31,5.31,0,0,0,0-.8,5.37,5.37,0,0,0-2.16-3.78,6.43,6.43,0,0,0-8.49.82A5.36,5.36,0,0,0,174.91,91a4.47,4.47,0,0,0-1.7,3.9,4.28,4.28,0,0,0,1.09,2.47l-.62,2.06a.55.55,0,0,0,.19.59.49.49,0,0,0,.4.12.4.4,0,0,0,.21-.07l2.22-1.24a5.35,5.35,0,0,0,1.87.15h0a5.21,5.21,0,0,0,2.53-1,4.67,4.67,0,0,0,1.5-1.78,6.32,6.32,0,0,0,1.12-.43l3.08,1a.56.56,0,0,0,.22,0,.56.56,0,0,0,.44-.81Zm-7.6,4.58h0a4.31,4.31,0,0,1-1.64-.17.54.54,0,0,0-.43,0l-1.24.69.32-1.07a.54.54,0,0,0-.15-.55,3.22,3.22,0,0,1-.2-4.47A5.67,5.67,0,0,0,177,95.17a6.25,6.25,0,0,0,4.17,1.31A4.1,4.1,0,0,1,178.47,97.88Z"/><circle fill="current" cx="180.94" cy="90.92" r="0.55"/><circle fill="current" cx="183.14" cy="90.71" r="0.55"/><circle fill="current" cx="178.73" cy="91.13" r="0.55"/><path fill="current" d="M236.42,52a.56.56,0,0,0-.6-.5.56.56,0,0,0-.51.6l.16,1.73-1.6-1.38a.59.59,0,0,0-.42-.13,5.35,5.35,0,0,1-2.14-.2,4.8,4.8,0,0,1-3.44-5.73,5,5,0,0,1,9.48,2.87,4.17,4.17,0,0,1-.24.6.55.55,0,0,0,1,.47,4.63,4.63,0,0,0,.29-.75,5.3,5.3,0,0,0-.56-4.31,6.42,6.42,0,0,0-8.16-2.48A5.42,5.42,0,0,0,227,45.6a4.47,4.47,0,0,0-3.06,3,4.34,4.34,0,0,0,.07,2.69l-1.35,1.68a.56.56,0,0,0,0,.62.52.52,0,0,0,.32.26.58.58,0,0,0,.23,0l2.52-.31a5.17,5.17,0,0,0,1.67.85h0a5.27,5.27,0,0,0,2.7.08,4.88,4.88,0,0,0,2.07-1.07,6.78,6.78,0,0,0,1.19,0l2.46,2.12a.78.78,0,0,0,.2.11.56.56,0,0,0,.42,0,.55.55,0,0,0,.29-.54Zm-8.78,1.34h0a4.18,4.18,0,0,1-1.45-.79.54.54,0,0,0-.42-.12l-1.4.17.69-.87a.56.56,0,0,0,.08-.57,3.25,3.25,0,0,1-.15-2.25,3.32,3.32,0,0,1,1.66-2,5.65,5.65,0,0,0,.7,3.33,6.17,6.17,0,0,0,3.36,2.8A4,4,0,0,1,227.64,53.32Z"/><circle fill="current" cx="232.58" cy="47.82" r="0.55"/><circle fill="current" cx="234.69" cy="48.47" r="0.55"/><circle fill="current" cx="230.46" cy="47.18" r="0.55"/><path fill="current" d="M236.42,137.44a.56.56,0,0,0-1.11.1l.16,1.73-1.6-1.38a.54.54,0,0,0-.42-.13,5.35,5.35,0,0,1-2.14-.2,4.8,4.8,0,0,1-3.44-5.73,5,5,0,0,1,9.48,2.87,4.07,4.07,0,0,1-.24.59.55.55,0,0,0,1,.48,5,5,0,0,0,.29-.75,5.33,5.33,0,0,0-.56-4.32,6.43,6.43,0,0,0-8.16-2.47,5.38,5.38,0,0,0-2.71,2.83,4.48,4.48,0,0,0-3.06,3,4.37,4.37,0,0,0,.07,2.7l-1.35,1.68a.54.54,0,0,0,0,.61.52.52,0,0,0,.32.26.44.44,0,0,0,.23,0l2.52-.3a5.38,5.38,0,0,0,1.67.85h0a5.27,5.27,0,0,0,2.7.08,4.79,4.79,0,0,0,2.07-1.08,5.94,5.94,0,0,0,1.19,0l2.46,2.11a.56.56,0,0,0,.2.11.56.56,0,0,0,.42,0,.54.54,0,0,0,.29-.54Zm-8.78,1.34h0a4.16,4.16,0,0,1-1.45-.78.54.54,0,0,0-.42-.13l-1.4.17.69-.87a.54.54,0,0,0,.08-.56,3.27,3.27,0,0,1-.15-2.26,3.35,3.35,0,0,1,1.66-2,5.66,5.66,0,0,0,.7,3.34,6.21,6.21,0,0,0,3.36,2.8A4.14,4.14,0,0,1,227.64,138.78Z"/><circle fill="current" cx="232.58" cy="133.28" r="0.55"/><circle fill="current" cx="234.69" cy="133.92" r="0.55"/><circle fill="current" cx="230.46" cy="132.64" r="0.55"/><path fill="current" d="M156.38,10.15a.42.42,0,0,1,0-.74l1.12-.65,1.12-.64a.42.42,0,0,1,.64.36v2.59a.43.43,0,0,1-.64.37l-1.12-.65Z"/><path fill="current" d="M199,38.52a.42.42,0,0,1,0-.73l1.12-.65,1.12-.65a.43.43,0,0,1,.64.37v2.59a.43.43,0,0,1-.64.37l-1.12-.65Z"/><path fill="current" d="M151.77,66a.42.42,0,0,1-.52-.52l.34-1.25.33-1.25a.42.42,0,0,1,.71-.19l.92.91.91.92a.42.42,0,0,1-.19.71l-1.25.33Z"/><path fill="current" d="M246.77,117.08a.33.33,0,0,1-.41-.41l.26-1,.26-1a.34.34,0,0,1,.57-.15l.72.73.72.72a.34.34,0,0,1-.15.56l-1,.27Z"/><path fill="current" d="M156.7,131.22a.34.34,0,0,1,0-.59l.91-.53.91-.52a.34.34,0,0,1,.52.29V132a.35.35,0,0,1-.52.3l-.91-.53Z"/></g></svg>
