<svg
   id="bcfc2e24-0c8b-44d2-87d1-122aadd9481f"
   data-name="Layer 1"
   viewBox="0 0 100 99.51"
   version="1.1"
   xmlns="http://www.w3.org/2000/svg">

  <path
     d="M39.34,0a39.09,39.09,0,1,0,25,69.13L93.69,98.47a3.55,3.55,0,0,0,5-5L69.38,64.11A39.1,39.1,0,0,0,39.34,0Zm0,7.11a32,32,0,1,1-32,32,31.93,31.93,0,0,1,32-32Z"
fill="current"     id="path26" />
  <path
     d="M39.34,21.19a3.57,3.57,0,0,0-3.56,3.56V35.47H25.05a3.54,3.54,0,0,0-2.51,1,3.56,3.56,0,0,0,2.51,6.07H35.78V53.31a3.56,3.56,0,0,0,7.11,0V42.58H53.62a3.56,3.56,0,0,0,2.52-6.07,3.55,3.55,0,0,0-2.52-1H42.89V24.75a3.55,3.55,0,0,0-3.55-3.56Z"
fill="current"     id="path28" />
</svg>
